<?xml version="1.0" standalone="no"?>
<!DOCTYPE svg PUBLIC "-//W3C//DTD SVG 1.1//EN" "http://www.w3.org/Graphics/SVG/1.1/DTD/svg11.dtd">
<svg xmlns="http://www.w3.org/2000/svg"><metadata>This SVG WebFont was generated by YouWorkForThem.
Copyright Â© 2019 by Connary Fagen. All rights reserved.</metadata><defs><font horiz-adv-x="1044" id="ywftsvg"><font-face ascent="1638" bbox="-889 -578 2015 1907" cap-height="1434" descent="-410" font-family="" font-stretch="normal" font-weight="300" panose-1="0 0 4 0 0 0 0 0 0 0" underline-position="0" underline-thickness="0" unicode-range="U+0020-FB01" units-per-em="2048" x-height="1024"/><missing-glyph d="M840 1638v-2048h-650v2048h650zM682 1501h-338v-67h133v-76h-135v-68h340v68h-135v76h135v67zM547 1237h-205v-213h340v70h-135v143zM477 1167v-73h-67v73h67zM682 969h-340v-68h135v-76h-135v-67h205v143h135v68zM682 846h-68v-135h-272v-70h340v205zM682 596h-205v-115 h70v47h67v-96h-204v164h-68v-231h340v231zM682 242h-340v-232h340v232zM614 174v-96h-204v96h204zM682 -37h-340v-67h143l-143 -97v-67h340v67h-209l143 97h66v67z" horiz-adv-x="1024"/><glyph d="M61 0q70 59 70 205v719h-82q53 330 142.5 467t181.5 137q53 0 82.5 -39t29.5 -103q0 -68 -33.5 -113.5t-91.5 -45.5q-39 0 -75.5 23.5t-61.5 23.5q-33 0 -51 -31t-18 -65q0 -86 120.5 -129t303.5 -43q190 0 290 38v-839q0 -127 60 -205h-340q59 78 59 205v430 q0 158 -61.5 244t-147.5 86q-88 0 -88 -105v-655q0 -154 80 -205h-369zM690 1231q-23 12 -48.5 58t-25.5 93q0 59 38 99.5t96 40.5q53 0 88.5 -35t35.5 -90q0 -80 -67.5 -123t-116.5 -43z" glyph-name="uniFB01" horiz-adv-x="974" unicode="fi"/><glyph d="M840 1638v-2048h-650v2048h650zM682 1501h-338v-67h133v-76h-135v-68h340v68h-135v76h135v67zM547 1237h-205v-213h340v70h-135v143zM477 1167v-73h-67v73h67zM682 969h-340v-68h135v-76h-135v-67h205v143h135v68zM682 846h-68v-135h-272v-70h340v205zM682 596h-205v-115 h70v47h67v-96h-204v164h-68v-231h340v231zM682 242h-340v-232h340v232zM614 174v-96h-204v96h204zM682 -37h-340v-67h143l-143 -97v-67h340v67h-209l143 97h66v67z" glyph-name=".notdef" horiz-adv-x="1024"/><glyph glyph-name="glyph1" horiz-adv-x="0"/><glyph glyph-name="glyph2" horiz-adv-x="681"/><glyph glyph-name="space" horiz-adv-x="286" unicode=" "/><glyph d="M203 449q-20 217 -86 481t-66 336q0 98 48 143t105.5 45t105.5 -45t48 -143q0 -72 -66.5 -336t-86.5 -481h-2zM204.5 -20q-63.5 0 -107.5 50t-44 121.5t44 122t107.5 50.5t107.5 -50.5t44 -122t-44 -121.5t-107.5 -50z" glyph-name="exclam" horiz-adv-x="409" unicode="!"/><glyph d="M172 831l-141 603h284zM518 831l-141 603h285z" glyph-name="quotedbl" horiz-adv-x="692" unicode="&quot;"/><glyph d="M1149 975h-285l-119 -514h295v-49h-307l-143 -615h-47l143 615h-344l-143 -615h-47l143 615h-264v49h276l119 514h-287v49h299l144 614h47l-144 -614h344l144 614h47l-143 -614h272v-49zM698 461l119 514h-344l-119 -514h344z" glyph-name="numbersign" horiz-adv-x="1179" unicode="#"/><glyph d="M500 940q6 -8 27.5 -35.5t30.5 -40t27.5 -38t27 -40t21.5 -38t18 -42t10.5 -41t5.5 -42.5q0 -106 -90.5 -170t-227.5 -64q-23 0 -67 4l-25 -147h-51l26 155q-86 20 -149 58l-10 362q74 -197 178 -311l49 287l-98 127q-98 135 -119 194q-14 45 -14 90q0 109 74.5 177.5 t203.5 68.5q23 0 64 -4l24 147h51l-26 -157q78 -16 123 -56l37 -342q-133 246 -177 299l-45 -268zM354 1133l2 -5l45 258q-37 27 -65.5 27t-49 -21.5t-20.5 -64.5q0 -71 88 -194zM389 430q31 0 53.5 20.5t22.5 61.5q0 70 -119 225l-4 4l-47 -272q51 -39 94 -39z" glyph-name="dollar" horiz-adv-x="706" unicode="$"/><glyph d="M254 942q-92 0 -148.5 75t-56.5 181.5t56.5 181t148.5 74.5t148.5 -74.5t56.5 -181t-56.5 -181.5t-148.5 -75zM199 307l551 1127h41l-551 -1127h-41zM254 979q78 0 122 63.5t44 155.5t-44 155.5t-122 63.5t-122 -63.5t-44 -155.5t44 -155.5t122 -63.5zM735 287 q-92 0 -148.5 74.5t-56.5 181t56.5 181.5t148.5 75t148.5 -75t56.5 -181.5t-56.5 -181t-148.5 -74.5zM735 324q78 0 122 63.5t44 155.5t-44 155.5t-122 63.5t-122 -63.5t-44 -155.5t44 -155.5t122 -63.5z" glyph-name="percent" horiz-adv-x="989" unicode="%"/><glyph d="M1126 879q-61 -10 -110 -40t-83 -65t-66.5 -97.5t-51 -109.5t-47.5 -129l20 -43q143 -295 281 -295q31 0 57 17q0 -47 -62.5 -92t-137.5 -45q-145 0 -275 196q-37 -86 -112.5 -141t-169.5 -55q-137 0 -228.5 109.5t-91.5 277.5q0 82 22.5 147.5t72 117.5t90 81.5 t110.5 74.5l-49 103q-84 170 -84 278q0 131 86 205t201 74q96 0 168.5 -59.5t72.5 -184.5q0 -104 -51 -173.5t-143 -133.5l211 -434q37 156 22.5 274.5t-96.5 141.5v6h444v-6zM514 1411q-41 0 -68.5 -34t-27.5 -95q0 -123 100 -330l12 -26q102 106 103 254q0 92 -31 161.5 t-88 69.5zM528 170q63 0 103 39q-33 57 -53 98l-220 453q-106 -100 -106 -228q0 -135 79.5 -248.5t196.5 -113.5z" glyph-name="ampersand" horiz-adv-x="1136" unicode="&amp;"/><glyph d="M172 831l-141 603h284z" glyph-name="quotesingle" horiz-adv-x="346" unicode="'"/><glyph d="M543 -246q-262 0 -372 179.5t-110 562.5v442q0 383 111 562t371 179v-12q-154 -27 -197 -228.5t-43 -721.5t43 -722t197 -228v-13z" glyph-name="parenleft" horiz-adv-x="542" unicode="("/><glyph d="M0 -246v13q154 27 198 229.5t44 720.5t-44 720.5t-198 229.5v12q260 0 370.5 -179t110.5 -562v-442q0 -383 -108.5 -562.5t-372.5 -179.5z" glyph-name="parenright" horiz-adv-x="542" unicode=")"/><glyph d="M449 1108q-2 4 -25 43t-34 61.5t-23.5 61.5t-12.5 72q0 57 29 82.5t66 25.5q35 0 64.5 -25.5t29.5 -82.5q0 -33 -12.5 -72t-23.5 -61.5t-33.5 -61.5t-24.5 -43zM236 1038q-66 0 -109 28t-43 77q0 39 27.5 66.5t72.5 27.5q43 0 96.5 -35t75 -56.5t68.5 -72.5 q-10 -2 -48 -12t-72.5 -16.5t-67.5 -6.5zM659 1038q-31 0 -66.5 6.5t-72.5 16.5t-47 12q102 111 158 139q43 25 82 25q45 0 71.5 -28.5t26.5 -65.5q0 -51 -44.5 -78t-107.5 -27zM274 741q-37 0 -65.5 29t-28.5 64q0 27 13.5 51t31 41.5t50 36t52 28.5t57.5 26.5t48 20.5 q-2 -8 -7 -51t-10 -69.5t-20.5 -64.5t-36.5 -62q-41 -50 -84 -50zM623 741q-45 0 -86 50q-20 27 -35 63.5t-20 63t-10 69.5t-7 51q10 -4 43 -18t49 -22.5t45 -24t46.5 -28.5t34.5 -30.5t25.5 -38t8.5 -42.5q0 -35 -28.5 -64t-65.5 -29z" glyph-name="asterisk" horiz-adv-x="897" unicode="*"/><glyph d="M522 643v-43h-213v-213h-43v213h-215v43h215v215h43v-215h213z" glyph-name="plus" horiz-adv-x="573" unicode="+"/><glyph d="M192.5 324q63.5 0 107.5 -53.5t44 -135.5q0 -106 -68.5 -207.5t-173.5 -154.5l-4 6q70 84 74 203q-55 8 -93 57t-38 113q0 72 44 122t107.5 50z" glyph-name="comma" horiz-adv-x="385" unicode=","/><glyph d="M51 600v43h471v-43h-471z" glyph-name="hyphen" horiz-adv-x="573" unicode="-"/><glyph d="M192.5 -20q-63.5 0 -107.5 50t-44 121.5t44 122t107.5 50.5t107.5 -50.5t44 -122t-44 -121.5t-107.5 -50z" glyph-name="period" horiz-adv-x="385" unicode="."/><glyph d="M0 -203l430 1841h41l-430 -1841h-41z" glyph-name="slash" horiz-adv-x="471" unicode="/"/><glyph d="M485 -20q-193 0 -303 211.5t-110 525t110.5 525.5t302.5 212q195 0 305.5 -212t110.5 -525.5t-110.5 -525t-305.5 -211.5zM547 29q51 0 84 95t33 265q0 174 -26 400.5t-84 421t-130 194.5q-51 0 -84 -95.5t-33 -265.5q0 -174 25.5 -400t84 -420.5t130.5 -194.5z" glyph-name="zero" horiz-adv-x="972" unicode="0"/><glyph d="M10 0q78 20 110 70.5t32 154.5v707q0 125 -18.5 155.5t-123.5 67.5v10l369 330v-1270q0 -104 31.5 -154.5t109.5 -70.5h-510z" glyph-name="one" horiz-adv-x="530" unicode="1"/><glyph d="M301 238q217 0 334 32.5t174 145.5l-129 -416h-672q268 352 385 584.5t117 423.5q0 113 -46 192.5t-149 79.5q-143 0 -227 -223h-8q18 162 111.5 279.5t263.5 117.5q111 0 184.5 -58.5t100 -134t26.5 -159.5q0 -104 -46 -218t-140.5 -238t-164 -204t-188.5 -204h74z" glyph-name="two" horiz-adv-x="837" unicode="2"/><glyph d="M442 866q131 27 228.5 -55t97.5 -256q0 -225 -145.5 -400t-350.5 -175q-160 0 -264 83q121 -25 220.5 4t158.5 95.5t92 149.5t33 167q0 80 -30.5 129t-76 61.5t-83 11.5t-66.5 -11l332 526h-58q-205 0 -306 -27.5t-163 -126.5l119 392h629z" glyph-name="three" horiz-adv-x="858" unicode="3"/><glyph d="M684 225q0 -104 32 -154.5t109 -70.5h-510q78 20 110 70.5t32 154.5v60h-449l676 1208v-1102h176l-39 -106h-137v-60zM133 391h324v590z" glyph-name="four" horiz-adv-x="878" unicode="4"/><glyph d="M463 891q123 0 200.5 -97.5t77.5 -265.5q0 -221 -127 -384.5t-325 -163.5q-74 0 -145.5 21.5t-104.5 45.5q137 -27 243.5 27.5t158 155t51.5 219t-56.5 189.5t-165.5 71q-92 0 -182 -58l41 783h141q391 0 461 43l-100 -281h-457l-24 -432q180 127 313 127z" glyph-name="five" horiz-adv-x="790" unicode="5"/><glyph d="M467 -20q-172 0 -284.5 171t-112.5 474q0 352 147.5 590.5t362.5 238.5q74 0 122 -20q-100 0 -173.5 -60.5t-115.5 -168t-61.5 -236.5t-19.5 -283q0 -100 7 -201.5t22.5 -212t48 -179t79.5 -68.5q57 0 85 93t28 228q0 92 -12 171t-41 146.5t-83 98.5t-128 12 q78 147 227 148q129 0 204 -133.5t75 -309.5q0 -221 -104.5 -360t-272.5 -139z" glyph-name="six" horiz-adv-x="913" unicode="6"/><glyph d="M846 1434q-168 -156 -336 -601.5t-143 -832.5h-265q-12 195 45.5 400.5t149.5 363.5t178 268.5t152 163.5h-148q-195 0 -297 -27.5t-164 -126.5l119 392h709z" glyph-name="seven" horiz-adv-x="811" unicode="7"/><glyph d="M547 834q12 -14 48 -58.5t48 -60t41 -52t39 -54t31.5 -50.5t29 -54.5t18.5 -51t14 -57t3 -56.5q0 -158 -111.5 -259t-285.5 -101q-168 0 -270.5 97t-102.5 253q0 135 73 230t183 145q-104 131 -152.5 220t-48.5 195q0 150 93.5 242t240.5 92q137 0 220 -83t83 -216 q1 -202 -194 -321zM444 1405q-45 0 -78.5 -40t-33.5 -108q0 -154 192 -397q61 106 62 236q0 117 -36 213t-106 96zM428 29q55 0 96 51t41 145q0 88 -47 179.5t-164 238.5q-20 25 -30 39q-82 -121 -82 -287q0 -141 53 -253.5t133 -112.5z" glyph-name="eight" horiz-adv-x="868" unicode="8"/><glyph d="M336 -20q-74 0 -123 20q100 0 174 60.5t116 168t61.5 237.5t19.5 284q0 100 -6.5 200.5t-21.5 211t-49 179t-81 68.5q-57 0 -85 -93t-28 -229q0 -92 12.5 -170.5t41 -146.5t83 -98.5t128.5 -12.5q-78 -147 -228 -147q-131 0 -205.5 133t-74.5 309q0 219 105.5 359.5 t273.5 140.5q172 0 284.5 -171t112.5 -474q0 -352 -146.5 -590.5t-363.5 -238.5z" glyph-name="nine" horiz-adv-x="915" unicode="9"/><glyph d="M192.5 639q-63.5 0 -107.5 50t-44 122t44 122t107.5 50t107.5 -50t44 -122t-44 -122t-107.5 -50zM192.5 -20q-63.5 0 -107.5 50t-44 121.5t44 122t107.5 50.5t107.5 -50.5t44 -122t-44 -121.5t-107.5 -50z" glyph-name="colon" horiz-adv-x="385" unicode=":"/><glyph d="M192.5 639q-63.5 0 -107.5 50t-44 122t44 122t107.5 50t107.5 -50t44 -122t-44 -122t-107.5 -50zM192.5 324q63.5 0 107.5 -53.5t44 -135.5q0 -106 -68.5 -207.5t-173.5 -154.5l-4 6q70 84 74 203q-55 8 -93 57t-38 113q0 72 44 122t107.5 50z" glyph-name="semicolon" horiz-adv-x="385" unicode=";"/><glyph d="M82 438l-29 31l152 152l-154 155l31 29l180 -184z" glyph-name="less" horiz-adv-x="313" unicode="&lt;"/><glyph d="M51 723v43h471v-43h-471zM51 477v43h471v-43h-471z" glyph-name="equal" horiz-adv-x="573" unicode="="/><glyph d="M231 438l-180 183l180 184l31 -29l-153 -155l151 -152z" glyph-name="greater" horiz-adv-x="313" unicode=">"/><glyph d="M389 438q-63 61 -63 155.5t35.5 182.5t73.5 214t38 224q0 90 -25.5 135.5t-56.5 45.5q-23 0 -45 -22.5t-44.5 -73t-39 -92.5t-39 -119.5t-32 -113.5t-29.5 -114h-6l-84 455q156 139 334 139q137 0 219 -87t82 -220q0 -82 -34 -155.5t-83 -129t-97.5 -108t-82 -112.5 t-33.5 -122q0 -37 16 -82h-4zM358.5 -20q-63.5 0 -107.5 50t-44 121.5t44 122t107.5 50.5t107.5 -50.5t44 -122t-44 -121.5t-107.5 -50z" glyph-name="question" horiz-adv-x="747" unicode="?"/><glyph d="M684 -260q-113 0 -218.5 44t-195.5 131t-145 239.5t-55 349.5q0 203 58 361.5t156.5 253.5t220.5 143.5t259 48.5q82 0 155.5 -17.5t147.5 -62.5t127 -117t86 -188.5t33 -268.5q0 -285 -95.5 -423t-216.5 -138q-223 0 -223 279v454q0 82 -43 82q-53 0 -93 -99t-40 -259 q0 -125 27.5 -217t89.5 -92q55 0 55 55q0 -96 -40 -149.5t-109 -53.5q-102 0 -164 101.5t-62 273.5q0 231 106.5 358t262.5 127q135 0 197 -24l-2 -539q0 -236 94 -235q43 0 61.5 64.5t18.5 248.5q0 176 -19.5 306t-65.5 241.5t-137.5 170t-224.5 58.5q-434 0 -434 -641 q0 -180 35 -317t91 -221t137 -137.5t162 -73t173 -19.5q125 0 193 31l6 -6q-53 -45 -150.5 -84t-218.5 -39z" glyph-name="at" horiz-adv-x="1382" unicode="@"/><glyph d="M1036 0h-391q25 27 28 73t-11.5 111.5t-49.5 182.5h-362q-43 -160 -44 -245t38 -122h-236q104 96 189 377l323 1089l344 -1089q96 -301 172 -377zM598 416l-174 588l-162 -588h336z" glyph-name="A" unicode="A"/><glyph d="M623 788q129 -10 229 -122.5t100 -286.5q0 -188 -116.5 -283.5t-274.5 -95.5h-502q39 29 55.5 52.5t28 100t11.5 224.5v680q0 147 -11.5 224t-28 100.5t-55.5 52.5h484q59 0 114.5 -17.5t105.5 -54.5t80.5 -102.5t30.5 -153.5q0 -150 -79.5 -229t-171.5 -89zM489 1391 q-53 0 -72.5 -65.5t-19.5 -268.5v-252q248 6 248 291q0 119 -39 207t-117 88zM541 43q88 0 121.5 70.5t33.5 205.5q0 436 -299 449v-391q0 -197 37 -265.5t107 -68.5z" glyph-name="B" horiz-adv-x="991" unicode="B"/><glyph d="M565 -20q-199 0 -347 216t-148 545q0 135 29.5 258t89 227.5t160 166t229.5 61.5q125 0 237 -35q16 -129 57 -526h-6q-104 240 -200.5 372t-167.5 132q-29 0 -60.5 -21.5t-63.5 -67.5t-53.5 -134.5t-21.5 -204.5q0 -182 45 -355.5t149.5 -301.5t249.5 -128q106 0 166 70 q-23 -94 -119 -184t-225 -90z" glyph-name="C" horiz-adv-x="968" unicode="C"/><glyph d="M59 0q39 29 55.5 52.5t28 100t11.5 224.5v680q0 147 -11.5 224t-28 100.5t-55.5 52.5h433q219 0 363 -179.5t144 -525.5q0 -348 -145 -538.5t-373 -190.5h-422zM545 55q115 0 160 129t45 377q0 358 -68 587.5t-190 229.5q-55 0 -75 -53t-20 -207v-786q1 -277 148 -277z " glyph-name="D" horiz-adv-x="1067" unicode="D"/><glyph d="M901 506h6l-61 -506h-787q39 29 55.5 52.5t28 100t11.5 224.5v680q0 147 -11.5 224t-28 100.5t-55.5 52.5h779l34 -519h-6q-92 258 -172 361.5t-168 103.5q-78 0 -103.5 -72.5t-25.5 -248.5v-291q0 -35 25 -35q119 0 195.5 56.5t111.5 195.5h6v-549h-6 q-35 139 -111.5 195.5t-195.5 56.5q-25 0 -25 -35v-278q0 -178 27 -250t108 -72q205 0 369 453z" glyph-name="E" horiz-adv-x="946" unicode="E"/><glyph d="M524 1380q-78 0 -102.5 -72.5t-24.5 -248.5v-309q0 -35 25 -35q119 0 195.5 59.5t111.5 202.5h6v-571h-6q-35 145 -111.5 204.5t-195.5 59.5q-25 0 -25 -35v-258q0 -147 11.5 -224t28 -100.5t55.5 -52.5h-433q39 29 55.5 52.5t28 100t11.5 224.5v680q0 147 -11.5 224 t-28 100.5t-55.5 52.5h775l34 -519h-6q-90 258 -171 361.5t-167 103.5z" glyph-name="F" horiz-adv-x="917" unicode="F"/><glyph d="M563 -20q-193 0 -343 214t-150 537q0 188 52 347t173 267.5t293 108.5q119 0 231 -35q6 -51 60 -526h-7q-100 240 -200.5 371t-177.5 131q-31 0 -61 -19.5t-59.5 -64.5t-48 -133t-18.5 -209q0 -201 48 -419t127 -365.5t159 -147.5q31 0 40 21.5t9 72.5v127 q0 213 -21.5 307t-80.5 154h403q-53 -59 -73.5 -154.5t-20.5 -306.5v-262h-4q-43 43 -102 43q-37 0 -103 -29.5t-125 -29.5z" glyph-name="G" horiz-adv-x="1030" unicode="G"/><glyph d="M946 377q0 -147 11.5 -224t27.5 -100.5t55 -52.5h-432q39 29 55.5 52.5t27.5 100t11 224.5v256q0 43 -13 52t-50 9h-178q-25 0 -36 -2t-19.5 -16t-8.5 -43v-256q0 -147 11.5 -224t28 -100.5t55.5 -52.5h-433q39 29 55.5 52.5t28 100t11.5 224.5v680q0 147 -11.5 224 t-28 100.5t-55.5 52.5h433q-39 -29 -55.5 -52.5t-28 -100.5t-11.5 -224v-244q0 -43 13.5 -52t50.5 -9h178q25 0 36 2t19 16t8 43v244q0 147 -11 224t-27.5 100.5t-55.5 52.5h432q-39 -29 -55 -52.5t-27.5 -100.5t-11.5 -224v-680z" glyph-name="H" horiz-adv-x="1097" unicode="H"/><glyph d="M59 0q39 29 55.5 52.5t28 100t11.5 224.5v680q0 147 -11.5 224t-28 100.5t-55.5 52.5h433q-39 -29 -55.5 -52.5t-28 -100.5t-11.5 -224v-680q0 -147 11.5 -224t28 -100.5t55.5 -52.5h-433z" glyph-name="I" horiz-adv-x="548" unicode="I"/><glyph d="M115 -100q-68 0 -133 32v7q195 33 194 340v778q0 147 -11 224t-27.5 100.5t-55.5 52.5h432q-39 -29 -55.5 -52.5t-27.5 -100.5t-11 -224v-729q0 -205 -84 -316.5t-221 -111.5z" glyph-name="J" horiz-adv-x="540" unicode="J"/><glyph d="M397 377q0 -147 11.5 -224t28 -100.5t55.5 -52.5h-433q39 29 55.5 52.5t28 100t11.5 224.5v680q0 147 -11.5 224t-28 100.5t-55.5 52.5h433q-39 -29 -55.5 -52.5t-28 -100.5t-11.5 -224v-680zM764 492q109 -250 161 -347.5t97 -144.5h-346q-14 94 -144 410l-126 307 q172 256 243.5 392t71.5 214q0 74 -64 111h336q-82 -39 -170 -153t-243 -368z" glyph-name="K" horiz-adv-x="1019" unicode="K"/><glyph d="M59 0q39 29 55.5 52.5t28 100t11.5 224.5v680q0 147 -11.5 224t-28 100.5t-55.5 52.5h433q-39 -29 -55.5 -52.5t-28 -100.5t-11.5 -224v-682q0 -176 26 -249t105 -73q88 0 166 118t189 398h6l-80 -569h-750z" glyph-name="L" horiz-adv-x="917" unicode="L"/><glyph d="M1182 377q0 -147 11 -224t27.5 -100.5t55.5 -52.5h-432q39 29 55 52.5t27.5 100t11.5 224.5v760l-342 -1157l-381 1159v-762q0 -152 14.5 -225.5t39 -99t85.5 -52.5h-325q55 27 77.5 52.5t37 100t14.5 224.5v680q0 147 -17.5 224t-41 100.5t-81.5 52.5h373l297 -942 l279 942h309q-39 -29 -55.5 -52.5t-27.5 -100.5t-11 -224v-680z" glyph-name="M" horiz-adv-x="1333" unicode="M"/><glyph d="M1030 1434q-55 -27 -77.5 -52.5t-37 -100.5t-14.5 -224v-516q0 -268 17 -582h-11l-692 1171v-753q0 -152 14.5 -225.5t39 -99t85.5 -52.5h-325q55 27 77.5 52.5t37 100t14.5 224.5v680q0 147 -17.5 224t-41 100.5t-81.5 52.5h357q2 -20 13 -48t20.5 -44.5t33 -58.5 t31.5 -58l371 -668v500q0 150 -14.5 224.5t-37 100t-77.5 52.5h315z" glyph-name="N" horiz-adv-x="1046" unicode="N"/><glyph d="M532.5 -20q-151.5 0 -259 111.5t-155.5 274t-48 351.5q0 197 48 359.5t155.5 270t259 107.5t259 -111.5t155.5 -274.5t48 -351q0 -197 -48 -359.5t-155.5 -270t-259 -107.5zM623 37q131 0 131 342q0 199 -33 424t-108.5 408.5t-172.5 183.5q-131 0 -131 -338 q0 -199 34 -426.5t109 -410.5t171 -183z" glyph-name="O" horiz-adv-x="1064" unicode="O"/><glyph d="M59 0q39 29 55.5 52.5t28 100t11.5 224.5v680q0 147 -11.5 224t-28 100.5t-55.5 52.5h484q66 0 128 -20.5t120.5 -67t94.5 -134.5t36 -208q0 -424 -467 -424v16q217 18 217 395q0 170 -43 279.5t-131 109.5q-55 0 -78 -65.5t-23 -257.5v-680q0 -147 11.5 -224t28 -100.5 t55.5 -52.5h-433z" glyph-name="P" horiz-adv-x="960" unicode="P"/><glyph d="M940 14q27 -20 27 -73q0 -80 -64.5 -142.5t-175.5 -62.5q-72 0 -143.5 33.5t-119.5 74.5t-106.5 79t-102.5 45t-110 -25q119 76 232 71q-150 74 -228.5 270.5t-78.5 432.5q0 197 48 359.5t155.5 270t259 107.5t259 -111.5t155.5 -274.5t48 -351q0 -195 -47 -356.5 t-153.5 -270t-253.5 -110.5q166 -49 243 -50q152 0 152 84h4zM440 1395q-131 0 -131 -338q0 -199 34 -426.5t108.5 -410.5t171.5 -183q131 0 131 342q0 199 -33 424t-109 408.5t-172 183.5zM145 -57l-2 -2z" glyph-name="Q" horiz-adv-x="1064" unicode="Q"/><glyph d="M700 733q203 -516 265 -624q53 -92 96 -107q-41 -12 -111 -12q-102 0 -181 72.5t-124 175t-79 206t-64.5 176t-63.5 72.5v6q143 0 176 34t33 147q0 502 -164 501q-47 0 -66.5 -65.5t-19.5 -257.5v-680q0 -147 11.5 -224t28 -100.5t55.5 -52.5h-433q39 29 55.5 52.5 t28 100t11.5 224.5v680q0 147 -11.5 224t-28 100.5t-55.5 52.5h494q147 0 245.5 -102.5t98.5 -266.5q0 -234 -197 -332z" glyph-name="R" unicode="R"/><glyph d="M377 -20q-174 0 -273 61l-26 498h4q78 -225 169 -368.5t179 -143.5q45 0 79 33.5t34 101.5q0 106 -107 268l-192 299q-8 10 -36 54t-35 54.5t-27.5 46.5t-26.5 49t-19.5 43t-17.5 49t-8 45t-4 52q0 152 101 242t261 90q119 0 250 -68l29 -483h-4q-23 47 -69 146.5 t-69.5 143.5t-58.5 103.5t-63.5 83t-59.5 23.5q-39 0 -68.5 -34t-29.5 -97q0 -109 102 -271l166 -260q14 -23 58 -86t64.5 -98t49.5 -89t41 -102.5t12 -95.5q-2 -137 -112.5 -213.5t-292.5 -76.5z" glyph-name="S" horiz-adv-x="819" unicode="S"/><glyph d="M223 0q49 27 69.5 52.5t33 99t12.5 225.5v858q0 100 -6 127t-35 27q-33 0 -71 -73t-128 -290q-33 -80 -53 -127h-6l18 541q102 -6 281 -6h242q178 0 280 6l19 -541h-7q-162 381 -190 430q-35 59 -61 60q-29 0 -35 -27t-6 -127v-858q0 -152 12 -225.5t32.5 -99t69.5 -52.5 h-471z" glyph-name="T" horiz-adv-x="917" unicode="T"/><glyph d="M541 -20q-190 0 -288.5 122.5t-98.5 311.5v643q0 147 -11.5 224t-28 100.5t-55.5 52.5h422q-35 -29 -48 -52.5t-24.5 -100.5t-11.5 -224v-643q0 -164 59.5 -261.5t168.5 -97.5q111 0 165 96.5t54 262.5v643q0 147 -12.5 224t-30 100.5t-56.5 52.5h254q-39 -29 -56 -52.5 t-29.5 -100.5t-12.5 -224v-643q0 -193 -86 -313.5t-274 -120.5z" glyph-name="U" horiz-adv-x="1015" unicode="U"/><glyph d="M801 1434h235q-106 -98 -188 -377l-324 -1090l-344 1090q-96 303 -172 377h391q-25 -27 -27.5 -74t11.5 -113.5t51 -189.5l187 -627l172 627q45 168 46 254t-38 123z" glyph-name="V" unicode="V"/><glyph d="M1270 1434h235q-109 -100 -188 -377l-313 -1090l-252 824l-238 -824l-334 1090q-92 299 -172 377h391q-25 -27 -26.5 -76t11.5 -110.5t50 -190.5l176 -621l64 256q27 111 22.5 202t-45.5 218h2q-80 246 -155 322h391q-25 -27 -28 -75t11.5 -112.5t51.5 -189.5l176 -625 l162 625q45 168 46 253t-38 124z" glyph-name="W" horiz-adv-x="1513" unicode="W"/><glyph d="M561 0q37 41 24.5 109.5t-85.5 267.5l-90 241l-99 -241q-80 -193 -92 -266.5t27 -110.5h-238q68 45 127.5 125t126.5 252l123 309l-139 371q-96 262 -228 377h412q-29 -27 -16.5 -111t80.5 -266l65 -174l70 174q74 184 83 266t-34 111h237q-59 -41 -113 -121t-124 -256 l-94 -242l164 -438q63 -176 115 -255t110 -122h-412z" glyph-name="X" horiz-adv-x="980" unicode="X"/><glyph d="M737 1434h248q-137 -104 -237 -377l-144 -389v-291q0 -147 11.5 -224t27.5 -100.5t55 -52.5h-432q39 29 55.5 52.5t27.5 100t11 224.5v270l-141 410q-96 279 -211 377h406q-18 -18 -23.5 -43t5 -77t19.5 -88t38 -128q8 -27 12 -41l100 -330l115 330q37 111 49 148.5 t26.5 97t8 85.5t-26.5 46z" glyph-name="Y" horiz-adv-x="993" unicode="Y"/><glyph d="M291 35q242 20 341 115.5t206 398.5l-74 -549h-735l549 1397q-156 -16 -243 -63.5t-145.5 -142.5t-128.5 -296l74 539h713z" glyph-name="Z" horiz-adv-x="886" unicode="Z"/><glyph d="M61 -246v1925h467v-12l-225 -29v-1843l225 -28v-13h-467z" glyph-name="bracketleft" horiz-adv-x="528" unicode="["/><glyph d="M430 -203l-430 1841h41l430 -1841h-41z" glyph-name="backslash" horiz-adv-x="471" unicode="\"/><glyph d="M467 -246h-467v13l225 28v1843l-225 29v12h467v-1925z" glyph-name="bracketright" horiz-adv-x="528" unicode="]"/><glyph d="M23 836l-3 2l283 616l285 -616l-2 -2l-283 319z" glyph-name="asciicircum" horiz-adv-x="608" unicode="^"/><glyph d="M51 -63v43h819v-43h-819z" glyph-name="underscore" horiz-adv-x="921" unicode="_"/><glyph d="M213 -20q-74 0 -124 52t-50 148q0 72 31.5 134.5t80 104.5t103.5 89t103.5 90t80 108.5t31.5 141.5q0 158 -76 158q-35 0 -91 -71t-124.5 -179.5t-77.5 -120.5h-4l35 360q123 49 289 49q143 0 206.5 -68.5t63.5 -217.5v-574q0 -90 82 -90q20 0 35 10q0 -43 -57.5 -83.5 t-120.5 -40.5q-70 0 -115 53t-45 135q0 16 -8 16q-12 0 -32.5 -31.5t-44.5 -70.5t-70 -70.5t-101 -31.5zM354 160q39 0 77 53t38 123v223q0 45 -14 45q-47 0 -119 -92t-72 -213q0 -72 26.5 -105.5t63.5 -33.5z" glyph-name="a" horiz-adv-x="825" unicode="a"/><glyph d="M383 -20q-195 0 -334 34q59 41 60 250v965q0 127 -60 205l279 63v-682q27 76 93 152.5t154 76.5q115 0 195 -135t80 -342q0 -260 -119 -423.5t-348 -163.5zM442 20q80 0 135.5 114t55.5 284q0 74 -10.5 144.5t-32 139t-63.5 110.5t-99 42q-47 0 -73.5 -26.5t-26.5 -55.5 v-524q-1 -228 114 -228z" glyph-name="b" horiz-adv-x="909" unicode="b"/><glyph d="M428 -20q-164 0 -271.5 157.5t-107.5 388.5q0 223 105.5 370.5t287.5 147.5q98 0 179 -32q29 -188 41 -394h-3q-98 203 -157.5 293t-112.5 90q-31 0 -59.5 -24.5t-53 -96t-24.5 -182.5q0 -131 32.5 -247.5t111.5 -202.5t194 -86q82 0 117 55q-23 -94 -95.5 -165.5 t-183.5 -71.5z" glyph-name="c" horiz-adv-x="755" unicode="c"/><glyph d="M860 10l-278 -39v238q-27 -76 -93.5 -152.5t-154.5 -76.5q-115 0 -195 134t-80 343q0 252 119 419.5t311 167.5h93v185q0 127 -60 205l279 63v-1282q0 -127 59 -205zM481 172q47 0 74 23.5t27 52.5v579q0 176 -109 177q-86 0 -141.5 -110t-55.5 -271q0 -80 10.5 -154 t32 -143.5t63.5 -111.5t99 -42z" glyph-name="d" horiz-adv-x="909" unicode="d"/><glyph d="M446 -20q-168 0 -282.5 156.5t-114.5 383.5q0 223 107.5 373.5t271.5 150.5q125 0 203 -86t74 -229q-4 -90 -33 -131h-340q-39 0 -54.5 -12.5t-15.5 -46.5q0 -131 94.5 -254t249.5 -123q90 0 127 55q-23 -94 -97.5 -165.5t-189.5 -71.5zM326 645q164 0 163 207 q0 147 -88 147q-59 0 -106 -63.5t-47 -192.5q0 -55 15.5 -76.5t62.5 -21.5z" glyph-name="e" horiz-adv-x="790" unicode="e"/><glyph d="M45 0q70 59 70 205v719h-76q88 330 187.5 467t191.5 137q53 0 83.5 -38t30.5 -101q0 -70 -35.5 -118t-93.5 -48q-37 0 -83 25.5t-70 25.5q-37 0 -60.5 -32t-23.5 -79q0 -139 237 -139q68 0 121 4l-26 -106l-164 2v-719q0 -154 80 -205h-369z" glyph-name="f" horiz-adv-x="583" unicode="f"/><glyph d="M354 223q268 -143 350 -212.5t82 -135.5q0 -104 -115.5 -173t-277.5 -69q-145 0 -254.5 48.5t-109.5 142.5q0 49 31.5 85t68.5 52t67.5 30.5t27.5 31t-50 43.5q-92 49 -92 100q0 27 23.5 52.5t99.5 76.5q45 33 45 47q0 18 -45 45q-147 94 -148 295q0 162 95.5 252 t232.5 90h412l-152 -137q70 -82 70 -209q0 -158 -93.5 -248t-230.5 -90q-59 0 -82.5 -8t-23.5 -33q-1 -39 69 -76zM340 977q-70 0 -70 -152q0 -139 45 -288.5t119 -149.5t74 148q0 139 -48 290.5t-120 151.5zM426 -330q135 0 135 86q0 98 -252 236q-39 23 -70.5 -11 t-31.5 -98q0 -86 62.5 -149.5t156.5 -63.5z" glyph-name="g" horiz-adv-x="825" unicode="g"/><glyph d="M545 0q59 78 59 205v502q0 158 -121 157q-20 0 -41.5 -4t-39 -11t-30 -12.5t-26.5 -13.5t-18 -10v-608q0 -127 59 -205h-338q59 78 60 205v1024q0 127 -60 205l279 65v-647q172 193 321 192q174 0 174 -268v-571q0 -127 60 -205h-338z" glyph-name="h" horiz-adv-x="942" unicode="h"/><glyph d="M154 1227q-27 18 -51.5 64t-24.5 95q0 57 38 98.5t95 41.5q53 0 89 -35t36 -90q0 -53 -40 -94t-76.5 -57.5t-65.5 -22.5zM49 0q59 78 60 205v577q0 127 -60 205l279 57v-839q0 -127 59 -205h-338z" glyph-name="i" horiz-adv-x="436" unicode="i"/><glyph d="M164 1227q-27 18 -51.5 64t-24.5 95q0 57 38 98.5t95 41.5q53 0 89 -35t36 -90q0 -53 -40 -94t-76.5 -57.5t-65.5 -22.5zM59 -371q-84 0 -102 29v4q162 37 162 328v792q0 127 -60 205l279 57v-993q0 -193 -74 -307.5t-205 -114.5z" glyph-name="j" horiz-adv-x="456" unicode="j"/><glyph d="M328 1499v-1294q0 -127 59 -205h-338q59 78 60 205v1024q0 127 -60 205zM895 0h-301l-266 528l90 113q82 102 106.5 147.5t24.5 79.5q0 55 -32 99.5t-73 54.5v2h420v-2q-82 -43 -115.5 -64.5t-86 -71.5t-121.5 -141l-52 -65l218 -428q106 -207 188 -252z" glyph-name="k" horiz-adv-x="882" unicode="k"/><glyph d="M49 0q59 78 60 205v1024q0 127 -60 205l279 65v-1294q0 -127 59 -205h-338z" glyph-name="l" horiz-adv-x="436" unicode="l"/><glyph d="M1038 0q59 78 60 205v502q0 166 -123 165q-74 0 -154 -55q2 -12 2 -41v-571q0 -127 60 -205h-338q59 78 59 205v502q0 166 -125 165q-84 0 -151 -55v-612q0 -127 59 -205h-338q59 78 60 205v577q0 127 -60 205l279 57v-190q180 190 321 190q150 0 170 -194 q172 195 324 194q176 0 176 -268v-571q0 -127 59 -205h-340z" glyph-name="m" horiz-adv-x="1437" unicode="m"/><glyph d="M545 0q59 78 59 205v502q0 166 -125 165q-84 0 -151 -55v-612q0 -127 59 -205h-338q59 78 60 205v577q0 127 -60 205l279 57v-190q180 190 321 190q174 0 174 -268v-571q0 -127 60 -205h-338z" glyph-name="n" horiz-adv-x="942" unicode="n"/><glyph d="M424 -20q-174 0 -274.5 152.5t-100.5 379.5q0 231 107.5 381.5t281.5 150.5q172 0 272.5 -152.5t100.5 -379.5q0 -231 -106.5 -381.5t-280.5 -150.5zM504 35q92 0 92 227q0 129 -24.5 290t-82 299t-131.5 138q-94 0 -94 -227q0 -129 24.5 -290t82 -299t133.5 -138z" glyph-name="o" horiz-adv-x="860" unicode="o"/><glyph d="M575 1044q115 0 195 -134t80 -343q0 -252 -119 -419.5t-311 -167.5h-92v-97q0 -127 59 -205l-338 -59q59 78 60 205v954q0 127 -60 205l279 61v-229q27 76 93 152.5t154 76.5zM436 20q86 0 141.5 110t55.5 271q0 80 -10.5 154t-32 143.5t-63.5 112.5t-99 43 q-47 0 -73.5 -24.5t-26.5 -53.5v-536q-1 -220 108 -220z" glyph-name="p" horiz-adv-x="909" unicode="p"/><glyph d="M582 -371v580q-27 -76 -93.5 -152.5t-154.5 -76.5q-115 0 -195 135t-80 342q0 258 119 422.5t336 164.5t317 -65q-31 -123 -30 -516v-483q0 -223 59 -302zM481 172q47 0 74 25.5t27 54.5v520q0 231 -115 232q-80 0 -135.5 -113t-55.5 -283q0 -74 10.5 -144.5t32 -139 t63.5 -110.5t99 -42z" glyph-name="q" horiz-adv-x="909" unicode="q"/><glyph d="M555 1044q41 0 65.5 -43t24.5 -108q0 -74 -35 -132.5t-75 -58.5q-20 0 -59.5 17.5t-76.5 17.5q-72 0 -71 -121v-411q0 -127 59 -205h-338q59 78 60 205v577q0 127 -60 205l279 57v-237q0 -31 18 -31q14 0 27 27q76 166 110 205q35 36 72 36z" glyph-name="r" horiz-adv-x="684" unicode="r"/><glyph d="M350 -20q-143 0 -266 69l-10 363q55 -152 144 -272t171 -120q31 0 53.5 20.5t22.5 61.5q0 70 -119 226l-143 186q-98 135 -119 195q-14 45 -14 90q0 109 74.5 177t203.5 68q158 0 236 -69l37 -342q-8 16 -37 69.5t-41.5 76t-38 66.5t-43 64.5t-40 47t-44 37t-41.5 10.5 q-29 0 -49.5 -21.5t-20.5 -64.5q0 -72 88 -195l146 -193q6 -8 27.5 -35.5t30.5 -40t27.5 -38t27 -40t21.5 -38t18 -41.5t10.5 -41t5.5 -43q0 -106 -90.5 -169.5t-227.5 -63.5z" glyph-name="s" horiz-adv-x="706" unicode="s"/><glyph d="M530 104h2q-14 -41 -87.5 -82.5t-137.5 -41.5q-74 0 -122 58t-48 150v721h-119l338 426v-313q104 0 166 6l-30 -119h-136v-676q0 -139 111 -139q26 0 63 10z" glyph-name="t" horiz-adv-x="550" unicode="t"/><glyph d="M883 37l-279 -57v190q-180 -190 -321 -190q-174 0 -174 268v493q0 168 -60 246l279 57v-727q0 -166 125 -165q74 0 151 53v536q0 168 -59 246l278 57v-802q1 -127 60 -205z" glyph-name="u" horiz-adv-x="942" unicode="u"/><glyph d="M590 1024h217q-80 -55 -141 -248l-263 -815h-2l-270 815q-63 195 -143 248h403q-47 -29 -51 -85t29 -163l120 -422l123 422q54 191 -22 248z" glyph-name="v" horiz-adv-x="792" unicode="v"/><glyph d="M1040 1024h217q-74 -49 -139 -248l-272 -815h-2l-217 660l-217 -660h-2l-269 815q-37 109 -69.5 164t-81.5 84h391q-68 -53 -8 -248l125 -418l63 195q39 125 7.5 263t-115.5 208h366q-70 -55 -10 -248l125 -418l131 418q59 189 -23 248z" glyph-name="w" horiz-adv-x="1245" unicode="w"/><glyph d="M401 0q53 35 53.5 83t-44.5 157l-78 182l-27 -78q-39 -109 -53 -153t-23.5 -90t-1 -64.5t30.5 -36.5h-250q45 35 68.5 57.5t75 96t102.5 180.5l61 127l-143 338q-59 139 -156 225h400q-53 -35 -54.5 -85t39.5 -140l74 -176l21 57q49 137 64 192.5t12 91t-31 60.5h252 q-49 -39 -70 -57.5t-74 -93t-104 -183.5l-51 -108l145 -344q66 -152 162 -238h-400z" glyph-name="x" horiz-adv-x="808" unicode="x"/><glyph d="M590 1024h217q-80 -55 -141 -248l-238 -737q-20 -61 -32.5 -97t-42 -101.5t-59.5 -102.5t-74 -67.5t-93 -30.5q-72 0 -94 32v207q68 -23 139 -22q193 0 193 157q0 29 -8.5 69t-16.5 65.5t-29.5 88t-27.5 82.5l-152 457q-63 195 -143 248h403q-47 -29 -51 -85t29 -163 l120 -422l123 422q54 191 -22 248z" glyph-name="y" horiz-adv-x="792" unicode="y"/><glyph d="M301 47q143 0 243.5 73t186.5 277l-69 -397h-623l436 977h-41q-127 0 -203.5 -68.5t-167.5 -281.5l70 397h604z" glyph-name="z" horiz-adv-x="776" unicode="z"/><glyph d="M594 -246q-270 0 -370.5 129t-100.5 469q0 274 -123 365q123 90 123 364q0 342 102.5 470t368.5 128v-12q-152 -27 -196 -167t-44 -552v-463q0 -420 43 -556t197 -162v-13z" glyph-name="braceleft" horiz-adv-x="593" unicode="{"/><glyph d="M205 -408v2251h41v-2251h-41z" glyph-name="bar" horiz-adv-x="450" unicode="|"/><glyph d="M0 -246v13q66 12 106.5 37.5t68.5 70.5t42 132t19.5 194.5t5.5 283.5v463q0 410 -45 551t-197 168v12q268 0 369.5 -128t101.5 -470q0 -274 123 -364q-123 -90 -123 -365q0 -340 -100.5 -469t-370.5 -129z" glyph-name="braceright" horiz-adv-x="593" unicode="}"/><glyph d="M51 463q39 117 112 216t154 99q39 0 137.5 -55t155.5 -55q96 0 146 110h12q-39 -117 -109.5 -216t-152.5 -99q-39 0 -137.5 55t-155.5 55q-100 0 -150 -110h-12z" glyph-name="asciitilde" horiz-adv-x="819" unicode="~"/><glyph d="M204.5 1044q63.5 0 107.5 -50t44 -122q0 -70 -44 -121t-107.5 -51t-107.5 51.5t-44 120.5q0 72 44 122t107.5 50zM203 575h2q20 -215 86.5 -480t66.5 -337q0 -98 -48 -143t-105.5 -45t-105.5 45t-48 143q0 72 66 337t86 480z" glyph-name="exclamdown" horiz-adv-x="409" unicode="¡"/><glyph d="M590 571q82 0 117 56q-23 -94 -95.5 -166t-183.5 -72q-35 0 -66 8l-24 -151h-51l28 166q-121 51 -193.5 194.5t-72.5 329.5q0 223 105.5 370.5t287.5 147.5q31 0 50 -2l24 145h51l-26 -153q41 -6 80 -23q29 -188 41 -393h-3q-90 184 -143 270l-110 -653q80 -74 184 -74z M252 1108q0 -260 110 -414l113 662q-49 55 -86 55q-31 0 -59.5 -24.5t-53 -96t-24.5 -182.5z" glyph-name="cent" horiz-adv-x="755" unicode="¢"/><glyph d="M150 29q178 14 321 48t228 71.5t152 92t95.5 92.5t57.5 87q-129 -446 -164 -443q-166 23 -406 23q-252 0 -432 -23l-2 5q55 27 90 47t75 56t59.5 87t19.5 119q0 66 -33 274h-174v35h168q-39 250 -39 338q0 516 444 516q131 0 230 -35l41 -469h-7q-115 231 -186.5 337 t-138.5 106q-113 0 -113 -346q0 -150 49 -445l322 21l-21 -58h-294q23 -139 22 -186q1 -278 -364 -350z" glyph-name="sterling" horiz-adv-x="1024" unicode="£"/><glyph d="M612 1176q0 -104 -69 -185l73 -71l-24 -25l-74 72q-80 -70 -184 -70q-102 0 -184 68l-74 -74l-25 24l74 74q-70 80 -70 187q0 104 70 184l-72 74l25 24l72 -74q80 70 184 70q106 0 186 -70l74 74l24 -24l-73 -74q67 -82 67 -184zM94 1175.5q0 -100.5 69.5 -171t170 -70.5 t170 70.5t69.5 171t-69.5 171t-170 70.5t-170 -70.5t-69.5 -171z" glyph-name="currency" horiz-adv-x="669" unicode="¤"/><glyph d="M985 1434q-137 -104 -237 -377l-101 -273h293v-34h-305l-21 -58h326v-35h-336v-280q0 -147 11.5 -224t27.5 -100.5t55 -52.5h-432q39 29 55.5 52.5t27.5 100t11 224.5v270l-4 10h-305v35h295l-20 58h-275v34h262l-94 273q-96 279 -211 377h406q-18 -18 -23.5 -43t5 -77 t19.5 -88t38 -128q8 -27 12 -41l100 -330l115 330q37 111 49 148.5t26.5 97t8.5 85t-27 46.5h248z" glyph-name="yen" horiz-adv-x="993" unicode="¥"/><glyph d="M205 819v1024h41v-1024h-41zM205 -408v1024h41v-1024h-41z" glyph-name="brokenbar" horiz-adv-x="450" unicode="¦"/><glyph d="M430 406l76 -95q51 -61 80.5 -104t57.5 -104.5t28 -114.5q0 -106 -94.5 -170t-233.5 -64q-137 0 -268 70v360q49 -133 143 -258t166 -125q31 0 56.5 19.5t25.5 54.5q0 90 -113 236l-141 174q-76 96 -109.5 157.5t-33.5 132.5q0 98 64.5 164t174.5 78l-92 113 q-51 66 -75.5 102.5t-45 87.5t-20.5 101q0 109 78.5 176t207.5 67q72 0 140.5 -21.5t101.5 -47.5v-342q-117 240 -168 303q-51 61 -92 61q-27 0 -47.5 -21.5t-20.5 -58.5q0 -88 95 -204l141 -177q51 -66 80 -105.5t57.5 -102t28.5 -115.5q0 -88 -69.5 -148.5t-178.5 -78.5z M346 772q-78 -6 -78 -80q0 -82 97 -205l28 -36q80 12 80 69q0 92 -115 236z" glyph-name="section" horiz-adv-x="716" unicode="§"/><glyph d="M479 518q-178 0 -293.5 135t-115.5 334q0 197 115.5 332t293.5 135q180 0 296 -135t116 -332q0 -199 -116 -334t-296 -135zM479 553q166 0 269.5 124t103.5 310q0 184 -103.5 308t-269.5 124q-164 0 -267 -124t-103 -308q0 -186 103 -310t267 -124zM489 707 q-94 0 -151 81.5t-57 202.5q0 123 59 201t158 78q57 0 92 -31t43 -59.5t8 -55.5q0 -41 -21.5 -62.5t-54.5 -21.5t-51 23.5t-18 54.5q0 16 5 34.5t10 31t8 24t-2 17.5t-19 6q-39 0 -72 -37t-33 -123q0 -102 49.5 -184t139.5 -82q45 0 63 26q-10 -51 -50 -87.5t-106 -36.5z " glyph-name="copyright" horiz-adv-x="960" unicode="©"/><glyph d="M197 487q-68 0 -113 48.5t-45 134.5q0 76 40 140t98.5 110.5t115.5 93.5t97 113.5t40 148.5q0 141 -70 141q-33 0 -84 -63.5t-112.5 -161.5t-69.5 -111h-2q18 213 31 328q111 45 260 45q131 0 188.5 -62.5t57.5 -199.5v-518q0 -82 76 -82q18 0 30 8q0 -39 -51 -76 t-111 -37q-63 0 -103 48.5t-40 121.5q0 14 -8 15q-12 0 -38 -46t-73.5 -92.5t-113.5 -46.5zM325.5 649q34.5 0 69.5 49.5t35 112.5v201q0 41 -14 41q-43 0 -107.5 -84t-64.5 -193q0 -63 23.5 -95t58 -32zM152 238v43h471v-43h-471z" glyph-name="ordfeminine" horiz-adv-x="753" unicode="ª"/><glyph d="M408 152l-357 385l357 385l2 -2l-164 -383l164 -383zM717 152l-357 385l357 385l2 -2l-164 -383l164 -383z" glyph-name="guillemotleft" horiz-adv-x="770" unicode="«"/><glyph d="M522 643v-256h-43v213h-428v43h471z" glyph-name="logicalnot" horiz-adv-x="573" unicode="¬"/><glyph d="M479 518q-178 0 -293.5 135t-115.5 334q0 197 115.5 332t293.5 135q180 0 296 -135t116 -332q0 -199 -116 -334t-296 -135zM479 553q166 0 268.5 125t102.5 309q0 186 -102.5 309t-268.5 123t-268 -122.5t-102 -309.5q0 -184 103 -309t267 -125zM647 713q-84 0 -115 96 l-47 137q-6 14 -18 15q-18 0 -18 -19v-84q0 -78 8 -101.5t32 -37.5h-186q14 10 20.5 19.5t11.5 37t5 82.5v256q0 55 -5 84t-11.5 37t-20.5 20h201q61 0 102 -36.5t41 -96.5q0 -94 -96 -143q25 -4 39 -22.5t35 -71.5l20 -51q37 -90 57 -115q-26 -6 -55 -6zM471 999 q25 0 45.5 32t20.5 89q0 104 -50 105q-39 0 -38 -111v-94q-1 -21 22 -21z" glyph-name="registered" horiz-adv-x="960" unicode="®"/><glyph d="M286.5 901q-106.5 0 -176 80t-69.5 196.5t69.5 196.5t176 80t176 -80t69.5 -196.5t-69.5 -196.5t-176 -80zM287 936q92 0 149.5 69.5t57.5 172t-57.5 172t-149.5 69.5t-149.5 -69.5t-57.5 -172t57.5 -172t149.5 -69.5z" glyph-name="degree" horiz-adv-x="573" unicode="°"/><glyph d="M248 643h151v-43h-151v-172h-43v172h-154v43h154v174h43v-174zM70 184v43h313v-43h-313z" glyph-name="plusminus" horiz-adv-x="450" unicode="±"/><glyph d="M496 -395q59 78 59 205v641q-209 0 -347 131t-138 362.5t138 360.5t347 129h438q-203 -53 -202 -369v-1182q0 -127 59 -205zM934 -395q59 78 59 205v1624h439q-203 -53 -203 -369v-1182q0 -127 59 -205z" glyph-name="paragraph" horiz-adv-x="1400" unicode="¶"/><glyph d="M192.5 369q-63.5 0 -107.5 51t-44 123q0 70 44 121t107.5 51t107.5 -51.5t44 -120.5q0 -72 -44 -123t-107.5 -51z" glyph-name="periodcentered" horiz-adv-x="385" unicode="·"/><glyph d="M387 487q-156 0 -247 138.5t-91 345.5q0 211 97.5 347t254.5 136q156 0 247 -138t91 -345q0 -211 -97 -347.5t-255 -136.5zM461 537q84 0 84 206q0 119 -21.5 264.5t-74 270.5t-121.5 125q-84 0 -84 -205q0 -119 21.5 -264.5t73.5 -271t122 -125.5zM160 238v43h471v-43 h-471z" glyph-name="ordmasculine" horiz-adv-x="788" unicode="º"/><glyph d="M53 152l-2 2l164 383l-164 383l2 2l357 -385zM362 152l-2 2l164 383l-164 383l2 2l357 -385z" glyph-name="guillemotright" horiz-adv-x="770" unicode="»"/><glyph d="M419.5 1044q63.5 0 107.5 -50t44 -122q0 -70 -44 -121t-107 -51q-61 0 -105.5 51.5t-44.5 120.5q0 72 43 122t106.5 50zM391 586q63 -61 62.5 -155.5t-36.5 -182.5t-74 -214t-38 -224q0 -90 25.5 -135.5t56.5 -45.5q23 0 45.5 22.5t45 73t38.5 92.5t39 119.5t32 113.5 t29 114h7l84 -455q-156 -139 -334 -139q-137 0 -219 87t-82 220q0 82 33.5 155.5t83 129t97.5 108t81.5 112.5t33.5 122q0 29 -14 82h4z" glyph-name="questiondown" horiz-adv-x="747" unicode="¿"/><glyph d="M705 1569l-5 -4l-358 170q2 39 57.5 99t92.5 73zM1036 0h-391q25 27 28 73t-11.5 111.5t-49.5 182.5h-362q-43 -160 -44 -245t38 -122h-236q104 96 189 377l323 1089l344 -1089q96 -301 172 -377zM598 416l-174 588l-162 -588h336z" glyph-name="Agrave" unicode="À"/><glyph d="M758 1735l-361 -170l-2 4l213 338q35 -12 90.5 -72.5t59.5 -99.5zM1036 0h-391q25 27 28 73t-11.5 111.5t-49.5 182.5h-362q-43 -160 -44 -245t38 -122h-236q104 96 189 377l323 1089l344 -1089q96 -301 172 -377zM598 416l-174 588l-162 -588h336z" glyph-name="Aacute" unicode="Á"/><glyph d="M520 1679l-235 -114l-4 4l239 338l240 -338l-4 -4zM1036 0h-391q25 27 28 73t-11.5 111.5t-49.5 182.5h-362q-43 -160 -44 -245t38 -122h-236q104 96 189 377l323 1089l344 -1089q96 -301 172 -377zM598 416l-174 588l-162 -588h336z" glyph-name="Acircumflex" unicode="Â"/><glyph d="M350 1702q-90 0 -131 -96h-10q20 63 51 126.5t81 119t99 55.5q33 0 119 -48.5t135 -48.5q86 0 127 97h13q-39 -111 -99.5 -206t-130.5 -95q-35 0 -120 48t-134 48zM1036 0h-391q25 27 28 73t-11.5 111.5t-49.5 182.5h-362q-43 -160 -44 -245t38 -122h-236q104 96 189 377 l323 1089l344 -1089q96 -301 172 -377zM598 416l-174 588l-162 -588h336z" glyph-name="Atilde" unicode="Ã"/><glyph d="M354.5 1604q-51.5 0 -88.5 42t-37 101q0 55 37 96t88.5 41t88 -41t36.5 -96q0 -59 -36.5 -101t-88 -42zM686 1604q-51 0 -88 42t-37 101q0 55 37 96t88 41t88 -41t37 -96q0 -57 -37 -100t-88 -43zM1036 0h-391q25 27 28 73t-11.5 111.5t-49.5 182.5h-362 q-43 -160 -44 -245t38 -122h-236q104 96 189 377l323 1089l344 -1089q96 -301 172 -377zM598 416l-174 588l-162 -588h336z" glyph-name="Adieresis" unicode="Ä"/><glyph d="M520.5 1563q-59.5 0 -101.5 48t-42 113.5t42 112.5t101.5 47t101.5 -47t42 -112.5t-42 -113.5t-101.5 -48zM520 1855q-49 0 -81.5 -37.5t-32.5 -93t32.5 -94.5t81.5 -39t82 39t33 94.5t-33 93t-82 37.5zM1036 0h-391q25 27 28 73t-11.5 111.5t-49.5 182.5h-362 q-43 -160 -44 -245t38 -122h-236q104 96 189 377l323 1089l344 -1089q96 -301 172 -377zM598 416l-174 588l-162 -588h336z" glyph-name="Aring" unicode="Å"/><glyph d="M1401 506h6l-64 -506h-784q39 29 55.5 52.5t27.5 100t11 224.5h-356q-57 -147 -71.5 -221t1 -101.5t64.5 -54.5h-283q41 35 57.5 51.5t61.5 99t102 226.5l322 797q80 199 0 260h786l35 -519h-6q-92 258 -173 361.5t-169 103.5q-78 0 -103.5 -72.5t-25.5 -248.5v-291 q0 -35 25 -35q121 0 197.5 55.5t111.5 196.5h6v-549h-6q-35 141 -112 196.5t-197 55.5q-25 0 -25 -35v-278q0 -176 26.5 -249t108.5 -73q207 0 371 453zM319 434h334v623q0 150 -8 217z" glyph-name="AE" horiz-adv-x="1445" unicode="Æ"/><glyph d="M565 -20h-12q-25 -33 -25 -60q0 -35 28 -67.5t55.5 -55t27.5 -33.5q0 -57 -103.5 -126.5t-160.5 -69.5q-23 0 -36 14.5t-13 32.5q0 27 27.5 33t61.5 0t61.5 -3t27.5 25q0 31 -57.5 81t-57.5 71q0 31 133 160q-186 25 -319 236.5t-133 522.5q0 135 29.5 258t89 227.5 t160 166t229.5 61.5q125 0 237 -35q16 -129 57 -526h-6q-104 240 -200.5 372t-167.5 132q-29 0 -60.5 -21.5t-63.5 -67.5t-53.5 -134.5t-21.5 -204.5q0 -182 45 -355.5t149.5 -301.5t249.5 -128q106 0 166 70q-23 -94 -119 -184t-225 -90z" glyph-name="Ccedilla" horiz-adv-x="968" unicode="Ç"/><glyph d="M670 1569l-4 -4l-359 170q2 39 57.5 99t92.5 73zM901 506h6l-61 -506h-787q39 29 55.5 52.5t28 100t11.5 224.5v680q0 147 -11.5 224t-28 100.5t-55.5 52.5h779l34 -519h-6q-92 258 -172 361.5t-168 103.5q-78 0 -103.5 -72.5t-25.5 -248.5v-291q0 -35 25 -35 q119 0 195.5 56.5t111.5 195.5h6v-549h-6q-35 139 -111.5 195.5t-195.5 56.5q-25 0 -25 -35v-278q0 -178 27 -250t108 -72q205 0 369 453z" glyph-name="Egrave" horiz-adv-x="946" unicode="È"/><glyph d="M721 1735l-361 -170l-2 4l213 338q37 -12 91.5 -72.5t58.5 -99.5zM901 506h6l-61 -506h-787q39 29 55.5 52.5t28 100t11.5 224.5v680q0 147 -11.5 224t-28 100.5t-55.5 52.5h779l34 -519h-6q-92 258 -172 361.5t-168 103.5q-78 0 -103.5 -72.5t-25.5 -248.5v-291 q0 -35 25 -35q119 0 195.5 56.5t111.5 195.5h6v-549h-6q-35 139 -111.5 195.5t-195.5 56.5q-25 0 -25 -35v-278q0 -178 27 -250t108 -72q205 0 369 453z" glyph-name="Eacute" horiz-adv-x="946" unicode="É"/><glyph d="M483 1679l-235 -114l-4 4l239 338l240 -338l-4 -4zM901 506h6l-61 -506h-787q39 29 55.5 52.5t28 100t11.5 224.5v680q0 147 -11.5 224t-28 100.5t-55.5 52.5h779l34 -519h-6q-92 258 -172 361.5t-168 103.5q-78 0 -103.5 -72.5t-25.5 -248.5v-291q0 -35 25 -35 q119 0 195.5 56.5t111.5 195.5h6v-549h-6q-35 139 -111.5 195.5t-195.5 56.5q-25 0 -25 -35v-278q0 -178 27 -250t108 -72q205 0 369 453z" glyph-name="Ecircumflex" horiz-adv-x="946" unicode="Ê"/><glyph d="M319.5 1604q-51.5 0 -88 42t-36.5 101q0 55 36.5 96t88 41t88 -41t36.5 -96q0 -59 -36.5 -101t-88 -42zM651 1604q-51 0 -88 42t-37 101q0 55 37 96t88 41t88 -41t37 -96q0 -57 -37 -100t-88 -43zM901 506h6l-61 -506h-787q39 29 55.5 52.5t28 100t11.5 224.5v680 q0 147 -11.5 224t-28 100.5t-55.5 52.5h779l34 -519h-6q-92 258 -172 361.5t-168 103.5q-78 0 -103.5 -72.5t-25.5 -248.5v-291q0 -35 25 -35q119 0 195.5 56.5t111.5 195.5h6v-549h-6q-35 139 -111.5 195.5t-195.5 56.5q-25 0 -25 -35v-278q0 -178 27 -250t108 -72 q205 0 369 453z" glyph-name="Edieresis" horiz-adv-x="946" unicode="Ë"/><glyph d="M457 1565l-359 170q2 39 57.5 99t92.5 73l213 -338zM59 0q39 29 55.5 52.5t28 100t11.5 224.5v680q0 147 -11.5 224t-28 100.5t-55.5 52.5h433q-39 -29 -55.5 -52.5t-28 -100.5t-11.5 -224v-680q0 -147 11.5 -224t28 -100.5t55.5 -52.5h-433z" glyph-name="Igrave" horiz-adv-x="548" unicode="Ì"/><glyph d="M152 1565l-2 4l212 338q37 -12 91.5 -72.5t58.5 -99.5zM59 0q39 29 55.5 52.5t28 100t11.5 224.5v680q0 147 -11.5 224t-28 100.5t-55.5 52.5h433q-39 -29 -55.5 -52.5t-28 -100.5t-11.5 -224v-680q0 -147 11.5 -224t28 -100.5t55.5 -52.5h-433z" glyph-name="Iacute" horiz-adv-x="548" unicode="Í"/><glyph d="M39 1565l-4 4l239 338l240 -338l-4 -4l-236 114zM59 0q39 29 55.5 52.5t28 100t11.5 224.5v680q0 147 -11.5 224t-28 100.5t-55.5 52.5h433q-39 -29 -55.5 -52.5t-28 -100.5t-11.5 -224v-680q0 -147 11.5 -224t28 -100.5t55.5 -52.5h-433z" glyph-name="Icircumflex" horiz-adv-x="548" unicode="Î"/><glyph d="M110.5 1604q-51.5 0 -88 42t-36.5 101q0 55 36.5 96t88 41t88.5 -41t37 -96q0 -59 -37 -101t-88.5 -42zM442.5 1604q-51.5 0 -88.5 42t-37 101q0 55 37 96t88.5 41t88 -41t36.5 -96q0 -57 -36.5 -100t-88 -43zM59 0q39 29 55.5 52.5t28 100t11.5 224.5v680 q0 147 -11.5 224t-28 100.5t-55.5 52.5h433q-39 -29 -55.5 -52.5t-28 -100.5t-11.5 -224v-680q0 -147 11.5 -224t28 -100.5t55.5 -52.5h-433z" glyph-name="Idieresis" horiz-adv-x="548" unicode="Ï"/><glyph d="M492 1434q219 0 363 -179.5t144 -525.5q0 -348 -145 -538.5t-373 -190.5h-422q39 29 55.5 52.5t28 100t11.5 224.5v315h-134v35h134v330q0 147 -11.5 224t-28 100.5t-55.5 52.5h433zM545 55q115 0 160 129t45 377q0 358 -68 587.5t-190 229.5q-55 0 -75 -53t-20 -207 v-383l238 15l-21 -58h-217v-360q1 -277 148 -277z" glyph-name="Eth" horiz-adv-x="1067" unicode="Ð"/><glyph d="M367 1702q-90 0 -131 -96h-11q20 63 51 126.5t81.5 119t99.5 55.5q33 0 119 -48.5t135 -48.5q86 0 127 97h12q-39 -111 -99.5 -206t-129.5 -95q-35 0 -120 48t-134 48zM1030 1434q-55 -27 -77.5 -52.5t-37 -100.5t-14.5 -224v-516q0 -268 17 -582h-11l-692 1171v-753 q0 -152 14.5 -225.5t39 -99t85.5 -52.5h-325q55 27 77.5 52.5t37 100t14.5 224.5v680q0 147 -17.5 224t-41 100.5t-81.5 52.5h357q2 -20 13 -48t20.5 -44.5t33 -58.5t31.5 -58l371 -668v500q0 150 -14.5 224.5t-37 100t-77.5 52.5h315z" glyph-name="Ntilde" horiz-adv-x="1046" unicode="Ñ"/><glyph d="M715 1565l-359 170q2 39 57.5 99t92.5 73l213 -338zM532.5 -20q-151.5 0 -259 111.5t-155.5 274t-48 351.5q0 197 48 359.5t155.5 270t259 107.5t259 -111.5t155.5 -274.5t48 -351q0 -197 -48 -359.5t-155.5 -270t-259 -107.5zM623 37q131 0 131 342q0 199 -33 424 t-108.5 408.5t-172.5 183.5q-131 0 -131 -338q0 -199 34 -426.5t109 -410.5t171 -183z" glyph-name="Ograve" horiz-adv-x="1064" unicode="Ò"/><glyph d="M410 1565l-2 4l213 338q37 -12 91 -72.5t58 -99.5zM532.5 -20q-151.5 0 -259 111.5t-155.5 274t-48 351.5q0 197 48 359.5t155.5 270t259 107.5t259 -111.5t155.5 -274.5t48 -351q0 -197 -48 -359.5t-155.5 -270t-259 -107.5zM623 37q131 0 131 342q0 199 -33 424 t-108.5 408.5t-172.5 183.5q-131 0 -131 -338q0 -199 34 -426.5t109 -410.5t171 -183z" glyph-name="Oacute" horiz-adv-x="1064" unicode="Ó"/><glyph d="M297 1565l-4 4l239 338l240 -338l-4 -4l-236 114zM532.5 -20q-151.5 0 -259 111.5t-155.5 274t-48 351.5q0 197 48 359.5t155.5 270t259 107.5t259 -111.5t155.5 -274.5t48 -351q0 -197 -48 -359.5t-155.5 -270t-259 -107.5zM623 37q131 0 131 342q0 199 -33 424 t-108.5 408.5t-172.5 183.5q-131 0 -131 -338q0 -199 34 -426.5t109 -410.5t171 -183z" glyph-name="Ocircumflex" horiz-adv-x="1064" unicode="Ô"/><glyph d="M221 1606q20 63 51 126.5t81 119t100 55.5q33 0 118.5 -48.5t135.5 -48.5q86 0 127 97h12q-39 -111 -99.5 -206t-130.5 -95q-35 0 -119.5 48t-134.5 48q-90 0 -131 -96h-10zM532.5 -20q-151.5 0 -259 111.5t-155.5 274t-48 351.5q0 197 48 359.5t155.5 270t259 107.5 t259 -111.5t155.5 -274.5t48 -351q0 -197 -48 -359.5t-155.5 -270t-259 -107.5zM623 37q131 0 131 342q0 199 -33 424t-108.5 408.5t-172.5 183.5q-131 0 -131 -338q0 -199 34 -426.5t109 -410.5t171 -183z" glyph-name="Otilde" horiz-adv-x="1064" unicode="Õ"/><glyph d="M368.5 1604q-51.5 0 -88 42t-36.5 101q0 55 36.5 96t88 41t88.5 -41t37 -96q0 -59 -37 -101t-88.5 -42zM700.5 1604q-51.5 0 -88.5 42t-37 101q0 55 37 96t88.5 41t88 -41t36.5 -96q0 -57 -36.5 -100t-88 -43zM532.5 -20q-151.5 0 -259 111.5t-155.5 274t-48 351.5 q0 197 48 359.5t155.5 270t259 107.5t259 -111.5t155.5 -274.5t48 -351q0 -197 -48 -359.5t-155.5 -270t-259 -107.5zM623 37q131 0 131 342q0 199 -33 424t-108.5 408.5t-172.5 183.5q-131 0 -131 -338q0 -199 34 -426.5t109 -410.5t171 -183z" glyph-name="Odieresis" horiz-adv-x="1064" unicode="Ö"/><glyph d="M416 776l-154 -155l152 -152l-29 -31l-152 154l-151 -154l-29 31l152 152l-154 155l31 29l151 -154l152 154z" glyph-name="multiply" horiz-adv-x="466" unicode="×"/><glyph d="M752 1378q119 -90 181 -271t62 -390q0 -197 -48 -359.5t-155.5 -270t-259.5 -107.5q-90 0 -172 43l-65 -226h-57l73 258q-117 92 -179 273.5t-62 388.5q0 197 48 359.5t155.5 270t258.5 107.5q90 0 173 -43l65 227h57zM309 1057q0 -369 92 -695l232 801q-82 231 -193 232 q-131 0 -131 -338zM623 37q131 0 131 342q0 360 -90 690l-234 -801q87 -231 193 -231z" glyph-name="Oslash" horiz-adv-x="1064" unicode="Ø"/><glyph d="M772 1565l-358 170q2 39 57 99t92 73l213 -338zM541 -20q-190 0 -288.5 122.5t-98.5 311.5v643q0 147 -11.5 224t-28 100.5t-55.5 52.5h422q-35 -29 -48 -52.5t-24.5 -100.5t-11.5 -224v-643q0 -164 59.5 -261.5t168.5 -97.5q111 0 165 96.5t54 262.5v643 q0 147 -12.5 224t-30 100.5t-56.5 52.5h254q-39 -29 -56 -52.5t-29.5 -100.5t-12.5 -224v-643q0 -193 -86 -313.5t-274 -120.5z" glyph-name="Ugrave" horiz-adv-x="1015" unicode="Ù"/><glyph d="M467 1565l-2 4l213 338q37 -12 91 -72.5t58 -99.5zM541 -20q-190 0 -288.5 122.5t-98.5 311.5v643q0 147 -11.5 224t-28 100.5t-55.5 52.5h422q-35 -29 -48 -52.5t-24.5 -100.5t-11.5 -224v-643q0 -164 59.5 -261.5t168.5 -97.5q111 0 165 96.5t54 262.5v643 q0 147 -12.5 224t-30 100.5t-56.5 52.5h254q-39 -29 -56 -52.5t-29.5 -100.5t-12.5 -224v-643q0 -193 -86 -313.5t-274 -120.5z" glyph-name="Uacute" horiz-adv-x="1015" unicode="Ú"/><glyph d="M354 1565l-4 4l240 338l239 -338l-4 -4l-235 114zM541 -20q-190 0 -288.5 122.5t-98.5 311.5v643q0 147 -11.5 224t-28 100.5t-55.5 52.5h422q-35 -29 -48 -52.5t-24.5 -100.5t-11.5 -224v-643q0 -164 59.5 -261.5t168.5 -97.5q111 0 165 96.5t54 262.5v643 q0 147 -12.5 224t-30 100.5t-56.5 52.5h254q-39 -29 -56 -52.5t-29.5 -100.5t-12.5 -224v-643q0 -193 -86 -313.5t-274 -120.5z" glyph-name="Ucircumflex" horiz-adv-x="1015" unicode="Û"/><glyph d="M426 1604q-51 0 -88 42t-37 101q0 55 37 96t88 41t88 -41t37 -96q0 -59 -37 -101t-88 -42zM758 1604q-51 0 -88 42t-37 101q0 55 37 96t88 41t88 -41t37 -96q0 -57 -37 -100t-88 -43zM541 -20q-190 0 -288.5 122.5t-98.5 311.5v643q0 147 -11.5 224t-28 100.5t-55.5 52.5 h422q-35 -29 -48 -52.5t-24.5 -100.5t-11.5 -224v-643q0 -164 59.5 -261.5t168.5 -97.5q111 0 165 96.5t54 262.5v643q0 147 -12.5 224t-30 100.5t-56.5 52.5h254q-39 -29 -56 -52.5t-29.5 -100.5t-12.5 -224v-643q0 -193 -86 -313.5t-274 -120.5z" glyph-name="Udieresis" horiz-adv-x="1015" unicode="Ü"/><glyph d="M733 1735l-360 -170l-2 4l213 338q35 -12 90 -72.5t59 -99.5zM737 1434h248q-137 -104 -237 -377l-144 -389v-291q0 -147 11.5 -224t27.5 -100.5t55 -52.5h-432q39 29 55.5 52.5t27.5 100t11 224.5v270l-141 410q-96 279 -211 377h406q-18 -18 -23.5 -43t5 -77t19.5 -88 t38 -128q8 -27 12 -41l100 -330l115 330q37 111 49 148.5t26.5 97t8 85.5t-26.5 46z" glyph-name="Yacute" horiz-adv-x="993" unicode="Ý"/><glyph d="M911 717q0 -207 -131 -325t-381 -120q4 -143 23.5 -190t69.5 -82h-433q39 29 55.5 52.5t28 100t11.5 224.5v680q0 147 -11.5 224t-28 100.5t-55.5 52.5h433q-49 -35 -69 -82t-24 -191q250 -2 381 -119.5t131 -324.5zM397 307q244 4 244 409.5t-244 409.5v-69v-680v-70z " glyph-name="Thorn" horiz-adv-x="960" unicode="Þ"/><glyph d="M672 -20q-147 0 -191 69l-4 238q23 -102 81 -187.5t124 -85.5q29 0 50.5 18.5t21.5 53.5q0 61 -111 268l-96 178q-66 123 -66 199q0 92 70 188.5t70 197t-66 170t-141 69.5q-51 0 -85 -33t-34 -86q0 -49 20.5 -125t20.5 -98v-809q0 -160 94 -205h-373q59 78 60 205v719 h-78q72 166 138.5 274.5t131 165.5t125 78.5t135.5 21.5q135 0 207 -66.5t72 -174.5q0 -66 -30 -111t-66.5 -63.5t-66.5 -48t-30 -68.5q0 -53 70 -203l92 -176q8 -14 31.5 -57t34 -62.5t28 -57.5t25.5 -61.5t15 -54.5t7 -55q0 -102 -80.5 -163.5t-205.5 -61.5z" glyph-name="germandbls" horiz-adv-x="1019" unicode="ß"/><glyph d="M575 1155l-358 170q2 39 57.5 99.5t92.5 72.5l213 -338zM213 -20q-74 0 -124 52t-50 148q0 72 31.5 134.5t80 104.5t103.5 89t103.5 90t80 108.5t31.5 141.5q0 158 -76 158q-35 0 -91 -71t-124.5 -179.5t-77.5 -120.5h-4l35 360q123 49 289 49q143 0 206.5 -68.5 t63.5 -217.5v-574q0 -90 82 -90q20 0 35 10q0 -43 -57.5 -83.5t-120.5 -40.5q-70 0 -115 53t-45 135q0 16 -8 16q-12 0 -32.5 -31.5t-44.5 -70.5t-70 -70.5t-101 -31.5zM354 160q39 0 77 53t38 123v223q0 45 -14 45q-47 0 -119 -92t-72 -213q0 -72 26.5 -105.5t63.5 -33.5z " glyph-name="agrave" horiz-adv-x="825" unicode="à"/><glyph d="M272 1155l-2 4l213 338q37 -12 91.5 -72.5t58.5 -99.5zM213 -20q-74 0 -124 52t-50 148q0 72 31.5 134.5t80 104.5t103.5 89t103.5 90t80 108.5t31.5 141.5q0 158 -76 158q-35 0 -91 -71t-124.5 -179.5t-77.5 -120.5h-4l35 360q123 49 289 49q143 0 206.5 -68.5 t63.5 -217.5v-574q0 -90 82 -90q20 0 35 10q0 -43 -57.5 -83.5t-120.5 -40.5q-70 0 -115 53t-45 135q0 16 -8 16q-12 0 -32.5 -31.5t-44.5 -70.5t-70 -70.5t-101 -31.5zM354 160q39 0 77 53t38 123v223q0 45 -14 45q-47 0 -119 -92t-72 -213q0 -72 26.5 -105.5t63.5 -33.5z " glyph-name="aacute" horiz-adv-x="825" unicode="á"/><glyph d="M160 1155l-4 4l239 338l240 -338l-4 -4l-236 115zM213 -20q-74 0 -124 52t-50 148q0 72 31.5 134.5t80 104.5t103.5 89t103.5 90t80 108.5t31.5 141.5q0 158 -76 158q-35 0 -91 -71t-124.5 -179.5t-77.5 -120.5h-4l35 360q123 49 289 49q143 0 206.5 -68.5t63.5 -217.5 v-574q0 -90 82 -90q20 0 35 10q0 -43 -57.5 -83.5t-120.5 -40.5q-70 0 -115 53t-45 135q0 16 -8 16q-12 0 -32.5 -31.5t-44.5 -70.5t-70 -70.5t-101 -31.5zM354 160q39 0 77 53t38 123v223q0 45 -14 45q-47 0 -119 -92t-72 -213q0 -72 26.5 -105.5t63.5 -33.5z" glyph-name="acircumflex" horiz-adv-x="825" unicode="â"/><glyph d="M84 1196q20 63 51 126.5t81 119t99 55.5q33 0 119 -48t135 -48q86 0 127 96h13q-39 -111 -99.5 -206t-130.5 -95q-35 0 -120 48t-134 48q-90 0 -131 -96h-10zM213 -20q-74 0 -124 52t-50 148q0 72 31.5 134.5t80 104.5t103.5 89t103.5 90t80 108.5t31.5 141.5 q0 158 -76 158q-35 0 -91 -71t-124.5 -179.5t-77.5 -120.5h-4l35 360q123 49 289 49q143 0 206.5 -68.5t63.5 -217.5v-574q0 -90 82 -90q20 0 35 10q0 -43 -57.5 -83.5t-120.5 -40.5q-70 0 -115 53t-45 135q0 16 -8 16q-12 0 -32.5 -31.5t-44.5 -70.5t-70 -70.5t-101 -31.5z M354 160q39 0 77 53t38 123v223q0 45 -14 45q-47 0 -119 -92t-72 -213q0 -72 26.5 -105.5t63.5 -33.5z" glyph-name="atilde" horiz-adv-x="825" unicode="ã"/><glyph d="M229.5 1194q-51.5 0 -88.5 42t-37 101q0 55 37 96.5t88.5 41.5t88 -41t36.5 -97q0 -59 -36.5 -101t-88 -42zM561 1194q-51 0 -88 42t-37 101q0 55 37 96.5t88 41.5t88 -41t37 -97q0 -57 -37 -100t-88 -43zM213 -20q-74 0 -124 52t-50 148q0 72 31.5 134.5t80 104.5 t103.5 89t103.5 90t80 108.5t31.5 141.5q0 158 -76 158q-35 0 -91 -71t-124.5 -179.5t-77.5 -120.5h-4l35 360q123 49 289 49q143 0 206.5 -68.5t63.5 -217.5v-574q0 -90 82 -90q20 0 35 10q0 -43 -57.5 -83.5t-120.5 -40.5q-70 0 -115 53t-45 135q0 16 -8 16 q-12 0 -32.5 -31.5t-44.5 -70.5t-70 -70.5t-101 -31.5zM354 160q39 0 77 53t38 123v223q0 45 -14 45q-47 0 -119 -92t-72 -213q0 -72 26.5 -105.5t63.5 -33.5z" glyph-name="adieresis" horiz-adv-x="825" unicode="ä"/><glyph d="M395.5 1153q-59.5 0 -101.5 48t-42 113.5t42 113t101.5 47.5t101.5 -47.5t42 -113t-42 -113.5t-101.5 -48zM395 1182q49 0 82 39t33 94t-33 93t-82 38t-81.5 -38t-32.5 -93t32.5 -94t81.5 -39zM213 -20q-74 0 -124 52t-50 148q0 72 31.5 134.5t80 104.5t103.5 89 t103.5 90t80 108.5t31.5 141.5q0 158 -76 158q-35 0 -91 -71t-124.5 -179.5t-77.5 -120.5h-4l35 360q123 49 289 49q143 0 206.5 -68.5t63.5 -217.5v-574q0 -90 82 -90q20 0 35 10q0 -43 -57.5 -83.5t-120.5 -40.5q-70 0 -115 53t-45 135q0 16 -8 16q-12 0 -32.5 -31.5 t-44.5 -70.5t-70 -70.5t-101 -31.5zM354 160q39 0 77 53t38 123v223q0 45 -14 45q-47 0 -119 -92t-72 -213q0 -72 26.5 -105.5t63.5 -33.5z" glyph-name="aring" horiz-adv-x="825" unicode="å"/><glyph d="M1065 162q90 0 127 55q-23 -94 -97.5 -165.5t-187.5 -71.5q-186 0 -307 190q-25 25 -45 25q-27 0 -62.5 -34t-68.5 -74t-88 -73.5t-113 -33.5q-76 0 -130 52t-54 140q0 78 48 146.5t117.5 119.5t138.5 103.5t117 123t48 154.5v6q2 162 -143 162q-37 0 -55.5 -13 t-20.5 -38t2 -50.5t11 -62.5t7 -61q0 -68 -32.5 -101.5t-83.5 -33.5q-47 0 -78 34.5t-31 94.5q0 123 112.5 205.5t254.5 82.5q145 0 198 -110q100 111 240 110q123 0 200.5 -86t73.5 -229q-4 -90 -33 -131h-339q-37 0 -52.5 -12.5t-15.5 -46.5q0 -131 93 -254t249 -123z M860 999q-57 0 -104 -63.5t-47 -192.5q0 -55 14 -76.5t63 -21.5q164 0 164 207q0 147 -90 147zM356 160q51 0 101.5 53t50.5 123v227q0 18 -12 19q-49 0 -138.5 -95.5t-89.5 -205.5q0 -57 25.5 -89t62.5 -32z" glyph-name="ae" horiz-adv-x="1251" unicode="æ"/><glyph d="M707 217q-23 -92 -91.5 -161.5t-173.5 -75.5q-25 -33 -24 -60q0 -35 27.5 -67.5t55 -55t27.5 -33.5q0 -57 -103 -126.5t-161 -69.5q-23 0 -36 14.5t-13 32.5q0 27 27.5 33t61.5 0t61.5 -3t27.5 25q0 31 -57 81t-57 71q0 31 131 158q-156 10 -258.5 166.5t-102.5 380 t105.5 370.5t287.5 147q98 0 179 -32q29 -188 41 -394h-3q-98 203 -157.5 293t-112.5 90q-31 0 -59.5 -24.5t-53 -96t-24.5 -182.5q0 -131 32.5 -247.5t111.5 -202.5t194 -86q82 0 117 55z" glyph-name="ccedilla" horiz-adv-x="755" unicode="ç"/><glyph d="M567 1155l-358 170q2 39 57.5 99.5t91.5 72.5l213 -338zM446 -20q-168 0 -282.5 156.5t-114.5 383.5q0 223 107.5 373.5t271.5 150.5q125 0 203 -86t74 -229q-4 -90 -33 -131h-340q-39 0 -54.5 -12.5t-15.5 -46.5q0 -131 94.5 -254t249.5 -123q90 0 127 55 q-23 -94 -97.5 -165.5t-189.5 -71.5zM326 645q164 0 163 207q0 147 -88 147q-59 0 -106 -63.5t-47 -192.5q0 -55 15.5 -76.5t62.5 -21.5z" glyph-name="egrave" horiz-adv-x="790" unicode="è"/><glyph d="M262 1155l-2 4l213 338q35 -12 90 -72.5t60 -99.5zM446 -20q-168 0 -282.5 156.5t-114.5 383.5q0 223 107.5 373.5t271.5 150.5q125 0 203 -86t74 -229q-4 -90 -33 -131h-340q-39 0 -54.5 -12.5t-15.5 -46.5q0 -131 94.5 -254t249.5 -123q90 0 127 55 q-23 -94 -97.5 -165.5t-189.5 -71.5zM326 645q164 0 163 207q0 147 -88 147q-59 0 -106 -63.5t-47 -192.5q0 -55 15.5 -76.5t62.5 -21.5z" glyph-name="eacute" horiz-adv-x="790" unicode="é"/><glyph d="M152 1155l-5 4l240 338l240 -338l-4 -4l-236 115zM446 -20q-168 0 -282.5 156.5t-114.5 383.5q0 223 107.5 373.5t271.5 150.5q125 0 203 -86t74 -229q-4 -90 -33 -131h-340q-39 0 -54.5 -12.5t-15.5 -46.5q0 -131 94.5 -254t249.5 -123q90 0 127 55 q-23 -94 -97.5 -165.5t-189.5 -71.5zM326 645q164 0 163 207q0 147 -88 147q-59 0 -106 -63.5t-47 -192.5q0 -55 15.5 -76.5t62.5 -21.5z" glyph-name="ecircumflex" horiz-adv-x="790" unicode="ê"/><glyph d="M221 1194q-51 0 -88 42t-37 101q0 55 37 96.5t88 41.5t88 -41t37 -97q0 -59 -37 -101t-88 -42zM553 1194q-51 0 -88 42t-37 101q0 55 37 96.5t88 41.5t88 -41t37 -97q0 -57 -37 -100t-88 -43zM446 -20q-168 0 -282.5 156.5t-114.5 383.5q0 223 107.5 373.5t271.5 150.5 q125 0 203 -86t74 -229q-4 -90 -33 -131h-340q-39 0 -54.5 -12.5t-15.5 -46.5q0 -131 94.5 -254t249.5 -123q90 0 127 55q-23 -94 -97.5 -165.5t-189.5 -71.5zM326 645q164 0 163 207q0 147 -88 147q-59 0 -106 -63.5t-47 -192.5q0 -55 15.5 -76.5t62.5 -21.5z" glyph-name="edieresis" horiz-adv-x="790" unicode="ë"/><glyph d="M399 1155l-358 170q2 39 57.5 99.5t91.5 72.5l213 -338zM49 0q59 78 60 205v577q0 127 -60 205l279 57v-839q0 -127 59 -205h-338z" glyph-name="igrave" horiz-adv-x="436" unicode="ì"/><glyph d="M96 1155l-2 4l213 338q35 -12 90.5 -72.5t59.5 -99.5zM49 0q59 78 60 205v577q0 127 -60 205l279 57v-839q0 -127 59 -205h-338z" glyph-name="iacute" horiz-adv-x="436" unicode="í"/><glyph d="M-16 1155l-4 4l239 338l240 -338l-4 -4l-236 115zM49 0q59 78 60 205v577q0 127 -60 205l279 57v-839q0 -127 59 -205h-338z" glyph-name="icircumflex" horiz-adv-x="436" unicode="î"/><glyph d="M53 1194q-51 0 -88 42t-37 101q0 55 37 96.5t88 41.5t88 -41t37 -97q0 -59 -37 -101t-88 -42zM385 1194q-51 0 -88 42t-37 101q0 55 37 96.5t88 41.5t88 -41t37 -97q0 -57 -37 -100t-88 -43zM49 0q59 78 60 205v577q0 127 -60 205l279 57v-839q0 -127 59 -205h-338z" glyph-name="idieresis" horiz-adv-x="436" unicode="ï"/><glyph d="M635 1276q188 -246 188 -651q0 -303 -113.5 -474t-285.5 -171q-166 0 -270.5 139t-104.5 360q0 176 75 309.5t204 133.5q150 0 225 -148q-74 18 -128 -12.5t-83 -98t-41 -146.5t-12 -171q0 -135 27.5 -228t86.5 -93q37 0 67 48t45 118.5t26.5 165t14.5 173t3 156.5 q0 301 -70 492l-159 -109l-21 31l166 112q-94 221 -287 222q49 20 125 20q168 0 297 -149l123 81l21 -30z" glyph-name="eth" horiz-adv-x="892" unicode="ð"/><glyph d="M299 1292q-90 0 -131 -96h-10q20 63 51 126.5t81 119t99 55.5q33 0 119 -48t135 -48q86 0 127 96h12q-39 -111 -99 -206t-130 -95q-35 0 -120 48t-134 48zM545 0q59 78 59 205v502q0 166 -125 165q-84 0 -151 -55v-612q0 -127 59 -205h-338q59 78 60 205v577 q0 127 -60 205l279 57v-190q180 190 321 190q174 0 174 -268v-571q0 -127 60 -205h-338z" glyph-name="ntilde" horiz-adv-x="942" unicode="ñ"/><glyph d="M612 1155l-358 170q2 39 57.5 99.5t91.5 72.5l213 -338zM424 -20q-174 0 -274.5 152.5t-100.5 379.5q0 231 107.5 381.5t281.5 150.5q172 0 272.5 -152.5t100.5 -379.5q0 -231 -106.5 -381.5t-280.5 -150.5zM504 35q92 0 92 227q0 129 -24.5 290t-82 299t-131.5 138 q-94 0 -94 -227q0 -129 24.5 -290t82 -299t133.5 -138z" glyph-name="ograve" horiz-adv-x="860" unicode="ò"/><glyph d="M307 1155l-2 4l213 338q35 -12 90.5 -72.5t59.5 -99.5zM424 -20q-174 0 -274.5 152.5t-100.5 379.5q0 231 107.5 381.5t281.5 150.5q172 0 272.5 -152.5t100.5 -379.5q0 -231 -106.5 -381.5t-280.5 -150.5zM504 35q92 0 92 227q0 129 -24.5 290t-82 299t-131.5 138 q-94 0 -94 -227q0 -129 24.5 -290t82 -299t133.5 -138z" glyph-name="oacute" horiz-adv-x="860" unicode="ó"/><glyph d="M197 1155l-4 4l239 338l240 -338l-4 -4l-236 115zM424 -20q-174 0 -274.5 152.5t-100.5 379.5q0 231 107.5 381.5t281.5 150.5q172 0 272.5 -152.5t100.5 -379.5q0 -231 -106.5 -381.5t-280.5 -150.5zM504 35q92 0 92 227q0 129 -24.5 290t-82 299t-131.5 138 q-94 0 -94 -227q0 -129 24.5 -290t82 -299t133.5 -138z" glyph-name="ocircumflex" horiz-adv-x="860" unicode="ô"/><glyph d="M121 1196q20 63 51 126.5t81 119t99 55.5q33 0 119 -48t135 -48q86 0 127 96h12q-39 -111 -99 -206t-130 -95q-35 0 -120 48t-134 48q-90 0 -131 -96h-10zM424 -20q-174 0 -274.5 152.5t-100.5 379.5q0 231 107.5 381.5t281.5 150.5q172 0 272.5 -152.5t100.5 -379.5 q0 -231 -106.5 -381.5t-280.5 -150.5zM504 35q92 0 92 227q0 129 -24.5 290t-82 299t-131.5 138q-94 0 -94 -227q0 -129 24.5 -290t82 -299t133.5 -138z" glyph-name="otilde" horiz-adv-x="860" unicode="õ"/><glyph d="M266 1194q-51 0 -88 42t-37 101q0 55 37 96.5t88 41.5t88 -41t37 -97q0 -59 -37 -101t-88 -42zM598 1194q-51 0 -88 42t-37 101q0 55 37 96.5t88 41.5t88 -41t37 -97q0 -57 -37 -100t-88 -43zM424 -20q-174 0 -274.5 152.5t-100.5 379.5q0 231 107.5 381.5t281.5 150.5 q172 0 272.5 -152.5t100.5 -379.5q0 -231 -106.5 -381.5t-280.5 -150.5zM504 35q92 0 92 227q0 129 -24.5 290t-82 299t-131.5 138q-94 0 -94 -227q0 -129 24.5 -290t82 -299t133.5 -138z" glyph-name="odieresis" horiz-adv-x="860" unicode="ö"/><glyph d="M288.5 803q-16.5 0 -28.5 12t-12 28.5t12 28t29 11.5q14 0 26.5 -11.5t12.5 -28t-11.5 -28.5t-28 -12zM51 600v43h471v-43h-471zM289 362q-16 0 -28.5 11.5t-12.5 28t12 28.5t28.5 12t28 -12t11.5 -28.5t-12.5 -28t-26.5 -11.5z" glyph-name="divide" horiz-adv-x="573" unicode="÷"/><glyph d="M596 1004q102 -59 158.5 -191.5t56.5 -300.5q0 -231 -106.5 -381.5t-280.5 -150.5q-57 0 -107 18l-55 -201h-55l61 221q-104 61 -161.5 193.5t-57.5 300.5q0 231 107.5 381.5t281.5 150.5q59 0 109 -18l53 191h55zM264 762q0 -262 72 -498l160 578q-57 147 -138 147 q-94 0 -94 -227zM504 35q92 0 92 227q0 254 -70 490l-159 -576q61 -141 137 -141z" glyph-name="oslash" horiz-adv-x="860" unicode="ø"/><glyph d="M637 1159l-4 -4l-359 170q2 39 57.5 99.5t92.5 72.5zM883 37l-279 -57v190q-180 -190 -321 -190q-174 0 -174 268v493q0 168 -60 246l279 57v-727q0 -166 125 -165q74 0 151 53v536q0 168 -59 246l278 57v-802q1 -127 60 -205z" glyph-name="ugrave" horiz-adv-x="942" unicode="ù"/><glyph d="M688 1325l-360 -170l-2 4l213 338q35 -12 90 -72.5t59 -99.5zM883 37l-279 -57v190q-180 -190 -321 -190q-174 0 -174 268v493q0 168 -60 246l279 57v-727q0 -166 125 -165q74 0 151 53v536q0 168 -59 246l278 57v-802q1 -127 60 -205z" glyph-name="uacute" horiz-adv-x="942" unicode="ú"/><glyph d="M451 1270l-236 -115l-4 4l240 338l239 -338l-4 -4zM883 37l-279 -57v190q-180 -190 -321 -190q-174 0 -174 268v493q0 168 -60 246l279 57v-727q0 -166 125 -165q74 0 151 53v536q0 168 -59 246l278 57v-802q1 -127 60 -205z" glyph-name="ucircumflex" horiz-adv-x="942" unicode="û"/><glyph d="M287 1194q-51 0 -88 42t-37 101q0 55 37 96.5t88 41.5t88 -41t37 -97q0 -59 -37 -101t-88 -42zM618.5 1194q-51.5 0 -88 42t-36.5 101q0 55 36.5 96.5t88 41.5t88 -41t36.5 -97q0 -57 -36.5 -100t-88 -43zM883 37l-279 -57v190q-180 -190 -321 -190q-174 0 -174 268v493 q0 168 -60 246l279 57v-727q0 -166 125 -165q74 0 151 53v536q0 168 -59 246l278 57v-802q1 -127 60 -205z" glyph-name="udieresis" horiz-adv-x="942" unicode="ü"/><glyph d="M623 1325l-361 -170l-2 4l213 338q35 -12 90.5 -72.5t59.5 -99.5zM590 1024h217q-80 -55 -141 -248l-238 -737q-20 -61 -32.5 -97t-42 -101.5t-59.5 -102.5t-74 -67.5t-93 -30.5q-72 0 -94 32v207q68 -23 139 -22q193 0 193 157q0 29 -8.5 69t-16.5 65.5t-29.5 88 t-27.5 82.5l-152 457q-63 195 -143 248h403q-47 -29 -51 -85t29 -163l120 -422l123 422q54 191 -22 248z" glyph-name="yacute" horiz-adv-x="792" unicode="ý"/><glyph d="M575 1044q115 0 195 -134t80 -343q0 -252 -119 -419.5t-311 -167.5h-92v-97q0 -127 59 -205l-338 -59q59 78 60 205v1405q0 127 -60 205l279 61v-680q27 76 93 152.5t154 76.5zM436 20q86 0 141.5 110t55.5 271q0 80 -10.5 154t-32 143.5t-63.5 112.5t-99 43 q-47 0 -73.5 -24.5t-26.5 -53.5v-536q-1 -220 108 -220z" glyph-name="thorn" horiz-adv-x="899" unicode="þ"/><glyph d="M221 1194q-51 0 -88 42t-37 101q0 55 37 96.5t88 41.5t88 -41t37 -97q0 -59 -37 -101t-88 -42zM553 1194q-51 0 -88 42t-37 101q0 55 37 96.5t88 41.5t88 -41t37 -97q0 -57 -37 -100t-88 -43zM590 1024h217q-80 -55 -141 -248l-238 -737q-20 -61 -32.5 -97t-42 -101.5 t-59.5 -102.5t-74 -67.5t-93 -30.5q-72 0 -94 32v207q68 -23 139 -22q193 0 193 157q0 29 -8.5 69t-16.5 65.5t-29.5 88t-27.5 82.5l-152 457q-63 195 -143 248h403q-47 -29 -51 -85t29 -163l120 -422l123 422q54 191 -22 248z" glyph-name="ydieresis" horiz-adv-x="792" unicode="ÿ"/><glyph d="M836 1821l-58 -174h-573l57 174h574zM1036 0h-391q25 27 28 73t-11.5 111.5t-49.5 182.5h-362q-43 -160 -44 -245t38 -122h-236q104 96 189 377l323 1089l344 -1089q96 -301 172 -377zM598 416l-174 588l-162 -588h336z" glyph-name="Amacron" unicode="Ā"/><glyph d="M80 1237l57 174h574l-58 -174h-573zM213 -20q-74 0 -124 52t-50 148q0 72 31.5 134.5t80 104.5t103.5 89t103.5 90t80 108.5t31.5 141.5q0 158 -76 158q-35 0 -91 -71t-124.5 -179.5t-77.5 -120.5h-4l35 360q123 49 289 49q143 0 206.5 -68.5t63.5 -217.5v-574 q0 -90 82 -90q20 0 35 10q0 -43 -57.5 -83.5t-120.5 -40.5q-70 0 -115 53t-45 135q0 16 -8 16q-12 0 -32.5 -31.5t-44.5 -70.5t-70 -70.5t-101 -31.5zM354 160q39 0 77 53t38 123v223q0 45 -14 45q-47 0 -119 -92t-72 -213q0 -72 26.5 -105.5t63.5 -33.5z" glyph-name="amacron" horiz-adv-x="825" unicode="ā"/><glyph d="M520 1591q-84 0 -137 58.5t-53 140.5q0 51 16 94h6q0 -59 42 -100t126 -41q86 0 127 41t41 100h6q18 -41 19 -94q0 -82 -54.5 -140.5t-138.5 -58.5zM1036 0h-391q25 27 28 73t-11.5 111.5t-49.5 182.5h-362q-43 -160 -44 -245t38 -122h-236q104 96 189 377l323 1089 l344 -1089q96 -301 172 -377zM598 416l-174 588l-162 -588h336z" glyph-name="Abreve" unicode="Ă"/><glyph d="M395 1182q-84 0 -137 58t-53 140q0 51 16 95h6q0 -59 42 -100.5t126 -41.5q86 0 127 41t41 101h6q18 -41 19 -95q0 -82 -54.5 -140t-138.5 -58zM213 -20q-74 0 -124 52t-50 148q0 72 31.5 134.5t80 104.5t103.5 89t103.5 90t80 108.5t31.5 141.5q0 158 -76 158 q-35 0 -91 -71t-124.5 -179.5t-77.5 -120.5h-4l35 360q123 49 289 49q143 0 206.5 -68.5t63.5 -217.5v-574q0 -90 82 -90q20 0 35 10q0 -43 -57.5 -83.5t-120.5 -40.5q-70 0 -115 53t-45 135q0 16 -8 16q-12 0 -32.5 -31.5t-44.5 -70.5t-70 -70.5t-101 -31.5zM354 160 q39 0 77 53t38 123v223q0 45 -14 45q-47 0 -119 -92t-72 -213q0 -72 26.5 -105.5t63.5 -33.5z" glyph-name="abreve" horiz-adv-x="825" unicode="ă"/><glyph d="M408 1565l-2 4l212 338q35 -12 90.5 -72.5t59.5 -99.5zM565 -20q-199 0 -347 216t-148 545q0 135 29.5 258t89 227.5t160 166t229.5 61.5q125 0 237 -35q16 -129 57 -526h-6q-104 240 -200.5 372t-167.5 132q-29 0 -60.5 -21.5t-63.5 -67.5t-53.5 -134.5t-21.5 -204.5 q0 -182 45 -355.5t149.5 -301.5t249.5 -128q106 0 166 70q-23 -94 -119 -184t-225 -90z" glyph-name="Cacute" horiz-adv-x="968" unicode="Ć"/><glyph d="M274 1155l-2 4l213 338q37 -12 91.5 -72.5t58.5 -99.5zM428 -20q-164 0 -271.5 157.5t-107.5 388.5q0 223 105.5 370.5t287.5 147.5q98 0 179 -32q29 -188 41 -394h-3q-98 203 -157.5 293t-112.5 90q-31 0 -59.5 -24.5t-53 -96t-24.5 -182.5q0 -131 32.5 -247.5 t111.5 -202.5t194 -86q82 0 117 55q-23 -94 -95.5 -165.5t-183.5 -71.5z" glyph-name="cacute" horiz-adv-x="755" unicode="ć"/><glyph d="M530.5 1604q-51.5 0 -88 42t-36.5 101q0 55 36.5 96t88 41t88 -41t36.5 -96q0 -59 -36.5 -101t-88 -42zM565 -20q-199 0 -347 216t-148 545q0 135 29.5 258t89 227.5t160 166t229.5 61.5q125 0 237 -35q16 -129 57 -526h-6q-104 240 -200.5 372t-167.5 132 q-29 0 -60.5 -21.5t-63.5 -67.5t-53.5 -134.5t-21.5 -204.5q0 -182 45 -355.5t149.5 -301.5t249.5 -128q106 0 166 70q-23 -94 -119 -184t-225 -90z" glyph-name="Cdotaccent" horiz-adv-x="968" unicode="Ċ"/><glyph d="M397.5 1194q-51.5 0 -88.5 42t-37 101q0 55 37 96.5t88.5 41.5t88 -41t36.5 -97q0 -59 -36.5 -101t-88 -42zM428 -20q-164 0 -271.5 157.5t-107.5 388.5q0 223 105.5 370.5t287.5 147.5q98 0 179 -32q29 -188 41 -394h-3q-98 203 -157.5 293t-112.5 90q-31 0 -59.5 -24.5 t-53 -96t-24.5 -182.5q0 -131 32.5 -247.5t111.5 -202.5t194 -86q82 0 117 55q-23 -94 -95.5 -165.5t-183.5 -71.5z" glyph-name="cdotaccent" horiz-adv-x="755" unicode="ċ"/><glyph d="M530 1565l-239 338l4 4l235 -115l236 115l4 -4zM565 -20q-199 0 -347 216t-148 545q0 135 29.5 258t89 227.5t160 166t229.5 61.5q125 0 237 -35q16 -129 57 -526h-6q-104 240 -200.5 372t-167.5 132q-29 0 -60.5 -21.5t-63.5 -67.5t-53.5 -134.5t-21.5 -204.5 q0 -182 45 -355.5t149.5 -301.5t249.5 -128q106 0 166 70q-23 -94 -119 -184t-225 -90z" glyph-name="Ccaron" horiz-adv-x="968" unicode="Č"/><glyph d="M397 1155l-239 338l4 4l235 -115l236 115l4 -4zM428 -20q-164 0 -271.5 157.5t-107.5 388.5q0 223 105.5 370.5t287.5 147.5q98 0 179 -32q29 -188 41 -394h-3q-98 203 -157.5 293t-112.5 90q-31 0 -59.5 -24.5t-53 -96t-24.5 -182.5q0 -131 32.5 -247.5t111.5 -202.5 t194 -86q82 0 117 55q-23 -94 -95.5 -165.5t-183.5 -71.5z" glyph-name="ccaron" horiz-adv-x="755" unicode="č"/><glyph d="M524 1565l-239 338l4 4l235 -115l236 115l4 -4zM59 0q39 29 55.5 52.5t28 100t11.5 224.5v680q0 147 -11.5 224t-28 100.5t-55.5 52.5h433q219 0 363 -179.5t144 -525.5q0 -348 -145 -538.5t-373 -190.5h-422zM545 55q115 0 160 129t45 377q0 358 -68 587.5t-190 229.5 q-55 0 -75 -53t-20 -207v-786q1 -277 148 -277z" glyph-name="Dcaron" horiz-adv-x="1067" unicode="Ď"/><glyph d="M801 1497v-1282q0 -127 59 -205l-278 -39v238q-27 -76 -93.5 -152.5t-154.5 -76.5q-115 0 -195 134t-80 343q0 252 119 419.5t311 167.5h93v185q0 127 -60 205zM932 1487q39 4 111.5 -32t91.5 -71l-269 -292l-4 4zM582 248v579q0 176 -109 177q-86 0 -141.5 -110 t-55.5 -271q0 -80 10.5 -154t32 -143.5t63.5 -111.5t99 -42q47 0 74 23.5t27 52.5z" glyph-name="dcaron" horiz-adv-x="909" unicode="ď"/><glyph d="M492 1434q219 0 363 -179.5t144 -525.5q0 -348 -145 -538.5t-373 -190.5h-422q39 29 55.5 52.5t28 100t11.5 224.5v315h-134v35h134v330q0 147 -11.5 224t-28 100.5t-55.5 52.5h433zM545 55q115 0 160 129t45 377q0 358 -68 587.5t-190 229.5q-55 0 -75 -53t-20 -207 v-383l238 15l-21 -58h-217v-360q1 -277 148 -277z" glyph-name="Dcroat" horiz-adv-x="1067" unicode="Đ"/><glyph d="M905 1186h-114v-971q0 -127 59 -205l-279 -39v238q-27 -76 -93 -152.5t-154 -76.5q-115 0 -195 134t-80 343q0 252 119 419.5t311 167.5h92v142h-198v35h198v8q0 127 -59 205l279 63v-262l135 8zM571 248v579q0 176 -108 177q-86 0 -141.5 -110t-55.5 -271 q0 -80 10.5 -154t32 -143.5t63.5 -111.5t99 -42q47 0 73.5 23.5t26.5 52.5z" glyph-name="dcroat" horiz-adv-x="925" unicode="đ"/><glyph d="M801 1821l-58 -174h-573l57 174h574zM901 506h6l-61 -506h-787q39 29 55.5 52.5t28 100t11.5 224.5v680q0 147 -11.5 224t-28 100.5t-55.5 52.5h779l34 -519h-6q-92 258 -172 361.5t-168 103.5q-78 0 -103.5 -72.5t-25.5 -248.5v-291q0 -35 25 -35q119 0 195.5 56.5 t111.5 195.5h6v-549h-6q-35 139 -111.5 195.5t-195.5 56.5q-25 0 -25 -35v-278q0 -178 27 -250t108 -72q205 0 369 453z" glyph-name="Emacron" horiz-adv-x="946" unicode="Ē"/><glyph d="M72 1237l57 174h573l-57 -174h-573zM446 -20q-168 0 -282.5 156.5t-114.5 383.5q0 223 107.5 373.5t271.5 150.5q125 0 203 -86t74 -229q-4 -90 -33 -131h-340q-39 0 -54.5 -12.5t-15.5 -46.5q0 -131 94.5 -254t249.5 -123q90 0 127 55q-23 -94 -97.5 -165.5 t-189.5 -71.5zM326 645q164 0 163 207q0 147 -88 147q-59 0 -106 -63.5t-47 -192.5q0 -55 15.5 -76.5t62.5 -21.5z" glyph-name="emacron" horiz-adv-x="790" unicode="ē"/><glyph d="M483.5 1604q-51.5 0 -88.5 42t-37 101q0 55 37 96t88.5 41t88 -41t36.5 -96q0 -59 -36.5 -101t-88 -42zM901 506h6l-61 -506h-787q39 29 55.5 52.5t28 100t11.5 224.5v680q0 147 -11.5 224t-28 100.5t-55.5 52.5h779l34 -519h-6q-92 258 -172 361.5t-168 103.5 q-78 0 -103.5 -72.5t-25.5 -248.5v-291q0 -35 25 -35q119 0 195.5 56.5t111.5 195.5h6v-549h-6q-35 139 -111.5 195.5t-195.5 56.5q-25 0 -25 -35v-278q0 -178 27 -250t108 -72q205 0 369 453z" glyph-name="Edotaccent" horiz-adv-x="946" unicode="Ė"/><glyph d="M387 1194q-51 0 -88 42t-37 101q0 55 37 96.5t88 41.5t88 -41t37 -97q0 -59 -37 -101t-88 -42zM446 -20q-168 0 -282.5 156.5t-114.5 383.5q0 223 107.5 373.5t271.5 150.5q125 0 203 -86t74 -229q-4 -90 -33 -131h-340q-39 0 -54.5 -12.5t-15.5 -46.5q0 -131 94.5 -254 t249.5 -123q90 0 127 55q-23 -94 -97.5 -165.5t-189.5 -71.5zM326 645q164 0 163 207q0 147 -88 147q-59 0 -106 -63.5t-47 -192.5q0 -55 15.5 -76.5t62.5 -21.5z" glyph-name="edotaccent" horiz-adv-x="790" unicode="ė"/><glyph d="M723 1903l-240 -338l-239 338l4 4l235 -115l236 115zM901 506h6l-61 -506h-787q39 29 55.5 52.5t28 100t11.5 224.5v680q0 147 -11.5 224t-28 100.5t-55.5 52.5h779l34 -519h-6q-92 258 -172 361.5t-168 103.5q-78 0 -103.5 -72.5t-25.5 -248.5v-291q0 -35 25 -35 q119 0 195.5 56.5t111.5 195.5h6v-549h-6q-35 139 -111.5 195.5t-195.5 56.5q-25 0 -25 -35v-278q0 -178 27 -250t108 -72q205 0 369 453z" glyph-name="Ecaron" horiz-adv-x="946" unicode="Ě"/><glyph d="M387 1155l-240 338l5 4l235 -115l236 115l4 -4zM446 -20q-168 0 -282.5 156.5t-114.5 383.5q0 223 107.5 373.5t271.5 150.5q125 0 203 -86t74 -229q-4 -90 -33 -131h-340q-39 0 -54.5 -12.5t-15.5 -46.5q0 -131 94.5 -254t249.5 -123q90 0 127 55q-23 -94 -97.5 -165.5 t-189.5 -71.5zM326 645q164 0 163 207q0 147 -88 147q-59 0 -106 -63.5t-47 -192.5q0 -55 15.5 -76.5t62.5 -21.5z" glyph-name="ecaron" horiz-adv-x="790" unicode="ě"/><glyph d="M565 1604q-51 0 -88 42t-37 101q0 55 37 96t88 41t88 -41t37 -96q0 -59 -37 -101t-88 -42zM563 -20q-193 0 -343 214t-150 537q0 188 52 347t173 267.5t293 108.5q119 0 231 -35q6 -51 60 -526h-7q-100 240 -200.5 371t-177.5 131q-31 0 -61 -19.5t-59.5 -64.5t-48 -133 t-18.5 -209q0 -201 48 -419t127 -365.5t159 -147.5q31 0 40 21.5t9 72.5v127q0 213 -21.5 307t-80.5 154h403q-53 -59 -73.5 -154.5t-20.5 -306.5v-262h-4q-43 43 -102 43q-37 0 -103 -29.5t-125 -29.5z" glyph-name="Gdotaccent" horiz-adv-x="1030" unicode="Ġ"/><glyph d="M413.5 1194q-51.5 0 -88 42t-36.5 101q0 55 36.5 96.5t88 41.5t88.5 -41t37 -97q0 -59 -37 -101t-88.5 -42zM354 223q268 -143 350 -212.5t82 -135.5q0 -104 -115.5 -173t-277.5 -69q-145 0 -254.5 48.5t-109.5 142.5q0 49 31.5 85t68.5 52t67.5 30.5t27.5 31t-50 43.5 q-92 49 -92 100q0 27 23.5 52.5t99.5 76.5q45 33 45 47q0 18 -45 45q-147 94 -148 295q0 162 95.5 252t232.5 90h412l-152 -137q70 -82 70 -209q0 -158 -93.5 -248t-230.5 -90q-59 0 -82.5 -8t-23.5 -33q-1 -39 69 -76zM340 977q-70 0 -70 -152q0 -139 45 -288.5t119 -149.5 t74 148q0 139 -48 290.5t-120 151.5zM426 -330q135 0 135 86q0 98 -252 236q-39 23 -70.5 -11t-31.5 -98q0 -86 62.5 -149.5t156.5 -63.5z" glyph-name="gdotaccent" horiz-adv-x="825" unicode="ġ"/><glyph d="M588 719h403q-53 -59 -73.5 -154.5t-20.5 -306.5v-262h-4q-43 43 -102 43q-37 0 -102.5 -29.5t-125.5 -29.5q-193 0 -343 214t-150 537q0 188 52 347t173 267.5t293 108.5q119 0 231 -35q6 -51 60 -526h-7q-100 240 -200.5 371t-177.5 131q-31 0 -61 -19.5t-59.5 -64.5 t-48 -133t-18.5 -209q0 -201 48 -419t127 -365.5t159 -147.5q31 0 40 21.5t9 72.5v127q0 213 -21.5 307.5t-80.5 153.5zM539 -121q53 0 89 -45t36 -113q0 -86 -56.5 -169.5t-140.5 -129.5l-4 7q55 66 59 168q-45 6 -75.5 46t-30.5 93q0 59 36 101t87 42z" glyph-name="Gcommaaccent" horiz-adv-x="1030" unicode="Ģ"/><glyph d="M438 1157q-53 0 -89 45t-36 113q0 86 56.5 170t140.5 129l4 -6q-55 -66 -59 -168q45 -6 75.5 -46t30.5 -94q0 -59 -36 -101t-87 -42zM354 223q268 -143 350 -212.5t82 -135.5q0 -104 -115.5 -173t-277.5 -69q-145 0 -254.5 48.5t-109.5 142.5q0 49 31.5 85t68.5 52 t67.5 30.5t27.5 31t-50 43.5q-92 49 -92 100q0 27 23.5 52.5t99.5 76.5q45 33 45 47q0 18 -45 45q-147 94 -148 295q0 162 95.5 252t232.5 90h412l-152 -137q70 -82 70 -209q0 -158 -93.5 -248t-230.5 -90q-59 0 -82.5 -8t-23.5 -33q-1 -39 69 -76zM340 977q-70 0 -70 -152 q0 -139 45 -288.5t119 -149.5t74 148q0 139 -48 290.5t-120 151.5zM426 -330q135 0 135 86q0 98 -252 236q-39 23 -70.5 -11t-31.5 -98q0 -86 62.5 -149.5t156.5 -63.5z" glyph-name="gcommaaccent" horiz-adv-x="825" unicode="ģ"/><glyph d="M-39 1647l57 174h574l-57 -174h-574zM59 0q39 29 55.5 52.5t28 100t11.5 224.5v680q0 147 -11.5 224t-28 100.5t-55.5 52.5h433q-39 -29 -55.5 -52.5t-28 -100.5t-11.5 -224v-680q0 -147 11.5 -224t28 -100.5t55.5 -52.5h-433z" glyph-name="Imacron" horiz-adv-x="548" unicode="Ī"/><glyph d="M-96 1237l57 174h574l-58 -174h-573zM49 0q59 78 60 205v577q0 127 -60 205l279 57v-839q0 -127 59 -205h-338z" glyph-name="imacron" horiz-adv-x="436" unicode="ī"/><glyph d="M276.5 1604q-51.5 0 -88 42t-36.5 101q0 55 36.5 96t88 41t88 -41t36.5 -96q0 -59 -36.5 -101t-88 -42zM59 0q39 29 55.5 52.5t28 100t11.5 224.5v680q0 147 -11.5 224t-28 100.5t-55.5 52.5h433q-39 -29 -55.5 -52.5t-28 -100.5t-11.5 -224v-680q0 -147 11.5 -224 t28 -100.5t55.5 -52.5h-433z" glyph-name="Idotaccent" horiz-adv-x="548" unicode="İ"/><glyph d="M49 0q59 78 60 205v577q0 127 -60 205l279 57v-839q0 -127 59 -205h-338z" glyph-name="dotlessi" horiz-adv-x="436" unicode="ı"/><glyph d="M59 0q39 29 55.5 52.5t28 100t11.5 224.5v680q0 147 -11.5 224t-28 100.5t-55.5 52.5h433q-39 -29 -55.5 -52.5t-28 -100.5t-11.5 -224v-680q0 -147 11.5 -224t28 -100.5t55.5 -52.5h-433zM764 492q109 -250 161 -347.5t97 -144.5h-346q-14 94 -144 410l-126 307 q172 256 243.5 392t71.5 214q0 74 -64 111h336q-82 -39 -170 -153t-243 -368zM500 -121q53 0 89 -45t36 -113q0 -86 -56.5 -169.5t-140.5 -129.5l-4 7q55 66 59 168q-45 6 -75.5 46t-30.5 93q0 59 36 101t87 42z" glyph-name="Kcommaaccent" horiz-adv-x="1019" unicode="Ķ"/><glyph d="M49 1434l279 65v-1294q0 -127 59 -205h-338q59 78 60 205v1024q-1 127 -60 205zM707 252q106 -207 188 -252h-301l-266 528l90 113q82 102 106.5 147.5t24.5 79.5q0 55 -32 99.5t-73 54.5v2h420v-2q-82 -43 -115.5 -64.5t-86 -71.5t-121.5 -141l-52 -65zM440 -121 q53 0 89 -45t36 -113q0 -86 -56 -169.5t-140 -129.5l-4 7q55 66 59 168q-45 6 -76 46t-31 93q0 59 36 101t87 42z" glyph-name="kcommaaccent" horiz-adv-x="882" unicode="ķ"/><glyph d="M301 1565l-2 4l213 338q35 -12 90 -72.5t60 -99.5zM59 0q39 29 55.5 52.5t28 100t11.5 224.5v680q0 147 -11.5 224t-28 100.5t-55.5 52.5h433q-39 -29 -55.5 -52.5t-28 -100.5t-11.5 -224v-682q0 -176 26 -249t105 -73q88 0 166 118t189 398h6l-80 -569h-750z" glyph-name="Lacute" horiz-adv-x="917" unicode="Ĺ"/><glyph d="M96 1565l-2 4l213 338q35 -12 90.5 -72.5t59.5 -99.5zM49 0q59 78 60 205v1024q0 127 -60 205l279 65v-1294q0 -127 59 -205h-338z" glyph-name="lacute" horiz-adv-x="436" unicode="ĺ"/><glyph d="M883 569h6l-80 -569h-750q39 29 55.5 52.5t28 100t11.5 224.5v680q0 147 -11.5 224t-28 100.5t-55.5 52.5h433q-39 -29 -55.5 -52.5t-28 -100.5t-11.5 -224v-682q0 -176 26 -249t105 -73q88 0 166 117.5t189 398.5zM469 -121q53 0 89 -45t36 -113q0 -86 -56.5 -169.5 t-140.5 -129.5l-4 7q55 66 60 168q-45 6 -76 46t-31 93q0 59 36 101t87 42z" glyph-name="Lcommaaccent" horiz-adv-x="917" unicode="Ļ"/><glyph d="M49 0q59 78 60 205v1024q0 127 -60 205l279 65v-1294q0 -127 59 -205h-338zM215 -121q53 0 89 -45t36 -113q0 -86 -56.5 -169.5t-140.5 -129.5l-4 7q55 66 60 168q-45 6 -76 46t-31 93q0 59 36 101t87 42z" glyph-name="lcommaaccent" horiz-adv-x="436" unicode="ļ"/><glyph d="M883 569h6l-80 -569h-750q39 29 55.5 52.5t28 100t11.5 224.5v315h-134v35h134v330q0 147 -11.5 224t-28 100.5t-55.5 52.5h433q-39 -29 -55.5 -52.5t-28 -100.5t-11.5 -224v-322l238 15l-21 -58h-217v-317q0 -176 26 -249t105 -73q88 0 166 117.5t189 398.5z" glyph-name="Lslash" horiz-adv-x="917" unicode="Ł"/><glyph d="M328 840v-635q0 -127 59 -205h-338q59 78 60 205v457l-78 -64l-21 31l99 80v520q0 127 -60 205l279 65v-610l84 67l20 -30z" glyph-name="lslash" horiz-adv-x="444" unicode="ł"/><glyph d="M774 1735l-360 -170l-2 4l213 338q37 -12 91 -72.5t58 -99.5zM1030 1434q-55 -27 -77.5 -52.5t-37 -100.5t-14.5 -224v-516q0 -268 17 -582h-11l-692 1171v-753q0 -152 14.5 -225.5t39 -99t85.5 -52.5h-325q55 27 77.5 52.5t37 100t14.5 224.5v680q0 147 -17.5 224 t-41 100.5t-81.5 52.5h357q2 -20 13 -48t20.5 -44.5t33 -58.5t31.5 -58l371 -668v500q0 150 -14.5 224.5t-37 100t-77.5 52.5h315z" glyph-name="Nacute" horiz-adv-x="1046" unicode="Ń"/><glyph d="M707 1325l-361 -170l-2 4l213 338q35 -12 90.5 -72.5t59.5 -99.5zM545 0q59 78 59 205v502q0 166 -125 165q-84 0 -151 -55v-612q0 -127 59 -205h-338q59 78 60 205v577q0 127 -60 205l279 57v-190q180 190 321 190q174 0 174 -268v-571q0 -127 60 -205h-338z" glyph-name="nacute" horiz-adv-x="942" unicode="ń"/><glyph d="M1030 1434q-55 -27 -77.5 -52.5t-37 -100.5t-14.5 -224v-516q0 -268 17 -582h-11l-692 1171v-753q0 -152 14.5 -225.5t39 -99t85.5 -52.5h-325q55 27 77.5 52.5t37 100t14.5 224.5v680q0 147 -17.5 224t-41 100.5t-81.5 52.5h357q2 -20 13 -48t20.5 -44.5t33 -58.5 t31.5 -58l371 -668v500q0 150 -14.5 224.5t-37 100t-77.5 52.5h315zM530 -121q53 0 89 -45t36 -113q0 -86 -56 -169.5t-140 -129.5l-4 7q55 66 59 168q-45 6 -75.5 46t-30.5 93q0 59 35.5 101t86.5 42z" glyph-name="Ncommaaccent" horiz-adv-x="1046" unicode="Ņ"/><glyph d="M49 0q59 78 60 205v577q0 127 -60 205l279 57v-190q180 190 321 190q174 0 174 -268v-571q0 -127 60 -205h-338q59 78 59 205v502q0 166 -125 165q-84 0 -151 -55v-612q0 -127 59 -205h-338zM459 -121q53 0 89 -45t36 -113q0 -86 -56.5 -169.5t-140.5 -129.5l-4 7 q55 66 59 168q-45 6 -75.5 46t-30.5 93q0 59 36 101t87 42z" glyph-name="ncommaaccent" horiz-adv-x="942" unicode="ņ"/><glyph d="M776 1903l-239 -338l-240 338l4 4l236 -115l235 115zM1030 1434q-55 -27 -77.5 -52.5t-37 -100.5t-14.5 -224v-516q0 -268 17 -582h-11l-692 1171v-753q0 -152 14.5 -225.5t39 -99t85.5 -52.5h-325q55 27 77.5 52.5t37 100t14.5 224.5v680q0 147 -17.5 224t-41 100.5 t-81.5 52.5h357q2 -20 13 -48t20.5 -44.5t33 -58.5t31.5 -58l371 -668v500q0 150 -14.5 224.5t-37 100t-77.5 52.5h315z" glyph-name="Ncaron" horiz-adv-x="1046" unicode="Ň"/><glyph d="M709 1493l-240 -338l-240 338l4 4l236 -115l236 115zM545 0q59 78 59 205v502q0 166 -125 165q-84 0 -151 -55v-612q0 -127 59 -205h-338q59 78 60 205v577q0 127 -60 205l279 57v-190q180 190 321 190q174 0 174 -268v-571q0 -127 60 -205h-338z" glyph-name="ncaron" horiz-adv-x="942" unicode="ň"/><glyph d="M219 1647l57 174h574l-57 -174h-574zM532.5 -20q-151.5 0 -259 111.5t-155.5 274t-48 351.5q0 197 48 359.5t155.5 270t259 107.5t259 -111.5t155.5 -274.5t48 -351q0 -197 -48 -359.5t-155.5 -270t-259 -107.5zM623 37q131 0 131 342q0 199 -33 424t-108.5 408.5 t-172.5 183.5q-131 0 -131 -338q0 -199 34 -426.5t109 -410.5t171 -183z" glyph-name="Omacron" horiz-adv-x="1064" unicode="Ō"/><glyph d="M117 1237l57 174h574l-58 -174h-573zM424 -20q-174 0 -274.5 152.5t-100.5 379.5q0 231 107.5 381.5t281.5 150.5q172 0 272.5 -152.5t100.5 -379.5q0 -231 -106.5 -381.5t-280.5 -150.5zM504 35q92 0 92 227q0 129 -24.5 290t-82 299t-131.5 138q-94 0 -94 -227 q0 -129 24.5 -290t82 -299t133.5 -138z" glyph-name="omacron" horiz-adv-x="860" unicode="ō"/><glyph d="M176 1565l-2 4l213 338q37 -12 91 -72.5t59 -99.5zM504 1565l-2 4l213 338q37 -12 91 -72.5t58 -99.5zM532.5 -20q-151.5 0 -259 111.5t-155.5 274t-48 351.5q0 197 48 359.5t155.5 270t259 107.5t259 -111.5t155.5 -274.5t48 -351q0 -197 -48 -359.5t-155.5 -270 t-259 -107.5zM623 37q131 0 131 342q0 199 -33 424t-108.5 408.5t-172.5 183.5q-131 0 -131 -338q0 -199 34 -426.5t109 -410.5t171 -183z" glyph-name="Ohungarumlaut" horiz-adv-x="1064" unicode="Ő"/><glyph d="M76 1155l-2 4l213 338q35 -12 90 -72.5t59 -99.5zM403 1155l-2 4l213 338q37 -12 91.5 -72.5t58.5 -99.5zM424 -20q-174 0 -274.5 152.5t-100.5 379.5q0 231 107.5 381.5t281.5 150.5q172 0 272.5 -152.5t100.5 -379.5q0 -231 -106.5 -381.5t-280.5 -150.5zM504 35 q92 0 92 227q0 129 -24.5 290t-82 299t-131.5 138q-94 0 -94 -227q0 -129 24.5 -290t82 -299t133.5 -138z" glyph-name="ohungarumlaut" horiz-adv-x="860" unicode="ő"/><glyph d="M1501 506h6l-63 -506h-432q-92 0 -232.5 -10t-247.5 -10q-152 0 -259 111.5t-155 274t-48 351.5q0 305 119.5 520t340.5 217h2q106 0 247 -10t233 -10h424l34 -519h-6q-90 258 -171 361.5t-169 103.5q-78 0 -103.5 -72.5t-25.5 -248.5v-291q0 -35 25 -35 q121 0 196.5 55.5t110.5 196.5h6v-549h-6q-35 141 -110.5 196.5t-196.5 55.5q-25 0 -25 -35v-278q0 -176 27 -249t108 -73q207 0 371 453zM309 1057q0 -199 34 -426.5t108.5 -410.5t171.5 -183q131 0 131 342q0 199 -33 424t-108.5 408.5t-172.5 183.5q-131 0 -131 -338z " glyph-name="OE" horiz-adv-x="1546" unicode="Œ"/><glyph d="M1157 162q90 0 127 55q-23 -94 -97.5 -165.5t-189.5 -71.5q-172 0 -286 161q-109 -162 -287 -161q-174 0 -274.5 152.5t-100.5 379.5q0 231 107.5 381.5t281.5 150.5q168 0 271 -149q111 150 270 149q125 0 203 -86t73 -229q-4 -90 -32 -131h-340q-39 0 -54.5 -12.5 t-15.5 -46.5q0 -131 94 -254t250 -123zM952 999q-59 0 -106 -63.5t-47 -192.5q0 -55 15 -76.5t63 -21.5q164 0 163 207q0 147 -88 147zM504 35q92 0 92 227q0 129 -24.5 290t-82 299t-131.5 138q-94 0 -94 -227q0 -129 24.5 -290t82 -299t133.5 -138z" glyph-name="oe" horiz-adv-x="1341" unicode="œ"/><glyph d="M780 1735l-360 -170l-2 4l213 338q35 -12 90 -72.5t59 -99.5zM700 733q203 -516 265 -624q53 -92 96 -107q-41 -12 -111 -12q-102 0 -181 72.5t-124 175t-79 206t-64.5 176t-63.5 72.5v6q143 0 176 34t33 147q0 502 -164 501q-47 0 -66.5 -65.5t-19.5 -257.5v-680 q0 -147 11.5 -224t28 -100.5t55.5 -52.5h-433q39 29 55.5 52.5t28 100t11.5 224.5v680q0 147 -11.5 224t-28 100.5t-55.5 52.5h494q147 0 245.5 -102.5t98.5 -266.5q0 -234 -197 -332z" glyph-name="Racute" unicode="Ŕ"/><glyph d="M526 1325l-360 -170l-2 4l213 338q35 -12 90 -72.5t59 -99.5zM555 1044q41 0 65.5 -43t24.5 -108q0 -74 -35 -132.5t-75 -58.5q-20 0 -59.5 17.5t-76.5 17.5q-72 0 -71 -121v-411q0 -127 59 -205h-338q59 78 60 205v577q0 127 -60 205l279 57v-237q0 -31 18 -31 q14 0 27 27q76 166 110 205q35 36 72 36z" glyph-name="racute" horiz-adv-x="684" unicode="ŕ"/><glyph d="M700 733q203 -516 265 -624q53 -92 96 -107q-41 -12 -111 -12q-102 0 -181 72.5t-124 175t-79 206t-64.5 176t-63.5 72.5v6q143 0 176 34t33 147q0 502 -164 501q-47 0 -66.5 -65.5t-19.5 -257.5v-680q0 -147 11.5 -224t28 -100.5t55.5 -52.5h-433q39 29 55.5 52.5 t28 100t11.5 224.5v680q0 147 -11.5 224t-28 100.5t-55.5 52.5h494q147 0 245.5 -102.5t98.5 -266.5q0 -234 -197 -332zM539 -121q53 0 89 -45t36 -113q0 -86 -56.5 -169.5t-140.5 -129.5l-4 7q55 66 59 168q-45 6 -75.5 46t-30.5 93q0 59 36 101t87 42z" glyph-name="Rcommaaccent" unicode="Ŗ"/><glyph d="M555 1044q41 0 65.5 -43t24.5 -108q0 -74 -35 -132.5t-75 -58.5q-20 0 -59.5 17.5t-76.5 17.5q-72 0 -71 -121v-411q0 -127 59 -205h-338q59 78 60 205v577q0 127 -60 205l279 57v-237q0 -31 18 -31q14 0 27 27q76 166 110 205q35 36 72 36zM221 -121q53 0 89 -45 t36 -113q0 -86 -56.5 -169.5t-139.5 -129.5l-5 7q55 66 60 168q-45 6 -76 46t-31 93q0 59 36 101t87 42z" glyph-name="rcommaaccent" horiz-adv-x="684" unicode="ŗ"/><glyph d="M782 1903l-239 -338l-240 338l4 4l236 -115l235 115zM700 733q203 -516 265 -624q53 -92 96 -107q-41 -12 -111 -12q-102 0 -181 72.5t-124 175t-79 206t-64.5 176t-63.5 72.5v6q143 0 176 34t33 147q0 502 -164 501q-47 0 -66.5 -65.5t-19.5 -257.5v-680 q0 -147 11.5 -224t28 -100.5t55.5 -52.5h-433q39 29 55.5 52.5t28 100t11.5 224.5v680q0 147 -11.5 224t-28 100.5t-55.5 52.5h494q147 0 245.5 -102.5t98.5 -266.5q0 -234 -197 -332z" glyph-name="Rcaron" unicode="Ř"/><glyph d="M530 1493l-239 -338l-240 338l4 4l236 -115l235 115zM555 1044q41 0 65.5 -43t24.5 -108q0 -74 -35 -132.5t-75 -58.5q-20 0 -59.5 17.5t-76.5 17.5q-72 0 -71 -121v-411q0 -127 59 -205h-338q59 78 60 205v577q0 127 -60 205l279 57v-237q0 -31 18 -31q14 0 27 27 q76 166 110 205q35 36 72 36z" glyph-name="rcaron" horiz-adv-x="684" unicode="ř"/><glyph d="M301 1565l-2 4l213 338q35 -12 90 -72.5t60 -99.5zM377 -20q-174 0 -273 61l-26 498h4q78 -225 169 -368.5t179 -143.5q45 0 79 33.5t34 101.5q0 106 -107 268l-192 299q-8 10 -36 54t-35 54.5t-27.5 46.5t-26.5 49t-19.5 43t-17.5 49t-8 45t-4 52q0 152 101 242t261 90 q119 0 250 -68l29 -483h-4q-23 47 -69 146.5t-69.5 143.5t-58.5 103.5t-63.5 83t-59.5 23.5q-39 0 -68.5 -34t-29.5 -97q0 -109 102 -271l166 -260q14 -23 58 -86t64.5 -98t49.5 -89t41 -102.5t12 -95.5q-2 -137 -112.5 -213.5t-292.5 -76.5z" glyph-name="Sacute" horiz-adv-x="819" unicode="Ś"/><glyph d="M233 1155l-2 4l213 338q35 -12 90.5 -72.5t59.5 -99.5zM350 -20q-143 0 -266 69l-10 363q55 -152 144 -272t171 -120q31 0 53.5 20.5t22.5 61.5q0 70 -119 226l-143 186q-98 135 -119 195q-14 45 -14 90q0 109 74.5 177t203.5 68q158 0 236 -69l37 -342q-8 16 -37 69.5 t-41.5 76t-38 66.5t-43 64.5t-40 47t-44 37t-41.5 10.5q-29 0 -49.5 -21.5t-20.5 -64.5q0 -72 88 -195l146 -193q6 -8 27.5 -35.5t30.5 -40t27.5 -38t27 -40t21.5 -38t18 -41.5t10.5 -41t5.5 -43q0 -106 -90.5 -169.5t-227.5 -63.5z" glyph-name="sacute" horiz-adv-x="706" unicode="ś"/><glyph d="M557 741q14 -23 58 -86t64.5 -98t49.5 -89t41 -102.5t12 -95.5q-2 -117 -84 -190.5t-223 -93.5q-31 -35 -31 -66q0 -35 28 -67.5t55.5 -55t27.5 -33.5q0 -57 -103.5 -126.5t-160.5 -69.5q-23 0 -36 14.5t-13 32.5q0 27 27.5 33t61.5 0t61.5 -3t27.5 25q0 31 -57.5 81 t-57.5 71q0 27 133 160q-20 -2 -61 -2q-174 0 -273 61l-26 498h4q78 -225 169 -368.5t179 -143.5q45 0 79 33.5t34 101.5q0 106 -107 268l-192 299q-8 10 -36 54t-35 54.5t-27.5 46.5t-26.5 49t-19.5 43t-17.5 49t-8 45t-4 52q0 152 101 242t261 90q119 0 250 -68l29 -483 h-4q-23 47 -69 146.5t-69.5 143.5t-58.5 103.5t-63.5 83t-59.5 23.5q-39 0 -68.5 -34t-29.5 -97q0 -109 102 -271z" glyph-name="Scedilla" horiz-adv-x="819" unicode="Ş"/><glyph d="M668 213q0 -96 -74 -157.5t-191 -73.5q-27 -35 -26 -62q0 -35 27.5 -67.5t55 -55t27.5 -33.5q0 -57 -103 -126.5t-161 -69.5q-23 0 -36 14.5t-13 32.5q0 27 27.5 33t61.5 0t61.5 -3t27.5 25q0 31 -57 81t-57 71q0 27 131 158h-19q-143 0 -266 69l-10 363 q55 -152 144 -272t171 -120q31 0 53.5 20.5t22.5 61.5q0 70 -119 226l-143 186q-98 135 -119 195q-14 45 -14 90q0 109 74.5 177t203.5 68q158 0 236 -69l37 -342q-8 16 -37 69.5t-41.5 76t-38 66.5t-43 64.5t-40 47t-44 37t-41.5 10.5q-29 0 -49.5 -21.5t-20.5 -64.5 q0 -72 88 -195l146 -193q6 -8 27.5 -35.5t30.5 -40t27.5 -38t27 -40t21.5 -38t18 -41.5t10.5 -41t5.5 -43z" glyph-name="scedilla" horiz-adv-x="706" unicode="ş"/><glyph d="M424 1565l-240 338l4 4l236 -115l235 115l5 -4zM377 -20q-174 0 -273 61l-26 498h4q78 -225 169 -368.5t179 -143.5q45 0 79 33.5t34 101.5q0 106 -107 268l-192 299q-8 10 -36 54t-35 54.5t-27.5 46.5t-26.5 49t-19.5 43t-17.5 49t-8 45t-4 52q0 152 101 242t261 90 q119 0 250 -68l29 -483h-4q-23 47 -69 146.5t-69.5 143.5t-58.5 103.5t-63.5 83t-59.5 23.5q-39 0 -68.5 -34t-29.5 -97q0 -109 102 -271l166 -260q14 -23 58 -86t64.5 -98t49.5 -89t41 -102.5t12 -95.5q-2 -137 -112.5 -213.5t-292.5 -76.5z" glyph-name="Scaron" horiz-adv-x="819" unicode="Š"/><glyph d="M356 1155l-239 338l4 4l235 -115l236 115l4 -4zM350 -20q-143 0 -266 69l-10 363q55 -152 144 -272t171 -120q31 0 53.5 20.5t22.5 61.5q0 70 -119 226l-143 186q-98 135 -119 195q-14 45 -14 90q0 109 74.5 177t203.5 68q158 0 236 -69l37 -342q-8 16 -37 69.5t-41.5 76 t-38 66.5t-43 64.5t-40 47t-44 37t-41.5 10.5q-29 0 -49.5 -21.5t-20.5 -64.5q0 -72 88 -195l146 -193q6 -8 27.5 -35.5t30.5 -40t27.5 -38t27 -40t21.5 -38t18 -41.5t10.5 -41t5.5 -43q0 -106 -90.5 -169.5t-227.5 -63.5z" glyph-name="scaron" horiz-adv-x="706" unicode="š"/><glyph d="M621 1389q-29 0 -35 -27t-6 -127v-858q0 -152 12 -225.5t32.5 -99t69.5 -52.5h-172q-43 -45 -43 -80t28 -67.5t55.5 -55t27.5 -33.5q0 -57 -103.5 -126.5t-160.5 -69.5q-23 0 -36.5 14.5t-13.5 32.5q0 27 28 33t61.5 0t61.5 -3t28 25q0 31 -57.5 81t-57.5 71q0 10 9 25.5 t29.5 38t34 37t43 43t36.5 34.5h-269q49 27 69.5 52.5t33 99t12.5 225.5v858q0 100 -6 127t-35 27q-33 0 -71 -73t-128 -290q-33 -80 -53 -127h-6l18 541q102 -6 281 -6h242q178 0 280 6l19 -541h-7q-162 381 -190 430q-34 60 -61 60z" glyph-name="Tcommaaccent" horiz-adv-x="917" unicode="Ţ"/><glyph d="M532 104q-12 -37 -75.5 -75.5t-126.5 -46.5q-27 -35 -27 -62q0 -35 27.5 -67.5t55.5 -55t28 -33.5q0 -57 -103.5 -126.5t-160.5 -69.5q-23 0 -36.5 14.5t-13.5 32.5q0 27 28 33t61.5 0t61.5 -3t28 25q0 31 -57.5 81t-57.5 71q0 31 131 158q-70 6 -114 63t-44 145v721 h-119l338 426v-313q104 0 166 6l-30 -119h-136v-676q0 -139 111 -139q27 0 63 10h2z" glyph-name="tcommaaccent" horiz-adv-x="550" unicode="ţ"/><glyph d="M276 1647l58 174h573l-57 -174h-574zM541 -20q-190 0 -288.5 122.5t-98.5 311.5v643q0 147 -11.5 224t-28 100.5t-55.5 52.5h422q-35 -29 -48 -52.5t-24.5 -100.5t-11.5 -224v-643q0 -164 59.5 -261.5t168.5 -97.5q111 0 165 96.5t54 262.5v643q0 147 -12.5 224 t-30 100.5t-56.5 52.5h254q-39 -29 -56 -52.5t-29.5 -100.5t-12.5 -224v-643q0 -193 -86 -313.5t-274 -120.5z" glyph-name="Umacron" horiz-adv-x="1015" unicode="Ū"/><glyph d="M768 1411l-57 -174h-574l58 174h573zM883 37l-279 -57v190q-180 -190 -321 -190q-174 0 -174 268v493q0 168 -60 246l279 57v-727q0 -166 125 -165q74 0 151 53v536q0 168 -59 246l278 57v-802q1 -127 60 -205z" glyph-name="umacron" horiz-adv-x="942" unicode="ū"/><glyph d="M590 1591q-84 0 -137.5 58.5t-53.5 140.5q0 51 17 94h6q0 -59 42 -100t126 -41q86 0 127 41t41 100h6q18 -41 18 -94q0 -82 -54 -140.5t-138 -58.5zM541 -20q-190 0 -288.5 122.5t-98.5 311.5v643q0 147 -11.5 224t-28 100.5t-55.5 52.5h422q-35 -29 -48 -52.5 t-24.5 -100.5t-11.5 -224v-643q0 -164 59.5 -261.5t168.5 -97.5q111 0 165 96.5t54 262.5v643q0 147 -12.5 224t-30 100.5t-56.5 52.5h254q-39 -29 -56 -52.5t-29.5 -100.5t-12.5 -224v-643q0 -193 -86 -313.5t-274 -120.5z" glyph-name="Ubreve" horiz-adv-x="1015" unicode="Ŭ"/><glyph d="M451 1182q-84 0 -137.5 58t-53.5 140q0 51 16 95h7q0 -59 42 -100.5t126 -41.5q86 0 126.5 41t40.5 101h7q18 -41 18 -95q0 -82 -54 -140t-138 -58zM883 37l-279 -57v190q-180 -190 -321 -190q-174 0 -174 268v493q0 168 -60 246l279 57v-727q0 -166 125 -165 q74 0 151 53v536q0 168 -59 246l278 57v-802q1 -127 60 -205z" glyph-name="ubreve" horiz-adv-x="942" unicode="ŭ"/><glyph d="M589.5 1563q-59.5 0 -101.5 48t-42 113.5t42 112.5t101.5 47t101.5 -47t42 -112.5t-42 -113.5t-101.5 -48zM590 1591q49 0 82 39t33 94.5t-33 93t-82 37.5t-82 -37.5t-33 -93t33 -94.5t82 -39zM541 -20q-190 0 -288.5 122.5t-98.5 311.5v643q0 147 -11.5 224t-28 100.5 t-55.5 52.5h422q-35 -29 -48 -52.5t-24.5 -100.5t-11.5 -224v-643q0 -164 59.5 -261.5t168.5 -97.5q111 0 165 96.5t54 262.5v643q0 147 -12.5 224t-30 100.5t-56.5 52.5h254q-39 -29 -56 -52.5t-29.5 -100.5t-12.5 -224v-643q0 -193 -86 -313.5t-274 -120.5z" glyph-name="Uring" horiz-adv-x="1015" unicode="Ů"/><glyph d="M450.5 1153q-59.5 0 -101.5 48t-42 113.5t42 113t101.5 47.5t101.5 -47.5t42 -113t-42 -113.5t-101.5 -48zM450.5 1446q-49.5 0 -82 -38t-32.5 -93t32.5 -94t82 -39t82 39t32.5 94t-32.5 93t-82 38zM883 37l-279 -57v190q-180 -190 -321 -190q-174 0 -174 268v493 q0 168 -60 246l279 57v-727q0 -166 125 -165q74 0 151 53v536q0 168 -59 246l278 57v-802q1 -127 60 -205z" glyph-name="uring" horiz-adv-x="942" unicode="ů"/><glyph d="M233 1565l-2 4l213 338q35 -12 90.5 -72.5t59.5 -99.5zM561 1565l-2 4l213 338q35 -12 90.5 -72.5t59.5 -99.5zM541 -20q-190 0 -288.5 122.5t-98.5 311.5v643q0 147 -11.5 224t-28 100.5t-55.5 52.5h422q-35 -29 -48 -52.5t-24.5 -100.5t-11.5 -224v-643 q0 -164 59.5 -261.5t168.5 -97.5q111 0 165 96.5t54 262.5v643q0 147 -12.5 224t-30 100.5t-56.5 52.5h254q-39 -29 -56 -52.5t-29.5 -100.5t-12.5 -224v-643q0 -193 -86 -313.5t-274 -120.5z" glyph-name="Uhungarumlaut" horiz-adv-x="1015" unicode="Ű"/><glyph d="M455 1325l-361 -170l-2 4l213 338q35 -12 90.5 -72.5t59.5 -99.5zM422 1155l-2 4l213 338q35 -12 90 -72.5t59 -99.5zM883 37l-279 -57v190q-180 -190 -321 -190q-174 0 -174 268v493q0 168 -60 246l279 57v-727q0 -166 125 -165q74 0 151 53v536q0 168 -59 246l278 57 v-802q1 -127 60 -205z" glyph-name="uhungarumlaut" horiz-adv-x="942" unicode="ű"/><glyph d="M760 1679l-236 -114l-4 4l240 338l239 -338l-4 -4zM1270 1434h235q-109 -100 -188 -377l-313 -1090l-252 824l-238 -824l-334 1090q-92 299 -172 377h391q-25 -27 -26.5 -76t11.5 -110.5t50 -190.5l176 -621l64 256q27 111 22.5 202t-45.5 218h2q-80 246 -155 322h391 q-25 -27 -28 -75t11.5 -112.5t51.5 -189.5l176 -625l162 625q45 168 46 253t-38 124z" glyph-name="Wcircumflex" horiz-adv-x="1513" unicode="Ŵ"/><glyph d="M637 1270l-236 -115l-4 4l240 338l240 -338l-5 -4zM1040 1024h217q-74 -49 -139 -248l-272 -815h-2l-217 660l-217 -660h-2l-269 815q-37 109 -69.5 164t-81.5 84h391q-68 -53 -8 -248l125 -418l63 195q39 125 7.5 263t-115.5 208h366q-70 -55 -10 -248l125 -418l131 418 q59 189 -23 248z" glyph-name="wcircumflex" horiz-adv-x="1245" unicode="ŵ"/><glyph d="M496 1679l-236 -114l-4 4l240 338l239 -338l-4 -4zM737 1434h248q-137 -104 -237 -377l-144 -389v-291q0 -147 11.5 -224t27.5 -100.5t55 -52.5h-432q39 29 55.5 52.5t27.5 100t11 224.5v270l-141 410q-96 279 -211 377h406q-18 -18 -23.5 -43t5 -77t19.5 -88t38 -128 q8 -27 12 -41l100 -330l115 330q37 111 49 148.5t26.5 97t8 85.5t-26.5 46z" glyph-name="Ycircumflex" horiz-adv-x="993" unicode="Ŷ"/><glyph d="M387 1270l-235 -115l-5 4l240 338l240 -338l-4 -4zM590 1024h217q-80 -55 -141 -248l-238 -737q-20 -61 -32.5 -97t-42 -101.5t-59.5 -102.5t-74 -67.5t-93 -30.5q-72 0 -94 32v207q68 -23 139 -22q193 0 193 157q0 29 -8.5 69t-16.5 65.5t-29.5 88t-27.5 82.5l-152 457 q-63 195 -143 248h403q-47 -29 -51 -85t29 -163l120 -422l123 422q54 191 -22 248z" glyph-name="ycircumflex" horiz-adv-x="792" unicode="ŷ"/><glyph d="M332 1604q-51 0 -88 42t-37 101q0 55 37 96t88 41t88 -41t37 -96q0 -59 -37 -101t-88 -42zM663.5 1604q-51.5 0 -88 42t-36.5 101q0 55 36.5 96t88 41t88 -41t36.5 -96q0 -57 -36.5 -100t-88 -43zM737 1434h248q-137 -104 -237 -377l-144 -389v-291q0 -147 11.5 -224 t27.5 -100.5t55 -52.5h-432q39 29 55.5 52.5t27.5 100t11 224.5v270l-141 410q-96 279 -211 377h406q-18 -18 -23.5 -43t5 -77t19.5 -88t38 -128q8 -27 12 -41l100 -330l115 330q37 111 49 148.5t26.5 97t8 85.5t-26.5 46z" glyph-name="Ydieresis" horiz-adv-x="993" unicode="Ÿ"/><glyph d="M666 1735l-361 -170l-2 4l213 338q37 -12 91.5 -72.5t58.5 -99.5zM291 35q242 20 341 115.5t206 398.5l-74 -549h-735l549 1397q-156 -16 -243 -63.5t-145.5 -142.5t-128.5 -296l74 539h713z" glyph-name="Zacute" horiz-adv-x="886" unicode="Ź"/><glyph d="M670 1325l-361 -170l-2 4l213 338q37 -12 91.5 -72.5t58.5 -99.5zM301 47q143 0 243.5 73t186.5 277l-69 -397h-623l436 977h-41q-127 0 -203.5 -68.5t-167.5 -281.5l70 397h604z" glyph-name="zacute" horiz-adv-x="776" unicode="ź"/><glyph d="M428 1604q-51 0 -88 42t-37 101q0 55 37 96t88 41t88 -41t37 -96q0 -59 -37 -101t-88 -42zM291 35q242 20 341 115.5t206 398.5l-74 -549h-735l549 1397q-156 -16 -243 -63.5t-145.5 -142.5t-128.5 -296l74 539h713z" glyph-name="Zdotaccent" horiz-adv-x="886" unicode="Ż"/><glyph d="M432 1194q-51 0 -88 42t-37 101q0 55 37 96.5t88 41.5t88 -41t37 -97q0 -59 -37 -101t-88 -42zM301 47q143 0 243.5 73t186.5 277l-69 -397h-623l436 977h-41q-127 0 -203.5 -68.5t-167.5 -281.5l70 397h604z" glyph-name="zdotaccent" horiz-adv-x="776" unicode="ż"/><glyph d="M668 1903l-240 -338l-240 338l5 4l235 -115l236 115zM291 35q242 20 341 115.5t206 398.5l-74 -549h-735l549 1397q-156 -16 -243 -63.5t-145.5 -142.5t-128.5 -296l74 539h713z" glyph-name="Zcaron" horiz-adv-x="886" unicode="Ž"/><glyph d="M672 1493l-240 -338l-239 338l4 4l235 -115l236 115zM301 47q143 0 243.5 73t186.5 277l-69 -397h-623l436 977h-41q-127 0 -203.5 -68.5t-167.5 -281.5l70 397h604z" glyph-name="zcaron" horiz-adv-x="776" unicode="ž"/><glyph d="M760 1903l-240 -338l-239 338l4 4l235 -115l236 115zM1036 0h-391q25 27 28 73t-11.5 111.5t-49.5 182.5h-362q-43 -160 -44 -245t38 -122h-236q104 96 189 377l323 1089l344 -1089q96 -301 172 -377zM598 416l-174 588l-162 -588h336z" glyph-name="uni01CD" unicode="Ǎ"/><glyph d="M395 1155l-239 338l4 4l235 -115l236 115l4 -4zM213 -20q-74 0 -124 52t-50 148q0 72 31.5 134.5t80 104.5t103.5 89t103.5 90t80 108.5t31.5 141.5q0 158 -76 158q-35 0 -91 -71t-124.5 -179.5t-77.5 -120.5h-4l35 360q123 49 289 49q143 0 206.5 -68.5t63.5 -217.5 v-574q0 -90 82 -90q20 0 35 10q0 -43 -57.5 -83.5t-120.5 -40.5q-70 0 -115 53t-45 135q0 16 -8 16q-12 0 -32.5 -31.5t-44.5 -70.5t-70 -70.5t-101 -31.5zM354 160q39 0 77 53t38 123v223q0 45 -14 45q-47 0 -119 -92t-72 -213q0 -72 26.5 -105.5t63.5 -33.5z" glyph-name="uni01CE" horiz-adv-x="825" unicode="ǎ"/><glyph d="M274 1565l-239 338l4 4l235 -115l236 115l4 -4zM59 0q39 29 55.5 52.5t28 100t11.5 224.5v680q0 147 -11.5 224t-28 100.5t-55.5 52.5h433q-39 -29 -55.5 -52.5t-28 -100.5t-11.5 -224v-680q0 -147 11.5 -224t28 -100.5t55.5 -52.5h-433z" glyph-name="uni01CF" horiz-adv-x="548" unicode="Ǐ"/><glyph d="M219 1155l-239 338l4 4l235 -115l236 115l4 -4zM49 0q59 78 60 205v577q0 127 -60 205l279 57v-839q0 -127 59 -205h-338z" glyph-name="uni01D0" horiz-adv-x="436" unicode="ǐ"/><glyph d="M532 1565l-239 338l4 4l235 -115l236 115l4 -4zM532.5 -20q-151.5 0 -259 111.5t-155.5 274t-48 351.5q0 197 48 359.5t155.5 270t259 107.5t259 -111.5t155.5 -274.5t48 -351q0 -197 -48 -359.5t-155.5 -270t-259 -107.5zM623 37q131 0 131 342q0 199 -33 424 t-108.5 408.5t-172.5 183.5q-131 0 -131 -338q0 -199 34 -426.5t109 -410.5t171 -183z" glyph-name="uni01D1" horiz-adv-x="1064" unicode="Ǒ"/><glyph d="M432 1155l-239 338l4 4l235 -115l236 115l4 -4zM424 -20q-174 0 -274.5 152.5t-100.5 379.5q0 231 107.5 381.5t281.5 150.5q172 0 272.5 -152.5t100.5 -379.5q0 -231 -106.5 -381.5t-280.5 -150.5zM504 35q92 0 92 227q0 129 -24.5 290t-82 299t-131.5 138 q-94 0 -94 -227q0 -129 24.5 -290t82 -299t133.5 -138z" glyph-name="uni01D2" horiz-adv-x="860" unicode="ǒ"/><glyph d="M590 1565l-240 338l4 4l236 -115l235 115l4 -4zM541 -20q-190 0 -288.5 122.5t-98.5 311.5v643q0 147 -11.5 224t-28 100.5t-55.5 52.5h422q-35 -29 -48 -52.5t-24.5 -100.5t-11.5 -224v-643q0 -164 59.5 -261.5t168.5 -97.5q111 0 165 96.5t54 262.5v643 q0 147 -12.5 224t-30 100.5t-56.5 52.5h254q-39 -29 -56 -52.5t-29.5 -100.5t-12.5 -224v-643q0 -193 -86 -313.5t-274 -120.5z" glyph-name="uni01D3" horiz-adv-x="1015" unicode="Ǔ"/><glyph d="M690 1493l-239 -338l-240 338l4 4l236 -115l235 115zM883 37l-279 -57v190q-180 -190 -321 -190q-174 0 -174 268v493q0 168 -60 246l279 57v-727q0 -166 125 -165q74 0 151 53v536q0 168 -59 246l278 57v-802q1 -127 60 -205z" glyph-name="uni01D4" horiz-adv-x="942" unicode="ǔ"/><glyph d="M565 1565l-239 338l4 4l235 -115l236 115l4 -4zM563 -20q-193 0 -343 214t-150 537q0 188 52 347t173 267.5t293 108.5q119 0 231 -35q6 -51 60 -526h-7q-100 240 -200.5 371t-177.5 131q-31 0 -61 -19.5t-59.5 -64.5t-48 -133t-18.5 -209q0 -201 48 -419t127 -365.5 t159 -147.5q31 0 40 21.5t9 72.5v127q0 213 -21.5 307t-80.5 154h403q-53 -59 -73.5 -154.5t-20.5 -306.5v-262h-4q-43 43 -102 43q-37 0 -103 -29.5t-125 -29.5z" glyph-name="Gcaron" horiz-adv-x="1030" unicode="Ǧ"/><glyph d="M653 1493l-239 -338l-240 338l4 4l236 -115l235 115zM354 223q268 -143 350 -212.5t82 -135.5q0 -104 -115.5 -173t-277.5 -69q-145 0 -254.5 48.5t-109.5 142.5q0 49 31.5 85t68.5 52t67.5 30.5t27.5 31t-50 43.5q-92 49 -92 100q0 27 23.5 52.5t99.5 76.5q45 33 45 47 q0 18 -45 45q-147 94 -148 295q0 162 95.5 252t232.5 90h412l-152 -137q70 -82 70 -209q0 -158 -93.5 -248t-230.5 -90q-59 0 -82.5 -8t-23.5 -33q-1 -39 69 -76zM340 977q-70 0 -70 -152q0 -139 45 -288.5t119 -149.5t74 148q0 139 -48 290.5t-120 151.5zM426 -330 q135 0 135 86q0 98 -252 236q-39 23 -70.5 -11t-31.5 -98q0 -86 62.5 -149.5t156.5 -63.5z" glyph-name="gcaron" horiz-adv-x="825" unicode="ǧ"/><glyph d="M846 0h-309q-43 -45 -43 -80t27.5 -67.5t55 -55t27.5 -33.5q0 -57 -103.5 -126.5t-160.5 -69.5q-23 0 -36 14.5t-13 32.5q0 27 27.5 33t61.5 0t61.5 -3t27.5 25q0 31 -57.5 81t-57.5 71q0 10 9.5 25.5t30 38t33.5 37t43 43t36 34.5h-447q39 29 55.5 52.5t28 100 t11.5 224.5v680q0 147 -11.5 224t-28 100.5t-55.5 52.5h779l34 -519h-6q-92 258 -172 361.5t-168 103.5q-78 0 -103.5 -72.5t-25.5 -248.5v-291q0 -35 25 -35q119 0 195.5 56.5t111.5 195.5h6v-549h-6q-35 139 -111.5 195.5t-195.5 56.5q-25 0 -25 -35v-278q0 -178 27 -250 t108 -72q205 0 369 453h6z" glyph-name="uni0228" horiz-adv-x="946" unicode="Ȩ"/><glyph d="M446 -20h-18q-27 -33 -27 -60q0 -35 28 -67.5t55.5 -55t27.5 -33.5q0 -57 -103.5 -126.5t-160.5 -69.5q-23 0 -36 14.5t-13 32.5q0 27 27.5 33t61.5 0t61.5 -3t27.5 25q0 31 -57.5 81t-57.5 71q0 27 135 162q-150 25 -249 176t-99 360q0 223 107.5 373.5t271.5 150.5 q125 0 203 -86t74 -229q-4 -90 -33 -131h-340q-39 0 -54.5 -12.5t-15.5 -46.5q0 -131 94.5 -254t249.5 -123q90 0 127 55q-23 -94 -97.5 -165.5t-189.5 -71.5zM401 999q-59 0 -106 -63.5t-47 -192.5q0 -55 15.5 -76.5t62.5 -21.5q164 0 163 207q0 147 -88 147z" glyph-name="uni0229" horiz-adv-x="790" unicode="ȩ"/><glyph d="M344 1044q168 0 283.5 -155.5t115.5 -384.5q0 -221 -108.5 -372.5t-272.5 -151.5q-123 0 -200.5 86t-73.5 229q4 90 33 131h340q37 0 52 12.5t15 46.5q0 131 -93 254t-249 123q-90 0 -127 -55q23 94 97.5 165.5t187.5 71.5zM465 381q-164 0 -164 -207q0 -147 90 -147 q59 0 105.5 62.5t46.5 193.5q0 55 -14.5 76.5t-63.5 21.5z" glyph-name="uni0259" horiz-adv-x="792" unicode="ə"/><glyph d="M20 1024v410h101v-410h-101z" glyph-name="uni02C8" horiz-adv-x="141" unicode="ˈ"/><glyph d="M-25 1155l-358 170q2 39 57.5 99.5t92.5 72.5l213 -338z" glyph-name="gravecomb" horiz-adv-x="0" unicode="̀"/><glyph d="M-381 1155l-2 4l213 338q37 -12 91 -72.5t59 -99.5z" glyph-name="acutecomb" horiz-adv-x="0" unicode="́"/><glyph d="M-512 1155l-4 4l240 338l239 -338l-4 -4l-235 115z" glyph-name="uni0302" horiz-adv-x="0" unicode="̂"/><glyph d="M-666 1196q20 63 51 126.5t81.5 119t99.5 55.5q33 0 119 -48t135 -48q86 0 127 96h12q-39 -111 -99.5 -206t-129.5 -95q-35 0 -120 48t-134 48q-90 0 -131 -96h-11z" glyph-name="tildecomb" horiz-adv-x="0" unicode="̃"/><glyph d="M-651 1237l57 174h574l-58 -174h-573z" glyph-name="uni0304" horiz-adv-x="0" unicode="̄"/><glyph d="M-213 1182q-84 0 -137 58t-53 140q0 51 16 95h6q0 -59 42 -100.5t126 -41.5q86 0 127 41t41 101h6q18 -41 19 -95q0 -82 -54.5 -140t-138.5 -58z" glyph-name="uni0306" horiz-adv-x="0" unicode="̆"/><glyph d="M-145.5 1194q-51.5 0 -88 42t-36.5 101q0 55 36.5 96.5t88 41.5t88.5 -41t37 -97q0 -59 -37 -101t-88.5 -42z" glyph-name="uni0307" horiz-adv-x="0" unicode="̇"/><glyph d="M-483.5 1194q-51.5 0 -88 42t-36.5 101q0 55 36.5 96.5t88 41.5t88.5 -41t37 -97q0 -59 -37 -101t-88.5 -42zM-151.5 1194q-51.5 0 -88 42t-36.5 101q0 55 36.5 96.5t88 41.5t88 -41t36.5 -97q0 -57 -36.5 -100t-88 -43z" glyph-name="uni0308" horiz-adv-x="0" unicode="̈"/><glyph d="M-163.5 1153q-59.5 0 -101.5 48t-42 113.5t42 113t101.5 47.5t101.5 -47.5t42 -113t-42 -113.5t-101.5 -48zM-164 1182q49 0 82 39t33 94t-33 93t-82 38t-82 -38t-33 -93t33 -94t82 -39z" glyph-name="uni030A" horiz-adv-x="0" unicode="̊"/><glyph d="M-709 1155l-2 4l213 338q35 -12 90.5 -72.5t59.5 -99.5zM-381 1155l-2 4l213 338q37 -12 91 -72.5t59 -99.5z" glyph-name="uni030B" horiz-adv-x="0" unicode="̋"/><glyph d="M-276 1155l-240 338l4 4l236 -115l235 115l4 -4z" glyph-name="uni030C" horiz-adv-x="0" unicode="̌"/><glyph d="M-166 -121q53 0 89 -45t36 -113q0 -86 -56.5 -169.5t-140.5 -129.5l-4 7q55 66 60 168q-45 6 -76 46t-31 93q0 59 36 101t87 42z" glyph-name="uni0326" horiz-adv-x="0" unicode="̦"/><glyph d="M-295 -432q-23 0 -36 14.5t-13 32.5q0 27 27.5 33t61.5 0t61.5 -3t27.5 25q0 31 -57.5 81t-57.5 71q0 10 9.5 25.5t30 38t33.5 37t43 43t36 34.5h31q-43 -45 -43 -80t27.5 -67.5t55 -55t27.5 -33.5q0 -57 -103.5 -126.5t-160.5 -69.5z" glyph-name="uni0327" horiz-adv-x="0" unicode="̧"/><glyph d="M536.5 1604q-51.5 0 -88 42t-36.5 101q0 55 36.5 96t88 41t88.5 -41t37 -96q0 -59 -37 -101t-88.5 -42zM1030 1434q-55 -27 -77.5 -52.5t-37 -100.5t-14.5 -224v-516q0 -268 17 -582h-11l-692 1171v-753q0 -152 14.5 -225.5t39 -99t85.5 -52.5h-325q55 27 77.5 52.5 t37 100t14.5 224.5v680q0 147 -17.5 224t-41 100.5t-81.5 52.5h357q2 -20 13 -48t20.5 -44.5t33 -58.5t31.5 -58l371 -668v500q0 150 -14.5 224.5t-37 100t-77.5 52.5h315z" glyph-name="uni1E44" horiz-adv-x="1046" unicode="Ṅ"/><glyph d="M469 1194q-51 0 -88 42t-37 101q0 55 37 96.5t88 41.5t88 -41t37 -97q0 -59 -37 -101t-88 -42zM545 0q59 78 59 205v502q0 166 -125 165q-84 0 -151 -55v-612q0 -127 59 -205h-338q59 78 60 205v577q0 127 -60 205l279 57v-190q180 190 321 190q174 0 174 -268v-571 q0 -127 60 -205h-338z" glyph-name="uni1E45" horiz-adv-x="942" unicode="ṅ"/><glyph d="M946 1569l-4 -4l-358 170q2 39 57 99t92 73zM1270 1434h235q-109 -100 -188 -377l-313 -1090l-252 824l-238 -824l-334 1090q-92 299 -172 377h391q-25 -27 -26.5 -76t11.5 -110.5t50 -190.5l176 -621l64 256q27 111 22.5 202t-45.5 218h2q-80 246 -155 322h391 q-25 -27 -28 -75t11.5 -112.5t51.5 -189.5l176 -625l162 625q45 168 46 253t-38 124z" glyph-name="Wgrave" horiz-adv-x="1513" unicode="Ẁ"/><glyph d="M821 1159l-4 -4l-358 170q2 39 57 99.5t92 72.5zM1040 1024h217q-74 -49 -139 -248l-272 -815h-2l-217 660l-217 -660h-2l-269 815q-37 109 -69.5 164t-81.5 84h391q-68 -53 -8 -248l125 -418l63 195q39 125 7.5 263t-115.5 208h366q-70 -55 -10 -248l125 -418l131 418 q59 189 -23 248z" glyph-name="wgrave" horiz-adv-x="1245" unicode="ẁ"/><glyph d="M997 1735l-360 -170l-2 4l213 338q35 -12 90 -72.5t59 -99.5zM1270 1434h235q-109 -100 -188 -377l-313 -1090l-252 824l-238 -824l-334 1090q-92 299 -172 377h391q-25 -27 -26.5 -76t11.5 -110.5t50 -190.5l176 -621l64 256q27 111 22.5 202t-45.5 218h2 q-80 246 -155 322h391q-25 -27 -28 -75t11.5 -112.5t51.5 -189.5l176 -625l162 625q45 168 46 253t-38 124z" glyph-name="Wacute" horiz-adv-x="1513" unicode="Ẃ"/><glyph d="M874 1325l-360 -170l-2 4l213 338q37 -12 91 -72.5t58 -99.5zM1040 1024h217q-74 -49 -139 -248l-272 -815h-2l-217 660l-217 -660h-2l-269 815q-37 109 -69.5 164t-81.5 84h391q-68 -53 -8 -248l125 -418l63 195q39 125 7.5 263t-115.5 208h366q-70 -55 -10 -248 l125 -418l131 418q59 189 -23 248z" glyph-name="wacute" horiz-adv-x="1245" unicode="ẃ"/><glyph d="M596 1604q-51 0 -88 42t-37 101q0 55 37 96t88 41t88 -41t37 -96q0 -59 -37 -101t-88 -42zM928 1604q-51 0 -88 42t-37 101q0 55 37 96t88 41t88 -41t37 -96q0 -57 -37 -100t-88 -43zM1270 1434h235q-109 -100 -188 -377l-313 -1090l-252 824l-238 -824l-334 1090 q-92 299 -172 377h391q-25 -27 -26.5 -76t11.5 -110.5t50 -190.5l176 -621l64 256q27 111 22.5 202t-45.5 218h2q-80 246 -155 322h391q-25 -27 -28 -75t11.5 -112.5t51.5 -189.5l176 -625l162 625q45 168 46 253t-38 124z" glyph-name="Wdieresis" horiz-adv-x="1513" unicode="Ẅ"/><glyph d="M471 1194q-51 0 -88 42t-37 101q0 55 37 96.5t88 41.5t88 -41t37 -97q0 -59 -37 -101t-88 -42zM803 1194q-51 0 -88 42t-37 101q0 55 37 96.5t88 41.5t88 -41t37 -97q0 -57 -37 -100t-88 -43zM1040 1024h217q-74 -49 -139 -248l-272 -815h-2l-217 660l-217 -660h-2 l-269 815q-37 109 -69.5 164t-81.5 84h391q-68 -53 -8 -248l125 -418l63 195q39 125 7.5 263t-115.5 208h366q-70 -55 -10 -248l125 -418l131 418q59 189 -23 248z" glyph-name="wdieresis" horiz-adv-x="1245" unicode="ẅ"/><glyph d="M803 813q111 -49 181.5 -169t68.5 -288q-2 -180 -91.5 -278t-252.5 -98q-98 0 -187 20l-22 449h6q156 -428 242 -429q66 0 65 240q0 88 -9 174t-31.5 182.5t-74 155.5t-123.5 59l154 560q-29 12 -80 12q-135 0 -193.5 -126t-58.5 -415v-485q0 -141 6.5 -224t11.5 -100.5 t19 -52.5h-375q39 29 55.5 52.5t28 100t11.5 224.5v444q0 338 85 485.5t308 147.5q68 0 151.5 -20.5t128.5 -20.5q90 0 158 43l4 -2z" glyph-name="uni1E9E" horiz-adv-x="1101" unicode="ẞ"/><glyph d="M682 1569l-4 -4l-359 170q2 39 57.5 99t92.5 73zM737 1434h248q-137 -104 -237 -377l-144 -389v-291q0 -147 11.5 -224t27.5 -100.5t55 -52.5h-432q39 29 55.5 52.5t27.5 100t11 224.5v270l-141 410q-96 279 -211 377h406q-18 -18 -23.5 -43t5 -77t19.5 -88t38 -128 q8 -27 12 -41l100 -330l115 330q37 111 49 148.5t26.5 97t8 85.5t-26.5 46z" glyph-name="Ygrave" horiz-adv-x="993" unicode="Ỳ"/><glyph d="M571 1159l-4 -4l-358 170q2 39 57.5 99.5t91.5 72.5zM590 1024h217q-80 -55 -141 -248l-238 -737q-20 -61 -32.5 -97t-42 -101.5t-59.5 -102.5t-74 -67.5t-93 -30.5q-72 0 -94 32v207q68 -23 139 -22q193 0 193 157q0 29 -8.5 69t-16.5 65.5t-29.5 88t-27.5 82.5 l-152 457q-63 195 -143 248h403q-47 -29 -51 -85t29 -163l120 -422l123 422q54 191 -22 248z" glyph-name="ygrave" horiz-adv-x="792" unicode="ỳ"/><glyph d="M51 600v43h1065v-43h-1065z" glyph-name="endash" horiz-adv-x="1167" unicode="–"/><glyph d="M51 600v43h1454v-43h-1454z" glyph-name="emdash" horiz-adv-x="1556" unicode="—"/><glyph d="M211 1245q55 -8 92 -56t37 -114q0 -70 -44 -121t-106 -51q-63 0 -107 54.5t-44 136.5q0 104 68.5 205.5t171.5 154.5l4 -6q-68 -80 -72 -203z" glyph-name="quoteleft" horiz-adv-x="378" unicode="‘"/><glyph d="M190.5 1454q63.5 0 106.5 -53t43 -135q0 -106 -68.5 -208t-171.5 -155l-4 6q70 84 74 203q-55 8 -93 57.5t-38 112.5q0 70 44 121t107.5 51z" glyph-name="quoteright" horiz-adv-x="378" unicode="’"/><glyph d="M192.5 324q63.5 0 107.5 -53.5t44 -135.5q0 -106 -68.5 -207.5t-173.5 -154.5l-4 6q70 84 74 203q-55 8 -93 57t-38 113q0 72 44 122t107.5 50z" glyph-name="quotesinglbase" horiz-adv-x="385" unicode="‚"/><glyph d="M211 1245q55 -8 92 -56t37 -114q0 -70 -44 -121t-106 -51q-63 0 -107 54.5t-44 136.5q0 104 68.5 205.5t171.5 154.5l4 -6q-68 -80 -72 -203zM586 1245q55 -8 93 -57t38 -113q0 -70 -44 -121t-107.5 -51t-106.5 54.5t-43 136.5q0 104 68.5 205.5t170.5 154.5l4 -6 q-69 -84 -73 -203z" glyph-name="quotedblleft" horiz-adv-x="755" unicode="“"/><glyph d="M190.5 1454q63.5 0 106.5 -53t43 -135q0 -106 -68.5 -208t-171.5 -155l-4 6q70 84 74 203q-55 8 -93 57.5t-38 112.5q0 70 44 121t107.5 51zM565 1454q63 0 107.5 -54t44.5 -134q0 -106 -68.5 -208t-171.5 -155l-4 6q68 80 72 203q-55 8 -92 56.5t-37 113.5q0 70 44 121 t105 51z" glyph-name="quotedblright" horiz-adv-x="755" unicode="”"/><glyph d="M192.5 324q63.5 0 107.5 -53.5t44 -135.5q0 -106 -68.5 -207.5t-173.5 -154.5l-4 6q70 84 74 203q-55 8 -93 57t-38 113q0 72 44 122t107.5 50zM569.5 324q63.5 0 106.5 -53.5t43 -135.5q0 -106 -68.5 -207.5t-171.5 -154.5l-4 6q70 84 74 203q-55 8 -93 57t-38 113 q0 72 44 122t107.5 50z" glyph-name="quotedblbase" horiz-adv-x="759" unicode="„"/><glyph d="M655 1360v-43h-266v-1725h-41v1725h-266v43h266v483h41v-483h266z" glyph-name="dagger" horiz-adv-x="737" unicode="†"/><glyph d="M655 1317h-266v-1198h266v-43h-266v-484h-41v484h-266v43h266v1198h-266v43h266v483h41v-483h266v-43z" glyph-name="daggerdbl" horiz-adv-x="737" unicode="‡"/><glyph d="M319 311q-90 0 -153.5 73t-63.5 173t63.5 172t153.5 72q88 0 152 -72t64 -172t-64 -173t-152 -73z" glyph-name="bullet" horiz-adv-x="636" unicode="•"/><glyph d="M192.5 -20q-63.5 0 -107.5 50t-44 121.5t44 122t107.5 50.5t107.5 -50.5t44 -122t-44 -121.5t-107.5 -50zM602.5 -20q-63.5 0 -107.5 50t-44 121.5t44 122t107.5 50.5t107.5 -50.5t44 -122t-44 -121.5t-107.5 -50zM1011.5 -20q-63.5 0 -107.5 50t-44 121.5t44 122 t107.5 50.5t107.5 -50.5t44 -122t-44 -121.5t-107.5 -50z" glyph-name="ellipsis" horiz-adv-x="1204" unicode="…"/><glyph d="M254 942q-92 0 -148.5 75t-56.5 181.5t56.5 181t148.5 74.5t148.5 -74.5t56.5 -181t-56.5 -181.5t-148.5 -75zM199 307l551 1127h41l-551 -1127h-41zM254 979q78 0 122 63.5t44 155.5t-44 155.5t-122 63.5t-122 -63.5t-44 -155.5t44 -155.5t122 -63.5zM735 287 q-92 0 -148.5 74.5t-56.5 181t56.5 181.5t148.5 75t148.5 -75t56.5 -181.5t-56.5 -181t-148.5 -74.5zM1198 287q-92 0 -148.5 74.5t-56.5 181t56.5 181.5t148.5 75t148.5 -75t56.5 -181.5t-56.5 -181t-148.5 -74.5zM735 324q78 0 122 63.5t44 155.5t-44 155.5t-122 63.5 t-122 -63.5t-44 -155.5t44 -155.5t122 -63.5zM1198 324q78 0 122 63.5t44 155.5t-44 155.5t-122 63.5t-122 -63.5t-44 -155.5t44 -155.5t122 -63.5z" glyph-name="perthousand" horiz-adv-x="1452" unicode="‰"/><glyph d="M408 152l-357 385l357 385l2 -2l-164 -383l164 -383z" glyph-name="guilsinglleft" horiz-adv-x="460" unicode="‹"/><glyph d="M53 152l-2 2l164 383l-164 383l2 2l357 -385z" glyph-name="guilsinglright" horiz-adv-x="460" unicode="›"/><glyph d="M0 -203l430 1841h41l-430 -1841h-41z" glyph-name="fraction" horiz-adv-x="471" unicode="⁄"/><glyph d="M831 184q104 0 168 70q-23 -94 -119 -184t-225 -90q-184 0 -328.5 190t-164.5 487h-92v35h90v49v9h-90v34h90q4 129 36.5 246t92 213t157 153.5t222.5 57.5t237 -35q16 -129 58 -526h-7q-104 240 -200.5 372t-167.5 132q-29 0 -60.5 -21.5t-63.5 -67.5t-53.5 -134.5 t-21.5 -204.5q0 -88 12 -185h537v-34h-530q2 -23 10 -58h520v-35h-512q47 -205 150 -339t255 -134z" glyph-name="Euro" horiz-adv-x="1062" unicode="€"/><glyph d="M186 596q27 18 38.5 35.5t18.5 69t7 153.5v420q0 104 -14 119q-6 4 -17 4q-33 0 -131 -238q-27 -63 -43 -100h-4l10 379q66 -2 142 -2h301q76 0 141 2l10 -379h-4q-115 276 -135 309q-20 29 -39 29q-20 0 -25.5 -23.5t-5.5 -85.5v-14v-420q0 -102 7.5 -153.5t18.5 -69 t38 -35.5h-314zM1047 582l-230 647v-375q0 -104 9.5 -153.5t25.5 -68t57 -36.5h-221q37 18 52.5 36.5t23.5 68t8 153.5v324q0 102 -11 153t-26.5 68.5t-54.5 36.5h272l154 -482l139 480h230q-27 -18 -37.5 -35t-18.5 -69t-8 -152v-324q0 -100 8 -153.5t18.5 -69t37.5 -35.5 h-314q27 20 38 36.5t19.5 69t8.5 152.5v360z" glyph-name="trademark" horiz-adv-x="1515" unicode="™"/><glyph d="M1249 547v-43h-962l241 -242l-30 -31l-293 293v2l293 293l30 -31l-241 -241h962z" glyph-name="arrowleft" horiz-adv-x="1454" unicode="←"/><glyph d="M793 752l-31 -31l-242 242v-963h-43v963l-241 -242l-31 31l293 292h2z" glyph-name="arrowup" horiz-adv-x="997" unicode="↑"/><glyph d="M956 819l293 -293v-2l-293 -293l-30 31l241 242h-962v43h962l-241 241z" glyph-name="arrowright" horiz-adv-x="1454" unicode="→"/><glyph d="M762 324l31 -31l-293 -293h-2l-293 293l31 31l241 -242v962h43v-962z" glyph-name="arrowdown" horiz-adv-x="997" unicode="↓"/><glyph d="M1141 819l293 -293v-2l-293 -293l-31 31l242 242h-1065l241 -242l-30 -31l-293 293v2l293 293l30 -31l-241 -241h1065l-242 241z" glyph-name="arrowboth" horiz-adv-x="1638" unicode="↔"/><glyph d="M520 -6l242 242l31 -31l-293 -293h-2l-293 293l31 31l241 -242v1065l-241 -242l-31 31l293 293h2l293 -293l-31 -31l-242 242v-1065z" glyph-name="arrowupdn" horiz-adv-x="997" unicode="↕"/><glyph d="M958 299l-30 -31l-680 682v-342h-43v414l2 2h414v-43h-345z" glyph-name="uni2196" horiz-adv-x="1163" unicode="↖"/><glyph d="M956 1024l2 -2v-414h-43v342l-679 -682l-31 31l682 682h-344v43h413z" glyph-name="uni2197" horiz-adv-x="1163" unicode="↗"/><glyph d="M915 686h43v-414l-2 -2h-413v43h344l-682 682l31 31l679 -682v342z" glyph-name="uni2198" horiz-adv-x="1163" unicode="↘"/><glyph d="M958 995l-682 -682h345v-43h-414l-2 2v414h43v-342l680 682z" glyph-name="uni2199" horiz-adv-x="1163" unicode="↙"/><glyph d="M506 791q63 -74 63 -170q0 -109 -75.5 -185t-184.5 -76q-96 0 -168 62l-57 -60l-31 29l60 60q-63 74 -64 170q0 109 76 184.5t184 75.5q96 0 168 -62l58 60l30 -29zM94 621q0 -78 49 -138l301 305q-61 47 -135 48q-88 0 -151.5 -63.5t-63.5 -151.5zM309 406 q88 0 151.5 63t63.5 152q0 78 -49 137l-301 -305q61 -47 135 -47z" glyph-name="emptyset" horiz-adv-x="618" unicode="∅"/><glyph d="M530 1434v-1434h-43v1391h-385v-1391h-43v1434h471z" glyph-name="product" horiz-adv-x="589" unicode="∏"/><glyph d="M51 600v43h471v-43h-471z" glyph-name="minus" horiz-adv-x="573" unicode="−"/><glyph d="M51 -23l4 46q59 0 100.5 40.5t49.5 126.5l88 1031q8 98 57 155.5t142 57.5l-5 -45q-59 0 -100 -41t-49 -127l-88 -1031q-8 -98 -57.5 -155.5t-141.5 -57.5z" glyph-name="integral" horiz-adv-x="542" unicode="∫"/><glyph d="M133 438l-29 31l152 152l-154 155l31 29l180 -184zM51 184v43h314v-43h-314z" glyph-name="lessequal" horiz-adv-x="415" unicode="≤"/><glyph d="M283 438l-181 183l181 184l30 -29l-153 -155l151 -152zM51 184v43h314v-43h-314z" glyph-name="greaterequal" horiz-adv-x="415" unicode="≥"/><glyph d="M354 131l-303 662l303 661l303 -661zM354 207l262 586l-262 577l-262 -577z" glyph-name="lozenge" horiz-adv-x="708" unicode="◊"/><glyph d="M1036 0h-391q25 29 28 75t-11.5 109.5t-49.5 182.5h-379q-137 -358 -287.5 -510t-359.5 -152q-207 0 -341 124t-134 302q0 141 85 238.5t210 97.5q133 0 158 -107q-76 0 -133.5 -67.5t-57.5 -173.5q0 -139 94.5 -233.5t221.5 -94.5q72 0 135 34t118.5 92t113 170 t106.5 230.5t111.5 311t115.5 377t131 460.5l344 -1089q35 -109 55.5 -166t52 -117.5t64.5 -93.5zM428 989q-94 -344 -176 -573h346z" glyph-name="A.swash.salt"/><glyph d="M430 438q-156 0 -258 150.5t-102 372.5q0 213 100 353t274 140q88 0 168 -33q29 -178 41 -374h-2q-92 190 -149.5 277t-108.5 87q-29 0 -56.5 -22.5t-51 -91t-23.5 -173.5q0 -201 82 -356.5t240 -155.5q78 0 110 54q-20 -90 -90 -159t-174 -69zM406 -18q-55 0 -94.5 45 t-39.5 108q0 61 39 106.5t95 45.5q57 0 96 -45t39 -107q0 -63 -39 -108t-96 -45z" glyph-name="glyph336" horiz-adv-x="753"/><glyph d="M59 438q43 31 58.5 81t15.5 214v438q0 143 -15.5 187.5t-58.5 75.5h340q156 0 259.5 -114t103.5 -359q0 -248 -105.5 -385.5t-267.5 -137.5h-330zM430 481q119 0 119 365q0 256 -40 400.5t-116 144.5q-35 0 -50 -38t-15 -134v-521q0 -217 102 -217zM412 -18 q-57 0 -96.5 45t-39.5 108q0 61 39 106.5t97 45.5q55 0 94 -45t39 -107q0 -63 -39 -108t-94 -45z" glyph-name="D.aalt.aalt" horiz-adv-x="831"/><glyph d="M426 438q-164 0 -260 145.5t-96 362.5q0 221 102 364.5t266 143.5t260.5 -145.5t96.5 -362.5q0 -221 -102.5 -364.5t-266.5 -143.5zM502 492q88 0 88 217q0 123 -22.5 276.5t-78 284.5t-127.5 131q-88 0 -88 -215q0 -125 22.5 -277.5t78 -284.5t127.5 -132zM432 -18 q-55 0 -94 45t-39 108q0 61 39 106.5t94 45.5q57 0 96 -45t39 -107q0 -63 -39 -108t-96 -45z" glyph-name="glyph338" horiz-adv-x="866"/><glyph d="M338 438q-135 0 -254 68l-10 344q51 -141 137 -256t162 -115q29 0 50 19.5t21 58.5q0 66 -112 213l-135 178q-47 61 -67.5 93t-40 81t-19.5 97q0 104 70.5 169.5t193.5 65.5q154 0 225 -68l35 -325q-10 18 -34.5 66.5t-38 71t-37 63.5t-40 62.5t-38 45t-42 33.5t-40.5 10 q-27 0 -46.5 -19.5t-19.5 -60.5q0 -70 84 -186l137 -182q8 -10 36 -47t39 -51.5t31.5 -47.5t29 -53.5t16.5 -49t8 -54.5q0 -100 -86 -162t-215 -62zM344 -18q-55 0 -94 45t-39 108q0 61 39 106.5t94 45.5t94 -45t39 -107q0 -63 -39 -108t-94 -45z" glyph-name="glyph339" horiz-adv-x="677"/><glyph d="M211 442q49 45 65.5 104.5t16.5 248.5v432q0 51 -1 73.5t-5 48t-14.5 35t-26.5 9.5q-31 0 -70 -87t-131 -337h-6l22 469q84 -4 207 -4h260q123 0 207 4l23 -469h-6q-92 252 -132 338t-71 86t-38 -35t-7 -131v-432q0 -188 16.5 -248t65.5 -105h-375zM399 -18q-57 0 -96 45 t-39 108q0 61 39 106.5t96 45.5q55 0 94 -45t39 -107q0 -63 -39 -108t-94 -45z" glyph-name="glyph340" horiz-adv-x="796"/><glyph d="M524 -33l-344 1090q-94 301 -172 377h391q-25 -29 -27.5 -76t11.5 -112.5t51 -188.5l187 -627q133 500 231 761t194.5 370.5t225.5 109.5q113 0 173 -60.5t60 -148.5q0 -100 -74.5 -160.5t-179.5 -41.5q23 72 -15 126t-110 54q-121 0 -213 -226.5t-319 -1006.5 q-45 -156 -70 -240z" glyph-name="V.aalt.aalt"/><glyph d="M1782 1671q113 0 173 -60.5t60 -148.5q0 -100 -74.5 -160.5t-179.5 -41.5q23 72 -16 126t-111 54q-121 0 -213 -229.5t-317 -1001.5q-45 -158 -70 -242l-262 832l-248 -832l-344 1090q-2 8 -13 42t-14 45t-14.5 42t-16.5 44t-15.5 39.5t-17.5 41t-17.5 36t-19.5 35 t-20.5 27.5t-23.5 25h391q-25 -29 -27.5 -76t11.5 -112.5t51 -188.5l187 -625l73 260q29 113 24 199t-46 221q-84 254 -154 322h391q-25 -29 -27.5 -76t11.5 -112.5t51 -188.5l186 -627q119 487 221.5 757.5t202 377t228.5 106.5z" glyph-name="W.aalt.aalt" horiz-adv-x="1554"/><glyph d="M1036 0h-391q25 27 28 74t-11.5 114.5t-51.5 188.5l-6 18q-33 -53 -131 -103t-256 -65q-31 -170 27 -227h-236q74 68 135 223h-20q-182 0 -327.5 54.5t-234.5 147.5t-135.5 210t-46.5 248q0 223 125 362t310 139q141 0 237 -83.5t96 -208.5q0 -135 -106 -160 q0 76 -64.5 134t-171.5 58q-141 0 -234 -101t-93 -245q0 -199 178 -356.5t477 -157.5h27q20 57 37 113l323 1089l344 -1089q96 -301 172 -377zM571 506l9 -27l-156 525l-172 -627q-23 -82 -27 -109q178 18 273.5 94t72.5 144z" glyph-name="A.swash"/><glyph d="M623 788q129 -10 229 -122.5t100 -286.5q0 -188 -116.5 -283.5t-274.5 -95.5h-502q39 29 55.5 52.5t28 100t11.5 224.5v639q0 360 -273 360q-145 0 -211.5 -70.5t-66.5 -166.5q0 -123 88 -190.5t164 -43.5q20 -98 -42.5 -173t-162.5 -75q-104 0 -179 87t-75 233 q0 84 29.5 160.5t93 145.5t181.5 110t275 41h568q59 0 114.5 -17.5t105.5 -54.5t80.5 -102.5t30.5 -153.5q0 -150 -79.5 -229t-171.5 -89zM489 1391q-53 0 -72.5 -65.5t-19.5 -268.5v-252q248 6 248 291q0 119 -39 207t-117 88zM541 43q88 0 121.5 70.5t33.5 205.5 q0 436 -299 449v-391q0 -197 37 -265.5t107 -68.5z" glyph-name="B.aalt" horiz-adv-x="991"/><glyph d="M492 1434q219 0 363 -179.5t144 -525.5q0 -348 -145 -538.5t-373 -190.5h-422q39 29 55.5 52.5t28 100t11.5 224.5v639q0 360 -273 360q-145 0 -211.5 -70.5t-66.5 -166.5q0 -123 88 -190.5t164 -43.5q20 -98 -42.5 -173t-162.5 -75q-104 0 -179 87t-75 233 q0 84 29.5 160.5t93 145.5t181.5 110t275 41h517zM545 55q115 0 160 129t45 377q0 358 -68 587.5t-190 229.5q-55 0 -75 -53t-20 -207v-786q1 -277 148 -277z" glyph-name="D.aalt" horiz-adv-x="1067"/><glyph d="M901 506h6l-61 -506h-787q39 29 55.5 52.5t28 100t11.5 224.5v639q0 360 -273 360q-145 0 -211.5 -70.5t-66.5 -166.5q0 -123 88 -190.5t164 -43.5q20 -98 -42.5 -173t-162.5 -75q-104 0 -179 87t-75 233q0 84 29.5 160.5t93 145.5t181.5 110t275 41h863l34 -519h-6 q-92 258 -173 361.5t-167 103.5q-78 0 -103.5 -72.5t-25.5 -248.5v-291q0 -35 25 -35q119 0 195.5 56.5t111.5 195.5h6v-549h-6q-35 139 -111.5 195.5t-195.5 56.5q-25 0 -25 -35v-278q0 -178 27 -250t108 -72q205 0 369 453z" glyph-name="E.aalt" horiz-adv-x="946"/><glyph d="M524 1380q-78 0 -102.5 -72.5t-24.5 -248.5v-309q0 -35 25 -35q119 0 195.5 59.5t111.5 202.5h6v-571h-6q-35 145 -111.5 204.5t-195.5 59.5q-25 0 -25 -35v-258q0 -147 11.5 -224t28 -100.5t55.5 -52.5h-433q39 29 55.5 52.5t28 100t11.5 224.5v639q0 360 -273 360 q-145 0 -211.5 -70.5t-66.5 -166.5q0 -123 88 -190.5t164 -43.5q20 -98 -42.5 -173t-162.5 -75q-104 0 -179 87t-75 233q0 84 29.5 160.5t93 145.5t181.5 110t275 41h859l34 -519h-6q-90 258 -171 361.5t-167 103.5z" glyph-name="F.aalt" horiz-adv-x="917"/><glyph d="M946 377q0 -147 11.5 -224t27.5 -100.5t55 -52.5h-432q39 29 55.5 52.5t27.5 98t11 220.5q0 106 -86 198.5t-219 141.5v-334q0 -147 11.5 -224t28 -100.5t55.5 -52.5h-433q39 29 55.5 52.5t28 100t11.5 224.5v375q-172 -8 -271.5 -117t-99.5 -291q0 -117 39 -213 t102 -117q-59 -41 -131 -41q-133 0 -207.5 103.5t-74.5 240.5q0 215 179 353.5t427 138.5h37v248q0 147 -11.5 224t-28 100.5t-55.5 52.5h433q-39 -29 -55.5 -52.5t-28 -100.5t-11.5 -224v-301q96 -39 234 -144q55 -43 65 -22q6 8 6 35v432q0 147 -11 224t-27.5 100.5 t-55.5 52.5h432q-39 -29 -55 -52.5t-27.5 -100.5t-11.5 -224v-680z" glyph-name="H.aalt" horiz-adv-x="1097"/><glyph d="M397 377q0 -147 11.5 -224t28 -100.5t55.5 -52.5h-433q39 29 55.5 52.5t28 100t11.5 224.5v639q0 360 -273 360q-145 0 -211.5 -70.5t-66.5 -166.5q0 -123 88 -190.5t164 -43.5q20 -98 -42.5 -173t-162.5 -75q-104 0 -179 87t-75 233q0 84 29.5 160.5t93 145.5t181.5 110 t275 41h517q-39 -29 -55.5 -52.5t-28 -100.5t-11.5 -224v-680z" glyph-name="I.aalt" horiz-adv-x="548"/><glyph d="M539 1434q-39 -29 -55.5 -52.5t-28 -100.5t-11.5 -224v-729q0 -205 -84 -316.5t-221 -111.5q-70 0 -131 32v7q193 33 193 340v737q0 113 -24.5 189.5t-69 111.5t-85 47t-94.5 12q-145 0 -213.5 -70.5t-68.5 -166.5q0 -123 89 -190.5t165 -43.5q20 -98 -43.5 -173 t-163.5 -75q-104 0 -179 87t-75 233q0 84 30.5 160.5t95 145.5t183.5 110t277 41h514z" glyph-name="J.aalt" horiz-adv-x="567"/><glyph d="M397 377q0 -147 11.5 -224t28 -100.5t55.5 -52.5h-433q39 29 55.5 52.5t28 100t11.5 224.5v639q0 360 -273 360q-145 0 -211.5 -70.5t-66.5 -166.5q0 -123 88 -190.5t164 -43.5q20 -98 -42.5 -173t-162.5 -75q-104 0 -179 87t-75 233q0 84 29.5 160.5t93 145.5t181.5 110 t275 41h517q-39 -29 -55.5 -52.5t-28 -100.5t-11.5 -224v-680zM764 492q109 -250 161 -347.5t97 -144.5h-346q-14 94 -144 410l-126 307q172 256 243.5 392t71.5 214q0 74 -64 111h336q-82 -39 -170 -153t-243 -368z" glyph-name="K.aalt" horiz-adv-x="1019"/><glyph d="M840 569h6l-78 -569h-752q39 29 55.5 52.5t28 100t11.5 224.5v639q0 360 -252 360q-131 0 -193.5 -71.5t-62.5 -165.5q0 -123 88 -190.5t164 -43.5q20 -98 -42.5 -173t-162.5 -75q-104 0 -179 87t-75 233q0 84 28.5 160.5t89 145.5t169 110t251.5 41h515 q-39 -29 -55.5 -52.5t-28 -100.5t-11.5 -224v-682q0 -176 26 -249t105 -73q88 0 166 117.5t189 398.5z" glyph-name="L.aalt" horiz-adv-x="874"/><glyph d="M1178 377q0 -147 11 -224t27.5 -100.5t55.5 -52.5h-432q39 29 55 52.5t27.5 100t11.5 224.5v760l-342 -1157l-381 1159v-762q0 -152 14.5 -225.5t39 -99t85.5 -52.5h-325q55 27 77.5 52.5t37 100t14.5 224.5v639q0 360 -273 360q-145 0 -211.5 -70.5t-66.5 -166.5 q0 -123 88 -190.5t164 -43.5q20 -98 -42.5 -173t-162.5 -75q-104 0 -179 87t-75 233q0 84 29.5 160.5t93 145.5t181.5 110t275 41h412l297 -942l279 942h309q-39 -29 -55.5 -52.5t-27.5 -100.5t-11 -224v-680z" glyph-name="M.aalt" horiz-adv-x="1329"/><glyph d="M1036 1434q-55 -27 -77.5 -52.5t-37 -100.5t-14.5 -224v-516q0 -268 17 -582h-11l-702 1171v-753q0 -152 14.5 -225.5t39 -99t85.5 -52.5h-325q55 27 77.5 52.5t37 100t14.5 224.5v639q0 360 -273 360q-145 0 -211.5 -70.5t-66.5 -166.5q0 -123 88 -190.5t164 -43.5 q20 -98 -42.5 -173t-162.5 -75q-104 0 -179 87t-75 233q0 84 29.5 160.5t93 145.5t181.5 110t275 41h400q6 -49 98 -209l377 -668v500q0 150 -14.5 224.5t-37 100t-77.5 52.5h315z" glyph-name="N.aalt" horiz-adv-x="1052"/><glyph d="M455 596q217 18 217 395q0 170 -43 279.5t-131 109.5q-55 0 -78 -65.5t-23 -257.5v-680q0 -147 11.5 -224t28 -100.5t55.5 -52.5h-433q39 29 55.5 52.5t28 100t11.5 224.5v639q0 360 -273 360q-145 0 -211.5 -70.5t-66.5 -166.5q0 -123 88 -190.5t164 -43.5 q20 -98 -42.5 -173t-162.5 -75q-104 0 -179 87t-75 233q0 84 29.5 160.5t93 145.5t181.5 110t275 41h568q66 0 128 -20.5t120.5 -67t94.5 -134.5t36 -208q0 -424 -467 -424v16z" glyph-name="P.aalt" horiz-adv-x="960"/><glyph d="M1837 -190l4 -9q-25 -217 -328 -217q-125 0 -248.5 41t-222 99.5t-186.5 116t-173 98.5t-151 41q-152 0 -259 111.5t-155 274t-48 351.5q0 197 48 359.5t155.5 270t259 107.5t259 -111.5t155.5 -274.5t48 -351q0 -250 -80.5 -445.5t-234.5 -261.5q80 -6 236.5 -71.5 t344 -127t355.5 -61.5q137 1 221 60zM309 1057q0 -199 34 -426.5t108.5 -410.5t171.5 -183q131 0 131 342q0 199 -33 424t-108.5 408.5t-172.5 183.5q-131 0 -131 -338z" glyph-name="Q.aalt" horiz-adv-x="1075"/><glyph d="M700 733q203 -516 265 -624q53 -92 96 -107q-41 -12 -111 -12q-102 0 -181 72.5t-124 175t-79 206t-64.5 176t-63.5 72.5v6q143 0 176 34t33 147q0 502 -164 501q-47 0 -66.5 -65.5t-19.5 -257.5v-680q0 -147 11.5 -224t28 -100.5t55.5 -52.5h-433q39 29 55.5 52.5 t28 100t11.5 224.5v639q0 360 -273 360q-145 0 -211.5 -70.5t-66.5 -166.5q0 -123 88 -190.5t164 -43.5q20 -98 -42.5 -173t-162.5 -75q-104 0 -179 87t-75 233q0 84 29.5 160.5t93 145.5t181.5 110t275 41h578q147 0 245.5 -102.5t98.5 -266.5q0 -234 -197 -332z" glyph-name="R.aalt"/><glyph d="M801 1434h235q-106 -98 -188 -377l-324 -1090l-344 1090q-49 158 -136 238.5t-198 80.5q-117 0 -174 -70.5t-57 -160.5q0 -127 88 -195.5t166 -44.5q20 -98 -43.5 -173t-163.5 -75q-104 0 -179 87t-75 235q0 84 28.5 159.5t93 144.5t185.5 110t287 41h516 q-66 -16 -95.5 -62.5t-26.5 -123.5t38 -191l187 -629l172 629q47 166 47 254t-39 123z" glyph-name="V.aalt"/><glyph d="M1311 1434h235q-106 -98 -188 -377l-324 -1090l-262 832l-248 -832l-344 1090q-49 158 -136 238.5t-198 80.5q-117 0 -174 -70.5t-57 -160.5q0 -127 88 -195.5t166 -44.5q20 -98 -43.5 -173t-163.5 -75q-104 0 -179 87t-75 235q0 84 28.5 159.5t93 144.5t185.5 110 t287 41h516q-66 -16 -95.5 -62.5t-26.5 -123.5t38 -191l187 -627l73 262q29 115 24 203t-46 217q-82 250 -154 322h391q-25 -27 -27.5 -74t11.5 -113.5t51 -189.5l186 -627l173 627q47 166 47 254t-39 123z" glyph-name="W.aalt" horiz-adv-x="1554"/><glyph d="M522 0q37 41 25 109.5t-86 267.5l-90 241l-99 -241q-80 -193 -92 -266.5t27 -110.5h-238q68 45 127.5 125t126.5 252l123 309l-137 371q-121 319 -346 319q-117 0 -174.5 -70.5t-57.5 -160.5q0 -127 87 -195.5t165 -44.5q20 -98 -42 -173t-163 -75q-106 0 -179.5 87 t-73.5 235q0 178 130 311t425 144h552q-197 -53 -79 -373q2 -2 2 -4l65 -174l70 174q74 184 83 266t-34 111h238q-59 -41 -113.5 -121t-124.5 -256l-94 -242l164 -438q66 -176 117 -255t108 -122h-412z" glyph-name="X.aalt" horiz-adv-x="942"/><glyph d="M219 1194q-51 0 -88 42t-37 101q0 55 37 96.5t88 41.5t88 -41t37 -97q0 -59 -37 -101t-88 -42zM49 0q59 78 60 205v577q0 127 -60 205l279 57v-839q0 -127 59 -205h-338z" glyph-name="i.locl" horiz-adv-x="436"/><glyph d="M772 94q20 0 35 10q0 -43 -57.5 -83.5t-120.5 -40.5q-70 0 -115 53t-45 135q0 16 -8 16q-12 0 -33.5 -31.5t-45.5 -70.5t-70 -70.5t-101 -31.5q-74 0 -123 52t-49 146q0 86 44 157t107.5 122l127 102t107.5 121t44 154q0 158 -123 157q-57 0 -66.5 -26.5t9 -87 t18.5 -89.5q0 -51 -31.5 -90t-80.5 -39q-45 0 -73 35t-28 94q0 113 100.5 184.5t243.5 71.5q131 0 191.5 -69.5t60.5 -216.5v-574q0 -90 82 -90zM469 336v223q0 45 -14 45q-47 0 -119 -92t-72 -213q0 -72 26.5 -105.5t63.5 -33.5q39 0 77 53t38 123z" glyph-name="a.salt" horiz-adv-x="825"/><glyph d="M49 0q59 78 60 205v577q0 127 -60 205l279 57v-839q0 -127 59 -205h-338z" glyph-name="i.salt" horiz-adv-x="436"/><glyph d="M893 1542q98 0 159.5 -53t61.5 -137t-66.5 -129t-168.5 -43q12 66 -19 102.5t-86 36.5q-70 0 -144.5 -59.5t-144 -172t-113.5 -307t-44 -434.5v-141q0 -127 59 -205h-338q59 78 60 205v577q0 127 -60 205l279 57v-346q53 375 206.5 609.5t358.5 234.5z" glyph-name="r.aalt" horiz-adv-x="559"/><glyph d="M549 0q59 78 59 205v502q0 158 -121 157q-20 0 -41.5 -4t-39 -11t-29.5 -12.5t-26.5 -13.5t-18.5 -10v-608q0 -127 59 -205h-338q59 78 60 205v868q0 119 -18.5 200t-52.5 119t-68.5 52t-82.5 14q-131 0 -193.5 -85t-62.5 -189q0 -129 88.5 -195.5t167.5 -42.5 q18 -92 -43 -161.5t-155 -69.5q-100 0 -169 84t-69 225q0 84 26.5 162t84 150.5t169 117.5t261.5 45h336v-647q172 193 321 192q174 0 174 -268v-571q0 -127 60 -205h-338z" glyph-name="h.aalt.aalt" horiz-adv-x="946"/><glyph d="M213 -20q-74 0 -124 52t-50 148q0 84 44 156t107.5 123t127 98t107.5 105.5t44 123.5q0 82 -41 126t-113 44q-86 0 -137 -53t-63 -115h-2l18 207q123 49 289 49q143 0 206.5 -68.5t63.5 -217.5v-574q0 -90 82 -90q20 0 35 10q0 -43 -57.5 -83.5t-120.5 -40.5 q-70 0 -115 53t-45 135q0 16 -8 16q-12 0 -32.5 -31.5t-44.5 -70.5t-70 -70.5t-101 -31.5zM354 160q39 0 77 53t38 123v223q0 45 -14 45q-47 0 -119 -92t-72 -213q0 -72 26.5 -105.5t63.5 -33.5z" glyph-name="a.ss02" horiz-adv-x="825"/><glyph d="M49 0q59 78 60 205v373q0 127 -60 204l279 58v-635q0 -127 59 -205h-338z" glyph-name="i.ss02" horiz-adv-x="436"/><glyph d="M1092 764q100 0 169.5 -84t69.5 -225q0 -84 -27.5 -163t-89 -151.5t-177 -116.5t-271.5 -44h-10q-143 2 -215 52t-72 134v2q0 16 -8 16q-12 0 -32.5 -31.5t-44.5 -70.5t-70 -70.5t-101 -31.5q-74 0 -124 52t-50 148q0 72 31.5 134.5t80 104.5t103.5 89t103.5 90t80 108.5 t31.5 141.5q0 158 -76 158q-35 0 -91 -71t-124.5 -179.5t-77.5 -120.5h-4l35 360q123 49 289 49q143 0 206.5 -68.5t63.5 -217.5v-340q0 -168 22.5 -256t57.5 -112.5t98 -24.5q147 0 215 84t68 190q0 123 -89 190.5t-167 42.5q-18 92 42.5 162t154.5 70zM354 160q39 0 77 53 t38 123v223q0 45 -14 45q-47 0 -119 -92t-72 -213q0 -72 26.5 -105.5t63.5 -33.5z" glyph-name="a.swash" horiz-adv-x="1331"/><glyph d="M1204 764q98 0 168 -84t70 -225q0 -84 -28 -163t-89 -151.5t-176 -116.5t-270 -44q-152 0 -224.5 51t-72.5 135v43q-27 -76 -93.5 -152.5t-154.5 -76.5q-115 0 -195 134t-80 343q0 252 119 419.5t311 167.5h93v185q0 127 -60 205l279 63v-1079q0 -168 22.5 -256 t57 -112.5t98.5 -24.5q147 0 215 84t68 190q0 123 -89.5 190.5t-166.5 42.5q-18 92 43 162t155 70zM481 172q47 0 74 23.5t27 52.5v579q0 176 -109 177q-86 0 -141.5 -110t-55.5 -271q0 -80 10.5 -154t32 -143.5t63.5 -111.5t99 -42z" glyph-name="d.aalt" horiz-adv-x="1441"/><glyph d="M1210 764q100 0 170 -86t70 -236q0 -82 -23.5 -155.5t-78 -146t-162 -116.5t-258.5 -44q-98 0 -175 18t-113 41.5t-36 48.5v619q0 166 -125 165q-84 0 -151 -55v-612q0 -127 59 -205h-338q59 78 60 205v1024q0 127 -60 205l279 65v-645q180 190 321 190q174 0 174 -268 v-450q0 -182 42 -241.5t136 -59.5q143 0 206 78.5t63 183.5q0 131 -89 200.5t-167 44.5q-18 92 42 162t154 70z" glyph-name="h.aalt" horiz-adv-x="1449"/><glyph d="M1706 764q100 0 170 -86t70 -236q0 -82 -24 -155.5t-78 -146t-162.5 -116.5t-260.5 -44q-98 0 -175 18t-112.5 41.5t-35.5 48.5v619q0 166 -123 165q-74 0 -154 -55q2 -12 2 -41v-571q0 -127 60 -205h-338q59 78 59 205v502q0 166 -125 165q-84 0 -151 -55v-612 q0 -127 59 -205h-338q59 78 60 205v577q0 127 -60 205l279 57v-190q180 190 321 190q150 0 170 -194q172 195 324 194q176 0 176 -268v-450q0 -182 42 -241.5t134 -59.5q143 0 205.5 78.5t62.5 183.5q0 131 -88 200.5t-168 44.5q-18 92 43.5 162t155.5 70z" glyph-name="m.aalt" horiz-adv-x="1945"/><glyph d="M1210 764q100 0 170 -86t70 -236q0 -82 -23.5 -155.5t-78 -146t-162 -116.5t-258.5 -44q-98 0 -175 18t-113 41.5t-36 48.5v619q0 166 -125 165q-84 0 -151 -55v-612q0 -127 59 -205h-338q59 78 60 205v577q0 127 -60 205l279 57v-190q180 190 321 190q174 0 174 -268 v-450q0 -182 42 -241.5t136 -59.5q143 0 206 78.5t63 183.5q0 131 -89 200.5t-167 44.5q-18 92 42 162t154 70z" glyph-name="n.aalt" horiz-adv-x="1449"/><glyph d="M1278 -143q233 0 358 -107l-104 -203q-51 53 -153.5 83t-221.5 30q-168 0 -467 -93t-438 -93q-72 0 -139.5 13t-137 56t-98.5 113q92 -84 162 -45t70 147v1020q0 127 -60 205l279 61v-229q27 76 93 152.5t154 76.5q115 0 195 -134t80 -343q0 -252 -119 -419.5 t-311 -167.5h-92v-254q0 -70 -37 -123.5t-70 -71.5t-47 -18q98 0 210 35.5t216.5 86t211 100.5t229 86t237.5 36zM328 776v-536q0 -219 108 -220q86 0 141.5 110t55.5 271q0 80 -10.5 154t-32 143.5t-63.5 112.5t-99 43q-47 0 -73.5 -24.5t-26.5 -53.5z" glyph-name="p.aalt" horiz-adv-x="909"/><glyph d="M473 909h-117v-676q0 -139 111 -139q27 0 63 10h2q-14 -41 -87.5 -82.5t-137.5 -41.5q-74 0 -122 58t-48 150v721h-119l338 426q0 -119 18.5 -199.5t52.5 -118.5t68.5 -52.5t82.5 -14.5q131 0 193.5 86t62.5 191q0 129 -89.5 194.5t-166.5 40.5q-18 92 43 162t155 70 q100 0 169 -84t69 -226q0 -84 -26.5 -161.5t-84 -150.5t-169 -118t-261.5 -45z" glyph-name="t.aalt" horiz-adv-x="550"/><glyph d="M1210 764q100 0 170 -86t70 -236q0 -82 -23.5 -155.5t-78 -146t-162 -116.5t-258.5 -44q-98 0 -175 18t-113 41.5t-36 48.5v82q-180 -190 -321 -190q-174 0 -174 268v493q0 168 -60 246l279 57v-727q0 -166 125 -165q74 0 151 53v536q0 168 -59 246l278 57v-718 q0 -182 42 -241.5t136 -59.5q143 0 206 78.5t63 183.5q0 131 -89 200.5t-167 44.5q-18 92 42 162t154 70z" glyph-name="u.aalt" horiz-adv-x="1449"/><glyph d="M426 1657q63 0 121.5 -20.5t113 -64.5t87 -128t32.5 -199q0 -109 -47 -273.5t-239 -740.5q-57 -172 -91 -270h-2l-270 815q-63 195 -143 248h403q-47 -29 -51 -85t29 -163l120 -424q133 414 171 557.5t38 245.5q0 143 -52 210t-132 67t-122 -58.5t-27 -128.5 q-92 -16 -157 38t-65 142q0 100 81 166t202 66z" glyph-name="v.aalt" horiz-adv-x="796"/><glyph d="M408 -39l-269 815q-37 109 -69.5 164t-81.5 84h391q-68 -53 -8 -248l125 -418l63 195q39 125 7.5 263t-115.5 208h370q-37 -29 -39 -85t29 -163l121 -420q178 547 201 656q16 80 16 149q0 139 -53.5 205t-133 66t-121.5 -58.5t-28 -128.5q-92 -16 -156.5 38t-64.5 142 q0 100 81 166t204 66q139 0 245.5 -95.5t106.5 -308.5q0 -31 -2 -57.5t-9.5 -66t-15.5 -71.5t-27.5 -96.5t-36 -116.5t-50 -156.5t-62.5 -189.5t-82 -244l-98 -294h-2l-217 657l-217 -657h-2z" glyph-name="w.aalt" horiz-adv-x="1247"/><glyph d="M401 0q53 35 53.5 83t-44.5 157l-78 182l-27 -78q-39 -109 -53 -153t-23.5 -90t-1 -64.5t30.5 -36.5h-250q45 35 68.5 57.5t75 96t102.5 180.5l61 127l-143 338q-59 139 -156 225h400q-53 -35 -54.5 -85t39.5 -140l95 -221q115 270 151.5 380.5t36.5 202.5q0 139 -52 205 t-132 66t-122 -58.5t-28 -128.5q-94 -16 -158.5 38t-64.5 142q0 100 82 166t205 66q139 0 244.5 -95.5t105.5 -308.5q0 -102 -49 -242.5t-203 -471.5l127 -301q66 -152 162 -238h-400z" glyph-name="x.aalt" horiz-adv-x="808"/><glyph d="M127 -360q-72 0 -94 32v207q68 -23 139 -22q193 0 193 157q0 29 -8.5 69t-16.5 65.5t-29.5 88t-27.5 82.5l-152 457q-63 195 -143 248h403q-47 -29 -51 -85t29 -163l118 -424q131 379 170 531.5t39 261.5q0 150 -52 218.5t-132 68.5q-78 0 -121 -58.5t-31 -128.5 q-92 -16 -156.5 38t-64.5 142q0 100 81 166t204 66q141 0 246.5 -98.5t105.5 -323.5q0 -121 -58.5 -320.5t-289.5 -875.5q-23 -70 -34 -98.5t-43 -99t-58.5 -104.5t-71.5 -65.5t-94 -31.5z" glyph-name="y.aalt" horiz-adv-x="794"/><glyph d="M1030 109h2q-14 -43 -95 -86t-144 -43q-72 0 -119 57t-47 151v447q0 160 -58.5 245t-146.5 85q-49 0 -68.5 -26t-19.5 -79v-655q0 -154 80 -205h-369q70 59 70 205v719h-76q88 330 187.5 467t191.5 137q53 0 83.5 -38t30.5 -101q0 -70 -35.5 -118t-93.5 -48 q-37 0 -83 25.5t-70 25.5q-37 0 -60.5 -32t-23.5 -79q0 -145 246 -145q135 0 234 67.5t196 247.5h4v-311q104 0 166 6l-31 -119h-135v-716q0 -47 27.5 -73t76.5 -26q37 1 80 15z" glyph-name="f_t.dlig" horiz-adv-x="1050"/><glyph d="M49 0q70 59 70 205v719h-80q82 348 237.5 508.5t325.5 160.5q104 0 168 -57t64 -145q0 -100 -76 -148.5t-154 -23.5q4 59 -47 137t-143 78q-74 0 -115 -51.5t-41 -125.5q0 -104 87 -177.5t237 -73.5q156 0 256 38v-839q0 -127 59 -205h-340q59 78 59 205v430 q0 154 -58 242t-132 88q-41 0 -64.5 -28t-23.5 -77v-655q0 -154 80 -205h-369z" glyph-name="uniFB01.aalt" horiz-adv-x="944"/><glyph d="M440 -20q-174 0 -282.5 153.5t-108.5 378.5t108.5 378.5t282.5 153.5t282.5 -153.5t108.5 -378.5t-108.5 -378.5t-282.5 -153.5zM440 33q133 0 133 479t-133 479q-78 0 -106.5 -124t-28.5 -355t28.5 -355t106.5 -124z" glyph-name="zero.aalt" horiz-adv-x="880"/><glyph d="M10 0q92 20 127 69.5t35 155.5v494q0 113 -19.5 145.5t-121.5 67.5v10l368 143v-860q0 -106 35 -155.5t127 -69.5h-551z" glyph-name="one.aalt" horiz-adv-x="571"/><glyph d="M8 0q258 279 357.5 427t99.5 261q0 80 -42 132t-124 52q-150 0 -231 -225h-9q18 166 107.5 281.5t265.5 115.5q137 0 213 -77.5t76 -182.5q0 -74 -40 -150.5t-113.5 -151t-139.5 -129t-156 -120.5q203 0 328 25t180 102l-127 -360h-645z" glyph-name="two.aalt" horiz-adv-x="808"/><glyph d="M442 457q131 27 228.5 -55.5t97.5 -256.5q0 -225 -145.5 -400t-350.5 -175q-160 0 -264 84q121 -25 220.5 4t158.5 95.5t92 149.5t33 167q0 80 -30.5 129t-76 61t-83 11t-66.5 -11l332 526h-58q-205 0 -306 -27.5t-163 -125.5l119 391h629z" glyph-name="three.aalt" horiz-adv-x="858"/><glyph d="M821 20h-137v-149q0 -127 59 -205l-346 -61q59 78 60 205v210h-449l676 1055v-948h176zM457 127v514l-328 -514h328z" glyph-name="four.aalt" horiz-adv-x="878"/><glyph d="M463 481q123 0 200.5 -97t77.5 -265q0 -221 -127 -385t-325 -164q-74 0 -145.5 21.5t-104.5 46.5q137 -27 243.5 27t158 154.5t51.5 219.5t-56.5 189.5t-165.5 70.5q-92 0 -182 -57l41 782h141q391 0 461 43l-100 -281h-457l-24 -432q180 127 313 127z" glyph-name="five.aalt" horiz-adv-x="790"/><glyph d="M467 -20q-172 0 -284.5 171t-112.5 474q0 352 147.5 590.5t362.5 238.5q74 0 122 -20q-100 0 -173.5 -60.5t-115.5 -168t-61.5 -236.5t-19.5 -283q0 -100 7 -201.5t22.5 -212t48 -179t79.5 -68.5q57 0 85 93t28 228q0 92 -12 171t-41 146.5t-83 98.5t-128 12 q78 147 227 148q129 0 204 -133.5t75 -309.5q0 -221 -104.5 -360t-272.5 -139z" glyph-name="six.aalt" horiz-adv-x="892"/><glyph d="M846 1024q-168 -156 -336 -601.5t-143 -832.5h-265q-12 195 45.5 401t149.5 363.5t178 268t152 163.5h-148q-195 0 -297 -27.5t-164 -125.5l119 391h709z" glyph-name="seven.aalt" horiz-adv-x="811"/><glyph d="M547 834q12 -14 48 -58.5t48 -60t41 -52t39 -54t31.5 -50.5t29 -54.5t18.5 -51t14 -57t3 -56.5q0 -158 -111.5 -259t-285.5 -101q-168 0 -270.5 97t-102.5 253q0 135 73 230t183 145q-104 131 -152.5 220t-48.5 195q0 150 93.5 242t240.5 92q137 0 220 -83t83 -216 q1 -202 -194 -321zM444 1405q-45 0 -78.5 -40t-33.5 -108q0 -154 192 -397q61 106 62 236q0 117 -36 213t-106 96zM428 29q55 0 96 51t41 145q0 88 -47 179.5t-164 238.5q-20 25 -30 39q-82 -121 -82 -287q0 -141 53 -253.5t133 -112.5z" glyph-name="eight.aalt" horiz-adv-x="868"/><glyph d="M424 1044q172 0 285.5 -171t113.5 -474q0 -352 -147.5 -590.5t-362.5 -238.5q-76 0 -125 20q133 0 219.5 108.5t119 269.5t32.5 372q0 78 -3 156.5t-14.5 172t-26.5 164t-45 118.5t-67 48q-59 0 -86.5 -93t-27.5 -228q0 -92 12 -171t41 -146.5t83 -98.5t128 -12 q-76 -147 -225 -148q-129 0 -204 133.5t-75 309.5q0 221 104.5 360t270.5 139z" glyph-name="nine.aalt" horiz-adv-x="894"/></font>
</defs>
</svg>
