<?xml version="1.0" standalone="no"?>
<!DOCTYPE svg PUBLIC "-//W3C//DTD SVG 1.1//EN" "http://www.w3.org/Graphics/SVG/1.1/DTD/svg11.dtd">
<svg xmlns="http://www.w3.org/2000/svg"><metadata>This SVG WebFont was generated by YouWorkForThem.
Copyright Â© 2019 by Connary Fagen. All rights reserved.</metadata><defs><font horiz-adv-x="1044" id="ywftsvg"><font-face ascent="1638" bbox="-883 -573 1993 1907" cap-height="1434" descent="-410" font-family="" font-stretch="normal" font-weight="100" panose-1="0 0 2 0 0 0 0 0 0 0" underline-position="0" underline-thickness="0" unicode-range="U+0020-FB01" units-per-em="2048" x-height="1024"/><missing-glyph d="M840 1638v-2048h-650v2048h650zM682 1501h-338v-67h133v-76h-135v-68h340v68h-135v76h135v67zM547 1237h-205v-213h340v70h-135v143zM477 1167v-73h-67v73h67zM682 969h-340v-68h135v-76h-135v-67h205v143h135v68zM682 846h-68v-135h-272v-70h340v205zM682 596h-205v-115 h70v47h67v-96h-204v164h-68v-231h340v231zM682 242h-340v-232h340v232zM614 174v-96h-204v96h204zM682 -37h-340v-67h143l-143 -97v-67h340v67h-209l143 97h66v67z" horiz-adv-x="1024"/><glyph d="M63 0q70 59 70 205v721h-82q53 328 140.5 465t175.5 137q51 0 78.5 -38t27.5 -99q0 -66 -31.5 -108t-85.5 -42q-35 0 -69.5 21.5t-59.5 21.5q-37 0 -54 -32.5t-17 -69.5q0 -59 62.5 -100.5t151.5 -58.5t195 -17q174 0 275 38v-839q0 -127 59 -205h-319q59 78 59 205v434 q0 158 -64.5 243t-152.5 85q-90 0 -90 -105v-657q0 -154 80 -205h-349zM672 1247q-23 10 -46.5 54.5t-23.5 89.5q0 57 36 94t89 37q49 0 84 -33t35 -86q0 -76 -63.5 -116t-110.5 -40z" glyph-name="uniFB01" horiz-adv-x="948" unicode="fi"/><glyph d="M840 1638v-2048h-650v2048h650zM682 1501h-338v-67h133v-76h-135v-68h340v68h-135v76h135v67zM547 1237h-205v-213h340v70h-135v143zM477 1167v-73h-67v73h67zM682 969h-340v-68h135v-76h-135v-67h205v143h135v68zM682 846h-68v-135h-272v-70h340v205zM682 596h-205v-115 h70v47h67v-96h-204v164h-68v-231h340v231zM682 242h-340v-232h340v232zM614 174v-96h-204v96h204zM682 -37h-340v-67h143l-143 -97v-67h340v67h-209l143 97h66v67z" glyph-name=".notdef" horiz-adv-x="1024"/><glyph glyph-name="glyph1" horiz-adv-x="0"/><glyph glyph-name="glyph2" horiz-adv-x="681"/><glyph glyph-name="space" horiz-adv-x="286" unicode=" "/><glyph d="M195 451q-18 225 -81 490t-63 331q0 94 45 138t100.5 44t100.5 -44t45 -138q0 -68 -62.5 -333t-82.5 -488h-2zM196.5 -20q-59.5 0 -102.5 48t-43 117q0 68 43 117t102.5 49t102.5 -49t43 -117q0 -70 -43 -117.5t-102.5 -47.5z" glyph-name="exclam" horiz-adv-x="393" unicode="!"/><glyph d="M166 844l-135 590h270zM498 844l-136 590h271z" glyph-name="quotedbl" horiz-adv-x="663" unicode="&quot;"/><glyph d="M1149 975h-285l-119 -514h295v-49h-307l-143 -615h-47l143 615h-344l-143 -615h-47l143 615h-264v49h276l119 514h-287v49h299l144 614h47l-144 -614h344l144 614h47l-143 -614h272v-49zM698 461l119 514h-344l-119 -514h344z" glyph-name="numbersign" horiz-adv-x="1179" unicode="#"/><glyph d="M485 942q4 -6 38 -49t43 -55.5t35 -50t34 -58t17.5 -52.5t9.5 -59q0 -102 -88.5 -165.5t-223.5 -63.5q-27 0 -71 4l-25 -147h-51l26 157q-72 14 -143 56l-10 360q63 -188 172 -307l51 301l-86 111q-4 6 -22.5 30.5t-22.5 29.5t-19.5 26.5t-19.5 29t-15.5 26.5t-15.5 28.5 t-11 27t-9 29.5t-4 28.5t-2 32.5q0 106 71.5 174t200.5 68q23 0 64 -4l24 147h51l-26 -157q72 -16 118 -56l37 -342q-125 242 -172 297l-47 -276zM342 1128l8 -10l45 266q-35 29 -69 29q-31 0 -51.5 -22.5t-20.5 -65.5q0 -74 88 -197zM393 430q33 0 57.5 21.5t24.5 64.5 q0 66 -119 221l-16 21l-47 -287q55 -41 100 -41z" glyph-name="dollar" horiz-adv-x="702" unicode="$"/><glyph d="M256 942q-92 0 -148.5 75t-56.5 181.5t56.5 181t148.5 74.5t148.5 -74.5t56.5 -181t-56.5 -181.5t-148.5 -75zM201 307l551 1127h41l-551 -1127h-41zM256 979q78 0 122 63.5t44 155.5t-44 155.5t-122 63.5t-122 -63.5t-44 -155.5t44 -155.5t122 -63.5zM737 287 q-92 0 -148.5 74.5t-56.5 181t56.5 181.5t148.5 75t148.5 -75t56.5 -181.5t-56.5 -181t-148.5 -74.5zM737 324q78 0 122 63.5t44 155.5t-44 155.5t-122 63.5t-122 -63.5t-44 -155.5t44 -155.5t122 -63.5z" glyph-name="percent" horiz-adv-x="993" unicode="%"/><glyph d="M1118 879q-76 -12 -133 -49t-99 -108t-66.5 -130.5t-59.5 -165.5l14 -31q143 -297 283 -297q33 0 61 19q0 -47 -61.5 -92t-136.5 -45q-141 0 -271 204q-33 -90 -108.5 -147t-171.5 -57q-137 0 -227.5 109.5t-90.5 275.5q0 84 22.5 149.5t74 117.5t89 80.5t111.5 75.5 l-51 105q-82 170 -82 276q0 131 83 205t196 74q96 0 167.5 -59.5t71.5 -184.5q0 -104 -51 -176t-147 -139l213 -438q37 162 25.5 284.5t-95.5 143.5v6h440v-6zM504 952l16 -34q109 104 109 256q0 94 -31 165.5t-92 71.5q-41 0 -70.5 -35t-29.5 -96q0 -125 98 -328zM516 166 q70 0 117 47q-39 68 -51 94l-222 455q-121 -106 -120 -246q0 -135 78.5 -242.5t197.5 -107.5z" glyph-name="ampersand" horiz-adv-x="1128" unicode="&amp;"/><glyph d="M166 844l-135 590h270z" glyph-name="quotesingle" horiz-adv-x="331" unicode="'"/><glyph d="M526 -246q-254 0 -359.5 179.5t-105.5 562.5v442q0 383 107.5 562t357.5 179v-12q-156 -27 -199.5 -228.5t-43.5 -721.5t44 -722t199 -228v-13z" glyph-name="parenleft" horiz-adv-x="526" unicode="("/><glyph d="M0 -246v13q156 27 201 229.5t45 720.5t-45 720.5t-201 229.5v12q252 0 358.5 -179t106.5 -562v-442q0 -383 -104.5 -562.5t-360.5 -179.5z" glyph-name="parenright" horiz-adv-x="526" unicode=")"/><glyph d="M438 1114q-2 2 -24.5 42t-32.5 61.5t-22.5 59.5t-12.5 71q0 55 28.5 80.5t63.5 25.5t63.5 -25.5t28.5 -80.5q0 -33 -12 -71t-22.5 -59.5t-33 -61.5t-24.5 -42zM231 1044q-66 0 -107.5 27t-41.5 76q0 39 26.5 65.5t71.5 26.5q90 0 234 -160q-8 -2 -45 -12t-72 -16.5 t-66 -6.5zM647 1044q-31 0 -65.5 6.5t-72.5 16.5t-46 12q143 160 235 160q43 0 70 -27.5t27 -64.5q0 -49 -43.5 -76t-104.5 -27zM268 754q-37 0 -64.5 28.5t-27.5 63.5q0 31 15.5 56.5t49 49t55 35.5t70 32.5t56.5 24.5q-2 -8 -7 -50t-10.5 -67.5t-19.5 -62.5t-35 -61 q-41 -49 -82 -49zM610 754q-45 0 -84 49q-20 25 -34.5 61.5t-19.5 62t-10 67.5t-7 50q4 -2 58 -25.5t71.5 -34.5t53.5 -34.5t50 -48t14 -55.5q0 -35 -27.5 -63.5t-64.5 -28.5z" glyph-name="asterisk" horiz-adv-x="876" unicode="*"/><glyph d="M522 643v-43h-213v-213h-43v213h-215v43h215v215h43v-215h213z" glyph-name="plus" horiz-adv-x="573" unicode="+"/><glyph d="M186.5 311q61.5 0 103.5 -52t42 -130q0 -102 -66.5 -200.5t-169.5 -151.5l-4 6q66 78 74 199q-53 8 -89 54t-36 109q0 68 42 117t103.5 49z" glyph-name="comma" horiz-adv-x="372" unicode=","/><glyph d="M51 600v43h471v-43h-471z" glyph-name="hyphen" horiz-adv-x="573" unicode="-"/><glyph d="M186 -20q-61 0 -103 48t-42 117q0 68 42 117t103 49q59 0 102.5 -49t43.5 -117q0 -70 -43.5 -117.5t-102.5 -47.5z" glyph-name="period" horiz-adv-x="372" unicode="."/><glyph d="M0 -203l430 1841h41l-430 -1841h-41z" glyph-name="slash" horiz-adv-x="471" unicode="/"/><glyph d="M477.5 -20q-190.5 0 -298 211.5t-107.5 525t107.5 525.5t298 212t298 -212t107.5 -525.5t-107.5 -525t-298 -211.5zM543 29q53 0 89 97t36 269t-29 398.5t-90.5 419t-136.5 192.5q-53 0 -89 -97.5t-36 -269.5t28.5 -398t90 -418.5t137.5 -192.5z" glyph-name="zero" horiz-adv-x="954" unicode="0"/><glyph d="M10 0q78 20 110 70.5t32 154.5v711q0 125 -18.5 155.5t-123.5 65.5v10l350 328v-1270q0 -104 32 -154.5t110 -70.5h-492z" glyph-name="one" horiz-adv-x="512" unicode="1"/><glyph d="M301 227q213 0 330 34t174 151l-129 -412h-666q274 352 393 584.5t119 423.5q0 113 -47 193.5t-153 80.5q-147 0 -232 -225h-8q18 162 110.5 279.5t262.5 117.5q109 0 181.5 -58.5t98 -134t25.5 -159.5q0 -104 -47 -221t-137.5 -240t-167 -210t-187.5 -204h80z" glyph-name="two" horiz-adv-x="833" unicode="2"/><glyph d="M432 850q133 29 230.5 -49t97.5 -248q0 -223 -143.5 -398t-344.5 -175q-158 0 -262 83q123 -27 224.5 2t161 96.5t92 149.5t32.5 166q0 82 -31.5 132t-79 61.5t-86 10.5t-67.5 -11l338 536h-55q-207 0 -308.5 -27.5t-162.5 -125.5l114 381h627z" glyph-name="three" horiz-adv-x="860" unicode="3"/><glyph d="M684 225q0 -104 32 -154.5t109 -70.5h-491q78 20 109.5 70.5t31.5 154.5v60h-465l674 1208v-1102h176l-39 -106h-137v-60zM135 391h340v621z" glyph-name="four" horiz-adv-x="880" unicode="4"/><glyph d="M461 883q121 0 197.5 -95.5t76.5 -261.5q0 -219 -126 -382.5t-320 -163.5q-74 0 -144.5 21.5t-103.5 45.5q207 -41 334 86t127 313q0 121 -57.5 193t-168.5 72q-92 0 -186 -60l41 783h133q391 0 461 43l-100 -271h-449l-24 -444q176 121 309 121z" glyph-name="five" horiz-adv-x="786" unicode="5"/><glyph d="M463 -20q-170 0 -280.5 171t-110.5 474q0 354 144 591.5t359 237.5q74 0 123 -20q-102 0 -178 -60.5t-119 -167t-62.5 -233.5t-19.5 -279q0 -104 7.5 -206.5t24 -214t51 -180t83.5 -68.5q61 0 91 93t30 228q0 94 -14 173t-44 146.5t-87.5 97.5t-134.5 11q76 147 227 148 q125 0 200.5 -134.5t75.5 -310.5q0 -217 -102 -357t-264 -140z" glyph-name="six" horiz-adv-x="899" unicode="6"/><glyph d="M834 1434q-170 -158 -342.5 -603.5t-147.5 -830.5h-246q-12 193 44.5 399.5t147.5 365.5t177 272.5t151 168.5h-141q-188 0 -292.5 -27.5t-164.5 -125.5l113 381h701z" glyph-name="seven" horiz-adv-x="800" unicode="7"/><glyph d="M535 829q14 -16 54 -65t53 -65.5t45 -57.5t43 -61.5t31.5 -56.5t28 -61.5t14.5 -59t7 -66.5q0 -156 -109.5 -256t-281.5 -100q-166 0 -267.5 97t-101.5 253q0 133 73 229t185 150q-104 129 -153.5 219t-49.5 196q0 145 91.5 237.5t236.5 92.5q135 0 217 -83t82 -216 q1 -201 -198 -326zM440 1405q-47 0 -82.5 -40t-35.5 -112q0 -160 192 -399q72 109 72 242q0 119 -37 214t-109 95zM426 29q57 0 99 52t42 148q0 88 -47 181.5t-164 240.5l-30 37q-90 -125 -90 -297q0 -139 54 -250.5t136 -111.5z" glyph-name="eight" horiz-adv-x="862" unicode="8"/><glyph d="M330 -20q-74 0 -123 20q135 0 223 108.5t122 267.5t34 363q0 104 -7.5 207t-23.5 214.5t-51 180t-84 68.5q-61 0 -91 -93t-30 -229q0 -94 13.5 -172.5t44 -146.5t88 -97.5t135.5 -11.5q-80 -147 -228 -147q-129 0 -204.5 133t-75.5 311q0 217 103.5 357.5t266.5 140.5 q168 0 280 -171t112 -474q0 -352 -145.5 -590.5t-358.5 -238.5z" glyph-name="nine" horiz-adv-x="903" unicode="9"/><glyph d="M186 647q-61 0 -103 48t-42 118q0 68 42 117t103 49q59 0 102.5 -49t43.5 -117q0 -70 -43.5 -118t-102.5 -48zM186 -20q-61 0 -103 48t-42 117q0 68 42 117t103 49q59 0 102.5 -49t43.5 -117q0 -70 -43.5 -117.5t-102.5 -47.5z" glyph-name="colon" horiz-adv-x="372" unicode=":"/><glyph d="M186 647q-61 0 -103 48t-42 118q0 68 42 117t103 49q59 0 102.5 -49t43.5 -117q0 -70 -43.5 -118t-102.5 -48zM186.5 311q61.5 0 103.5 -52t42 -130q0 -102 -66.5 -200.5t-169.5 -151.5l-4 6q66 78 74 199q-53 8 -89 54t-36 109q0 68 42 117t103.5 49z" glyph-name="semicolon" horiz-adv-x="372" unicode=";"/><glyph d="M82 438l-29 31l152 152l-154 155l31 29l180 -184z" glyph-name="less" horiz-adv-x="313" unicode="&lt;"/><glyph d="M51 723v43h471v-43h-471zM51 477v43h471v-43h-471z" glyph-name="equal" horiz-adv-x="573" unicode="="/><glyph d="M231 438l-180 183l180 184l31 -29l-153 -155l151 -152z" glyph-name="greater" horiz-adv-x="313" unicode=">"/><glyph d="M383 432q-66 61 -66 156.5t38 184.5t78 216t40 225q0 90 -26.5 135.5t-59.5 45.5q-94 0 -225 -527h-6l-84 447q156 139 329 139q131 0 210 -87t79 -220q0 -100 -50 -191.5t-109.5 -149.5t-109.5 -136t-50 -154q0 -39 16 -84h-4zM350.5 -20q-59.5 0 -102.5 48t-43 117 q0 68 43 117t102.5 49t102.5 -49t43 -117q0 -70 -43 -117.5t-102.5 -47.5z" glyph-name="question" horiz-adv-x="731" unicode="?"/><glyph d="M680 -260q-111 0 -215.5 44t-194.5 131t-144 239.5t-54 349.5q0 203 57 361.5t155.5 253.5t219.5 143.5t256 48.5q104 0 193 -30t172 -98.5t131.5 -202.5t48.5 -323q0 -285 -93.5 -423t-214.5 -138q-223 0 -223 279v454q0 82 -43 82q-53 0 -93 -99t-40 -259 q0 -125 27.5 -217t89.5 -92q55 0 55 55q0 -96 -40 -149.5t-109 -53.5q-100 0 -160 101.5t-60 273.5q0 231 104.5 358t258.5 127q133 0 194 -24l-2 -539q0 -236 97 -235q43 0 61.5 64.5t18.5 248.5q0 176 -19.5 306t-66 241.5t-137.5 170t-224 58.5q-436 0 -436 -641 q0 -180 36 -317t92 -221t137 -137.5t162 -73t173 -19.5q125 0 192 31l7 -6q-53 -45 -150.5 -84t-218.5 -39z" glyph-name="at" horiz-adv-x="1376" unicode="@"/><glyph d="M1034 0h-366q25 25 27.5 72t-11.5 113.5t-51 189.5h-381q-47 -166 -47 -253t39 -122h-234q106 98 189 377l321 1089l342 -1089q94 -303 172 -377zM621 422l-185 620l-172 -620h357z" glyph-name="A" unicode="A"/><glyph d="M600 788q127 -10 227.5 -124.5t100.5 -288.5q0 -184 -114 -279.5t-265 -95.5h-488q39 29 55.5 52.5t28 100t11.5 224.5v680q0 147 -11.5 224t-28 100.5t-55.5 52.5h469q125 0 223.5 -80t98.5 -246q0 -152 -81 -231t-171 -89zM475 1391q-57 0 -77.5 -65.5t-20.5 -268.5 v-252q264 10 264 293q0 119 -42 206t-124 87zM528 43q94 0 129 70.5t35 203.5q0 438 -315 451v-391q0 -197 38.5 -265.5t112.5 -68.5z" glyph-name="B" horiz-adv-x="968" unicode="B"/><glyph d="M557 -20q-193 0 -339 216t-146 545q0 135 28.5 258t86 226.5t154.5 166t224 62.5t240 -35q16 -129 57 -526h-6q-96 238 -195.5 371t-175.5 133q-29 0 -61.5 -22.5t-67 -68.5t-56 -136.5t-21.5 -206.5q0 -182 45 -355.5t150.5 -301.5t250.5 -128q111 0 174 74 q-23 -92 -120 -182t-222 -90z" glyph-name="C" horiz-adv-x="960" unicode="C"/><glyph d="M61 0q39 29 55.5 52.5t28 100t11.5 224.5v680q0 147 -11.5 224t-28 100.5t-55.5 52.5h416q219 0 360.5 -178.5t141.5 -526.5t-142.5 -538.5t-369.5 -190.5h-406zM532 55q63 0 107.5 35t68 105.5t34 157.5t10.5 208q0 360 -72 588.5t-203 228.5q-59 0 -79.5 -53 t-20.5 -207v-786q-1 -277 155 -277z" glyph-name="D" horiz-adv-x="1048" unicode="D"/><glyph d="M889 498h6l-66 -498h-768q39 29 55.5 52.5t28 100t11.5 224.5v680q0 147 -11.5 224t-28 100.5t-55.5 52.5h766l35 -516h-6q-88 258 -169 360t-175 102q-80 0 -107.5 -72.5t-27.5 -248.5v-289q0 -35 24 -35q127 0 204 54.5t112 193.5h6v-543h-6q-35 141 -112 195.5 t-204 54.5q-25 0 -24 -35v-280q0 -178 27.5 -250t113.5 -72q213 1 371 445z" glyph-name="E" horiz-adv-x="933" unicode="E"/><glyph d="M512 1380q-80 0 -107.5 -72.5t-27.5 -248.5v-307q0 -35 24 -35q127 0 204 56t110 202h8v-563h-8q-33 145 -110 202.5t-204 57.5q-25 0 -24 -35v-260q0 -147 11 -224t26.5 -100.5t54.5 -52.5h-408q39 29 55.5 52.5t28 100t11.5 224.5v680q0 147 -11.5 224t-28 100.5 t-55.5 52.5h760l35 -516h-6q-88 256 -169 359t-169 103z" glyph-name="F" horiz-adv-x="907" unicode="F"/><glyph d="M561 -20q-193 0 -341 214t-148 541q0 186 50 344t168 266.5t285 108.5q119 0 232 -35q6 -51 59 -526h-6q-98 240 -197.5 371t-181.5 131q-31 0 -61.5 -20.5t-62 -65.5t-51 -133.5t-19.5 -208.5q0 -203 51 -420t135 -363.5t170 -146.5q31 0 40 21.5t9 72.5v127 q0 213 -21.5 307t-80.5 154h385q-53 -59 -73.5 -154.5t-20.5 -306.5v-262h-4q-41 41 -101 41q-31 0 -93.5 -28.5t-121.5 -28.5z" glyph-name="G" horiz-adv-x="1015" unicode="G"/><glyph d="M918 377q0 -147 11 -224t27.5 -100.5t55.5 -52.5h-410q39 29 55.5 52.5t27.5 100t11 224.5v256q0 43 -13 52t-50 9h-195q-25 0 -35 -2t-18 -16t-8 -43v-256q0 -147 11 -224t26.5 -100.5t54.5 -52.5h-408q39 29 55.5 52.5t28 100t11.5 224.5v680q0 147 -11.5 224 t-28 100.5t-55.5 52.5h408q-39 -29 -54.5 -52.5t-26.5 -100.5t-11 -224v-244q0 -43 12 -52t49 -9h195q25 0 36 2t19 16t8 43v244q0 147 -11 224t-27.5 100.5t-55.5 52.5h410q-39 -29 -55.5 -52.5t-27.5 -100.5t-11 -224v-680z" glyph-name="H" horiz-adv-x="1071" unicode="H"/><glyph d="M61 0q39 29 55.5 52.5t28 100t11.5 224.5v680q0 147 -11.5 224t-28 100.5t-55.5 52.5h408q-39 -29 -54.5 -52.5t-26.5 -100.5t-11 -224v-680q0 -147 11 -224t26.5 -100.5t54.5 -52.5h-408z" glyph-name="I" horiz-adv-x="530" unicode="I"/><glyph d="M109 -100q-68 0 -129 32v7q201 33 200 337v781q0 147 -11 224t-27.5 100.5t-55.5 52.5h410q-39 -29 -55.5 -52.5t-28 -100.5t-11.5 -224v-729q0 -205 -77.5 -316.5t-214.5 -111.5z" glyph-name="J" horiz-adv-x="526" unicode="J"/><glyph d="M377 377q0 -147 11 -224t26.5 -100.5t54.5 -52.5h-408q39 29 55.5 52.5t28 100t11.5 224.5v680q0 147 -11.5 224t-28 100.5t-55.5 52.5h408q-39 -29 -54.5 -52.5t-26.5 -100.5t-11 -224v-680zM725 492q109 -250 161 -347.5t97 -144.5h-326q-14 94 -143 410l-129 309 q176 264 249 399t73 209q0 72 -64 107h322q-82 -41 -171 -159t-245 -380z" glyph-name="K" horiz-adv-x="983" unicode="K"/><glyph d="M61 0q39 29 55.5 52.5t28 100t11.5 224.5v680q0 147 -11.5 224t-28 100.5t-55.5 52.5h408q-39 -29 -54.5 -52.5t-26.5 -100.5t-11 -224v-682q0 -176 27.5 -249t111.5 -73q94 0 173 119t179 389h6l-77 -561h-736z" glyph-name="L" horiz-adv-x="905" unicode="L"/><glyph d="M1153 377q0 -147 11.5 -224t27.5 -100.5t55 -52.5h-409q39 29 55 52.5t27.5 100t11.5 224.5v764l-340 -1161l-375 1157v-760q0 -152 14.5 -225.5t39 -99t85.5 -52.5h-325q55 27 77.5 52.5t37 100t14.5 224.5v680q0 147 -17.5 224t-41 100.5t-81.5 52.5h349l303 -981 l291 981h284q-39 -29 -55 -52.5t-27.5 -100.5t-11.5 -224v-680z" glyph-name="M" horiz-adv-x="1306" unicode="M"/><glyph d="M1026 1434q-57 -27 -79.5 -52.5t-36 -99.5t-13.5 -225v-516q0 -307 16 -582h-10l-686 1169v-751q0 -152 14.5 -225.5t39 -99t85.5 -52.5h-325q55 27 77.5 52.5t37 100t14.5 224.5v680q0 147 -17.5 224t-41 100.5t-81.5 52.5h330q2 -20 13.5 -48t20.5 -44.5t32.5 -58.5 t32.5 -58l389 -705v537q0 150 -14.5 224.5t-36 100t-76.5 52.5h315z" glyph-name="N" unicode="N"/><glyph d="M522 -20q-147 0 -252.5 112.5t-151.5 275t-46 349.5q0 195 46 357.5t151.5 271t254.5 108.5q147 0 253 -112.5t152 -275.5t46 -349q0 -195 -46 -357.5t-151.5 -271t-255.5 -108.5zM616 37q139 0 140 350q0 195 -35 419t-113 406.5t-178 182.5q-139 0 -139 -348 q0 -195 34.5 -420.5t112.5 -407.5t178 -182z" glyph-name="O" horiz-adv-x="1046" unicode="O"/><glyph d="M61 0q39 29 55.5 52.5t28 100t11.5 224.5v680q0 147 -11.5 224t-28 100.5t-55.5 52.5h469q63 0 124 -21.5t117 -67t91 -134.5t35 -207q0 -424 -465 -424v16q236 18 236 395q0 170 -45 279.5t-140 109.5q-59 0 -82.5 -64.5t-23.5 -258.5v-680q0 -147 11 -224t26.5 -100.5 t54.5 -52.5h-408z" glyph-name="P" horiz-adv-x="937" unicode="P"/><glyph d="M928 18q27 -20 26 -73q0 -74 -62.5 -134.5t-170.5 -60.5q-70 0 -141.5 33t-119.5 74t-106.5 76.5t-102.5 42t-108 -28.5q109 76 226 69q-143 74 -220 270.5t-77 430.5q0 195 46 357.5t151.5 271t254.5 108.5q147 0 253 -112.5t152 -275.5t46 -349q0 -190 -45 -351 t-147.5 -270.5t-245.5 -115.5q147 -45 235 -46q152 0 152 84h4zM430 1395q-139 0 -139 -348q0 -195 34.5 -420.5t112.5 -407.5t178 -182q139 0 140 350q0 195 -35 419t-113 406.5t-178 182.5zM143 -53h-2h2z" glyph-name="Q" horiz-adv-x="1046" unicode="Q"/><glyph d="M670 731q207 -516 268 -622q51 -90 94 -107q-39 -12 -102 -12q-98 0 -175 72.5t-122 176t-80 207t-67.5 176t-65.5 72.5v6q106 0 153.5 18.5t56.5 49.5t9 106q0 506 -172 506q-51 0 -70.5 -64.5t-19.5 -258.5v-680q0 -147 11 -224t26.5 -100.5t54.5 -52.5h-408 q39 29 55.5 52.5t28 100t11.5 224.5v680q0 147 -11.5 224t-28 100.5t-55.5 52.5h480q141 0 236 -103.5t95 -263.5q1 -236 -202 -336z" glyph-name="R" horiz-adv-x="1019" unicode="R"/><glyph d="M373 -20q-170 0 -269 61l-26 496h4q174 -510 344 -510q47 0 84 35.5t37 107.5q0 104 -90 246l-209 317q-10 14 -37 54t-35 53.5t-28.5 46.5t-26.5 48t-19.5 44t-17.5 48.5t-8 46t-4 52.5q0 150 97 239t253 89q115 0 246 -68l26 -479h-4q-18 39 -49 106.5t-48.5 105.5 t-43 90.5t-45 81t-42 58t-44 42t-43.5 12.5q-39 0 -71 -36t-32 -101q0 -113 97 -267l172 -270q12 -18 71.5 -104t81 -125t47 -107.5t25.5 -126.5q-2 -133 -108.5 -209.5t-284.5 -76.5z" glyph-name="S" horiz-adv-x="806" unicode="S"/><glyph d="M227 0q49 27 69.5 52.5t33 99t12.5 225.5v862q0 98 -6 124t-35 26q-37 0 -75 -74t-140 -320q-25 -59 -39 -92h-6l18 537q100 -6 275 -6h237q174 0 277 6l18 -537h-6q-158 373 -188 428q-35 57 -66 58q-29 0 -36 -26t-7 -124v-862q0 -152 12.5 -225.5t33 -99t69.5 -52.5 h-451z" glyph-name="T" horiz-adv-x="905" unicode="T"/><glyph d="M532 -20q-186 0 -281 122.5t-95 311.5v643q0 147 -11.5 224t-28 100.5t-55.5 52.5h398q-33 -29 -46.5 -52.5t-24.5 -101.5t-11 -223v-643q0 -164 60.5 -262.5t172.5 -98.5q111 0 166 97.5t55 263.5v643q0 147 -12 224t-29.5 100.5t-56.5 52.5h254q-41 -29 -57.5 -52.5 t-28.5 -100.5t-12 -224v-643q0 -193 -86.5 -313.5t-270.5 -120.5z" glyph-name="U" horiz-adv-x="1005" unicode="U"/><glyph d="M801 1434h233q-106 -98 -188 -377l-322 -1090l-342 1090q-94 303 -172 377h367q-25 -25 -28 -72t11.5 -113.5t51.5 -191.5l196 -666l185 666q47 168 47 255t-39 122z" glyph-name="V" unicode="V"/><glyph d="M1255 1434h234q-111 -102 -189 -377l-311 -1090l-246 805l-229 -805l-332 1090q-90 299 -172 377h367q-25 -25 -27 -73t11.5 -112.5t50.5 -191.5l186 -660l70 275q29 119 22.5 207t-45.5 215q-84 266 -160 340h367q-25 -25 -27 -73t11.5 -112.5t50.5 -191.5l186 -664 l174 664q45 170 46 255t-38 122z" glyph-name="W" horiz-adv-x="1499" unicode="W"/><glyph d="M573 0q27 25 27 67t-19.5 109.5t-70.5 200.5l-94 248l-103 -248q-78 -190 -91 -265t26 -112h-238q66 45 127.5 127t126.5 250l125 315l-139 365q-96 260 -230 377h383q-27 -23 -14.5 -112t80.5 -265l70 -185l75 185q74 184 83.5 266t-33.5 111h237q-59 -41 -113.5 -122 t-123.5 -255l-99 -252l162 -428q109 -287 229 -377h-383z" glyph-name="X" horiz-adv-x="966" unicode="X"/><glyph d="M725 1434h248q-137 -102 -238 -377l-151 -410v-270q0 -147 11 -224t27.5 -100.5t55.5 -52.5h-408q39 29 55.5 52.5t28 100t11.5 224.5v268l-144 412q-100 285 -211 377h379q-18 -18 -23.5 -44t4 -76t21.5 -94t41 -137q6 -18 8 -26l107 -346l121 346q37 106 50 149 t26.5 99.5t7 83.5t-26.5 45z" glyph-name="Y" horiz-adv-x="980" unicode="Y"/><glyph d="M268 33q250 20 349.5 114.5t205.5 401.5l-73 -549h-719l555 1397q-123 -10 -196 -35t-133 -85t-99 -143t-95 -239l74 539h697z" glyph-name="Z" horiz-adv-x="874" unicode="Z"/><glyph d="M61 -246v1925h447v-12l-225 -29v-1843l225 -28v-13h-447z" glyph-name="bracketleft" horiz-adv-x="507" unicode="["/><glyph d="M430 -203l-430 1841h41l430 -1841h-41z" glyph-name="backslash" horiz-adv-x="471" unicode="\"/><glyph d="M446 -246h-446v13l225 28v1843l-225 29v12h446v-1925z" glyph-name="bracketright" horiz-adv-x="507" unicode="]"/><glyph d="M23 848l-3 2l279 604l276 -604l-2 -2l-274 311z" glyph-name="asciicircum" horiz-adv-x="595" unicode="^"/><glyph d="M51 -63v43h819v-43h-819z" glyph-name="underscore" horiz-adv-x="921" unicode="_"/><glyph d="M215 -20q-74 0 -124 53t-50 147q0 72 31.5 134.5t80 104.5t104.5 90t104.5 90t80 105.5t31.5 137.5q0 164 -82 164q-37 0 -94 -70t-120.5 -175.5t-74.5 -117.5h-4q8 72 19.5 199t13.5 153q119 49 285 49q139 0 198.5 -67.5t59.5 -216.5v-576q0 -90 84 -90q20 0 35 10 q0 -43 -54.5 -83.5t-113.5 -40.5q-66 0 -109 53t-43 133q0 16 -8 16q-14 0 -44 -50t-82 -101t-124 -51zM350 152q39 0 81 57t42 127v219q0 47 -16 47q-47 0 -124 -92t-77 -217q0 -72 27.5 -106.5t66.5 -34.5z" glyph-name="a" horiz-adv-x="813" unicode="a"/><glyph d="M371 -20q-174 0 -320 30q59 45 60 207v1012q0 127 -60 205l258 61v-680q27 76 93.5 152.5t154.5 76.5q115 0 196 -134t81 -343q0 -258 -118 -422.5t-345 -164.5zM430 20q88 0 147.5 116t59.5 288q0 72 -10.5 140.5t-34 138t-68.5 111.5t-106 42q-51 0 -80 -26.5 t-29 -57.5v-559q0 -96 33 -144.5t88 -48.5z" glyph-name="b" horiz-adv-x="894" unicode="b"/><glyph d="M424 -20q-160 0 -266.5 158.5t-106.5 389.5q0 221 102.5 368.5t282.5 147.5q96 0 176 -32q29 -182 41 -383h-2q-94 197 -152.5 284.5t-115.5 87.5q-55 0 -100 -72.5t-45 -234.5q0 -131 32.5 -247.5t112.5 -202.5t195 -86q84 0 120 57q-23 -94 -94 -164.5t-180 -70.5z" glyph-name="c" horiz-adv-x="749" unicode="c"/><glyph d="M844 2l-258 -33v240q-27 -76 -93.5 -152.5t-154.5 -76.5q-117 0 -197 134t-80 343q0 250 117 418.5t314 168.5h94v185q0 127 -60 205l258 61v-1288q1 -127 60 -205zM477 168q51 0 80 24.5t29 55.5v573q0 182 -115 183q-92 0 -153.5 -112t-61.5 -274q0 -109 17.5 -202.5 t69.5 -170.5t134 -77z" glyph-name="d" horiz-adv-x="894" unicode="d"/><glyph d="M440 -20q-162 0 -275.5 155.5t-113.5 382.5q0 221 105.5 373.5t263.5 152.5q121 0 198.5 -87t71.5 -230q-4 -88 -33 -129h-342q-39 0 -54 -12.5t-15 -46.5q0 -133 93 -257t251 -124q92 0 131 57q-23 -92 -96.5 -163.5t-184.5 -71.5zM313 643q174 0 174 209q0 147 -92 147 q-63 0 -113.5 -64.5t-50.5 -195.5q0 -53 15.5 -74.5t66.5 -21.5z" glyph-name="e" horiz-adv-x="780" unicode="e"/><glyph d="M47 0q70 59 70 205v721h-76q90 328 188.5 465t186.5 137q49 0 78.5 -37t29.5 -98q0 -66 -33.5 -111t-87.5 -45q-35 0 -78.5 23.5t-68.5 23.5q-39 0 -62.5 -35t-23.5 -82q0 -143 227 -143q63 0 117 4l-27 -102h-172v-721q0 -154 80 -205h-348z" glyph-name="f" horiz-adv-x="575" unicode="f"/><glyph d="M350 219q266 -147 347 -218t81 -130q0 -102 -112.5 -170t-274.5 -68q-143 0 -251.5 49.5t-108.5 145.5q0 37 16 66.5t40 47t51.5 31t48 22.5t30.5 19.5t0 23.5t-43 32q-88 47 -88 98q0 27 23.5 52.5t93.5 74.5q45 33 45 49q0 20 -41 45q-145 92 -146 293q0 162 94.5 252 t227.5 90h410l-154 -135q70 -82 70 -207q0 -162 -92.5 -252t-225.5 -90q-61 0 -85.5 -9t-24.5 -34q-1 -41 69 -78zM338 977q-76 0 -76 -156q0 -141 47 -287.5t125 -146.5t78 156q0 137 -49 285.5t-125 148.5zM422 -330q143 0 143 88q0 98 -258 238q-41 23 -75.5 -12 t-34.5 -103q0 -86 64.5 -148.5t160.5 -62.5z" glyph-name="g" horiz-adv-x="821" unicode="g"/><glyph d="M547 0q59 78 59 205v502q0 160 -133 159q-66 0 -164 -53v-608q0 -127 60 -205h-318q59 78 60 205v1024q0 127 -60 205l258 65v-647q162 193 320 192q176 0 176 -268v-571q0 -127 59 -205h-317z" glyph-name="h" horiz-adv-x="925" unicode="h"/><glyph d="M147 1241q-25 18 -49 62.5t-24 89.5q0 55 34.5 94t90.5 39q49 0 82.5 -33t33.5 -86q0 -49 -36.5 -89t-70.5 -55.5t-61 -21.5zM51 0q59 78 60 205v579q0 127 -60 205l258 55v-839q0 -127 60 -205h-318z" glyph-name="i" horiz-adv-x="419" unicode="i"/><glyph d="M158 1241q-25 18 -49.5 62.5t-24.5 89.5q0 55 35 94t90 39q49 0 83 -33t34 -86q0 -49 -37 -89t-70.5 -55.5t-60.5 -21.5zM53 -371q-84 0 -102 29v4q170 39 170 328v794q0 127 -60 205l258 55v-993q0 -195 -68.5 -308.5t-197.5 -113.5z" glyph-name="j" horiz-adv-x="438" unicode="j"/><glyph d="M309 1499v-1294q0 -127 60 -205h-318q59 78 60 205v1024q0 127 -60 205zM866 0h-280l-277 528l97 119q76 98 99 142.5t23 80.5q0 53 -30.5 97.5t-69.5 54.5v2h414v-2q-125 -66 -168 -102q-59 -53 -154 -177l-61 -79l219 -418q104 -201 188 -246z" glyph-name="k" horiz-adv-x="854" unicode="k"/><glyph d="M51 0q59 78 60 205v1024q0 127 -60 205l258 65v-1294q0 -127 60 -205h-318z" glyph-name="l" horiz-adv-x="419" unicode="l"/><glyph d="M1042 0q59 78 60 205v502q0 170 -135 170q-80 0 -164 -60q2 -12 2 -41v-571q0 -127 59 -205h-317q59 78 59 205v502q0 170 -135 170q-82 0 -162 -58v-614q0 -127 60 -205h-318q59 78 60 205v579q0 127 -60 205l258 55v-190q180 190 320 190q152 0 172 -194 q178 195 323 194q176 0 176 -268v-571q0 -127 60 -205h-318z" glyph-name="m" horiz-adv-x="1421" unicode="m"/><glyph d="M547 0q59 78 59 205v502q0 170 -135 170q-82 0 -162 -58v-614q0 -127 60 -205h-318q59 78 60 205v579q0 127 -60 205l258 55v-190q180 190 320 190q176 0 176 -268v-571q0 -127 59 -205h-317z" glyph-name="n" horiz-adv-x="925" unicode="n"/><glyph d="M418 -20q-170 0 -268.5 152.5t-98.5 379.5q0 231 105.5 381.5t275.5 150.5q168 0 267.5 -152.5t99.5 -379.5q0 -231 -106.5 -381.5t-274.5 -150.5zM498 35q102 0 102 244q0 92 -15.5 207.5t-44 231.5t-77.5 193.5t-111 77.5q-102 0 -102 -244q0 -92 15.5 -207.5 t44 -231.5t78 -193.5t110.5 -77.5z" glyph-name="o" horiz-adv-x="847" unicode="o"/><glyph d="M557 1044q115 0 196 -134t81 -343q0 -250 -117 -418.5t-314 -168.5h-94v-97q0 -127 60 -205l-318 -55q59 78 60 205v950q0 127 -60 205l258 61v-229q27 76 93.5 152.5t154.5 76.5zM424 20q92 0 152.5 112t60.5 274q0 78 -10.5 150.5t-34 143t-68.5 113.5t-106 43 q-51 0 -80 -24.5t-29 -55.5v-555q0 -201 115 -201z" glyph-name="p" horiz-adv-x="894" unicode="p"/><glyph d="M586 -367v576q-27 -76 -93.5 -152.5t-154.5 -76.5q-117 0 -197 134t-80 343q0 256 117 421.5t332 165.5q207 0 303 -61q-29 -123 -29 -514v-494q0 -219 60 -297zM477 168q51 0 80 26.5t29 57.5v553q0 100 -34 149.5t-89 49.5q-86 0 -146.5 -115t-60.5 -289 q0 -72 10 -141.5t34 -138t70 -110.5t107 -42z" glyph-name="q" horiz-adv-x="894" unicode="q"/><glyph d="M535 1044q39 0 62.5 -43t23.5 -108q0 -72 -32 -127t-71 -55q-20 0 -58 16t-79 16q-72 0 -72 -120v-418q0 -127 60 -205h-318q59 78 60 205v579q0 127 -60 205l258 55v-233q0 -33 19 -33q16 0 28 29q6 12 18.5 38.5t18.5 40t17.5 36t18.5 35t18.5 28.5t20.5 25.5 t20.5 17.5t23 12t23.5 4z" glyph-name="r" horiz-adv-x="661" unicode="r"/><glyph d="M350 -20q-141 0 -264 69l-10 361q49 -147 140 -268.5t177 -121.5q33 0 57.5 21.5t24.5 64.5q0 66 -119 222l-143 186q-4 6 -22.5 30.5t-22.5 30t-19.5 27t-19.5 28.5t-15.5 26.5t-15.5 28.5t-11 26.5t-9 30t-4 28.5t-2 33q0 106 71.5 173.5t200.5 67.5q154 0 231 -69 l37 -342q-6 12 -27.5 54t-30.5 59.5t-29.5 54.5t-32 54t-31 46t-33.5 43t-32.5 30.5t-36 23t-33.5 6.5q-31 0 -51.5 -23t-20.5 -66q0 -74 88 -196l143 -187q4 -6 38 -49t43 -55t35 -50t34 -58.5t17.5 -52t9.5 -58.5q0 -102 -88.5 -165.5t-223.5 -63.5z" glyph-name="s" horiz-adv-x="702" unicode="s"/><glyph d="M514 104h2q-14 -41 -85 -82.5t-130 -41.5q-70 0 -115 57t-45 151v723h-121l320 418v-307q104 0 166 6l-33 -117h-133v-678q0 -139 111 -139q24 0 63 10z" glyph-name="t" horiz-adv-x="536" unicode="t"/><glyph d="M864 35l-258 -55v190q-180 -190 -319 -190q-176 0 -176 268v495q0 168 -60 246l258 55v-727q0 -170 135 -170q82 0 162 58v538q0 168 -59 246l258 55v-804q0 -127 59 -205z" glyph-name="u" horiz-adv-x="925" unicode="u"/><glyph d="M586 1024h217q-82 -55 -141 -248l-261 -815h-2l-266 815q-61 190 -143 248h389q-51 -29 -55.5 -85t28.5 -163l125 -448l131 448q31 109 25 163t-47 85z" glyph-name="v" horiz-adv-x="790" unicode="v"/><glyph d="M1038 1024h215q-43 -31 -72.5 -84t-66.5 -164l-272 -815h-2l-213 641l-213 -641h-2l-269 815q-35 106 -69.5 161.5t-83.5 86.5h377q-37 -31 -39 -86t30 -162l136 -448l67 204q41 123 5 271.5t-126 220.5h357q-39 -31 -41 -86t30 -162l132 -448l143 448q33 109 25.5 162 t-48.5 86z" glyph-name="w" horiz-adv-x="1243" unicode="w"/><glyph d="M412 0q37 23 46 54.5t-1.5 70.5t-40.5 113l-78 186l-29 -80q-72 -197 -80 -247t31 -97h-250q45 35 68.5 57.5t76 96t103.5 182.5l64 127l-146 340q-59 135 -156 221h379q-53 -33 -53 -83t41 -138l78 -187l22 62q41 113 55.5 157t23.5 90t1 63.5t-30 35.5h249 q-86 -68 -129 -125q-61 -80 -122 -211l-54 -110l146 -340q59 -147 164 -238h-379z" glyph-name="x" horiz-adv-x="800" unicode="x"/><glyph d="M586 1024h217q-82 -55 -141 -248l-236 -737q-25 -76 -44.5 -125t-57 -122t-88 -111.5t-109.5 -38.5q-72 0 -94 32v201q66 -25 141 -25q88 0 139.5 41t51.5 121q0 29 -8.5 70t-16.5 66.5t-29.5 88t-27.5 82.5l-150 457q-61 190 -143 248h389q-51 -29 -55.5 -85t28.5 -163 l125 -448l131 448q31 109 25 163t-47 85z" glyph-name="y" horiz-adv-x="790" unicode="y"/><glyph d="M293 47q143 0 243.5 73t186.5 277l-70 -397h-612l446 977h-51q-127 0 -203.5 -68.5t-166.5 -281.5l69 397h594l-446 -977h10z" glyph-name="z" horiz-adv-x="770" unicode="z"/><glyph d="M578 -246q-260 0 -357.5 129t-97.5 469q0 274 -123 365q123 90 123 364q0 342 98 470t357 128v-12q-154 -27 -199 -167t-45 -552v-463q0 -176 5 -283.5t18.5 -194.5t42 -132t70.5 -70.5t108 -37.5v-13z" glyph-name="braceleft" horiz-adv-x="577" unicode="{"/><glyph d="M205 -408v2251h41v-2251h-41z" glyph-name="bar" horiz-adv-x="450" unicode="|"/><glyph d="M0 -246v13q158 27 202 163t44 555v463q0 412 -45 552t-201 167v12q258 0 356.5 -128t98.5 -470q0 -274 123 -364q-123 -90 -123 -365q0 -340 -97.5 -469t-357.5 -129z" glyph-name="braceright" horiz-adv-x="577" unicode="}"/><glyph d="M51 467q39 115 110.5 211t155.5 96q39 0 137.5 -56t155.5 -56q96 0 146 112h12q-37 -115 -108.5 -211t-153.5 -96q-39 0 -137.5 55.5t-155.5 55.5q-98 0 -150 -111h-12z" glyph-name="asciitilde" horiz-adv-x="819" unicode="~"/><glyph d="M196.5 1044q59.5 0 102.5 -48t43 -117q0 -68 -43 -117t-102.5 -49t-102.5 49t-43 117q0 70 43 117.5t102.5 47.5zM195 573h2q20 -223 82.5 -488t62.5 -333q0 -94 -45 -138t-100.5 -44t-100.5 44t-45 138q0 66 63 331t81 490z" glyph-name="exclamdown" horiz-adv-x="393" unicode="¡"/><glyph d="M578 567q84 0 120 58q-23 -94 -94.5 -165t-179.5 -71q-37 0 -64 8l-26 -151h-51l28 168q-117 51 -188.5 194.5t-71.5 329.5q0 221 102.5 368.5t282.5 147.5q33 0 49 -2l25 145h53l-26 -153q53 -12 75 -23q29 -182 41 -383h-2q-88 186 -139 262l-113 -665q75 -68 179 -68z M238 1104q0 -268 118 -422l113 678q-45 51 -86 51q-55 0 -100 -72.5t-45 -234.5z" glyph-name="cent" horiz-adv-x="749" unicode="¢"/><glyph d="M139 25q176 12 318.5 45.5t226.5 71.5t150.5 92.5t95 91t57.5 86.5q-16 -59 -37.5 -128t-46 -141.5t-45 -120t-31.5 -45.5q-166 23 -399 23q-248 0 -426 -23l-2 5q57 27 90 46t76 56t63.5 88t20.5 119q0 78 -35 274h-174v35h170q-41 238 -41 338q0 516 430 516 q131 0 229 -35l39 -465h-6q-111 225 -184.5 332t-142.5 107q-117 0 -117 -346q0 -141 51 -445l324 21l-21 -58h-297q23 -139 23 -186q0 -137 -92.5 -228t-266.5 -126z" glyph-name="sterling" horiz-adv-x="1007" unicode="£"/><glyph d="M612 1176q0 -104 -69 -185l73 -71l-24 -25l-74 72q-80 -70 -184 -70q-102 0 -184 68l-74 -74l-25 24l74 74q-70 80 -70 187q0 104 70 184l-72 74l25 24l72 -74q80 70 184 70q106 0 186 -70l74 74l24 -24l-73 -74q67 -82 67 -184zM94 1175.5q0 -100.5 69.5 -171t170 -70.5 t170 70.5t69.5 171t-69.5 171t-170 70.5t-170 -70.5t-69.5 -171z" glyph-name="currency" horiz-adv-x="669" unicode="¤"/><glyph d="M735 1057l-100 -273h297v-34h-311l-21 -58h332v-35h-344l-4 -10v-270q0 -147 11 -224t27.5 -100.5t55.5 -52.5h-408q39 29 55.5 52.5t28 100t11.5 224.5v268l-5 12h-317v35h305l-20 58h-285v34h272l-94 273q-100 285 -211 377h379q-18 -18 -23.5 -44t4 -76t21.5 -94 t41 -137q6 -18 8 -26l107 -346l121 346q37 106 50 149t26.5 99.5t7 83t-26.5 45.5h248q-138 -103 -238 -377z" glyph-name="yen" horiz-adv-x="980" unicode="¥"/><glyph d="M205 819v1024h41v-1024h-41zM205 -408v1024h41v-1024h-41z" glyph-name="brokenbar" horiz-adv-x="450" unicode="¦"/><glyph d="M422 406l70 -84q53 -66 81.5 -105t57 -101.5t28.5 -115.5q0 -104 -93 -168.5t-230 -64.5q-133 0 -264 69v361q49 -135 143 -259t166 -124q33 0 61.5 20.5t28.5 56.5q0 100 -106 232l-146 178q-55 68 -78.5 101.5t-46 86t-22.5 103.5q0 98 61.5 161.5t171.5 75.5l-84 105 q-57 70 -79.5 101.5t-46 85t-23.5 104.5q0 106 74.5 172.5t203.5 66.5q74 0 143.5 -21.5t102.5 -47.5v-342q-43 92 -61.5 128t-59.5 106.5t-77 100t-70 29.5q-29 0 -51.5 -21.5t-22.5 -60.5q0 -88 94 -205l144 -178q55 -68 81.5 -104.5t56 -99t29.5 -115.5 q0 -88 -65.5 -148.5t-171.5 -78.5zM342 784q-88 -6 -88 -79q0 -90 92 -205l41 -49q86 12 86 73q0 98 -108 232z" glyph-name="section" horiz-adv-x="700" unicode="§"/><glyph d="M481 518q-178 0 -293.5 135t-115.5 334q0 197 115.5 332t293.5 135q180 0 296 -135t116 -332q0 -199 -116 -334t-296 -135zM481 553q166 0 269.5 124t103.5 310q0 184 -103.5 308t-269.5 124q-164 0 -267 -124t-103 -308q0 -186 103 -310t267 -124zM492 707 q-92 0 -149.5 81.5t-57.5 202.5q0 123 58 201t157 78q57 0 91 -31t42 -59.5t8 -55.5q0 -84 -74 -84q-31 0 -49 23.5t-18 54.5q0 16 5 34.5t10 31t8 24t-3 17.5t-20 6q-41 0 -75 -38t-34 -124q0 -102 50.5 -184t140.5 -82q47 0 65 28q-10 -51 -49.5 -87.5t-105.5 -36.5z" glyph-name="copyright" horiz-adv-x="964" unicode="©"/><glyph d="M199 487q-68 0 -113 48.5t-45 134.5q0 76 41 140t98.5 110.5t114.5 93.5t98 112.5t41 143.5q0 147 -76 147q-33 0 -85 -63.5t-110.5 -157.5t-66.5 -106h-4q6 61 16.5 169.5t14.5 149.5q106 45 258 45q127 0 180 -61.5t53 -198.5v-520q0 -82 76 -82q18 0 33 8 q0 -37 -50 -75t-104 -38q-59 0 -97 48.5t-38 121.5q0 14 -10 15q-12 0 -39 -46t-75 -92.5t-111 -46.5zM322 643q35 0 73.5 52.5t38.5 115.5v199q0 43 -14 43q-45 0 -114.5 -84t-69.5 -197q0 -68 24.5 -98.5t61.5 -30.5zM147 238v43h471v-43h-471z" glyph-name="ordfeminine" horiz-adv-x="741" unicode="ª"/><glyph d="M399 152l-348 385l348 385l2 -2l-172 -383l172 -383zM707 152l-349 385l349 385l2 -2l-172 -383l172 -383z" glyph-name="guillemotleft" horiz-adv-x="759" unicode="«"/><glyph d="M522 643v-256h-43v213h-428v43h471z" glyph-name="logicalnot" horiz-adv-x="573" unicode="¬"/><glyph d="M481 518q-178 0 -293.5 135t-115.5 334q0 197 115.5 332t293.5 135q180 0 296 -135t116 -332q0 -199 -116 -334t-296 -135zM481 553q166 0 268.5 125t102.5 309q0 186 -102.5 309t-268.5 123t-268 -122.5t-102 -309.5q0 -184 103 -309t267 -125zM649 713q-82 0 -112 96 l-48 137q-6 14 -20 15q-20 0 -20 -21v-82q0 -78 8 -101.5t35 -37.5h-185q14 10 20.5 19.5t11.5 37t5 82.5v256q0 55 -5 84t-11 37t-21 20h199q61 0 102 -36.5t41 -96.5q0 -94 -96 -143q25 -4 39 -22.5t35 -71.5l20 -51q37 -90 58 -115q-27 -6 -56 -6zM473 999q27 0 47.5 32 t20.5 89q0 104 -52 105q-41 0 -40 -111v-94q-1 -21 24 -21z" glyph-name="registered" horiz-adv-x="964" unicode="®"/><glyph d="M286.5 901q-106.5 0 -176 80t-69.5 196.5t69.5 196.5t176 80t176 -80t69.5 -196.5t-69.5 -196.5t-176 -80zM287 936q92 0 149.5 69.5t57.5 172t-57.5 172t-149.5 69.5t-149.5 -69.5t-57.5 -172t57.5 -172t149.5 -69.5z" glyph-name="degree" horiz-adv-x="573" unicode="°"/><glyph d="M248 643h151v-43h-151v-172h-43v172h-154v43h154v174h43v-174zM70 184v43h313v-43h-313z" glyph-name="plusminus" horiz-adv-x="450" unicode="±"/><glyph d="M498 -395q59 78 59 205v641q-207 0 -346 132t-139 361.5t139 359.5t346 130h422q-203 -53 -203 -369v-1182q0 -127 60 -205zM920 -395q59 78 59 205v1624h422q-203 -53 -203 -369v-1182q0 -127 59 -205z" glyph-name="paragraph" horiz-adv-x="1370" unicode="¶"/><glyph d="M186 375q-61 0 -103 49t-42 116.5t42 117t103 49.5q59 0 102.5 -49.5t43.5 -117t-43.5 -116.5t-102.5 -49z" glyph-name="periodcentered" horiz-adv-x="372" unicode="·"/><glyph d="M383 487q-154 0 -244 139.5t-90 344.5q0 209 96.5 346t250 137t242.5 -138t89 -345q0 -209 -95 -346.5t-249 -137.5zM455 537q92 0 92 221q0 119 -21.5 260t-76 263t-125.5 122q-94 0 -95 -221q0 -84 14.5 -189.5t40 -210t71 -175t100.5 -70.5zM156 238v43h471v-43h-471z " glyph-name="ordmasculine" horiz-adv-x="778" unicode="º"/><glyph d="M53 152l-2 2l172 383l-172 383l2 2l348 -385zM360 152l-2 2l172 383l-172 383l2 2l349 -385z" glyph-name="guillemotright" horiz-adv-x="759" unicode="»"/><glyph d="M411.5 1044q59.5 0 102.5 -48t43 -117q0 -68 -43 -117t-102.5 -49t-102.5 49t-43 117q0 70 43 117.5t102.5 47.5zM379 592q66 -61 65.5 -156.5t-38 -184.5t-77.5 -216t-40 -225q0 -90 26.5 -135.5t59.5 -45.5q94 0 225 527h6l84 -447q-156 -139 -330 -139 q-131 0 -209.5 87t-78.5 220q0 100 50 191.5t109.5 149.5t109.5 136t50 154q0 39 -16 84h4z" glyph-name="questiondown" horiz-adv-x="731" unicode="¿"/><glyph d="M700 1575l-2 -4l-352 168q2 39 55.5 97t90.5 71zM1034 0h-366q25 25 27.5 72t-11.5 113.5t-51 189.5h-381q-47 -166 -47 -253t39 -122h-234q106 98 189 377l321 1089l342 -1089q94 -303 172 -377zM621 422l-185 620l-172 -620h357z" glyph-name="Agrave" unicode="À"/><glyph d="M754 1739l-353 -168l-2 4l209 332q37 -12 90.5 -70.5t55.5 -97.5zM1034 0h-366q25 25 27.5 72t-11.5 113.5t-51 189.5h-381q-47 -166 -47 -253t39 -122h-234q106 98 189 377l321 1089l342 -1089q94 -303 172 -377zM621 422l-185 620l-172 -620h357z" glyph-name="Aacute" unicode="Á"/><glyph d="M520 1683l-231 -112l-4 4l235 332l236 -332l-4 -4zM1034 0h-366q25 25 27.5 72t-11.5 113.5t-51 189.5h-381q-47 -166 -47 -253t39 -122h-234q106 98 189 377l321 1089l342 -1089q94 -303 172 -377zM621 422l-185 620l-172 -620h357z" glyph-name="Acircumflex" unicode="Â"/><glyph d="M356 1710q-88 0 -127 -92h-10q20 61 50 121.5t78 114t95 53.5q33 0 115 -46t131 -46q82 0 121 92h10q-20 -63 -49 -123t-76 -113t-94 -53q-33 0 -115 46t-129 46zM1034 0h-366q25 25 27.5 72t-11.5 113.5t-51 189.5h-381q-47 -166 -47 -253t39 -122h-234q106 98 189 377 l321 1089l342 -1089q94 -303 172 -377zM621 422l-185 620l-172 -620h357z" glyph-name="Atilde" unicode="Ã"/><glyph d="M360 1616q-49 0 -83.5 40t-34.5 95q0 53 34.5 93t83.5 40q51 0 86 -40t35 -93q0 -55 -35 -95t-86 -40zM680 1616q-49 0 -85 40t-36 95q0 53 36 93t85 40t85 -40t36 -93q0 -55 -36 -95t-85 -40zM1034 0h-366q25 25 27.5 72t-11.5 113.5t-51 189.5h-381q-47 -166 -47 -253 t39 -122h-234q106 98 189 377l321 1089l342 -1089q94 -303 172 -377zM621 422l-185 620l-172 -620h357z" glyph-name="Adieresis" unicode="Ä"/><glyph d="M520.5 1563q-59.5 0 -101.5 48t-42 113.5t42 112.5t101.5 47t101.5 -47t42 -112.5t-42 -113.5t-101.5 -48zM520 1855q-49 0 -81.5 -37.5t-32.5 -93t32.5 -94.5t81.5 -39t82 39t33 94.5t-33 93t-82 37.5zM1034 0h-366q25 25 27.5 72t-11.5 113.5t-51 189.5h-381 q-47 -166 -47 -253t39 -122h-234q106 98 189 377l321 1089l342 -1089q94 -303 172 -377zM621 422l-185 620l-172 -620h357z" glyph-name="Aring" unicode="Å"/><glyph d="M1389 498h6l-64 -498h-768q39 29 55.5 52.5t27.5 100t11 224.5h-358q-57 -147 -71.5 -221t1 -101.5t64.5 -54.5h-283q41 35 57.5 51.5t61.5 99t102 226.5l322 797q80 199 0 260h776l35 -516h-6q-90 258 -171 360t-173 102q-82 0 -109.5 -73.5t-27.5 -247.5v-289 q0 -35 24 -35q129 0 206 54.5t112 193.5h6v-543h-6q-35 141 -112 195.5t-206 54.5q-25 0 -24 -35v-280q0 -176 28.5 -249t114.5 -73q211 1 369 445zM322 434h335v623q0 135 -10 221z" glyph-name="AE" horiz-adv-x="1435" unicode="Æ"/><glyph d="M557 -20h-22q-25 -31 -25 -58q0 -45 54 -95t54 -58q0 -55 -101 -124t-157 -69q-20 0 -33.5 14.5t-13.5 32.5q0 39 87 31t87 22q0 29 -56 79t-56 71q0 27 131 158q-178 31 -306 241.5t-128 515.5q0 135 28.5 258t86 226.5t154.5 166t224 62.5t240 -35q16 -129 57 -526h-6 q-96 238 -195.5 371t-175.5 133q-29 0 -61.5 -22.5t-67 -68.5t-56 -136.5t-21.5 -206.5q0 -182 45 -355.5t150.5 -301.5t250.5 -128q111 0 174 74q-23 -92 -120 -182t-222 -90z" glyph-name="Ccedilla" horiz-adv-x="960" unicode="Ç"/><glyph d="M655 1575l-2 -4l-352 168q2 39 55.5 97t89.5 71zM889 498h6l-66 -498h-768q39 29 55.5 52.5t28 100t11.5 224.5v680q0 147 -11.5 224t-28 100.5t-55.5 52.5h766l35 -516h-6q-88 258 -169 360t-175 102q-80 0 -107.5 -72.5t-27.5 -248.5v-289q0 -35 24 -35q127 0 204 54.5 t112 193.5h6v-543h-6q-35 141 -112 195.5t-204 54.5q-25 0 -24 -35v-280q0 -178 27.5 -250t113.5 -72q213 1 371 445z" glyph-name="Egrave" horiz-adv-x="933" unicode="È"/><glyph d="M707 1739l-353 -168l-2 4l209 332q37 -12 90.5 -70.5t55.5 -97.5zM889 498h6l-66 -498h-768q39 29 55.5 52.5t28 100t11.5 224.5v680q0 147 -11.5 224t-28 100.5t-55.5 52.5h766l35 -516h-6q-88 258 -169 360t-175 102q-80 0 -107.5 -72.5t-27.5 -248.5v-289 q0 -35 24 -35q127 0 204 54.5t112 193.5h6v-543h-6q-35 141 -112 195.5t-204 54.5q-25 0 -24 -35v-280q0 -178 27.5 -250t113.5 -72q213 1 371 445z" glyph-name="Eacute" horiz-adv-x="933" unicode="É"/><glyph d="M473 1683l-231 -112l-4 4l235 332l236 -332l-4 -4zM889 498h6l-66 -498h-768q39 29 55.5 52.5t28 100t11.5 224.5v680q0 147 -11.5 224t-28 100.5t-55.5 52.5h766l35 -516h-6q-88 258 -169 360t-175 102q-80 0 -107.5 -72.5t-27.5 -248.5v-289q0 -35 24 -35 q127 0 204 54.5t112 193.5h6v-543h-6q-35 141 -112 195.5t-204 54.5q-25 0 -24 -35v-280q0 -178 27.5 -250t113.5 -72q213 1 371 445z" glyph-name="Ecircumflex" horiz-adv-x="933" unicode="Ê"/><glyph d="M313 1616q-49 0 -83.5 40t-34.5 95q0 53 34.5 93t83.5 40q51 0 86 -40t35 -93q0 -55 -35 -95t-86 -40zM633 1616q-49 0 -85 40t-36 95q0 53 36 93t85 40t85 -40t36 -93q0 -55 -36 -95t-85 -40zM889 498h6l-66 -498h-768q39 29 55.5 52.5t28 100t11.5 224.5v680 q0 147 -11.5 224t-28 100.5t-55.5 52.5h766l35 -516h-6q-88 258 -169 360t-175 102q-80 0 -107.5 -72.5t-27.5 -248.5v-289q0 -35 24 -35q127 0 204 54.5t112 193.5h6v-543h-6q-35 141 -112 195.5t-204 54.5q-25 0 -24 -35v-280q0 -178 27.5 -250t113.5 -72q213 1 371 445z " glyph-name="Edieresis" horiz-adv-x="933" unicode="Ë"/><glyph d="M446 1571l-352 168q2 39 55.5 97t90.5 71l209 -332zM61 0q39 29 55.5 52.5t28 100t11.5 224.5v680q0 147 -11.5 224t-28 100.5t-55.5 52.5h408q-39 -29 -54.5 -52.5t-26.5 -100.5t-11 -224v-680q0 -147 11 -224t26.5 -100.5t54.5 -52.5h-408z" glyph-name="Igrave" horiz-adv-x="530" unicode="Ì"/><glyph d="M147 1571l-2 4l209 332q37 -12 90.5 -70.5t55.5 -97.5zM61 0q39 29 55.5 52.5t28 100t11.5 224.5v680q0 147 -11.5 224t-28 100.5t-55.5 52.5h408q-39 -29 -54.5 -52.5t-26.5 -100.5t-11 -224v-680q0 -147 11 -224t26.5 -100.5t54.5 -52.5h-408z" glyph-name="Iacute" horiz-adv-x="530" unicode="Í"/><glyph d="M35 1571l-4 4l235 332l236 -332l-4 -4l-232 112zM61 0q39 29 55.5 52.5t28 100t11.5 224.5v680q0 147 -11.5 224t-28 100.5t-55.5 52.5h408q-39 -29 -54.5 -52.5t-26.5 -100.5t-11 -224v-680q0 -147 11 -224t26.5 -100.5t54.5 -52.5h-408z" glyph-name="Icircumflex" horiz-adv-x="530" unicode="Î"/><glyph d="M106 1616q-49 0 -83.5 40t-34.5 95q0 53 34.5 93t83.5 40q51 0 86 -40t35 -93q0 -55 -35 -95t-86 -40zM426 1616q-49 0 -85 40t-36 95q0 53 36 93t85 40t85 -40t36 -93q0 -55 -36 -95t-85 -40zM61 0q39 29 55.5 52.5t28 100t11.5 224.5v680q0 147 -11.5 224t-28 100.5 t-55.5 52.5h408q-39 -29 -54.5 -52.5t-26.5 -100.5t-11 -224v-680q0 -147 11 -224t26.5 -100.5t54.5 -52.5h-408z" glyph-name="Idieresis" horiz-adv-x="530" unicode="Ï"/><glyph d="M477 1434q219 0 360.5 -178.5t141.5 -526.5t-142.5 -538.5t-369.5 -190.5h-406q39 29 55.5 52.5t28 100t11.5 224.5v315h-136v35h136v330q0 147 -11.5 224t-28 100.5t-55.5 52.5h416zM532 55q63 0 107.5 35t68 105.5t34 157.5t10.5 208q0 360 -72 588.5t-203 228.5 q-59 0 -79.5 -53t-20.5 -207v-383l258 15l-21 -58h-237v-360q-1 -277 155 -277z" glyph-name="Eth" horiz-adv-x="1048" unicode="Ð"/><glyph d="M367 1710q-88 0 -127 -92h-11q20 61 50 121.5t78.5 114t95.5 53.5q33 0 114.5 -46t130.5 -46q82 0 121 92h10q-20 -63 -48.5 -123t-76 -113t-94.5 -53q-33 0 -114.5 46t-128.5 46zM1026 1434q-57 -27 -79.5 -52.5t-36 -99.5t-13.5 -225v-516q0 -307 16 -582h-10 l-686 1169v-751q0 -152 14.5 -225.5t39 -99t85.5 -52.5h-325q55 27 77.5 52.5t37 100t14.5 224.5v680q0 147 -17.5 224t-41 100.5t-81.5 52.5h330q2 -20 13.5 -48t20.5 -44.5t32.5 -58.5t32.5 -58l389 -705v537q0 150 -14.5 224.5t-36 100t-76.5 52.5h315z" glyph-name="Ntilde" unicode="Ñ"/><glyph d="M705 1571l-353 168q2 39 55.5 97t90.5 71l209 -332zM522 -20q-147 0 -252.5 112.5t-151.5 275t-46 349.5q0 195 46 357.5t151.5 271t254.5 108.5q147 0 253 -112.5t152 -275.5t46 -349q0 -195 -46 -357.5t-151.5 -271t-255.5 -108.5zM616 37q139 0 140 350q0 195 -35 419 t-113 406.5t-178 182.5q-139 0 -139 -348q0 -195 34.5 -420.5t112.5 -407.5t178 -182z" glyph-name="Ograve" horiz-adv-x="1046" unicode="Ò"/><glyph d="M406 1571l-3 4l209 332q37 -12 90.5 -70.5t55.5 -97.5zM522 -20q-147 0 -252.5 112.5t-151.5 275t-46 349.5q0 195 46 357.5t151.5 271t254.5 108.5q147 0 253 -112.5t152 -275.5t46 -349q0 -195 -46 -357.5t-151.5 -271t-255.5 -108.5zM616 37q139 0 140 350 q0 195 -35 419t-113 406.5t-178 182.5q-139 0 -139 -348q0 -195 34.5 -420.5t112.5 -407.5t178 -182z" glyph-name="Oacute" horiz-adv-x="1046" unicode="Ó"/><glyph d="M293 1571l-4 4l235 332l236 -332l-4 -4l-232 112zM522 -20q-147 0 -252.5 112.5t-151.5 275t-46 349.5q0 195 46 357.5t151.5 271t254.5 108.5q147 0 253 -112.5t152 -275.5t46 -349q0 -195 -46 -357.5t-151.5 -271t-255.5 -108.5zM616 37q139 0 140 350q0 195 -35 419 t-113 406.5t-178 182.5q-139 0 -139 -348q0 -195 34.5 -420.5t112.5 -407.5t178 -182z" glyph-name="Ocircumflex" horiz-adv-x="1046" unicode="Ô"/><glyph d="M223 1618q20 61 50 121.5t78 114t95 53.5q33 0 115 -46t131 -46q82 0 121 92h10q-20 -63 -49 -123t-76 -113t-94 -53q-33 0 -114.5 46t-129.5 46q-88 0 -127 -92h-10zM522 -20q-147 0 -252.5 112.5t-151.5 275t-46 349.5q0 195 46 357.5t151.5 271t254.5 108.5 q147 0 253 -112.5t152 -275.5t46 -349q0 -195 -46 -357.5t-151.5 -271t-255.5 -108.5zM616 37q139 0 140 350q0 195 -35 419t-113 406.5t-178 182.5q-139 0 -139 -348q0 -195 34.5 -420.5t112.5 -407.5t178 -182z" glyph-name="Otilde" horiz-adv-x="1046" unicode="Õ"/><glyph d="M365 1616q-49 0 -84 40t-35 95q0 53 34.5 93t84.5 40q51 0 85.5 -40t34.5 -93q0 -55 -34.5 -95t-85.5 -40zM684 1616q-49 0 -85 40t-36 95q0 53 36 93t85 40t85 -40t36 -93q0 -55 -36 -95t-85 -40zM522 -20q-147 0 -252.5 112.5t-151.5 275t-46 349.5q0 195 46 357.5 t151.5 271t254.5 108.5q147 0 253 -112.5t152 -275.5t46 -349q0 -195 -46 -357.5t-151.5 -271t-255.5 -108.5zM616 37q139 0 140 350q0 195 -35 419t-113 406.5t-178 182.5q-139 0 -139 -348q0 -195 34.5 -420.5t112.5 -407.5t178 -182z" glyph-name="Odieresis" horiz-adv-x="1046" unicode="Ö"/><glyph d="M416 776l-154 -155l152 -152l-29 -31l-152 154l-151 -154l-29 31l152 152l-154 155l31 29l151 -154l152 154z" glyph-name="multiply" horiz-adv-x="466" unicode="×"/><glyph d="M743 1374q113 -92 172.5 -272t59.5 -385q0 -195 -46 -357.5t-151.5 -271t-255.5 -108.5q-92 0 -170 45l-65 -228h-58l76 260q-115 92 -174 273.5t-59 386.5q0 195 46 357.5t151.5 271t254.5 108.5q92 0 172 -45l66 229h57zM291 1047q0 -371 98 -697l238 821 q-86 223 -197 224q-139 0 -139 -348zM616 37q139 0 140 350q0 371 -99 692l-237 -821q85 -221 196 -221z" glyph-name="Oslash" horiz-adv-x="1046" unicode="Ø"/><glyph d="M762 1571l-352 168q2 39 55 97t90 71l209 -332zM532 -20q-186 0 -281 122.5t-95 311.5v643q0 147 -11.5 224t-28 100.5t-55.5 52.5h398q-33 -29 -46.5 -52.5t-24.5 -101.5t-11 -223v-643q0 -164 60.5 -262.5t172.5 -98.5q111 0 166 97.5t55 263.5v643q0 147 -12 224 t-29.5 100.5t-56.5 52.5h254q-41 -29 -57.5 -52.5t-28.5 -100.5t-12 -224v-643q0 -193 -86.5 -313.5t-270.5 -120.5z" glyph-name="Ugrave" horiz-adv-x="1005" unicode="Ù"/><glyph d="M463 1571l-2 4l209 332q37 -12 90 -70.5t55 -97.5zM532 -20q-186 0 -281 122.5t-95 311.5v643q0 147 -11.5 224t-28 100.5t-55.5 52.5h398q-33 -29 -46.5 -52.5t-24.5 -101.5t-11 -223v-643q0 -164 60.5 -262.5t172.5 -98.5q111 0 166 97.5t55 263.5v643q0 147 -12 224 t-29.5 100.5t-56.5 52.5h254q-41 -29 -57.5 -52.5t-28.5 -100.5t-12 -224v-643q0 -193 -86.5 -313.5t-270.5 -120.5z" glyph-name="Uacute" horiz-adv-x="1005" unicode="Ú"/><glyph d="M352 1571l-4 4l236 332l235 -332l-4 -4l-231 112zM532 -20q-186 0 -281 122.5t-95 311.5v643q0 147 -11.5 224t-28 100.5t-55.5 52.5h398q-33 -29 -46.5 -52.5t-24.5 -101.5t-11 -223v-643q0 -164 60.5 -262.5t172.5 -98.5q111 0 166 97.5t55 263.5v643q0 147 -12 224 t-29.5 100.5t-56.5 52.5h254q-41 -29 -57.5 -52.5t-28.5 -100.5t-12 -224v-643q0 -193 -86.5 -313.5t-270.5 -120.5z" glyph-name="Ucircumflex" horiz-adv-x="1005" unicode="Û"/><glyph d="M424 1616q-49 0 -84 40t-35 95q0 53 35 93t84 40q51 0 86 -40t35 -93q0 -55 -35 -95t-86 -40zM743.5 1616q-49.5 0 -85 40t-35.5 95q0 53 35.5 93t85 40t85 -40t35.5 -93q0 -55 -35.5 -95t-85 -40zM532 -20q-186 0 -281 122.5t-95 311.5v643q0 147 -11.5 224t-28 100.5 t-55.5 52.5h398q-33 -29 -46.5 -52.5t-24.5 -101.5t-11 -223v-643q0 -164 60.5 -262.5t172.5 -98.5q111 0 166 97.5t55 263.5v643q0 147 -12 224t-29.5 100.5t-56.5 52.5h254q-41 -29 -57.5 -52.5t-28.5 -100.5t-12 -224v-643q0 -193 -86.5 -313.5t-270.5 -120.5z" glyph-name="Udieresis" horiz-adv-x="1005" unicode="Ü"/><glyph d="M723 1739l-352 -168l-2 4l209 332q37 -12 90 -70.5t55 -97.5zM725 1434h248q-137 -102 -238 -377l-151 -410v-270q0 -147 11 -224t27.5 -100.5t55.5 -52.5h-408q39 29 55.5 52.5t28 100t11.5 224.5v268l-144 412q-100 285 -211 377h379q-18 -18 -23.5 -44t4 -76t21.5 -94 t41 -137q6 -18 8 -26l107 -346l121 346q37 106 50 149t26.5 99.5t7 83.5t-26.5 45z" glyph-name="Yacute" horiz-adv-x="980" unicode="Ý"/><glyph d="M887 717q0 -205 -130 -324t-378 -121q4 -143 22.5 -190t67.5 -82h-408q39 29 55.5 52.5t28 100t11.5 224.5v680q0 147 -11.5 224t-28 100.5t-55.5 52.5h408q-49 -35 -67.5 -82t-22.5 -191q248 -2 378 -120.5t130 -323.5zM377 307q123 4 189.5 105.5t66.5 304.5t-66.5 304 t-189.5 105v-69v-680v-70z" glyph-name="Thorn" horiz-adv-x="937" unicode="Þ"/><glyph d="M664 -20q-147 0 -191 69l-4 238q23 -102 82 -187.5t125 -85.5q29 0 52.5 17.5t23.5 54.5q0 61 -111 268l-96 178q-68 127 -68 199q0 92 65.5 187.5t65.5 197.5q0 100 -65.5 170t-139.5 70q-49 0 -82.5 -33t-33.5 -86q0 -49 16 -126t16 -97v-809q0 -162 103 -205h-361 q59 78 60 205v721h-80q139 322 252 430t260 108q131 0 200.5 -66.5t69.5 -174.5q0 -66 -29.5 -111t-64.5 -63.5t-64.5 -48t-29.5 -68.5q0 -51 67 -203l93 -176q4 -8 26.5 -48t29.5 -54.5t25.5 -49t25.5 -54t17.5 -48.5t14.5 -52.5t4 -45.5q0 -100 -75.5 -160.5t-198.5 -60.5 z" glyph-name="germandbls" horiz-adv-x="1007" unicode="ß"/><glyph d="M567 1161l-352 168q2 39 55.5 97.5t89.5 70.5l209 -332zM215 -20q-74 0 -124 53t-50 147q0 72 31.5 134.5t80 104.5t104.5 90t104.5 90t80 105.5t31.5 137.5q0 164 -82 164q-37 0 -94 -70t-120.5 -175.5t-74.5 -117.5h-4q8 72 19.5 199t13.5 153q119 49 285 49 q139 0 198.5 -67.5t59.5 -216.5v-576q0 -90 84 -90q20 0 35 10q0 -43 -54.5 -83.5t-113.5 -40.5q-66 0 -109 53t-43 133q0 16 -8 16q-14 0 -44 -50t-82 -101t-124 -51zM350 152q39 0 81 57t42 127v219q0 47 -16 47q-47 0 -124 -92t-77 -217q0 -72 27.5 -106.5t66.5 -34.5z " glyph-name="agrave" horiz-adv-x="813" unicode="à"/><glyph d="M268 1161l-2 4l209 332q37 -12 90 -70.5t56 -97.5zM215 -20q-74 0 -124 53t-50 147q0 72 31.5 134.5t80 104.5t104.5 90t104.5 90t80 105.5t31.5 137.5q0 164 -82 164q-37 0 -94 -70t-120.5 -175.5t-74.5 -117.5h-4q8 72 19.5 199t13.5 153q119 49 285 49 q139 0 198.5 -67.5t59.5 -216.5v-576q0 -90 84 -90q20 0 35 10q0 -43 -54.5 -83.5t-113.5 -40.5q-66 0 -109 53t-43 133q0 16 -8 16q-14 0 -44 -50t-82 -101t-124 -51zM350 152q39 0 81 57t42 127v219q0 47 -16 47q-47 0 -124 -92t-77 -217q0 -72 27.5 -106.5t66.5 -34.5z " glyph-name="aacute" horiz-adv-x="813" unicode="á"/><glyph d="M158 1161l-4 4l235 332l236 -332l-4 -4l-232 113zM215 -20q-74 0 -124 53t-50 147q0 72 31.5 134.5t80 104.5t104.5 90t104.5 90t80 105.5t31.5 137.5q0 164 -82 164q-37 0 -94 -70t-120.5 -175.5t-74.5 -117.5h-4q8 72 19.5 199t13.5 153q119 49 285 49 q139 0 198.5 -67.5t59.5 -216.5v-576q0 -90 84 -90q20 0 35 10q0 -43 -54.5 -83.5t-113.5 -40.5q-66 0 -109 53t-43 133q0 16 -8 16q-14 0 -44 -50t-82 -101t-124 -51zM350 152q39 0 81 57t42 127v219q0 47 -16 47q-47 0 -124 -92t-77 -217q0 -72 27.5 -106.5t66.5 -34.5z " glyph-name="acircumflex" horiz-adv-x="813" unicode="â"/><glyph d="M88 1208q20 61 50 122t78 114t95 53q33 0 115 -46t131 -46q82 0 121 92h10q-20 -63 -49 -122.5t-76 -113t-94 -53.5q-33 0 -115 46t-129 46q-88 0 -127 -92h-10zM215 -20q-74 0 -124 53t-50 147q0 72 31.5 134.5t80 104.5t104.5 90t104.5 90t80 105.5t31.5 137.5 q0 164 -82 164q-37 0 -94 -70t-120.5 -175.5t-74.5 -117.5h-4q8 72 19.5 199t13.5 153q119 49 285 49q139 0 198.5 -67.5t59.5 -216.5v-576q0 -90 84 -90q20 0 35 10q0 -43 -54.5 -83.5t-113.5 -40.5q-66 0 -109 53t-43 133q0 16 -8 16q-14 0 -44 -50t-82 -101t-124 -51z M350 152q39 0 81 57t42 127v219q0 47 -16 47q-47 0 -124 -92t-77 -217q0 -72 27.5 -106.5t66.5 -34.5z" glyph-name="atilde" horiz-adv-x="813" unicode="ã"/><glyph d="M229 1206q-49 0 -83.5 40t-34.5 95q0 53 34.5 93.5t83.5 40.5q51 0 86 -40t35 -94q0 -55 -35 -95t-86 -40zM549 1206q-49 0 -85 40t-36 95q0 53 36 93.5t85 40.5t85 -40t36 -94q0 -55 -36 -95t-85 -40zM215 -20q-74 0 -124 53t-50 147q0 72 31.5 134.5t80 104.5t104.5 90 t104.5 90t80 105.5t31.5 137.5q0 164 -82 164q-37 0 -94 -70t-120.5 -175.5t-74.5 -117.5h-4q8 72 19.5 199t13.5 153q119 49 285 49q139 0 198.5 -67.5t59.5 -216.5v-576q0 -90 84 -90q20 0 35 10q0 -43 -54.5 -83.5t-113.5 -40.5q-66 0 -109 53t-43 133q0 16 -8 16 q-14 0 -44 -50t-82 -101t-124 -51zM350 152q39 0 81 57t42 127v219q0 47 -16 47q-47 0 -124 -92t-77 -217q0 -72 27.5 -106.5t66.5 -34.5z" glyph-name="adieresis" horiz-adv-x="813" unicode="ä"/><glyph d="M389.5 1153q-59.5 0 -101.5 48t-42 113.5t42 113t101.5 47.5t101 -47.5t41.5 -113t-41.5 -113.5t-101 -48zM389 1182q49 0 82 39t33 94t-33 93t-82 38t-82 -38t-33 -93t33 -94t82 -39zM215 -20q-74 0 -124 53t-50 147q0 72 31.5 134.5t80 104.5t104.5 90t104.5 90 t80 105.5t31.5 137.5q0 164 -82 164q-37 0 -94 -70t-120.5 -175.5t-74.5 -117.5h-4q8 72 19.5 199t13.5 153q119 49 285 49q139 0 198.5 -67.5t59.5 -216.5v-576q0 -90 84 -90q20 0 35 10q0 -43 -54.5 -83.5t-113.5 -40.5q-66 0 -109 53t-43 133q0 16 -8 16q-14 0 -44 -50 t-82 -101t-124 -51zM350 152q39 0 81 57t42 127v219q0 47 -16 47q-47 0 -124 -92t-77 -217q0 -72 27.5 -106.5t66.5 -34.5z" glyph-name="aring" horiz-adv-x="813" unicode="å"/><glyph d="M1053 158q92 0 131 57q-23 -92 -96.5 -163.5t-184.5 -71.5q-184 0 -301 192q-20 25 -47 25q-25 0 -61.5 -34t-70.5 -75t-88 -74.5t-112 -33.5q-74 0 -128 52t-54 140q0 78 49 146.5t119 119.5t138.5 104.5t117.5 124t49 152.5q0 96 -37 131q-37 37 -115 37 q-47 0 -65 -22.5t-15 -50t12 -75.5t9 -77q0 -68 -32.5 -101.5t-78 -33.5t-76 34.5t-30.5 94.5q0 121 111.5 204.5t248.5 83.5q150 0 201 -116q100 117 238 116q119 0 196.5 -87t71.5 -230q-4 -88 -33 -129h-342q-37 0 -52 -12.5t-15 -46.5q0 -133 92 -257t250 -124zM858 999 q-63 0 -113.5 -64.5t-50.5 -195.5q0 -53 16.5 -74.5t67.5 -21.5q174 0 174 209q0 147 -94 147zM350 152q53 0 108.5 57t55.5 127v227q0 18 -12 19q-51 0 -148.5 -95.5t-97.5 -210.5q0 -61 27.5 -92.5t66.5 -31.5z" glyph-name="ae" horiz-adv-x="1245" unicode="æ"/><glyph d="M698 215q-23 -92 -93 -162.5t-175 -72.5q-25 -29 -24 -58q0 -45 54 -95t54 -58q0 -55 -101.5 -124t-156.5 -69q-20 0 -33.5 14.5t-13.5 32.5q0 39 87 31t87 22q0 29 -56.5 79t-56.5 71q0 29 127 156q-150 14 -248 169.5t-98 377t102.5 368.5t282.5 147q96 0 176 -32 q29 -182 41 -383h-2q-94 197 -152.5 284.5t-115.5 87.5q-55 0 -100 -72.5t-45 -234.5q0 -131 32.5 -247.5t112.5 -202.5t195 -86q83 0 120 57z" glyph-name="ccedilla" horiz-adv-x="749" unicode="ç"/><glyph d="M553 1161l-352 168q2 39 55 97.5t90 70.5l209 -332zM440 -20q-162 0 -275.5 155.5t-113.5 382.5q0 221 105.5 373.5t263.5 152.5q121 0 198.5 -87t71.5 -230q-4 -88 -33 -129h-342q-39 0 -54 -12.5t-15 -46.5q0 -133 93 -257t251 -124q92 0 131 57q-23 -92 -96.5 -163.5 t-184.5 -71.5zM313 643q174 0 174 209q0 147 -92 147q-63 0 -113.5 -64.5t-50.5 -195.5q0 -53 15.5 -74.5t66.5 -21.5z" glyph-name="egrave" horiz-adv-x="780" unicode="è"/><glyph d="M254 1161l-2 4l209 332q37 -12 90 -70.5t55 -97.5zM440 -20q-162 0 -275.5 155.5t-113.5 382.5q0 221 105.5 373.5t263.5 152.5q121 0 198.5 -87t71.5 -230q-4 -88 -33 -129h-342q-39 0 -54 -12.5t-15 -46.5q0 -133 93 -257t251 -124q92 0 131 57q-23 -92 -96.5 -163.5 t-184.5 -71.5zM313 643q174 0 174 209q0 147 -92 147q-63 0 -113.5 -64.5t-50.5 -195.5q0 -53 15.5 -74.5t66.5 -21.5z" glyph-name="eacute" horiz-adv-x="780" unicode="é"/><glyph d="M143 1161l-4 4l236 332l235 -332l-4 -4l-231 113zM440 -20q-162 0 -275.5 155.5t-113.5 382.5q0 221 105.5 373.5t263.5 152.5q121 0 198.5 -87t71.5 -230q-4 -88 -33 -129h-342q-39 0 -54 -12.5t-15 -46.5q0 -133 93 -257t251 -124q92 0 131 57q-23 -92 -96.5 -163.5 t-184.5 -71.5zM313 643q174 0 174 209q0 147 -92 147q-63 0 -113.5 -64.5t-50.5 -195.5q0 -53 15.5 -74.5t66.5 -21.5z" glyph-name="ecircumflex" horiz-adv-x="780" unicode="ê"/><glyph d="M213 1206q-49 0 -84 40t-35 95q0 53 35 93.5t84 40.5q51 0 86 -40t35 -94q0 -55 -35 -95t-86 -40zM532.5 1206q-49.5 0 -85 40t-35.5 95q0 53 35.5 93.5t85 40.5t85 -40t35.5 -94q0 -55 -35.5 -95t-85 -40zM440 -20q-162 0 -275.5 155.5t-113.5 382.5q0 221 105.5 373.5 t263.5 152.5q121 0 198.5 -87t71.5 -230q-4 -88 -33 -129h-342q-39 0 -54 -12.5t-15 -46.5q0 -133 93 -257t251 -124q92 0 131 57q-23 -92 -96.5 -163.5t-184.5 -71.5zM313 643q174 0 174 209q0 147 -92 147q-63 0 -113.5 -64.5t-50.5 -195.5q0 -53 15.5 -74.5t66.5 -21.5z " glyph-name="edieresis" horiz-adv-x="780" unicode="ë"/><glyph d="M389 1161l-352 168q2 39 55 97.5t90 70.5l209 -332zM51 0q59 78 60 205v579q0 127 -60 205l258 55v-839q0 -127 60 -205h-318z" glyph-name="igrave" horiz-adv-x="419" unicode="ì"/><glyph d="M92 1161l-2 4l209 332q37 -12 90 -70.5t55 -97.5zM51 0q59 78 60 205v579q0 127 -60 205l258 55v-839q0 -127 60 -205h-318z" glyph-name="iacute" horiz-adv-x="419" unicode="í"/><glyph d="M-20 1161l-5 4l236 332l235 -332l-4 -4l-231 113zM51 0q59 78 60 205v579q0 127 -60 205l258 55v-839q0 -127 60 -205h-318z" glyph-name="icircumflex" horiz-adv-x="419" unicode="î"/><glyph d="M51 1206q-49 0 -84 40t-35 95q0 53 35 93.5t84 40.5q51 0 86 -40t35 -94q0 -55 -35 -95t-86 -40zM371 1206q-49 0 -85 40t-36 95q0 53 36 93.5t85 40.5t85 -40t36 -94q0 -55 -36 -95t-85 -40zM51 0q59 78 60 205v579q0 127 -60 205l258 55v-839q0 -127 60 -205h-318z" glyph-name="idieresis" horiz-adv-x="419" unicode="ï"/><glyph d="M623 1276q186 -244 186 -651q0 -303 -111.5 -474t-279.5 -171q-164 0 -265.5 140t-101.5 357q0 178 76 311.5t201 133.5q147 0 227 -148q-78 18 -135.5 -11.5t-88 -97t-44 -146.5t-13.5 -173q0 -135 30 -228t91 -93q49 0 84 68.5t51.5 180t23.5 214t7 206.5 q0 305 -74 490l-170 -115l-20 31l176 119q-98 215 -291 215q49 20 123 20q166 0 295 -149l121 81l20 -30z" glyph-name="eth" horiz-adv-x="878" unicode="ð"/><glyph d="M293 1300q-88 0 -127 -92h-10q20 61 50 122t78 114t95 53q33 0 114.5 -46t131.5 -46q82 0 120 92h11q-20 -63 -49 -122.5t-76 -113t-94 -53.5q-33 0 -115 46t-129 46zM547 0q59 78 59 205v502q0 170 -135 170q-82 0 -162 -58v-614q0 -127 60 -205h-318q59 78 60 205v579 q0 127 -60 205l258 55v-190q180 190 320 190q176 0 176 -268v-571q0 -127 59 -205h-317z" glyph-name="ntilde" horiz-adv-x="925" unicode="ñ"/><glyph d="M604 1161l-352 168q2 39 55 97.5t90 70.5l209 -332zM418 -20q-170 0 -268.5 152.5t-98.5 379.5q0 231 105.5 381.5t275.5 150.5q168 0 267.5 -152.5t99.5 -379.5q0 -231 -106.5 -381.5t-274.5 -150.5zM498 35q102 0 102 244q0 92 -15.5 207.5t-44 231.5t-77.5 193.5 t-111 77.5q-102 0 -102 -244q0 -92 15.5 -207.5t44 -231.5t78 -193.5t110.5 -77.5z" glyph-name="ograve" horiz-adv-x="847" unicode="ò"/><glyph d="M305 1161l-2 4l209 332q37 -12 90 -70.5t55 -97.5zM418 -20q-170 0 -268.5 152.5t-98.5 379.5q0 231 105.5 381.5t275.5 150.5q168 0 267.5 -152.5t99.5 -379.5q0 -231 -106.5 -381.5t-274.5 -150.5zM498 35q102 0 102 244q0 92 -15.5 207.5t-44 231.5t-77.5 193.5 t-111 77.5q-102 0 -102 -244q0 -92 15.5 -207.5t44 -231.5t78 -193.5t110.5 -77.5z" glyph-name="oacute" horiz-adv-x="847" unicode="ó"/><glyph d="M195 1161l-5 4l236 332l236 -332l-5 -4l-231 113zM418 -20q-170 0 -268.5 152.5t-98.5 379.5q0 231 105.5 381.5t275.5 150.5q168 0 267.5 -152.5t99.5 -379.5q0 -231 -106.5 -381.5t-274.5 -150.5zM498 35q102 0 102 244q0 92 -15.5 207.5t-44 231.5t-77.5 193.5 t-111 77.5q-102 0 -102 -244q0 -92 15.5 -207.5t44 -231.5t78 -193.5t110.5 -77.5z" glyph-name="ocircumflex" horiz-adv-x="847" unicode="ô"/><glyph d="M125 1208q20 61 50 122t78 114t95 53q33 0 115 -46t131 -46q82 0 121 92h10q-20 -63 -49 -122.5t-76 -113t-94 -53.5q-33 0 -115 46t-129 46q-88 0 -127 -92h-10zM418 -20q-170 0 -268.5 152.5t-98.5 379.5q0 231 105.5 381.5t275.5 150.5q168 0 267.5 -152.5 t99.5 -379.5q0 -231 -106.5 -381.5t-274.5 -150.5zM498 35q102 0 102 244q0 92 -15.5 207.5t-44 231.5t-77.5 193.5t-111 77.5q-102 0 -102 -244q0 -92 15.5 -207.5t44 -231.5t78 -193.5t110.5 -77.5z" glyph-name="otilde" horiz-adv-x="847" unicode="õ"/><glyph d="M266 1206q-49 0 -84 40t-35 95q0 53 35 93.5t84 40.5q51 0 86 -40t35 -94q0 -55 -35 -95t-86 -40zM586 1206q-49 0 -85 40t-36 95q0 53 36 93.5t85 40.5t85 -40t36 -94q0 -55 -36 -95t-85 -40zM418 -20q-170 0 -268.5 152.5t-98.5 379.5q0 231 105.5 381.5t275.5 150.5 q168 0 267.5 -152.5t99.5 -379.5q0 -231 -106.5 -381.5t-274.5 -150.5zM498 35q102 0 102 244q0 92 -15.5 207.5t-44 231.5t-77.5 193.5t-111 77.5q-102 0 -102 -244q0 -92 15.5 -207.5t44 -231.5t78 -193.5t110.5 -77.5z" glyph-name="odieresis" horiz-adv-x="847" unicode="ö"/><glyph d="M288.5 803q-16.5 0 -28.5 12t-12 28.5t12 28t29 11.5q14 0 26.5 -11.5t12.5 -28t-11.5 -28.5t-28 -12zM51 600v43h471v-43h-471zM289 362q-16 0 -28.5 11.5t-12.5 28t12 28.5t28.5 12t28 -12t11.5 -28.5t-12.5 -28t-26.5 -11.5z" glyph-name="divide" horiz-adv-x="573" unicode="÷"/><glyph d="M590 1001q98 -61 153.5 -193t55.5 -296q0 -231 -106.5 -381.5t-274.5 -150.5q-57 0 -107 18l-55 -201h-55l61 223q-100 61 -155.5 193.5t-55.5 298.5q0 231 105.5 381.5t275.5 150.5q61 0 109 -20l53 193h55zM250 745q0 -262 76 -495l168 604q-61 135 -142 135 q-102 0 -102 -244zM498 35q102 0 102 244q0 254 -74 491l-168 -604q62 -131 140 -131z" glyph-name="oslash" horiz-adv-x="847" unicode="ø"/><glyph d="M621 1165l-3 -4l-352 168q2 39 55.5 97.5t90.5 70.5zM864 35l-258 -55v190q-180 -190 -319 -190q-176 0 -176 268v495q0 168 -60 246l258 55v-727q0 -170 135 -170q82 0 162 58v538q0 168 -59 246l258 55v-804q0 -127 59 -205z" glyph-name="ugrave" horiz-adv-x="925" unicode="ù"/><glyph d="M672 1329l-353 -168l-2 4l207 332q37 -12 91.5 -70.5t56.5 -97.5zM864 35l-258 -55v190q-180 -190 -319 -190q-176 0 -176 268v495q0 168 -60 246l258 55v-727q0 -170 135 -170q82 0 162 58v538q0 168 -59 246l258 55v-804q0 -127 59 -205z" glyph-name="uacute" horiz-adv-x="925" unicode="ú"/><glyph d="M438 1274l-231 -113l-4 4l235 332l236 -332l-4 -4zM864 35l-258 -55v190q-180 -190 -319 -190q-176 0 -176 268v495q0 168 -60 246l258 55v-727q0 -170 135 -170q82 0 162 58v538q0 168 -59 246l258 55v-804q0 -127 59 -205z" glyph-name="ucircumflex" horiz-adv-x="925" unicode="û"/><glyph d="M279 1206q-49 0 -84 40t-35 95q0 53 34.5 93.5t84.5 40.5q51 0 85.5 -40t34.5 -94q0 -55 -34.5 -95t-85.5 -40zM598 1206q-49 0 -85 40t-36 95q0 53 36 93.5t85 40.5t85 -40t36 -94q0 -55 -36 -95t-85 -40zM864 35l-258 -55v190q-180 -190 -319 -190q-176 0 -176 268v495 q0 168 -60 246l258 55v-727q0 -170 135 -170q82 0 162 58v538q0 168 -59 246l258 55v-804q0 -127 59 -205z" glyph-name="udieresis" horiz-adv-x="925" unicode="ü"/><glyph d="M616 1329l-352 -168l-2 4l209 332q37 -12 90 -70.5t55 -97.5zM586 1024h217q-82 -55 -141 -248l-236 -737q-25 -76 -44.5 -125t-57 -122t-88 -111.5t-109.5 -38.5q-72 0 -94 32v201q66 -25 141 -25q88 0 139.5 41t51.5 121q0 29 -8.5 70t-16.5 66.5t-29.5 88t-27.5 82.5 l-150 457q-61 190 -143 248h389q-51 -29 -55.5 -85t28.5 -163l125 -448l131 448q31 109 25 163t-47 85z" glyph-name="yacute" horiz-adv-x="790" unicode="ý"/><glyph d="M557 1044q115 0 196 -134t81 -343q0 -250 -117 -418.5t-314 -168.5h-94v-97q0 -127 60 -205l-318 -55q59 78 60 205v1401q0 127 -60 205l258 61v-680q27 76 93.5 152.5t154.5 76.5zM424 20q92 0 152.5 112t60.5 274q0 78 -10.5 150.5t-34 143t-68.5 113.5t-106 43 q-51 0 -80 -24.5t-29 -55.5v-555q0 -201 115 -201z" glyph-name="thorn" horiz-adv-x="884" unicode="þ"/><glyph d="M223 1206q-49 0 -84 40t-35 95q0 53 35 93.5t84 40.5q51 0 86 -40t35 -94q0 -55 -35 -95t-86 -40zM543 1206q-49 0 -85 40t-36 95q0 53 36 93.5t85 40.5t85 -40t36 -94q0 -55 -36 -95t-85 -40zM586 1024h217q-82 -55 -141 -248l-236 -737q-25 -76 -44.5 -125t-57 -122 t-88 -111.5t-109.5 -38.5q-72 0 -94 32v201q66 -25 141 -25q88 0 139.5 41t51.5 121q0 29 -8.5 70t-16.5 66.5t-29.5 88t-27.5 82.5l-150 457q-61 190 -143 248h389q-51 -29 -55.5 -85t28.5 -163l125 -448l131 448q31 109 25 163t-47 85z" glyph-name="ydieresis" horiz-adv-x="790" unicode="ÿ"/><glyph d="M829 1821l-57 -170h-561l55 170h563zM1034 0h-366q25 25 27.5 72t-11.5 113.5t-51 189.5h-381q-47 -166 -47 -253t39 -122h-234q106 98 189 377l321 1089l342 -1089q94 -303 172 -377zM621 422l-185 620l-172 -620h357z" glyph-name="Amacron" unicode="Ā"/><glyph d="M80 1241l55 170h563l-57 -170h-561zM215 -20q-74 0 -124 53t-50 147q0 72 31.5 134.5t80 104.5t104.5 90t104.5 90t80 105.5t31.5 137.5q0 164 -82 164q-37 0 -94 -70t-120.5 -175.5t-74.5 -117.5h-4q8 72 19.5 199t13.5 153q119 49 285 49q139 0 198.5 -67.5 t59.5 -216.5v-576q0 -90 84 -90q20 0 35 10q0 -43 -54.5 -83.5t-113.5 -40.5q-66 0 -109 53t-43 133q0 16 -8 16q-14 0 -44 -50t-82 -101t-124 -51zM350 152q39 0 81 57t42 127v219q0 47 -16 47q-47 0 -124 -92t-77 -217q0 -72 27.5 -106.5t66.5 -34.5z" glyph-name="amacron" horiz-adv-x="813" unicode="ā"/><glyph d="M520 1595q-82 0 -134 58.5t-52 138.5q0 49 16 92h6q0 -57 41 -97t123 -40q84 0 125 40t41 97h6q16 -43 17 -92q0 -80 -52.5 -138.5t-136.5 -58.5zM1034 0h-366q25 25 27.5 72t-11.5 113.5t-51 189.5h-381q-47 -166 -47 -253t39 -122h-234q106 98 189 377l321 1089 l342 -1089q94 -303 172 -377zM621 422l-185 620l-172 -620h357z" glyph-name="Abreve" unicode="Ă"/><glyph d="M387 1186q-82 0 -134 58.5t-52 137.5q0 49 16 93h6q0 -57 41 -97.5t123 -40.5q84 0 125 40t41 98h6q16 -43 16 -93q0 -80 -52 -138t-136 -58zM215 -20q-74 0 -124 53t-50 147q0 72 31.5 134.5t80 104.5t104.5 90t104.5 90t80 105.5t31.5 137.5q0 164 -82 164 q-37 0 -94 -70t-120.5 -175.5t-74.5 -117.5h-4q8 72 19.5 199t13.5 153q119 49 285 49q139 0 198.5 -67.5t59.5 -216.5v-576q0 -90 84 -90q20 0 35 10q0 -43 -54.5 -83.5t-113.5 -40.5q-66 0 -109 53t-43 133q0 16 -8 16q-14 0 -44 -50t-82 -101t-124 -51zM350 152 q39 0 81 57t42 127v219q0 47 -16 47q-47 0 -124 -92t-77 -217q0 -72 27.5 -106.5t66.5 -34.5z" glyph-name="abreve" horiz-adv-x="813" unicode="ă"/><glyph d="M401 1571l-2 4l209 332q37 -12 90.5 -70.5t55.5 -97.5zM557 -20q-193 0 -339 216t-146 545q0 135 28.5 258t86 226.5t154.5 166t224 62.5t240 -35q16 -129 57 -526h-6q-96 238 -195.5 371t-175.5 133q-29 0 -61.5 -22.5t-67 -68.5t-56 -136.5t-21.5 -206.5 q0 -182 45 -355.5t150.5 -301.5t250.5 -128q111 0 174 74q-23 -92 -120 -182t-222 -90z" glyph-name="Cacute" horiz-adv-x="960" unicode="Ć"/><glyph d="M268 1161l-2 4l209 332q37 -12 90 -70.5t56 -97.5zM424 -20q-160 0 -266.5 158.5t-106.5 389.5q0 221 102.5 368.5t282.5 147.5q96 0 176 -32q29 -182 41 -383h-2q-94 197 -152.5 284.5t-115.5 87.5q-55 0 -100 -72.5t-45 -234.5q0 -131 32.5 -247.5t112.5 -202.5 t195 -86q84 0 120 57q-23 -94 -94 -164.5t-180 -70.5z" glyph-name="cacute" horiz-adv-x="749" unicode="ć"/><glyph d="M522 1616q-51 0 -86 40t-35 95q0 53 35 93t86 40q49 0 84 -40t35 -93q0 -55 -35 -95t-84 -40zM557 -20q-193 0 -339 216t-146 545q0 135 28.5 258t86 226.5t154.5 166t224 62.5t240 -35q16 -129 57 -526h-6q-96 238 -195.5 371t-175.5 133q-29 0 -61.5 -22.5t-67 -68.5 t-56 -136.5t-21.5 -206.5q0 -182 45 -355.5t150.5 -301.5t250.5 -128q111 0 174 74q-23 -92 -120 -182t-222 -90z" glyph-name="Cdotaccent" horiz-adv-x="960" unicode="Ċ"/><glyph d="M389 1206q-51 0 -86 40t-35 95q0 53 35 93.5t86 40.5q49 0 84 -40t35 -94q0 -55 -35 -95t-84 -40zM424 -20q-160 0 -266.5 158.5t-106.5 389.5q0 221 102.5 368.5t282.5 147.5q96 0 176 -32q29 -182 41 -383h-2q-94 197 -152.5 284.5t-115.5 87.5q-55 0 -100 -72.5 t-45 -234.5q0 -131 32.5 -247.5t112.5 -202.5t195 -86q84 0 120 57q-23 -94 -94 -164.5t-180 -70.5z" glyph-name="cdotaccent" horiz-adv-x="749" unicode="ċ"/><glyph d="M520 1571l-235 332l4 4l231 -113l232 113l4 -4zM557 -20q-193 0 -339 216t-146 545q0 135 28.5 258t86 226.5t154.5 166t224 62.5t240 -35q16 -129 57 -526h-6q-96 238 -195.5 371t-175.5 133q-29 0 -61.5 -22.5t-67 -68.5t-56 -136.5t-21.5 -206.5q0 -182 45 -355.5 t150.5 -301.5t250.5 -128q111 0 174 74q-23 -92 -120 -182t-222 -90z" glyph-name="Ccaron" horiz-adv-x="960" unicode="Č"/><glyph d="M387 1161l-235 332l4 4l231 -113l231 113l5 -4zM424 -20q-160 0 -266.5 158.5t-106.5 389.5q0 221 102.5 368.5t282.5 147.5q96 0 176 -32q29 -182 41 -383h-2q-94 197 -152.5 284.5t-115.5 87.5q-55 0 -100 -72.5t-45 -234.5q0 -131 32.5 -247.5t112.5 -202.5t195 -86 q84 0 120 57q-23 -94 -94 -164.5t-180 -70.5z" glyph-name="ccaron" horiz-adv-x="749" unicode="č"/><glyph d="M512 1571l-236 332l5 4l231 -113l231 113l5 -4zM61 0q39 29 55.5 52.5t28 100t11.5 224.5v680q0 147 -11.5 224t-28 100.5t-55.5 52.5h416q219 0 360.5 -178.5t141.5 -526.5t-142.5 -538.5t-369.5 -190.5h-406zM532 55q63 0 107.5 35t68 105.5t34 157.5t10.5 208 q0 360 -72 588.5t-203 228.5q-59 0 -79.5 -53t-20.5 -207v-786q-1 -277 155 -277z" glyph-name="Dcaron" horiz-adv-x="1048" unicode="Ď"/><glyph d="M784 1495v-1288q0 -127 60 -205l-258 -33v240q-27 -76 -93.5 -152.5t-154.5 -76.5q-117 0 -197 134t-80 343q0 250 117 418.5t314 168.5h94v185q0 127 -60 205zM1104 1384l-264 -286l-4 2l67 387q39 2 111 -33t90 -70zM586 248v573q0 182 -115 183q-92 0 -153.5 -112 t-61.5 -274q0 -109 17.5 -202.5t69.5 -170.5t134 -77q51 0 80 24.5t29 55.5z" glyph-name="dcaron" horiz-adv-x="894" unicode="ď"/><glyph d="M477 1434q219 0 360.5 -178.5t141.5 -526.5t-142.5 -538.5t-369.5 -190.5h-406q39 29 55.5 52.5t28 100t11.5 224.5v315h-136v35h136v330q0 147 -11.5 224t-28 100.5t-55.5 52.5h416zM532 55q63 0 107.5 35t68 105.5t34 157.5t10.5 208q0 360 -72 588.5t-203 228.5 q-59 0 -79.5 -53t-20.5 -207v-383l258 15l-21 -58h-237v-360q-1 -277 155 -277z" glyph-name="Dcroat" horiz-adv-x="1048" unicode="Đ"/><glyph d="M889 1186h-115v-979q0 -127 60 -205l-259 -33v240q-27 -76 -93 -152.5t-154 -76.5q-117 0 -197 134t-80 343q0 250 117 418.5t313 168.5h94v142h-202v35h202v8q0 127 -59 205l258 61v-262l135 10zM575 248v573q0 182 -114 183q-92 0 -153.5 -112t-61.5 -274 q0 -109 17.5 -202.5t69.5 -170.5t134 -77q51 0 79.5 24.5t28.5 55.5z" glyph-name="dcroat" horiz-adv-x="909" unicode="đ"/><glyph d="M784 1821l-57 -170h-561l55 170h563zM889 498h6l-66 -498h-768q39 29 55.5 52.5t28 100t11.5 224.5v680q0 147 -11.5 224t-28 100.5t-55.5 52.5h766l35 -516h-6q-88 258 -169 360t-175 102q-80 0 -107.5 -72.5t-27.5 -248.5v-289q0 -35 24 -35q127 0 204 54.5t112 193.5 h6v-543h-6q-35 141 -112 195.5t-204 54.5q-25 0 -24 -35v-280q0 -178 27.5 -250t113.5 -72q213 1 371 445z" glyph-name="Emacron" horiz-adv-x="933" unicode="Ē"/><glyph d="M66 1241l55 170h563l-57 -170h-561zM440 -20q-162 0 -275.5 155.5t-113.5 382.5q0 221 105.5 373.5t263.5 152.5q121 0 198.5 -87t71.5 -230q-4 -88 -33 -129h-342q-39 0 -54 -12.5t-15 -46.5q0 -133 93 -257t251 -124q92 0 131 57q-23 -92 -96.5 -163.5t-184.5 -71.5z M313 643q174 0 174 209q0 147 -92 147q-63 0 -113.5 -64.5t-50.5 -195.5q0 -53 15.5 -74.5t66.5 -21.5z" glyph-name="emacron" horiz-adv-x="780" unicode="ē"/><glyph d="M475 1616q-51 0 -86 40t-35 95q0 53 35 93t86 40q49 0 84 -40t35 -93q0 -55 -35 -95t-84 -40zM889 498h6l-66 -498h-768q39 29 55.5 52.5t28 100t11.5 224.5v680q0 147 -11.5 224t-28 100.5t-55.5 52.5h766l35 -516h-6q-88 258 -169 360t-175 102q-80 0 -107.5 -72.5 t-27.5 -248.5v-289q0 -35 24 -35q127 0 204 54.5t112 193.5h6v-543h-6q-35 141 -112 195.5t-204 54.5q-25 0 -24 -35v-280q0 -178 27.5 -250t113.5 -72q213 1 371 445z" glyph-name="Edotaccent" horiz-adv-x="933" unicode="Ė"/><glyph d="M375 1206q-51 0 -86 40t-35 95q0 53 35 93.5t86 40.5q49 0 84 -40t35 -94q0 -55 -35 -95t-84 -40zM440 -20q-162 0 -275.5 155.5t-113.5 382.5q0 221 105.5 373.5t263.5 152.5q121 0 198.5 -87t71.5 -230q-4 -88 -33 -129h-342q-39 0 -54 -12.5t-15 -46.5q0 -133 93 -257 t251 -124q92 0 131 57q-23 -92 -96.5 -163.5t-184.5 -71.5zM313 643q174 0 174 209q0 147 -92 147q-63 0 -113.5 -64.5t-50.5 -195.5q0 -53 15.5 -74.5t66.5 -21.5z" glyph-name="edotaccent" horiz-adv-x="780" unicode="ė"/><glyph d="M709 1903l-236 -332l-235 332l4 4l231 -113l232 113zM889 498h6l-66 -498h-768q39 29 55.5 52.5t28 100t11.5 224.5v680q0 147 -11.5 224t-28 100.5t-55.5 52.5h766l35 -516h-6q-88 258 -169 360t-175 102q-80 0 -107.5 -72.5t-27.5 -248.5v-289q0 -35 24 -35 q127 0 204 54.5t112 193.5h6v-543h-6q-35 141 -112 195.5t-204 54.5q-25 0 -24 -35v-280q0 -178 27.5 -250t113.5 -72q213 1 371 445z" glyph-name="Ecaron" horiz-adv-x="933" unicode="Ě"/><glyph d="M375 1161l-236 332l4 4l232 -113l231 113l4 -4zM440 -20q-162 0 -275.5 155.5t-113.5 382.5q0 221 105.5 373.5t263.5 152.5q121 0 198.5 -87t71.5 -230q-4 -88 -33 -129h-342q-39 0 -54 -12.5t-15 -46.5q0 -133 93 -257t251 -124q92 0 131 57q-23 -92 -96.5 -163.5 t-184.5 -71.5zM313 643q174 0 174 209q0 147 -92 147q-63 0 -113.5 -64.5t-50.5 -195.5q0 -53 15.5 -74.5t66.5 -21.5z" glyph-name="ecaron" horiz-adv-x="780" unicode="ě"/><glyph d="M557 1616q-51 0 -86 40t-35 95q0 53 35 93t86 40q49 0 84 -40t35 -93q0 -55 -35 -95t-84 -40zM561 -20q-193 0 -341 214t-148 541q0 186 50 344t168 266.5t285 108.5q119 0 232 -35q6 -51 59 -526h-6q-98 240 -197.5 371t-181.5 131q-31 0 -61.5 -20.5t-62 -65.5 t-51 -133.5t-19.5 -208.5q0 -203 51 -420t135 -363.5t170 -146.5q31 0 40 21.5t9 72.5v127q0 213 -21.5 307t-80.5 154h385q-53 -59 -73.5 -154.5t-20.5 -306.5v-262h-4q-41 41 -101 41q-31 0 -93.5 -28.5t-121.5 -28.5z" glyph-name="Gdotaccent" horiz-adv-x="1015" unicode="Ġ"/><glyph d="M414 1206q-51 0 -86 40t-35 95q0 53 34.5 93.5t86.5 40.5q49 0 83.5 -40t34.5 -94q0 -55 -34.5 -95t-83.5 -40zM350 219q266 -147 347 -218t81 -130q0 -102 -112.5 -170t-274.5 -68q-143 0 -251.5 49.5t-108.5 145.5q0 37 16 66.5t40 47t51.5 31t48 22.5t30.5 19.5 t0 23.5t-43 32q-88 47 -88 98q0 27 23.5 52.5t93.5 74.5q45 33 45 49q0 20 -41 45q-145 92 -146 293q0 162 94.5 252t227.5 90h410l-154 -135q70 -82 70 -207q0 -162 -92.5 -252t-225.5 -90q-61 0 -85.5 -9t-24.5 -34q-1 -41 69 -78zM338 977q-76 0 -76 -156 q0 -141 47 -287.5t125 -146.5t78 156q0 137 -49 285.5t-125 148.5zM422 -330q143 0 143 88q0 98 -258 238q-41 23 -75.5 -12t-34.5 -103q0 -86 64.5 -148.5t160.5 -62.5z" glyph-name="gdotaccent" horiz-adv-x="821" unicode="ġ"/><glyph d="M590 719h385q-53 -59 -73.5 -154.5t-20.5 -306.5v-262h-4q-41 41 -101 41q-31 0 -93 -28.5t-122 -28.5q-193 0 -341 214t-148 541q0 186 50 344t168 266.5t285 108.5q119 0 232 -35q6 -51 59 -526h-6q-98 240 -197.5 371t-181.5 131q-31 0 -61.5 -20.5t-62 -65.5 t-51 -133.5t-19.5 -208.5q0 -203 51 -420t135 -363.5t170 -146.5q31 0 40 21.5t9 72.5v127q0 213 -21.5 307.5t-80.5 153.5zM530 -133q51 0 85 -43t34 -107q0 -84 -55 -165.5t-137 -124.5l-4 4q57 66 61 166q-45 6 -73.5 43.5t-28.5 91.5q0 55 34.5 95t83.5 40z" glyph-name="Gcommaaccent" horiz-adv-x="1015" unicode="Ģ"/><glyph d="M434 1169q-51 0 -85 43t-34 107q0 84 55.5 166t137.5 125l4 -4q-57 -66 -61 -166q45 -6 73.5 -44t28.5 -91q0 -55 -35 -95.5t-84 -40.5zM350 219q266 -147 347 -218t81 -130q0 -102 -112.5 -170t-274.5 -68q-143 0 -251.5 49.5t-108.5 145.5q0 37 16 66.5t40 47t51.5 31 t48 22.5t30.5 19.5t0 23.5t-43 32q-88 47 -88 98q0 27 23.5 52.5t93.5 74.5q45 33 45 49q0 20 -41 45q-145 92 -146 293q0 162 94.5 252t227.5 90h410l-154 -135q70 -82 70 -207q0 -162 -92.5 -252t-225.5 -90q-61 0 -85.5 -9t-24.5 -34q-1 -41 69 -78zM338 977 q-76 0 -76 -156q0 -141 47 -287.5t125 -146.5t78 156q0 137 -49 285.5t-125 148.5zM422 -330q143 0 143 88q0 98 -258 238q-41 23 -75.5 -12t-34.5 -103q0 -86 64.5 -148.5t160.5 -62.5z" glyph-name="gcommaaccent" horiz-adv-x="821" unicode="ģ"/><glyph d="M-43 1651l55 170h563l-57 -170h-561zM61 0q39 29 55.5 52.5t28 100t11.5 224.5v680q0 147 -11.5 224t-28 100.5t-55.5 52.5h408q-39 -29 -54.5 -52.5t-26.5 -100.5t-11 -224v-680q0 -147 11 -224t26.5 -100.5t54.5 -52.5h-408z" glyph-name="Imacron" horiz-adv-x="530" unicode="Ī"/><glyph d="M-98 1241l55 170h563l-57 -170h-561zM51 0q59 78 60 205v579q0 127 -60 205l258 55v-839q0 -127 60 -205h-318z" glyph-name="imacron" horiz-adv-x="419" unicode="ī"/><glyph d="M268 1616q-51 0 -86 40t-35 95q0 53 35 93t86 40q49 0 84 -40t35 -93q0 -55 -35 -95t-84 -40zM61 0q39 29 55.5 52.5t28 100t11.5 224.5v680q0 147 -11.5 224t-28 100.5t-55.5 52.5h408q-39 -29 -54.5 -52.5t-26.5 -100.5t-11 -224v-680q0 -147 11 -224t26.5 -100.5 t54.5 -52.5h-408z" glyph-name="Idotaccent" horiz-adv-x="530" unicode="İ"/><glyph d="M51 0q59 78 60 205v579q0 127 -60 205l258 55v-839q0 -127 60 -205h-318z" glyph-name="dotlessi" horiz-adv-x="419" unicode="ı"/><glyph d="M61 0q39 29 55.5 52.5t28 100t11.5 224.5v680q0 147 -11.5 224t-28 100.5t-55.5 52.5h408q-39 -29 -54.5 -52.5t-26.5 -100.5t-11 -224v-680q0 -147 11 -224t26.5 -100.5t54.5 -52.5h-408zM725 492q109 -250 161 -347.5t97 -144.5h-326q-14 94 -143 410l-129 309 q176 264 249 399t73 209q0 72 -64 107h322q-82 -41 -171 -159t-245 -380zM479 -133q51 0 85 -43t34 -107q0 -84 -55.5 -165.5t-136.5 -124.5l-5 4q57 66 62 166q-45 6 -74 43.5t-29 91.5q0 55 35 95t84 40z" glyph-name="Kcommaaccent" horiz-adv-x="983" unicode="Ķ"/><glyph d="M51 1434l258 65v-1294q0 -127 60 -205h-318q59 78 60 205v1024q-1 127 -60 205zM678 246q104 -201 188 -246h-280l-277 528l97 119q76 98 99 142.5t23 80.5q0 53 -30.5 97.5t-69.5 54.5v2h414v-2q-125 -66 -168 -102q-59 -53 -154 -177l-61 -79zM426 -133q51 0 85 -43 t34 -107q0 -84 -55.5 -165.5t-137.5 -124.5l-4 4q57 66 62 166q-45 6 -74 43.5t-29 91.5q0 55 35 95t84 40z" glyph-name="kcommaaccent" horiz-adv-x="854" unicode="ķ"/><glyph d="M334 1571l-2 4l209 332q37 -12 90 -70.5t55 -97.5zM61 0q39 29 55.5 52.5t28 100t11.5 224.5v680q0 147 -11.5 224t-28 100.5t-55.5 52.5h408q-39 -29 -54.5 -52.5t-26.5 -100.5t-11 -224v-682q0 -176 27.5 -249t111.5 -73q94 0 173 119t179 389h6l-77 -561h-736z" glyph-name="Lacute" horiz-adv-x="905" unicode="Ĺ"/><glyph d="M92 1571l-2 4l209 332q37 -12 90 -70.5t55 -97.5zM51 0q59 78 60 205v1024q0 127 -60 205l258 65v-1294q0 -127 60 -205h-318z" glyph-name="lacute" horiz-adv-x="419" unicode="ĺ"/><glyph d="M868 561h6l-77 -561h-736q39 29 55.5 52.5t28 100t11.5 224.5v680q0 147 -11.5 224t-28 100.5t-55.5 52.5h408q-39 -29 -54.5 -52.5t-26.5 -100.5t-11 -224v-682q0 -176 27.5 -249t111.5 -73q94 0 173 119t179 389zM459 -133q51 0 85 -43t34 -107q0 -84 -55.5 -165.5 t-137.5 -124.5l-4 4q57 66 61 166q-45 6 -73.5 43.5t-28.5 91.5q0 55 35 95t84 40z" glyph-name="Lcommaaccent" horiz-adv-x="905" unicode="Ļ"/><glyph d="M51 0q59 78 60 205v1024q0 127 -60 205l258 65v-1294q0 -127 60 -205h-318zM205 -133q51 0 85 -43t34 -107q0 -84 -55.5 -165.5t-137.5 -124.5l-4 4q57 66 61 166q-45 6 -73.5 43.5t-28.5 91.5q0 55 35 95t84 40z" glyph-name="lcommaaccent" horiz-adv-x="419" unicode="ļ"/><glyph d="M868 561h6l-77 -561h-736q39 29 55.5 52.5t28 100t11.5 224.5v315h-136v35h136v330q0 147 -11.5 224t-28 100.5t-55.5 52.5h408q-39 -29 -54.5 -52.5t-26.5 -100.5t-11 -224v-322l258 15l-21 -58h-237v-317q0 -176 27.5 -249t111.5 -73q94 0 173 119t179 389z" glyph-name="Lslash" horiz-adv-x="905" unicode="Ł"/><glyph d="M311 838v-633q0 -127 60 -205h-318q59 78 60 205v463l-82 -70l-21 31l103 88v512q0 127 -60 205l258 65v-612l82 69l21 -30z" glyph-name="lslash" horiz-adv-x="423" unicode="ł"/><glyph d="M762 1739l-352 -168l-2 4l208 332q37 -12 90.5 -70.5t55.5 -97.5zM1026 1434q-57 -27 -79.5 -52.5t-36 -99.5t-13.5 -225v-516q0 -307 16 -582h-10l-686 1169v-751q0 -152 14.5 -225.5t39 -99t85.5 -52.5h-325q55 27 77.5 52.5t37 100t14.5 224.5v680q0 147 -17.5 224 t-41 100.5t-81.5 52.5h330q2 -20 13.5 -48t20.5 -44.5t32.5 -58.5t32.5 -58l389 -705v537q0 150 -14.5 224.5t-36 100t-76.5 52.5h315z" glyph-name="Nacute" unicode="Ń"/><glyph d="M688 1329l-352 -168l-2 4l209 332q37 -12 90 -70.5t55 -97.5zM547 0q59 78 59 205v502q0 170 -135 170q-82 0 -162 -58v-614q0 -127 60 -205h-318q59 78 60 205v579q0 127 -60 205l258 55v-190q180 190 320 190q176 0 176 -268v-571q0 -127 59 -205h-317z" glyph-name="nacute" horiz-adv-x="925" unicode="ń"/><glyph d="M1026 1434q-57 -27 -79.5 -52.5t-36 -99.5t-13.5 -225v-516q0 -307 16 -582h-10l-686 1169v-751q0 -152 14.5 -225.5t39 -99t85.5 -52.5h-325q55 27 77.5 52.5t37 100t14.5 224.5v680q0 147 -17.5 224t-41 100.5t-81.5 52.5h330q2 -20 13.5 -48t20.5 -44.5t32.5 -58.5 t32.5 -58l389 -705v537q0 150 -14.5 224.5t-36 100t-76.5 52.5h315zM524 -133q51 0 85 -43t34 -107q0 -84 -55.5 -165.5t-136.5 -124.5l-5 4q57 66 62 166q-45 6 -73.5 43.5t-28.5 91.5q0 55 34.5 95t83.5 40z" glyph-name="Ncommaaccent" unicode="Ņ"/><glyph d="M51 0q59 78 60 205v579q0 127 -60 205l258 55v-190q180 190 320 190q176 0 176 -268v-571q0 -127 59 -205h-317q59 78 59 205v502q0 170 -135 170q-82 0 -162 -58v-614q0 -127 60 -205h-318zM451 -133q51 0 84.5 -43t33.5 -107q0 -84 -55 -165.5t-137 -124.5l-4 4 q57 66 61 166q-45 6 -73.5 43.5t-28.5 91.5q0 55 35 95t84 40z" glyph-name="ncommaaccent" horiz-adv-x="925" unicode="ņ"/><glyph d="M766 1903l-236 -332l-235 332l4 4l231 -113l232 113zM1026 1434q-57 -27 -79.5 -52.5t-36 -99.5t-13.5 -225v-516q0 -307 16 -582h-10l-686 1169v-751q0 -152 14.5 -225.5t39 -99t85.5 -52.5h-325q55 27 77.5 52.5t37 100t14.5 224.5v680q0 147 -17.5 224t-41 100.5 t-81.5 52.5h330q2 -20 13.5 -48t20.5 -44.5t32.5 -58.5t32.5 -58l389 -705v537q0 150 -14.5 224.5t-36 100t-76.5 52.5h315z" glyph-name="Ncaron" unicode="Ň"/><glyph d="M692 1493l-235 -332l-236 332l4 4l232 -113l231 113zM547 0q59 78 59 205v502q0 170 -135 170q-82 0 -162 -58v-614q0 -127 60 -205h-318q59 78 60 205v579q0 127 -60 205l258 55v-190q180 190 320 190q176 0 176 -268v-571q0 -127 59 -205h-317z" glyph-name="ncaron" horiz-adv-x="925" unicode="ň"/><glyph d="M215 1651l55 170h564l-58 -170h-561zM522 -20q-147 0 -252.5 112.5t-151.5 275t-46 349.5q0 195 46 357.5t151.5 271t254.5 108.5q147 0 253 -112.5t152 -275.5t46 -349q0 -195 -46 -357.5t-151.5 -271t-255.5 -108.5zM616 37q139 0 140 350q0 195 -35 419t-113 406.5 t-178 182.5q-139 0 -139 -348q0 -195 34.5 -420.5t112.5 -407.5t178 -182z" glyph-name="Omacron" horiz-adv-x="1046" unicode="Ō"/><glyph d="M117 1241l55 170h563l-57 -170h-561zM418 -20q-170 0 -268.5 152.5t-98.5 379.5q0 231 105.5 381.5t275.5 150.5q168 0 267.5 -152.5t99.5 -379.5q0 -231 -106.5 -381.5t-274.5 -150.5zM498 35q102 0 102 244q0 92 -15.5 207.5t-44 231.5t-77.5 193.5t-111 77.5 q-102 0 -102 -244q0 -92 15.5 -207.5t44 -231.5t78 -193.5t110.5 -77.5z" glyph-name="omacron" horiz-adv-x="847" unicode="ō"/><glyph d="M168 1571l-2 4l209 332q37 -12 90 -70.5t55 -97.5zM496 1571l-2 4l208 332q37 -12 90.5 -70.5t55.5 -97.5zM522 -20q-147 0 -252.5 112.5t-151.5 275t-46 349.5q0 195 46 357.5t151.5 271t254.5 108.5q147 0 253 -112.5t152 -275.5t46 -349q0 -195 -46 -357.5 t-151.5 -271t-255.5 -108.5zM616 37q139 0 140 350q0 195 -35 419t-113 406.5t-178 182.5q-139 0 -139 -348q0 -195 34.5 -420.5t112.5 -407.5t178 -182z" glyph-name="Ohungarumlaut" horiz-adv-x="1046" unicode="Ő"/><glyph d="M70 1161l-2 4l208 332q37 -12 90.5 -70.5t55.5 -97.5zM397 1161l-2 4l209 332q37 -12 90.5 -70.5t55.5 -97.5zM418 -20q-170 0 -268.5 152.5t-98.5 379.5q0 231 105.5 381.5t275.5 150.5q168 0 267.5 -152.5t99.5 -379.5q0 -231 -106.5 -381.5t-274.5 -150.5zM498 35 q102 0 102 244q0 92 -15.5 207.5t-44 231.5t-77.5 193.5t-111 77.5q-102 0 -102 -244q0 -92 15.5 -207.5t44 -231.5t78 -193.5t110.5 -77.5z" glyph-name="ohungarumlaut" horiz-adv-x="847" unicode="ő"/><glyph d="M1489 498h6l-65 -498h-437q-88 0 -225 -10t-246 -10q-147 0 -252.5 112.5t-151.5 275t-46 349.5q0 195 46 356.5t150.5 270t251.5 110.5h4h2q109 0 244 -10t223 -10h434l35 -516h-6q-88 258 -169 360t-175 102q-82 0 -109.5 -73.5t-27.5 -247.5v-289q0 -35 24 -35 q129 0 206 54.5t112 193.5h6v-543h-6q-35 141 -112 195.5t-206 54.5q-25 0 -24 -35v-280q0 -176 28.5 -249t114.5 -73q213 1 371 445zM291 1047q0 -195 34.5 -420.5t112.5 -407.5t178 -182q139 0 140 350q0 195 -35 419t-113 406.5t-178 182.5q-139 0 -139 -348z" glyph-name="OE" horiz-adv-x="1533" unicode="Œ"/><glyph d="M1145 158q90 0 129 57q-23 -92 -96.5 -163.5t-184.5 -71.5q-170 0 -286 172q-109 -172 -289 -172q-170 0 -268.5 152.5t-98.5 379.5q0 231 105.5 381.5t275.5 150.5t273 -161q106 162 270 161q119 0 196.5 -87t71.5 -230q-4 -88 -33 -129h-340q-39 0 -54 -12.5t-15 -46.5 q0 -133 92 -257t252 -124zM948 999q-61 0 -111.5 -64.5t-50.5 -195.5q0 -53 15.5 -74.5t66.5 -21.5q174 0 174 209q0 147 -94 147zM498 35q102 0 102 244q0 92 -15.5 207.5t-44 231.5t-77.5 193.5t-111 77.5q-102 0 -102 -244q0 -92 15.5 -207.5t44 -231.5t78 -193.5 t110.5 -77.5z" glyph-name="oe" horiz-adv-x="1335" unicode="œ"/><glyph d="M770 1739l-352 -168l-2 4l209 332q37 -12 90 -70.5t55 -97.5zM670 731q207 -516 268 -622q51 -90 94 -107q-39 -12 -102 -12q-98 0 -175 72.5t-122 176t-80 207t-67.5 176t-65.5 72.5v6q106 0 153.5 18.5t56.5 49.5t9 106q0 506 -172 506q-51 0 -70.5 -64.5t-19.5 -258.5 v-680q0 -147 11 -224t26.5 -100.5t54.5 -52.5h-408q39 29 55.5 52.5t28 100t11.5 224.5v680q0 147 -11.5 224t-28 100.5t-55.5 52.5h480q141 0 236 -103.5t95 -263.5q1 -236 -202 -336z" glyph-name="Racute" horiz-adv-x="1019" unicode="Ŕ"/><glyph d="M506 1329l-352 -168l-2 4l208 332q37 -12 90.5 -70.5t55.5 -97.5zM535 1044q39 0 62.5 -43t23.5 -108q0 -72 -32 -127t-71 -55q-20 0 -58 16t-79 16q-72 0 -72 -120v-418q0 -127 60 -205h-318q59 78 60 205v579q0 127 -60 205l258 55v-233q0 -33 19 -33q16 0 28 29 q6 12 18.5 38.5t18.5 40t17.5 36t18.5 35t18.5 28.5t20.5 25.5t20.5 17.5t23 12t23.5 4z" glyph-name="racute" horiz-adv-x="661" unicode="ŕ"/><glyph d="M670 731q207 -516 268 -622q51 -90 94 -107q-39 -12 -102 -12q-98 0 -175 72.5t-122 176t-80 207t-67.5 176t-65.5 72.5v6q106 0 153.5 18.5t56.5 49.5t9 106q0 506 -172 506q-51 0 -70.5 -64.5t-19.5 -258.5v-680q0 -147 11 -224t26.5 -100.5t54.5 -52.5h-408 q39 29 55.5 52.5t28 100t11.5 224.5v680q0 147 -11.5 224t-28 100.5t-55.5 52.5h480q141 0 236 -103.5t95 -263.5q1 -236 -202 -336zM532 -133q51 0 85 -43t34 -107q0 -84 -55 -165.5t-137 -124.5l-4 4q57 66 61 166q-45 6 -73.5 43.5t-28.5 91.5q0 55 34.5 95t83.5 40z" glyph-name="Rcommaaccent" horiz-adv-x="1019" unicode="Ŗ"/><glyph d="M535 1044q39 0 62.5 -43t23.5 -108q0 -72 -32 -127t-71 -55q-20 0 -58 16t-79 16q-72 0 -72 -120v-418q0 -127 60 -205h-318q59 78 60 205v579q0 127 -60 205l258 55v-233q0 -33 19 -33q16 0 28 29q6 12 18.5 38.5t18.5 40t17.5 36t18.5 35t18.5 28.5t20.5 25.5 t20.5 17.5t23 12t23.5 4zM213 -133q51 0 85 -43t34 -107q0 -84 -55.5 -165.5t-137.5 -124.5l-4 4q57 66 62 166q-45 6 -74 43.5t-29 91.5q0 55 35 95t84 40z" glyph-name="rcommaaccent" horiz-adv-x="661" unicode="ŗ"/><glyph d="M774 1903l-235 -332l-236 332l4 4l232 -113l231 113zM670 731q207 -516 268 -622q51 -90 94 -107q-39 -12 -102 -12q-98 0 -175 72.5t-122 176t-80 207t-67.5 176t-65.5 72.5v6q106 0 153.5 18.5t56.5 49.5t9 106q0 506 -172 506q-51 0 -70.5 -64.5t-19.5 -258.5v-680 q0 -147 11 -224t26.5 -100.5t54.5 -52.5h-408q39 29 55.5 52.5t28 100t11.5 224.5v680q0 147 -11.5 224t-28 100.5t-55.5 52.5h480q141 0 236 -103.5t95 -263.5q1 -236 -202 -336z" glyph-name="Rcaron" horiz-adv-x="1019" unicode="Ř"/><glyph d="M510 1493l-236 -332l-235 332l4 4l231 -113l232 113zM535 1044q39 0 62.5 -43t23.5 -108q0 -72 -32 -127t-71 -55q-20 0 -58 16t-79 16q-72 0 -72 -120v-418q0 -127 60 -205h-318q59 78 60 205v579q0 127 -60 205l258 55v-233q0 -33 19 -33q16 0 28 29q6 12 18.5 38.5 t18.5 40t17.5 36t18.5 35t18.5 28.5t20.5 25.5t20.5 17.5t23 12t23.5 4z" glyph-name="rcaron" horiz-adv-x="661" unicode="ř"/><glyph d="M297 1571l-2 4l209 332q37 -12 90 -70.5t55 -97.5zM373 -20q-170 0 -269 61l-26 496h4q174 -510 344 -510q47 0 84 35.5t37 107.5q0 104 -90 246l-209 317q-10 14 -37 54t-35 53.5t-28.5 46.5t-26.5 48t-19.5 44t-17.5 48.5t-8 46t-4 52.5q0 150 97 239t253 89 q115 0 246 -68l26 -479h-4q-18 39 -49 106.5t-48.5 105.5t-43 90.5t-45 81t-42 58t-44 42t-43.5 12.5q-39 0 -71 -36t-32 -101q0 -113 97 -267l172 -270q12 -18 71.5 -104t81 -125t47 -107.5t25.5 -126.5q-2 -133 -108.5 -209.5t-284.5 -76.5z" glyph-name="Sacute" horiz-adv-x="806" unicode="Ś"/><glyph d="M233 1161l-2 4l209 332q37 -12 90.5 -70.5t55.5 -97.5zM350 -20q-141 0 -264 69l-10 361q49 -147 140 -268.5t177 -121.5q33 0 57.5 21.5t24.5 64.5q0 66 -119 222l-143 186q-4 6 -22.5 30.5t-22.5 30t-19.5 27t-19.5 28.5t-15.5 26.5t-15.5 28.5t-11 26.5t-9 30t-4 28.5 t-2 33q0 106 71.5 173.5t200.5 67.5q154 0 231 -69l37 -342q-6 12 -27.5 54t-30.5 59.5t-29.5 54.5t-32 54t-31 46t-33.5 43t-32.5 30.5t-36 23t-33.5 6.5q-31 0 -51.5 -23t-20.5 -66q0 -74 88 -196l143 -187q4 -6 38 -49t43 -55t35 -50t34 -58.5t17.5 -52t9.5 -58.5 q0 -102 -88.5 -165.5t-223.5 -63.5z" glyph-name="sacute" horiz-adv-x="702" unicode="ś"/><glyph d="M541 729q12 -18 71.5 -104t81 -125t47 -107.5t25.5 -126.5q-2 -115 -82 -188.5t-219 -91.5q-29 -35 -29 -64q0 -45 54.5 -95t54.5 -58q0 -55 -101.5 -124t-156.5 -69q-20 0 -33.5 14.5t-13.5 32.5q0 39 87 31t87 22q0 29 -56.5 79t-56.5 71q0 27 129 156q-18 -2 -57 -2 q-170 0 -269 61l-26 496h4q174 -510 344 -510q47 0 84 35.5t37 107.5q0 104 -90 246l-209 317q-10 14 -37 54t-35 53.5t-28.5 46.5t-26.5 48t-19.5 44t-17.5 48.5t-8 46t-4 52.5q0 150 97 239t253 89q115 0 246 -68l26 -479h-4q-18 39 -49 106.5t-48.5 105.5t-43 90.5 t-45 81t-42 58t-44 42t-43.5 12.5q-39 0 -71 -36t-32 -101q0 -113 97 -267z" glyph-name="Scedilla" horiz-adv-x="806" unicode="Ş"/><glyph d="M662 209q0 -94 -74 -155.5t-191 -71.5q-27 -33 -26 -60q0 -45 54 -95t54 -58q0 -55 -101.5 -124t-156.5 -69q-20 0 -33.5 14.5t-13.5 32.5q0 39 87 31t87 22q0 29 -56 79t-56 71q0 27 126 154h-12q-141 0 -264 69l-10 361q49 -147 140 -268.5t177 -121.5q33 0 57.5 21.5 t24.5 64.5q0 66 -119 222l-143 186q-4 6 -22.5 30.5t-22.5 30t-19.5 27t-19.5 28.5t-15.5 26.5t-15.5 28.5t-11 26.5t-9 30t-4 28.5t-2 33q0 106 71.5 173.5t200.5 67.5q154 0 231 -69l37 -342q-6 12 -27.5 54t-30.5 59.5t-29.5 54.5t-32 54t-31 46t-33.5 43t-32.5 30.5 t-36 23t-33.5 6.5q-31 0 -51.5 -23t-20.5 -66q0 -74 88 -196l143 -187q4 -6 38 -49t43 -55t35 -50t34 -58.5t17.5 -52t9.5 -58.5z" glyph-name="scedilla" horiz-adv-x="702" unicode="ş"/><glyph d="M418 1571l-236 332l4 4l232 -113l231 113l4 -4zM373 -20q-170 0 -269 61l-26 496h4q174 -510 344 -510q47 0 84 35.5t37 107.5q0 104 -90 246l-209 317q-10 14 -37 54t-35 53.5t-28.5 46.5t-26.5 48t-19.5 44t-17.5 48.5t-8 46t-4 52.5q0 150 97 239t253 89 q115 0 246 -68l26 -479h-4q-18 39 -49 106.5t-48.5 105.5t-43 90.5t-45 81t-42 58t-44 42t-43.5 12.5q-39 0 -71 -36t-32 -101q0 -113 97 -267l172 -270q12 -18 71.5 -104t81 -125t47 -107.5t25.5 -126.5q-2 -133 -108.5 -209.5t-284.5 -76.5z" glyph-name="Scaron" horiz-adv-x="806" unicode="Š"/><glyph d="M352 1161l-235 332l4 4l231 -113l232 113l4 -4zM350 -20q-141 0 -264 69l-10 361q49 -147 140 -268.5t177 -121.5q33 0 57.5 21.5t24.5 64.5q0 66 -119 222l-143 186q-4 6 -22.5 30.5t-22.5 30t-19.5 27t-19.5 28.5t-15.5 26.5t-15.5 28.5t-11 26.5t-9 30t-4 28.5t-2 33 q0 106 71.5 173.5t200.5 67.5q154 0 231 -69l37 -342q-6 12 -27.5 54t-30.5 59.5t-29.5 54.5t-32 54t-31 46t-33.5 43t-32.5 30.5t-36 23t-33.5 6.5q-31 0 -51.5 -23t-20.5 -66q0 -74 88 -196l143 -187q4 -6 38 -49t43 -55t35 -50t34 -58.5t17.5 -52t9.5 -58.5 q0 -102 -88.5 -165.5t-223.5 -63.5z" glyph-name="scaron" horiz-adv-x="702" unicode="š"/><glyph d="M606 1389q-29 0 -36 -26t-7 -124v-862q0 -152 12.5 -225.5t33 -99t69.5 -52.5h-162q-43 -43 -43 -78q0 -45 54.5 -95t54.5 -58q0 -55 -101.5 -124t-156.5 -69q-20 0 -34 14.5t-14 32.5q0 39 87.5 31t87.5 22q0 29 -56.5 79t-56.5 71q0 10 9 25.5t28.5 37t33 36t42 42 t34.5 33.5h-258q49 27 69.5 52.5t33 99t12.5 225.5v862q0 98 -6 124t-35 26q-37 0 -75 -74t-140 -320q-25 -59 -39 -92h-6l18 537q100 -6 275 -6h237q174 0 277 6l18 -537h-6q-158 373 -188 428q-35 58 -66 58z" glyph-name="Tcommaaccent" horiz-adv-x="905" unicode="Ţ"/><glyph d="M516 104q-12 -37 -75.5 -76.5t-123.5 -47.5q-25 -31 -24 -58q0 -45 54 -95t54 -58q0 -55 -101 -124t-157 -69q-20 0 -33.5 14.5t-13.5 32.5q0 39 87 31t87 22q0 29 -56 79t-56 71q0 31 127 154q-63 8 -103.5 64t-40.5 144v723h-121l320 418v-307q104 0 166 6l-33 -117 h-133v-678q0 -139 111 -139q25 0 63 10h2z" glyph-name="tcommaaccent" horiz-adv-x="536" unicode="ţ"/><glyph d="M274 1651l56 170h563l-57 -170h-562zM532 -20q-186 0 -281 122.5t-95 311.5v643q0 147 -11.5 224t-28 100.5t-55.5 52.5h398q-33 -29 -46.5 -52.5t-24.5 -101.5t-11 -223v-643q0 -164 60.5 -262.5t172.5 -98.5q111 0 166 97.5t55 263.5v643q0 147 -12 224t-29.5 100.5 t-56.5 52.5h254q-41 -29 -57.5 -52.5t-28.5 -100.5t-12 -224v-643q0 -193 -86.5 -313.5t-270.5 -120.5z" glyph-name="Umacron" horiz-adv-x="1005" unicode="Ū"/><glyph d="M750 1411l-58 -170h-561l55 170h564zM864 35l-258 -55v190q-180 -190 -319 -190q-176 0 -176 268v495q0 168 -60 246l258 55v-727q0 -170 135 -170q82 0 162 58v538q0 168 -59 246l258 55v-804q0 -127 59 -205z" glyph-name="umacron" horiz-adv-x="925" unicode="ū"/><glyph d="M582 1595q-82 0 -134.5 58.5t-52.5 138.5q0 49 17 92h6q0 -57 41 -97t123 -40q84 0 125 40t41 97h6q16 -43 16 -92q0 -80 -52 -138.5t-136 -58.5zM532 -20q-186 0 -281 122.5t-95 311.5v643q0 147 -11.5 224t-28 100.5t-55.5 52.5h398q-33 -29 -46.5 -52.5t-24.5 -101.5 t-11 -223v-643q0 -164 60.5 -262.5t172.5 -98.5q111 0 166 97.5t55 263.5v643q0 147 -12 224t-29.5 100.5t-56.5 52.5h254q-41 -29 -57.5 -52.5t-28.5 -100.5t-12 -224v-643q0 -193 -86.5 -313.5t-270.5 -120.5z" glyph-name="Ubreve" horiz-adv-x="1005" unicode="Ŭ"/><glyph d="M438 1186q-82 0 -134 58.5t-52 137.5q0 49 16 93h6q0 -57 41 -97.5t123 -40.5q84 0 125 40t41 98h6q16 -43 17 -93q0 -80 -52.5 -138t-136.5 -58zM864 35l-258 -55v190q-180 -190 -319 -190q-176 0 -176 268v495q0 168 -60 246l258 55v-727q0 -170 135 -170q82 0 162 58 v538q0 168 -59 246l258 55v-804q0 -127 59 -205z" glyph-name="ubreve" horiz-adv-x="925" unicode="ŭ"/><glyph d="M583.5 1563q-59.5 0 -101.5 48t-42 113.5t42 112.5t101.5 47t101.5 -47t42 -112.5t-42 -113.5t-101.5 -48zM584 1591q49 0 81.5 39t32.5 94.5t-32.5 93t-81.5 37.5t-82 -37.5t-33 -93t33 -94.5t82 -39zM532 -20q-186 0 -281 122.5t-95 311.5v643q0 147 -11.5 224 t-28 100.5t-55.5 52.5h398q-33 -29 -46.5 -52.5t-24.5 -101.5t-11 -223v-643q0 -164 60.5 -262.5t172.5 -98.5q111 0 166 97.5t55 263.5v643q0 147 -12 224t-29.5 100.5t-56.5 52.5h254q-41 -29 -57.5 -52.5t-28.5 -100.5t-12 -224v-643q0 -193 -86.5 -313.5t-270.5 -120.5z " glyph-name="Uring" horiz-adv-x="1005" unicode="Ů"/><glyph d="M438.5 1153q-59.5 0 -101.5 48t-42 113.5t42 113t101.5 47.5t101.5 -47.5t42 -113t-42 -113.5t-101.5 -48zM438 1446q-49 0 -81.5 -38t-32.5 -93t32.5 -94t81.5 -39t82 39t33 94t-33 93t-82 38zM864 35l-258 -55v190q-180 -190 -319 -190q-176 0 -176 268v495 q0 168 -60 246l258 55v-727q0 -170 135 -170q82 0 162 58v538q0 168 -59 246l258 55v-804q0 -127 59 -205z" glyph-name="uring" horiz-adv-x="925" unicode="ů"/><glyph d="M227 1571l-2 4l209 332q37 -12 90.5 -70.5t55.5 -97.5zM555 1571l-2 4l209 332q37 -12 90 -70.5t55 -97.5zM532 -20q-186 0 -281 122.5t-95 311.5v643q0 147 -11.5 224t-28 100.5t-55.5 52.5h398q-33 -29 -46.5 -52.5t-24.5 -101.5t-11 -223v-643q0 -164 60.5 -262.5 t172.5 -98.5q111 0 166 97.5t55 263.5v643q0 147 -12 224t-29.5 100.5t-56.5 52.5h254q-41 -29 -57.5 -52.5t-28.5 -100.5t-12 -224v-643q0 -193 -86.5 -313.5t-270.5 -120.5z" glyph-name="Uhungarumlaut" horiz-adv-x="1005" unicode="Ű"/><glyph d="M434 1329l-352 -168l-2 4l209 332q37 -12 90 -70.5t55 -97.5zM410 1161l-2 4l208 332q37 -12 90.5 -70.5t55.5 -97.5zM864 35l-258 -55v190q-180 -190 -319 -190q-176 0 -176 268v495q0 168 -60 246l258 55v-727q0 -170 135 -170q82 0 162 58v538q0 168 -59 246l258 55 v-804q0 -127 59 -205z" glyph-name="uhungarumlaut" horiz-adv-x="925" unicode="ű"/><glyph d="M758 1683l-232 -112l-4 4l236 332l235 -332l-4 -4zM1255 1434h234q-111 -102 -189 -377l-311 -1090l-246 805l-229 -805l-332 1090q-90 299 -172 377h367q-25 -25 -27 -73t11.5 -112.5t50.5 -191.5l186 -660l70 275q29 119 22.5 207t-45.5 215q-84 266 -160 340h367 q-25 -25 -27 -73t11.5 -112.5t50.5 -191.5l186 -664l174 664q45 170 46 255t-38 122z" glyph-name="Wcircumflex" horiz-adv-x="1499" unicode="Ŵ"/><glyph d="M637 1274l-231 -113l-5 4l236 332l235 -332l-4 -4zM1038 1024h215q-43 -31 -72.5 -84t-66.5 -164l-272 -815h-2l-213 641l-213 -641h-2l-269 815q-35 106 -69.5 161.5t-83.5 86.5h377q-37 -31 -39 -86t30 -162l136 -448l67 204q41 123 5 271.5t-126 220.5h357 q-39 -31 -41 -86t30 -162l132 -448l143 448q33 109 25.5 162t-48.5 86z" glyph-name="wcircumflex" horiz-adv-x="1243" unicode="ŵ"/><glyph d="M492 1683l-232 -112l-4 4l236 332l235 -332l-4 -4zM725 1434h248q-137 -102 -238 -377l-151 -410v-270q0 -147 11 -224t27.5 -100.5t55.5 -52.5h-408q39 29 55.5 52.5t28 100t11.5 224.5v268l-144 412q-100 285 -211 377h379q-18 -18 -23.5 -44t4 -76t21.5 -94t41 -137 q6 -18 8 -26l107 -346l121 346q37 106 50 149t26.5 99.5t7 83.5t-26.5 45z" glyph-name="Ycircumflex" horiz-adv-x="980" unicode="Ŷ"/><glyph d="M383 1274l-231 -113l-5 4l236 332l235 -332l-4 -4zM586 1024h217q-82 -55 -141 -248l-236 -737q-25 -76 -44.5 -125t-57 -122t-88 -111.5t-109.5 -38.5q-72 0 -94 32v201q66 -25 141 -25q88 0 139.5 41t51.5 121q0 29 -8.5 70t-16.5 66.5t-29.5 88t-27.5 82.5l-150 457 q-61 190 -143 248h389q-51 -29 -55.5 -85t28.5 -163l125 -448l131 448q31 109 25 163t-47 85z" glyph-name="ycircumflex" horiz-adv-x="790" unicode="ŷ"/><glyph d="M330 1616q-49 0 -84 40t-35 95q0 53 35 93t84 40q51 0 86 -40t35 -93q0 -55 -35 -95t-86 -40zM649 1616q-49 0 -85 40t-36 95q0 53 36 93t85 40t85 -40t36 -93q0 -55 -36 -95t-85 -40zM725 1434h248q-137 -102 -238 -377l-151 -410v-270q0 -147 11 -224t27.5 -100.5 t55.5 -52.5h-408q39 29 55.5 52.5t28 100t11.5 224.5v268l-144 412q-100 285 -211 377h379q-18 -18 -23.5 -44t4 -76t21.5 -94t41 -137q6 -18 8 -26l107 -346l121 346q37 106 50 149t26.5 99.5t7 83.5t-26.5 45z" glyph-name="Ydieresis" horiz-adv-x="980" unicode="Ÿ"/><glyph d="M651 1739l-352 -168l-2 4l209 332q37 -12 90 -70.5t55 -97.5zM268 33q250 20 349.5 114.5t205.5 401.5l-73 -549h-719l555 1397q-123 -10 -196 -35t-133 -85t-99 -143t-95 -239l74 539h697z" glyph-name="Zacute" horiz-adv-x="874" unicode="Ź"/><glyph d="M664 1329l-353 -168l-2 4l209 332q37 -12 90.5 -70.5t55.5 -97.5zM293 47q143 0 243.5 73t186.5 277l-70 -397h-612l446 977h-51q-127 0 -203.5 -68.5t-166.5 -281.5l69 397h594l-446 -977h10z" glyph-name="zacute" horiz-adv-x="770" unicode="ź"/><glyph d="M420 1616q-51 0 -86 40t-35 95q0 53 35 93t86 40q49 0 84 -40t35 -93q0 -55 -35 -95t-84 -40zM268 33q250 20 349.5 114.5t205.5 401.5l-73 -549h-719l555 1397q-123 -10 -196 -35t-133 -85t-99 -143t-95 -239l74 539h697z" glyph-name="Zdotaccent" horiz-adv-x="874" unicode="Ż"/><glyph d="M432 1206q-51 0 -86 40t-35 95q0 53 35 93.5t86 40.5q49 0 84 -40t35 -94q0 -55 -35 -95t-84 -40zM293 47q143 0 243.5 73t186.5 277l-70 -397h-612l446 977h-51q-127 0 -203.5 -68.5t-166.5 -281.5l69 397h594l-446 -977h10z" glyph-name="zdotaccent" horiz-adv-x="770" unicode="ż"/><glyph d="M653 1903l-235 -332l-236 332l4 4l232 -113l231 113zM268 33q250 20 349.5 114.5t205.5 401.5l-73 -549h-719l555 1397q-123 -10 -196 -35t-133 -85t-99 -143t-95 -239l74 539h697z" glyph-name="Zcaron" horiz-adv-x="874" unicode="Ž"/><glyph d="M666 1493l-236 -332l-235 332l4 4l231 -113l232 113zM293 47q143 0 243.5 73t186.5 277l-70 -397h-612l446 977h-51q-127 0 -203.5 -68.5t-166.5 -281.5l69 397h594l-446 -977h10z" glyph-name="zcaron" horiz-adv-x="770" unicode="ž"/><glyph d="M756 1903l-236 -332l-235 332l4 4l231 -113l232 113zM1034 0h-366q25 25 27.5 72t-11.5 113.5t-51 189.5h-381q-47 -166 -47 -253t39 -122h-234q106 98 189 377l321 1089l342 -1089q94 -303 172 -377zM621 422l-185 620l-172 -620h357z" glyph-name="uni01CD" unicode="Ǎ"/><glyph d="M389 1161l-235 332l4 4l231 -113l232 113l4 -4zM215 -20q-74 0 -124 53t-50 147q0 72 31.5 134.5t80 104.5t104.5 90t104.5 90t80 105.5t31.5 137.5q0 164 -82 164q-37 0 -94 -70t-120.5 -175.5t-74.5 -117.5h-4q8 72 19.5 199t13.5 153q119 49 285 49q139 0 198.5 -67.5 t59.5 -216.5v-576q0 -90 84 -90q20 0 35 10q0 -43 -54.5 -83.5t-113.5 -40.5q-66 0 -109 53t-43 133q0 16 -8 16q-14 0 -44 -50t-82 -101t-124 -51zM350 152q39 0 81 57t42 127v219q0 47 -16 47q-47 0 -124 -92t-77 -217q0 -72 27.5 -106.5t66.5 -34.5z" glyph-name="uni01CE" horiz-adv-x="813" unicode="ǎ"/><glyph d="M266 1571l-235 332l4 4l231 -113l232 113l4 -4zM61 0q39 29 55.5 52.5t28 100t11.5 224.5v680q0 147 -11.5 224t-28 100.5t-55.5 52.5h408q-39 -29 -54.5 -52.5t-26.5 -100.5t-11 -224v-680q0 -147 11 -224t26.5 -100.5t54.5 -52.5h-408z" glyph-name="uni01CF" horiz-adv-x="530" unicode="Ǐ"/><glyph d="M211 1161l-236 332l5 4l231 -113l231 113l4 -4zM51 0q59 78 60 205v579q0 127 -60 205l258 55v-839q0 -127 60 -205h-318z" glyph-name="uni01D0" horiz-adv-x="419" unicode="ǐ"/><glyph d="M524 1571l-235 332l4 4l231 -113l232 113l4 -4zM522 -20q-147 0 -252.5 112.5t-151.5 275t-46 349.5q0 195 46 357.5t151.5 271t254.5 108.5q147 0 253 -112.5t152 -275.5t46 -349q0 -195 -46 -357.5t-151.5 -271t-255.5 -108.5zM616 37q139 0 140 350q0 195 -35 419 t-113 406.5t-178 182.5q-139 0 -139 -348q0 -195 34.5 -420.5t112.5 -407.5t178 -182z" glyph-name="uni01D1" horiz-adv-x="1046" unicode="Ǒ"/><glyph d="M426 1161l-236 332l5 4l231 -113l231 113l5 -4zM418 -20q-170 0 -268.5 152.5t-98.5 379.5q0 231 105.5 381.5t275.5 150.5q168 0 267.5 -152.5t99.5 -379.5q0 -231 -106.5 -381.5t-274.5 -150.5zM498 35q102 0 102 244q0 92 -15.5 207.5t-44 231.5t-77.5 193.5 t-111 77.5q-102 0 -102 -244q0 -92 15.5 -207.5t44 -231.5t78 -193.5t110.5 -77.5z" glyph-name="uni01D2" horiz-adv-x="847" unicode="ǒ"/><glyph d="M584 1571l-236 332l4 4l232 -113l231 113l4 -4zM532 -20q-186 0 -281 122.5t-95 311.5v643q0 147 -11.5 224t-28 100.5t-55.5 52.5h398q-33 -29 -46.5 -52.5t-24.5 -101.5t-11 -223v-643q0 -164 60.5 -262.5t172.5 -98.5q111 0 166 97.5t55 263.5v643q0 147 -12 224 t-29.5 100.5t-56.5 52.5h254q-41 -29 -57.5 -52.5t-28.5 -100.5t-12 -224v-643q0 -193 -86.5 -313.5t-270.5 -120.5z" glyph-name="uni01D3" horiz-adv-x="1005" unicode="Ǔ"/><glyph d="M674 1493l-236 -332l-235 332l4 4l231 -113l232 113zM864 35l-258 -55v190q-180 -190 -319 -190q-176 0 -176 268v495q0 168 -60 246l258 55v-727q0 -170 135 -170q82 0 162 58v538q0 168 -59 246l258 55v-804q0 -127 59 -205z" glyph-name="uni01D4" horiz-adv-x="925" unicode="ǔ"/><glyph d="M555 1571l-236 332l5 4l231 -113l231 113l5 -4zM561 -20q-193 0 -341 214t-148 541q0 186 50 344t168 266.5t285 108.5q119 0 232 -35q6 -51 59 -526h-6q-98 240 -197.5 371t-181.5 131q-31 0 -61.5 -20.5t-62 -65.5t-51 -133.5t-19.5 -208.5q0 -203 51 -420t135 -363.5 t170 -146.5q31 0 40 21.5t9 72.5v127q0 213 -21.5 307t-80.5 154h385q-53 -59 -73.5 -154.5t-20.5 -306.5v-262h-4q-41 41 -101 41q-31 0 -93.5 -28.5t-121.5 -28.5z" glyph-name="Gcaron" horiz-adv-x="1015" unicode="Ǧ"/><glyph d="M647 1493l-235 -332l-236 332l4 4l232 -113l231 113zM350 219q266 -147 347 -218t81 -130q0 -102 -112.5 -170t-274.5 -68q-143 0 -251.5 49.5t-108.5 145.5q0 37 16 66.5t40 47t51.5 31t48 22.5t30.5 19.5t0 23.5t-43 32q-88 47 -88 98q0 27 23.5 52.5t93.5 74.5 q45 33 45 49q0 20 -41 45q-145 92 -146 293q0 162 94.5 252t227.5 90h410l-154 -135q70 -82 70 -207q0 -162 -92.5 -252t-225.5 -90q-61 0 -85.5 -9t-24.5 -34q-1 -41 69 -78zM338 977q-76 0 -76 -156q0 -141 47 -287.5t125 -146.5t78 156q0 137 -49 285.5t-125 148.5z M422 -330q143 0 143 88q0 98 -258 238q-41 23 -75.5 -12t-34.5 -103q0 -86 64.5 -148.5t160.5 -62.5z" glyph-name="gcaron" horiz-adv-x="821" unicode="ǧ"/><glyph d="M829 0h-305q-43 -43 -43 -78q0 -45 54.5 -95t54.5 -58q0 -55 -101.5 -124t-156.5 -69q-20 0 -33.5 14.5t-13.5 32.5q0 39 87 31t87 22q0 29 -56.5 79t-56.5 71q0 10 9.5 25.5t28.5 37t32.5 36t42 42t35.5 33.5h-433q39 29 55.5 52.5t28 100t11.5 224.5v680 q0 147 -11.5 224t-28 100.5t-55.5 52.5h766l35 -516h-6q-88 258 -169 360t-175 102q-80 0 -107.5 -72.5t-27.5 -248.5v-289q0 -35 24 -35q127 0 204 54.5t112 193.5h6v-543h-6q-35 141 -112 195.5t-204 54.5q-25 0 -24 -35v-280q0 -178 27.5 -250t113.5 -72q213 0 371 445h6 z" glyph-name="uni0228" horiz-adv-x="933" unicode="Ȩ"/><glyph d="M440 -20h-24q-25 -31 -25 -58q0 -45 54.5 -95t54.5 -58q0 -55 -101.5 -124t-156.5 -69q-20 0 -33.5 14.5t-13.5 32.5q0 39 87 31t87 22q0 29 -56.5 79t-56.5 71q0 27 131 158q-143 27 -239.5 177t-96.5 357q0 221 105.5 373.5t263.5 152.5q121 0 198.5 -87t71.5 -230 q-4 -88 -33 -129h-342q-39 0 -54 -12.5t-15 -46.5q0 -133 93 -257t251 -124q92 0 131 57q-23 -92 -96.5 -163.5t-184.5 -71.5zM395 999q-63 0 -113.5 -64.5t-50.5 -195.5q0 -53 15.5 -74.5t66.5 -21.5q174 0 174 209q0 147 -92 147z" glyph-name="uni0229" horiz-adv-x="780" unicode="ȩ"/><glyph d="M340 1044q162 0 276.5 -156.5t114.5 -381.5q0 -221 -106.5 -373.5t-264.5 -152.5q-121 0 -197.5 87t-70.5 230q4 88 33 129h340q39 0 54.5 12.5t15.5 46.5q0 133 -92.5 257t-252.5 124q-90 0 -129 -57q23 92 96.5 163.5t182.5 71.5zM467 381q-174 0 -174 -209 q0 -147 94 -147q61 0 111.5 64.5t50.5 195.5q0 53 -15.5 74.5t-66.5 21.5z" glyph-name="uni0259" horiz-adv-x="782" unicode="ə"/><glyph d="M20 1024v410h101v-410h-101z" glyph-name="uni02C8" horiz-adv-x="141" unicode="ˈ"/><glyph d="M-23 1161l-352 168q2 39 55.5 97.5t90.5 70.5l209 -332z" glyph-name="gravecomb" horiz-adv-x="0" unicode="̀"/><glyph d="M-373 1161l-2 4l207 332q37 -12 91 -70.5t57 -97.5z" glyph-name="acutecomb" horiz-adv-x="0" unicode="́"/><glyph d="M-508 1161l-4 4l236 332l235 -332l-4 -4l-231 113z" glyph-name="uni0302" horiz-adv-x="0" unicode="̂"/><glyph d="M-649 1208q20 61 50 122t78 114t95 53q33 0 115 -46t131 -46q82 0 121 92h10q-20 -63 -49 -122.5t-76 -113t-94 -53.5q-33 0 -115 46t-129 46q-88 0 -127 -92h-10z" glyph-name="tildecomb" horiz-adv-x="0" unicode="̃"/><glyph d="M-639 1241l55 170h564l-58 -170h-561z" glyph-name="uni0304" horiz-adv-x="0" unicode="̄"/><glyph d="M-209 1186q-82 0 -134 58.5t-52 137.5q0 49 16 93h6q0 -57 41 -97.5t123 -40.5q84 0 125 40t41 98h6q16 -43 17 -93q0 -80 -52.5 -138t-136.5 -58z" glyph-name="uni0306" horiz-adv-x="0" unicode="̆"/><glyph d="M-139 1206q-51 0 -86 40t-35 95q0 53 35 93.5t86 40.5q49 0 84 -40t35 -94q0 -55 -35 -95t-84 -40z" glyph-name="uni0307" horiz-adv-x="0" unicode="̇"/><glyph d="M-469 1206q-49 0 -84 40t-35 95q0 53 35 93.5t84 40.5q51 0 86 -40t35 -94q0 -55 -35 -95t-86 -40zM-149.5 1206q-49.5 0 -85 40t-35.5 95q0 53 35.5 93.5t85 40.5t85 -40t35.5 -94q0 -55 -35.5 -95t-85 -40z" glyph-name="uni0308" horiz-adv-x="0" unicode="̈"/><glyph d="M-163.5 1153q-59.5 0 -101.5 48t-42 113.5t42 113t101.5 47.5t101.5 -47.5t42 -113t-42 -113.5t-101.5 -48zM-164 1182q49 0 82 39t33 94t-33 93t-82 38t-82 -38t-33 -93t33 -94t82 -39z" glyph-name="uni030A" horiz-adv-x="0" unicode="̊"/><glyph d="M-700 1161l-2 4l206 332q37 -12 91.5 -70.5t56.5 -97.5zM-373 1161l-2 4l209 332q37 -12 90 -70.5t56 -97.5z" glyph-name="uni030B" horiz-adv-x="0" unicode="̋"/><glyph d="M-276 1161l-236 332l4 4l232 -113l231 113l4 -4z" glyph-name="uni030C" horiz-adv-x="0" unicode="̌"/><glyph d="M-160 -133q51 0 85 -43t34 -107q0 -84 -55.5 -165.5t-136.5 -124.5l-5 4q57 66 62 166q-45 6 -74 43.5t-29 91.5q0 55 35 95t84 40z" glyph-name="uni0326" horiz-adv-x="0" unicode="̦"/><glyph d="M-293 -424q-20 0 -33.5 14.5t-13.5 32.5q0 39 87 31t87 22q0 29 -56.5 79t-56.5 71q0 10 9.5 25.5t29 37t32.5 36t42 42t35 33.5h31q-43 -43 -43 -78q0 -45 54 -95t54 -58q0 -55 -101.5 -124t-156.5 -69z" glyph-name="uni0327" horiz-adv-x="0" unicode="̧"/><glyph d="M530 1616q-51 0 -85.5 40t-34.5 95q0 53 34.5 93t85.5 40q49 0 84 -40t35 -93q0 -55 -35 -95t-84 -40zM1026 1434q-57 -27 -79.5 -52.5t-36 -99.5t-13.5 -225v-516q0 -307 16 -582h-10l-686 1169v-751q0 -152 14.5 -225.5t39 -99t85.5 -52.5h-325q55 27 77.5 52.5t37 100 t14.5 224.5v680q0 147 -17.5 224t-41 100.5t-81.5 52.5h330q2 -20 13.5 -48t20.5 -44.5t32.5 -58.5t32.5 -58l389 -705v537q0 150 -14.5 224.5t-36 100t-76.5 52.5h315z" glyph-name="uni1E44" unicode="Ṅ"/><glyph d="M457 1206q-51 0 -86 40t-35 95q0 53 35 93.5t86 40.5q49 0 83.5 -40t34.5 -94q0 -55 -34.5 -95t-83.5 -40zM547 0q59 78 59 205v502q0 170 -135 170q-82 0 -162 -58v-614q0 -127 60 -205h-318q59 78 60 205v579q0 127 -60 205l258 55v-190q180 190 320 190 q176 0 176 -268v-571q0 -127 59 -205h-317z" glyph-name="uni1E45" horiz-adv-x="925" unicode="ṅ"/><glyph d="M940 1575l-2 -4l-352 168q2 39 55 97t90 71zM1255 1434h234q-111 -102 -189 -377l-311 -1090l-246 805l-229 -805l-332 1090q-90 299 -172 377h367q-25 -25 -27 -73t11.5 -112.5t50.5 -191.5l186 -660l70 275q29 119 22.5 207t-45.5 215q-84 266 -160 340h367 q-25 -25 -27 -73t11.5 -112.5t50.5 -191.5l186 -664l174 664q45 170 46 255t-38 122z" glyph-name="Wgrave" horiz-adv-x="1499" unicode="Ẁ"/><glyph d="M817 1165l-2 -4l-352 168q2 39 55 97.5t90 70.5zM1038 1024h215q-43 -31 -72.5 -84t-66.5 -164l-272 -815h-2l-213 641l-213 -641h-2l-269 815q-35 106 -69.5 161.5t-83.5 86.5h377q-37 -31 -39 -86t30 -162l136 -448l67 204q41 123 5 271.5t-126 220.5h357 q-39 -31 -41 -86t30 -162l132 -448l143 448q33 109 25.5 162t-48.5 86z" glyph-name="wgrave" horiz-adv-x="1243" unicode="ẁ"/><glyph d="M991 1739l-352 -168l-2 4l209 332q37 -12 90 -70.5t55 -97.5zM1255 1434h234q-111 -102 -189 -377l-311 -1090l-246 805l-229 -805l-332 1090q-90 299 -172 377h367q-25 -25 -27 -73t11.5 -112.5t50.5 -191.5l186 -660l70 275q29 119 22.5 207t-45.5 215 q-84 266 -160 340h367q-25 -25 -27 -73t11.5 -112.5t50.5 -191.5l186 -664l174 664q45 170 46 255t-38 122z" glyph-name="Wacute" horiz-adv-x="1499" unicode="Ẃ"/><glyph d="M870 1329l-352 -168l-2 4l209 332q37 -12 90 -70.5t55 -97.5zM1038 1024h215q-43 -31 -72.5 -84t-66.5 -164l-272 -815h-2l-213 641l-213 -641h-2l-269 815q-35 106 -69.5 161.5t-83.5 86.5h377q-37 -31 -39 -86t30 -162l136 -448l67 204q41 123 5 271.5t-126 220.5h357 q-39 -31 -41 -86t30 -162l132 -448l143 448q33 109 25.5 162t-48.5 86z" glyph-name="wacute" horiz-adv-x="1243" unicode="ẃ"/><glyph d="M598 1616q-49 0 -84 40t-35 95q0 53 35 93t84 40q51 0 86 -40t35 -93q0 -55 -35 -95t-86 -40zM917.5 1616q-49.5 0 -85 40t-35.5 95q0 53 35.5 93t85 40t85 -40t35.5 -93q0 -55 -35.5 -95t-85 -40zM1255 1434h234q-111 -102 -189 -377l-311 -1090l-246 805l-229 -805 l-332 1090q-90 299 -172 377h367q-25 -25 -27 -73t11.5 -112.5t50.5 -191.5l186 -660l70 275q29 119 22.5 207t-45.5 215q-84 266 -160 340h367q-25 -25 -27 -73t11.5 -112.5t50.5 -191.5l186 -664l174 664q45 170 46 255t-38 122z" glyph-name="Wdieresis" horiz-adv-x="1499" unicode="Ẅ"/><glyph d="M477 1206q-49 0 -84 40t-35 95q0 53 35 93.5t84 40.5q51 0 86 -40t35 -94q0 -55 -35 -95t-86 -40zM797 1206q-49 0 -85 40t-36 95q0 53 36 93.5t85 40.5t85 -40t36 -94q0 -55 -36 -95t-85 -40zM1038 1024h215q-43 -31 -72.5 -84t-66.5 -164l-272 -815h-2l-213 641 l-213 -641h-2l-269 815q-35 106 -69.5 161.5t-83.5 86.5h377q-37 -31 -39 -86t30 -162l136 -448l67 204q41 123 5 271.5t-126 220.5h357q-39 -31 -41 -86t30 -162l132 -448l143 448q33 109 25.5 162t-48.5 86z" glyph-name="wdieresis" horiz-adv-x="1243" unicode="ẅ"/><glyph d="M772 815q111 -49 181.5 -170t68.5 -291q-2 -178 -88 -276t-244 -98q-96 0 -184 20l-23 440h6q150 -420 240 -420q70 0 70 246q0 86 -9.5 170t-32 180.5t-73.5 155.5t-123 59l154 560q-27 12 -82 12q-135 0 -195.5 -129t-60.5 -420v-477q0 -141 6 -225t10 -98.5t19 -53.5 h-351q39 29 55.5 52.5t28 100t11.5 224.5v436q0 346 77.5 493.5t296.5 147.5q70 0 149 -20.5t120 -20.5q86 0 153 43l4 -2z" glyph-name="uni1E9E" horiz-adv-x="1073" unicode="ẞ"/><glyph d="M672 1575l-2 -4l-353 168q2 39 55.5 97t90.5 71zM725 1434h248q-137 -102 -238 -377l-151 -410v-270q0 -147 11 -224t27.5 -100.5t55.5 -52.5h-408q39 29 55.5 52.5t28 100t11.5 224.5v268l-144 412q-100 285 -211 377h379q-18 -18 -23.5 -44t4 -76t21.5 -94t41 -137 q6 -18 8 -26l107 -346l121 346q37 106 50 149t26.5 99.5t7 83.5t-26.5 45z" glyph-name="Ygrave" horiz-adv-x="980" unicode="Ỳ"/><glyph d="M565 1165l-2 -4l-352 168q2 39 55 97.5t90 70.5zM586 1024h217q-82 -55 -141 -248l-236 -737q-25 -76 -44.5 -125t-57 -122t-88 -111.5t-109.5 -38.5q-72 0 -94 32v201q66 -25 141 -25q88 0 139.5 41t51.5 121q0 29 -8.5 70t-16.5 66.5t-29.5 88t-27.5 82.5l-150 457 q-61 190 -143 248h389q-51 -29 -55.5 -85t28.5 -163l125 -448l131 448q31 109 25 163t-47 85z" glyph-name="ygrave" horiz-adv-x="790" unicode="ỳ"/><glyph d="M51 600v43h1065v-43h-1065z" glyph-name="endash" horiz-adv-x="1167" unicode="–"/><glyph d="M51 600v43h1454v-43h-1454z" glyph-name="emdash" horiz-adv-x="1556" unicode="—"/><glyph d="M207 1249q53 -10 88 -56t35 -108q0 -68 -42 -116.5t-102 -48.5q-61 0 -103 51t-42 131q0 102 66.5 200.5t166.5 151.5l5 -6q-68 -80 -72 -199z" glyph-name="quoteleft" horiz-adv-x="370" unicode="‘"/><glyph d="M186.5 1454q61.5 0 102.5 -51t41 -131q0 -102 -66.5 -200.5t-167.5 -151.5l-4 6q66 78 74 198q-53 8 -89 55.5t-36 108.5q0 68 42 117t103.5 49z" glyph-name="quoteright" horiz-adv-x="370" unicode="’"/><glyph d="M186.5 311q61.5 0 103.5 -52t42 -130q0 -102 -66.5 -200.5t-169.5 -151.5l-4 6q66 78 74 199q-53 8 -89 54t-36 109q0 68 42 117t103.5 49z" glyph-name="quotesinglbase" horiz-adv-x="372" unicode="‚"/><glyph d="M207 1249q53 -10 88 -56t35 -108q0 -68 -42 -116.5t-102 -48.5q-61 0 -103 51t-42 131q0 102 66.5 200.5t166.5 151.5l5 -6q-68 -80 -72 -199zM567 1249q53 -8 89 -55t36 -109q0 -68 -42 -116.5t-103.5 -48.5t-102.5 51t-41 131q0 102 67 200.5t167 151.5l4 -6 q-66 -78 -74 -199z" glyph-name="quotedblleft" horiz-adv-x="733" unicode="“"/><glyph d="M186.5 1454q61.5 0 102.5 -51t41 -131q0 -102 -66.5 -200.5t-167.5 -151.5l-4 6q66 78 74 198q-53 8 -89 55.5t-36 108.5q0 68 42 117t103.5 49zM547 1454q61 0 103 -51t42 -131q0 -102 -66.5 -200.5t-168.5 -151.5l-4 6q70 84 73 198q-53 10 -88 56.5t-35 107.5 q0 68 42.5 117t101.5 49z" glyph-name="quotedblright" horiz-adv-x="733" unicode="”"/><glyph d="M186.5 311q61.5 0 103.5 -52t42 -130q0 -102 -66.5 -200.5t-169.5 -151.5l-4 6q66 78 74 199q-53 8 -89 54t-36 109q0 68 42 117t103.5 49zM549 311q59 0 101 -52t42 -130q0 -102 -66.5 -200.5t-166.5 -151.5l-4 6q66 78 73 199q-53 8 -89 54t-36 109q0 68 42.5 117 t103.5 49z" glyph-name="quotedblbase" horiz-adv-x="733" unicode="„"/><glyph d="M655 1360v-43h-266v-1725h-41v1725h-266v43h266v483h41v-483h266z" glyph-name="dagger" horiz-adv-x="737" unicode="†"/><glyph d="M655 1317h-266v-1198h266v-43h-266v-484h-41v484h-266v43h266v1198h-266v43h266v483h41v-483h266v-43z" glyph-name="daggerdbl" horiz-adv-x="737" unicode="‡"/><glyph d="M315 315q-88 0 -150.5 72t-62.5 170t62.5 169t150.5 71q86 0 148.5 -71t62.5 -169t-61.5 -170t-149.5 -72z" glyph-name="bullet" horiz-adv-x="628" unicode="•"/><glyph d="M186 -20q-61 0 -103 48t-42 117q0 68 42 117t103 49q59 0 102.5 -49t43.5 -117q0 -70 -43.5 -117.5t-102.5 -47.5zM588 -20q-61 0 -103.5 48t-42.5 117q0 68 42 117t104 49q59 0 102 -49t43 -117q0 -70 -43 -117.5t-102 -47.5zM989 -20q-61 0 -103 48t-42 117 q0 68 42 117t103 49q59 0 102.5 -49t43.5 -117q0 -70 -43.5 -117.5t-102.5 -47.5z" glyph-name="ellipsis" horiz-adv-x="1175" unicode="…"/><glyph d="M256 942q-92 0 -148.5 75t-56.5 181.5t56.5 181t148.5 74.5t148.5 -74.5t56.5 -181t-56.5 -181.5t-148.5 -75zM201 307l551 1127h41l-551 -1127h-41zM256 979q78 0 122 63.5t44 155.5t-44 155.5t-122 63.5t-122 -63.5t-44 -155.5t44 -155.5t122 -63.5zM737 287 q-92 0 -148.5 74.5t-56.5 181t56.5 181.5t148.5 75t148.5 -75t56.5 -181.5t-56.5 -181t-148.5 -74.5zM1198 287q-92 0 -148.5 74.5t-56.5 181t56.5 181.5t148.5 75t148.5 -75t56.5 -181.5t-56.5 -181t-148.5 -74.5zM737 324q78 0 122 63.5t44 155.5t-44 155.5t-122 63.5 t-122 -63.5t-44 -155.5t44 -155.5t122 -63.5zM1198 324q78 0 122 63.5t44 155.5t-44 155.5t-122 63.5t-122 -63.5t-44 -155.5t44 -155.5t122 -63.5z" glyph-name="perthousand" horiz-adv-x="1454" unicode="‰"/><glyph d="M399 152l-348 385l348 385l2 -2l-172 -383l172 -383z" glyph-name="guilsinglleft" horiz-adv-x="452" unicode="‹"/><glyph d="M53 152l-2 2l172 383l-172 383l2 2l348 -385z" glyph-name="guilsinglright" horiz-adv-x="452" unicode="›"/><glyph d="M0 -203l430 1841h41l-430 -1841h-41z" glyph-name="fraction" horiz-adv-x="471" unicode="⁄"/><glyph d="M817 178q111 0 174 74q-23 -92 -120 -182t-222 -90q-178 0 -320.5 190t-162.5 487h-94v35h92v49v9h-92v34h92q4 129 35.5 245t89 213t153 154.5t215.5 57.5q127 0 240 -35q16 -129 57 -526h-6q-96 238 -195.5 371t-174.5 133q-29 0 -63 -22.5t-67.5 -68.5t-56 -136.5 t-22.5 -206.5q0 -86 12 -179h547v-34h-543q8 -35 10 -58h533v-35h-525q49 -209 153.5 -344t260.5 -135z" glyph-name="Euro" horiz-adv-x="1056" unicode="€"/><glyph d="M186 596q27 18 38.5 35.5t18.5 69t7 153.5v420q0 104 -14 119q-6 4 -17 4q-33 0 -131 -238q-27 -63 -43 -100h-4l10 379q66 -2 142 -2h290q76 0 142 2l10 -379h-4q-115 276 -135 309q-20 29 -39 29q-20 0 -25.5 -23.5t-5.5 -85.5v-14v-420q0 -102 7 -153.5t18.5 -69 t37.5 -35.5h-303zM1036 582l-229 647v-375q0 -104 9 -153.5t25.5 -68t57.5 -36.5h-221q37 18 52 36.5t23.5 68t8.5 153.5v324q0 102 -11.5 153t-26.5 68.5t-54 36.5h260l157 -496l144 494h219q-27 -18 -37 -35t-18.5 -69t-8.5 -152v-324q0 -100 8.5 -153.5t18.5 -69 t37 -35.5h-303q27 20 38 36.5t19 69t8 152.5v356z" glyph-name="trademark" horiz-adv-x="1490" unicode="™"/><glyph d="M1249 547v-43h-962l241 -242l-30 -31l-293 293v2l293 293l30 -31l-241 -241h962z" glyph-name="arrowleft" horiz-adv-x="1454" unicode="←"/><glyph d="M793 752l-31 -31l-242 242v-963h-43v963l-241 -242l-31 31l293 292h2z" glyph-name="arrowup" horiz-adv-x="997" unicode="↑"/><glyph d="M956 819l293 -293v-2l-293 -293l-30 31l241 242h-962v43h962l-241 241z" glyph-name="arrowright" horiz-adv-x="1454" unicode="→"/><glyph d="M762 324l31 -31l-293 -293h-2l-293 293l31 31l241 -242v962h43v-962z" glyph-name="arrowdown" horiz-adv-x="997" unicode="↓"/><glyph d="M1141 819l293 -293v-2l-293 -293l-31 31l242 242h-1065l241 -242l-30 -31l-293 293v2l293 293l30 -31l-241 -241h1065l-242 241z" glyph-name="arrowboth" horiz-adv-x="1638" unicode="↔"/><glyph d="M520 -6l242 242l31 -31l-293 -293h-2l-293 293l31 31l241 -242v1065l-241 -242l-31 31l293 293h2l293 -293l-31 -31l-242 242v-1065z" glyph-name="arrowupdn" horiz-adv-x="997" unicode="↕"/><glyph d="M958 299l-30 -31l-680 682v-342h-43v414l2 2h414v-43h-345z" glyph-name="uni2196" horiz-adv-x="1163" unicode="↖"/><glyph d="M956 1024l2 -2v-414h-43v342l-679 -682l-31 31l682 682h-344v43h413z" glyph-name="uni2197" horiz-adv-x="1163" unicode="↗"/><glyph d="M915 686h43v-414l-2 -2h-413v43h344l-682 682l31 31l679 -682v342z" glyph-name="uni2198" horiz-adv-x="1163" unicode="↘"/><glyph d="M958 995l-682 -682h345v-43h-414l-2 2v414h43v-342l680 682z" glyph-name="uni2199" horiz-adv-x="1163" unicode="↙"/><glyph d="M508 791q63 -74 63 -170q0 -109 -76.5 -185t-183.5 -76q-96 0 -168 62l-57 -60l-31 29l60 60q-63 74 -64 170q0 109 77 184.5t183 75.5q96 0 168 -62l58 60l30 -29zM96 621q0 -78 49 -138l301 305q-61 47 -135 48q-90 0 -152.5 -63.5t-62.5 -151.5zM311 406 q90 0 152.5 63t62.5 152q0 78 -49 137l-301 -305q61 -47 135 -47z" glyph-name="emptyset" horiz-adv-x="622" unicode="∅"/><glyph d="M532 1434v-1434h-43v1391h-385v-1391h-43v1434h471z" glyph-name="product" horiz-adv-x="593" unicode="∏"/><glyph d="M51 600v43h471v-43h-471z" glyph-name="minus" horiz-adv-x="573" unicode="−"/><glyph d="M51 -23l4 46q59 0 100.5 40.5t49.5 126.5l88 1031q8 98 57 155.5t142 57.5l-5 -45q-59 0 -100 -41t-49 -127l-88 -1031q-8 -98 -57.5 -155.5t-141.5 -57.5z" glyph-name="integral" horiz-adv-x="542" unicode="∫"/><glyph d="M133 438l-29 31l152 152l-154 155l31 29l180 -184zM51 184v43h314v-43h-314z" glyph-name="lessequal" horiz-adv-x="415" unicode="≤"/><glyph d="M283 438l-181 183l181 184l30 -29l-153 -155l151 -152zM51 184v43h314v-43h-314z" glyph-name="greaterequal" horiz-adv-x="415" unicode="≥"/><glyph d="M354 131l-303 662l303 661l303 -661zM354 207l262 586l-262 577l-262 -577z" glyph-name="lozenge" horiz-adv-x="708" unicode="◊"/><glyph d="M1034 0h-366q25 29 27.5 76t-11.5 110.5t-51 188.5h-391q-137 -360 -289 -515t-363 -155q-207 0 -340 124t-133 302q0 141 84 238.5t209 97.5q133 0 158 -107q-82 0 -142.5 -66.5t-60.5 -174.5q0 -139 97.5 -233.5t230.5 -94.5q86 0 158.5 43t142 145.5t127 225.5 t127 331.5t129 412.5t143.5 517l342 -1089q96 -301 172 -377zM440 1024q-94 -365 -182 -602h360z" glyph-name="A.swash.salt"/><glyph d="M428 438q-152 0 -254 151.5t-102 371.5q0 211 97 352t269 141q90 0 168 -33q27 -193 39 -364h-2q-88 186 -145.5 271t-110.5 85q-51 0 -95 -70.5t-44 -224.5q0 -123 30.5 -233.5t107.5 -193.5t187 -83q80 0 115 56q-23 -90 -91.5 -158t-168.5 -68zM399 -18q-55 0 -93 44 t-38 105.5t38 105.5t93 44q53 0 91 -44t38 -105.5t-38 -105.5t-91 -44z" glyph-name="glyph336" horiz-adv-x="749"/><glyph d="M61 438q43 31 58.5 81t15.5 214v438q0 143 -15.5 187.5t-58.5 75.5h334q154 0 257.5 -114t103.5 -359q0 -248 -105.5 -385.5t-265.5 -137.5h-324zM426 481q129 0 129 365q0 254 -42 399.5t-124 145.5q-39 0 -54.5 -38t-15.5 -134v-521q1 -217 107 -217zM407.5 -18 q-55.5 0 -93.5 44t-38 105.5t38 105.5t93.5 44t93.5 -44t38 -105.5t-38 -105.5t-93.5 -44z" glyph-name="D.aalt.aalt" horiz-adv-x="827"/><glyph d="M420 438q-160 0 -254 146.5t-94 361.5q0 221 100 364.5t262 143.5q160 0 254 -146.5t94 -361.5q0 -221 -100 -364.5t-262 -143.5zM496 492q98 0 98 231q0 88 -14.5 198.5t-42 220t-74.5 184.5t-105 75q-98 0 -98 -232q0 -88 14.5 -198.5t41 -220t75 -184t105.5 -74.5z M426 -18q-53 0 -91 44t-38 105.5t38 105.5t91 44q55 0 93 -44t38 -105.5t-38 -105.5t-93 -44z" glyph-name="glyph338" horiz-adv-x="854"/><glyph d="M338 438q-133 0 -252 68l-10 344q47 -141 134 -256t169 -115q33 0 55.5 19.5t22.5 60.5q0 66 -115 211l-135 178q-98 131 -119 185q-16 45 -16 92q0 100 68.5 164.5t189.5 64.5q147 0 223 -68l35 -325q-10 18 -35 66.5t-38 72t-36.5 64.5t-40 61.5t-38 45t-43 34.5 t-42.5 10q-29 0 -49 -21.5t-20 -62.5q0 -70 84 -186l135 -180q4 -6 35.5 -46t41 -52.5t33 -47.5t32.5 -55.5t17.5 -50t8.5 -56.5q0 -98 -83 -158.5t-212 -60.5zM342 -18q-55 0 -93 44t-38 105.5t38 105.5t93 44t93 -44t38 -105.5t-38 -105.5t-93 -44z" glyph-name="glyph339" horiz-adv-x="673"/><glyph d="M215 438q35 31 48 54.5t23.5 90t10.5 195.5v451q0 49 -1 71.5t-5 48t-14.5 35t-28.5 9.5q-33 0 -76 -92.5t-125 -329.5h-6l22 467q84 -4 201 -4h258q117 0 201 4l22 -467h-6q-82 238 -125 330t-77 92q-33 0 -40.5 -35t-7.5 -129v-451q0 -129 10.5 -195.5t24 -90 t47.5 -54.5h-356zM393 -18q-53 0 -92 44t-39 105q0 59 39 104.5t92 45.5q55 0 93 -44t38 -105.5t-38 -105.5t-93 -44z" glyph-name="glyph340" horiz-adv-x="786"/><glyph d="M524 -33l-342 1090q-96 301 -172 377h367q-25 -29 -28 -76t11.5 -111.5t51.5 -189.5l196 -666q141 520 241.5 788.5t196 378t222.5 109.5q113 0 171 -58.5t58 -142.5q0 -98 -72.5 -158.5t-171.5 -41.5q23 70 -14 124t-109 54q-121 0 -210 -217t-314 -983 q-53 -179 -82 -277z" glyph-name="V.aalt.aalt"/><glyph d="M1763 1667q111 0 170.5 -58.5t59.5 -142.5q0 -98 -73 -158.5t-171 -41.5q23 70 -15 124t-110 54q-119 0 -209 -219t-313 -979q-53 -180 -82 -279l-256 813l-240 -813l-342 1090q-4 10 -21.5 65.5t-24.5 76t-25.5 66.5t-30.5 70.5t-31.5 53t-38.5 45.5h367 q-25 -29 -28 -76t11.5 -111.5t51.5 -189.5l196 -664l80 279q31 119 25 201.5t-47 220.5q-88 268 -160 340h366q-25 -29 -27.5 -76t11.5 -111.5t51 -189.5l197 -666q127 508 231.5 785.5t201.5 384t226 106.5z" glyph-name="W.aalt.aalt" horiz-adv-x="1540"/><glyph d="M1034 0h-366q25 25 27.5 72t-11.5 113.5t-51 191.5l-8 31q-35 -55 -138.5 -107.5t-267.5 -64.5q-35 -176 25 -236h-234q76 70 140 233h-15q-358 0 -554.5 188.5t-196.5 471.5q0 225 123.5 362.5t306.5 137.5q141 0 238.5 -84t97.5 -207q0 -133 -107 -158 q0 80 -65.5 141.5t-174.5 61.5q-139 0 -234 -101.5t-95 -246.5q0 -205 184 -365t487 -160h21q27 78 33 103l321 1089l342 -1089q94 -303 172 -377zM227 279q180 16 282.5 89.5t84.5 137.5l4 -14l-162 550l-184 -665q-15 -55 -25 -98zM594 506v2v-2z" glyph-name="A.swash"/><glyph d="M600 788q127 -10 227.5 -124.5t100.5 -288.5q0 -184 -114 -279.5t-265 -95.5h-488q39 29 55.5 52.5t28 100t11.5 224.5v639q0 113 -25 189.5t-69 111.5t-86 47t-95 12q-150 0 -216 -70.5t-66 -168.5q0 -123 89 -190.5t167 -43.5q18 -96 -43.5 -168.5t-157.5 -72.5 q-104 0 -177 86t-73 231q0 84 28.5 159.5t91 144.5t179.5 110t274 41h553q125 0 223.5 -80t98.5 -246q0 -152 -81 -231t-171 -89zM475 1391q-57 0 -77.5 -65.5t-20.5 -268.5v-252q264 10 264 293q0 119 -42 206t-124 87zM528 43q94 0 129 70.5t35 203.5q0 438 -315 451v-391 q0 -197 38.5 -265.5t112.5 -68.5z" glyph-name="B.aalt" horiz-adv-x="968"/><glyph d="M477 1434q219 0 360.5 -178.5t141.5 -526.5t-142.5 -538.5t-369.5 -190.5h-406q39 29 55.5 52.5t28 100t11.5 224.5v639q0 113 -25 189.5t-69 111.5t-86 47t-95 12q-150 0 -216 -70.5t-66 -168.5q0 -123 89 -190.5t167 -43.5q18 -96 -43.5 -168.5t-157.5 -72.5 q-104 0 -177 86t-73 231q0 84 28.5 159.5t91 144.5t179.5 110t274 41h500zM532 55q63 0 107.5 35t68 105.5t34 157.5t10.5 208q0 360 -72 588.5t-203 228.5q-59 0 -79.5 -53t-20.5 -207v-786q-1 -277 155 -277z" glyph-name="D.aalt" horiz-adv-x="1048"/><glyph d="M889 498h6l-66 -498h-768q39 29 55.5 52.5t28 100t11.5 224.5v639q0 113 -25 189.5t-69 111.5t-86 47t-95 12q-150 0 -216 -70.5t-66 -168.5q0 -123 89 -190.5t167 -43.5q18 -96 -43.5 -168.5t-157.5 -72.5q-104 0 -177 86t-73 231q0 84 28.5 159.5t91 144.5t179.5 110 t274 41h850l35 -516h-6q-88 258 -169 360t-175 102q-80 0 -107.5 -72.5t-27.5 -248.5v-289q0 -35 24 -35q127 0 204 54.5t112 193.5h6v-543h-6q-35 141 -112 195.5t-204 54.5q-25 0 -24 -35v-280q0 -178 27.5 -250t113.5 -72q213 1 371 445z" glyph-name="E.aalt" horiz-adv-x="933"/><glyph d="M512 1380q-80 0 -107.5 -72.5t-27.5 -248.5v-307q0 -35 24 -35q127 0 204 56t110 202h8v-563h-8q-33 145 -110 202.5t-204 57.5q-25 0 -24 -35v-260q0 -147 11 -224t26.5 -100.5t54.5 -52.5h-408q39 29 55.5 52.5t28 100t11.5 224.5v639q0 113 -25 189.5t-69 111.5 t-86 47t-95 12q-150 0 -216 -70.5t-66 -168.5q0 -123 89 -190.5t167 -43.5q18 -96 -43.5 -168.5t-157.5 -72.5q-104 0 -177 86t-73 231q0 84 28.5 159.5t91 144.5t179.5 110t274 41h844l35 -516h-6q-88 256 -169 359t-169 103z" glyph-name="F.aalt" horiz-adv-x="907"/><glyph d="M918 377q0 -147 11 -224t27.5 -100.5t55.5 -52.5h-410q39 29 55.5 52.5t27.5 99t11 221.5q0 106 -91 199.5t-228 142.5v-338q0 -147 11 -224t26.5 -100.5t54.5 -52.5h-408q39 29 55.5 52.5t28 100t11.5 224.5v375q-182 -4 -282.5 -110.5t-100.5 -295.5q0 -119 40 -216 t105 -122q-57 -31 -121 -31q-133 0 -206.5 103.5t-73.5 241.5q0 215 176 349t420 134q29 0 43 -2v254q0 147 -11.5 224t-28 100.5t-55.5 52.5h408q-39 -29 -54.5 -52.5t-26.5 -100.5t-11 -224v-299q102 -39 246 -146q57 -43 67 -24q6 10 6 35v434q0 147 -11 224t-27.5 100.5 t-55.5 52.5h410q-39 -29 -55.5 -52.5t-27.5 -100.5t-11 -224v-680z" glyph-name="H.aalt" horiz-adv-x="1071"/><glyph d="M377 377q0 -147 11 -224t26.5 -100.5t54.5 -52.5h-408q39 29 55.5 52.5t28 100t11.5 224.5v639q0 113 -25 189.5t-69 111.5t-86 47t-95 12q-150 0 -216 -70.5t-66 -168.5q0 -123 89 -190.5t167 -43.5q18 -96 -43.5 -168.5t-157.5 -72.5q-104 0 -177 86t-73 231 q0 84 28.5 159.5t91 144.5t179.5 110t274 41h492q-39 -29 -54.5 -52.5t-26.5 -100.5t-11 -224v-680z" glyph-name="I.aalt" horiz-adv-x="530"/><glyph d="M526 1434q-39 -29 -55 -52.5t-27.5 -100.5t-11.5 -224v-729q0 -205 -79 -316.5t-214 -111.5q-68 0 -129 32v7q201 33 201 337v740q0 113 -24.5 189.5t-68.5 111.5t-86 47t-95 12q-150 0 -219.5 -71.5t-69.5 -167.5q0 -123 89 -190.5t167 -43.5q20 -96 -41.5 -168.5 t-159.5 -72.5q-104 0 -177 86t-73 231q0 84 30 159.5t93.5 144.5t181 110t275.5 41h493z" glyph-name="J.aalt" horiz-adv-x="555"/><glyph d="M377 377q0 -147 11 -224t26.5 -100.5t54.5 -52.5h-408q39 29 55.5 52.5t28 100t11.5 224.5v639q0 113 -25 189.5t-69 111.5t-86 47t-95 12q-150 0 -216 -70.5t-66 -168.5q0 -123 89 -190.5t167 -43.5q18 -96 -43.5 -168.5t-157.5 -72.5q-104 0 -177 86t-73 231 q0 84 28.5 159.5t91 144.5t179.5 110t274 41h492q-39 -29 -54.5 -52.5t-26.5 -100.5t-11 -224v-680zM725 492q109 -250 161 -347.5t97 -144.5h-326q-14 94 -143 410l-129 309q176 264 249 399t73 209q0 72 -64 107h322q-82 -41 -171 -159t-245 -380z" glyph-name="K.aalt" horiz-adv-x="983"/><glyph d="M825 561h6l-77 -561h-736q39 29 55.5 52.5t28 100t11.5 224.5v639q0 360 -252 360q-135 0 -198.5 -71.5t-63.5 -167.5q0 -123 89 -190.5t167 -43.5q18 -96 -43.5 -168.5t-157.5 -72.5q-104 0 -177 86t-73 231q0 82 27.5 158.5t86 145.5t166 110t250.5 41h494 q-39 -29 -55.5 -52.5t-27.5 -100.5t-11 -224v-682q0 -176 27.5 -249t111.5 -73q94 0 173 119t179 389z" glyph-name="L.aalt" horiz-adv-x="862"/><glyph d="M1149 377q0 -213 18.5 -275.5t75.5 -101.5h-409q39 29 55 52.5t27.5 100t11.5 224.5v764l-340 -1161l-375 1157v-760q0 -152 14.5 -225.5t39 -99t85.5 -52.5h-325q55 27 77.5 52.5t37 100t14.5 224.5v639q0 113 -25 189.5t-69 111.5t-86 47t-95 12q-150 0 -216 -70.5 t-66 -168.5q0 -123 89 -190.5t167 -43.5q18 -96 -43.5 -168.5t-157.5 -72.5q-104 0 -177 86t-73 231q0 84 28.5 159.5t91 144.5t179.5 110t274 41h388l303 -981l290 981h285q-57 -39 -75.5 -101.5t-18.5 -275.5v-680z" glyph-name="M.aalt" horiz-adv-x="1302"/><glyph d="M1030 1434q-55 -27 -76.5 -52.5t-36 -100.5t-14.5 -224v-516q0 -262 15 -582h-11l-694 1171v-753q0 -152 14.5 -225.5t39 -99t85.5 -52.5h-325q55 27 77.5 52.5t37 100t14.5 224.5v639q0 113 -25 189.5t-69 111.5t-86 47t-95 12q-150 0 -216 -70.5t-66 -168.5 q0 -123 89 -190.5t167 -43.5q18 -96 -43.5 -168.5t-157.5 -72.5q-104 0 -177 86t-73 231q0 84 28.5 159.5t91 144.5t179.5 110t274 41h371q6 -49 98 -209l400 -709v541q0 150 -14.5 224.5t-37 100t-77.5 52.5h313z" glyph-name="N.aalt" horiz-adv-x="1050"/><glyph d="M432 596q236 18 236 395q0 170 -45 279.5t-140 109.5q-59 0 -82.5 -64.5t-23.5 -258.5v-680q0 -147 11 -224t26.5 -100.5t54.5 -52.5h-408q39 29 55.5 52.5t28 100t11.5 224.5v639q0 113 -25 189.5t-69 111.5t-86 47t-95 12q-150 0 -216 -70.5t-66 -168.5 q0 -123 89 -190.5t167 -43.5q18 -96 -43.5 -168.5t-157.5 -72.5q-104 0 -177 86t-73 231q0 84 28.5 159.5t91 144.5t179.5 110t274 41h553q63 0 124 -21.5t117 -67t91 -134.5t35 -207q0 -424 -465 -424v16z" glyph-name="P.aalt" horiz-adv-x="937"/><glyph d="M1827 -195l4 -8q-25 -209 -324 -209q-152 0 -308.5 61.5t-260.5 134.5t-220 134.5t-196 61.5q-147 0 -252.5 112.5t-151.5 275t-46 349.5q0 195 46 357.5t151.5 271t254.5 108.5q147 0 253 -112.5t152 -275.5t46 -349q0 -248 -78 -443.5t-229 -263.5q68 -4 181.5 -47 t220 -91t256 -87t282.5 -39t219 59zM291 1047q0 -195 34.5 -420.5t112.5 -407.5t178 -182q139 0 140 350q0 195 -35 419t-113 406.5t-178 182.5q-139 0 -139 -348z" glyph-name="Q.aalt" horiz-adv-x="1058"/><glyph d="M670 731q207 -516 268 -622q51 -90 94 -107q-39 -12 -102 -12q-98 0 -175 72.5t-122 176t-80 207t-67.5 176t-65.5 72.5v6q106 0 153.5 18.5t56.5 49.5t9 106q0 506 -172 506q-51 0 -70.5 -64.5t-19.5 -258.5v-680q0 -147 11 -224t26.5 -100.5t54.5 -52.5h-408 q39 29 55.5 52.5t28 100t11.5 224.5v639q0 113 -25 189.5t-69 111.5t-86 47t-95 12q-150 0 -216 -70.5t-66 -168.5q0 -123 89 -190.5t167 -43.5q18 -96 -43.5 -168.5t-157.5 -72.5q-104 0 -177 86t-73 231q0 84 28.5 159.5t91 144.5t179.5 110t274 41h564q141 0 236 -103.5 t95 -263.5q1 -236 -202 -336z" glyph-name="R.aalt" horiz-adv-x="1019"/><glyph d="M801 1434h233q-106 -98 -188 -377l-322 -1090l-342 1090q-100 319 -336 319q-119 0 -178 -70.5t-59 -162.5q0 -127 89 -195.5t167 -44.5q20 -96 -41.5 -168.5t-159.5 -72.5q-104 0 -177 86t-73 231q0 84 29 159.5t92.5 144.5t184 110t284.5 41h502q-102 -27 -124 -116 t30 -261l196 -668l185 668q47 168 47 255t-39 122z" glyph-name="V.aalt"/><glyph d="M1296 1434h234q-106 -98 -189 -377l-321 -1090l-256 813l-240 -813l-342 1090q-100 319 -336 319q-119 0 -178 -70.5t-59 -162.5q0 -127 89 -195.5t167 -44.5q20 -96 -41.5 -168.5t-159.5 -72.5q-104 0 -177 86t-73 231q0 84 29 159.5t92.5 144.5t184 110t284.5 41h502 q-102 -27 -124 -116t30 -261l196 -664l80 279q31 123 25 207t-47 215q-88 270 -160 340h366q-25 -25 -27.5 -72t11.5 -113.5t51 -191.5l197 -666l184 666q47 168 47 255t-39 122z" glyph-name="W.aalt" horiz-adv-x="1540"/><glyph d="M524 0q27 25 27 67t-19.5 109.5t-70.5 200.5l-94 248l-103 -248q-78 -190 -91 -265t26 -112h-238q66 45 127.5 127t126.5 250l125 315l-137 365q-123 319 -353 319q-119 0 -179 -71.5t-60 -161.5q0 -127 89 -195.5t169 -44.5q18 -96 -43.5 -168.5t-159.5 -72.5 q-102 0 -175 86t-73 231q0 82 28 155.5t87 141t172 111t266 47.5h539q-211 -53 -90 -377l69 -185l76 185q74 184 83 266t-34 111h238q-59 -41 -113.5 -122t-124.5 -255l-98 -250l164 -430q109 -289 227 -377h-383z" glyph-name="X.aalt" horiz-adv-x="917"/><glyph d="M211 1206q-51 0 -86 40t-35 95q0 53 35 93.5t86 40.5q49 0 84 -40t35 -94q0 -55 -35 -95t-84 -40zM51 0q59 78 60 205v579q0 127 -60 205l258 55v-839q0 -127 60 -205h-318z" glyph-name="i.locl" horiz-adv-x="419"/><glyph d="M758 94q20 0 35 10q0 -43 -54.5 -83.5t-113.5 -40.5q-66 0 -109 53t-43 133q0 16 -8 16q-14 0 -45 -50t-83 -101t-124 -51q-74 0 -123 53t-49 147q0 72 31.5 134.5t80 104.5t104.5 89t104.5 89t80 102.5t31.5 129.5q0 162 -129 162q-45 0 -61.5 -20.5t-10 -45t17.5 -66.5 t11 -68q0 -51 -29.5 -88t-78.5 -37q-43 0 -70 33.5t-27 93.5q0 109 97.5 180t238.5 71q127 0 184.5 -68.5t57.5 -215.5v-576q0 -90 84 -90zM473 336v219q0 47 -16 47q-47 0 -124 -92t-77 -217q0 -72 27.5 -106.5t66.5 -34.5t81 57t42 127z" glyph-name="a.salt" horiz-adv-x="813"/><glyph d="M51 0q59 78 60 205v579q0 127 -60 205l258 55v-839q0 -127 60 -205h-318z" glyph-name="i.salt" horiz-adv-x="419"/><glyph d="M872 1540q98 0 159 -53t61 -135t-64.5 -127t-163.5 -43q12 70 -19.5 107.5t-86.5 37.5q-70 0 -145.5 -60.5t-144.5 -174t-114 -309t-45 -437.5v-141q0 -127 60 -205h-318q59 78 60 205v579q0 127 -60 205l258 55v-346q53 373 205.5 607.5t357.5 234.5z" glyph-name="r.aalt" horiz-adv-x="538"/><glyph d="M551 0q59 78 59 205v502q0 160 -133 159q-66 0 -164 -53v-608q0 -127 60 -205h-318q59 78 60 205v876q0 223 -60.5 301t-163.5 78q-135 0 -197.5 -86t-62.5 -192q0 -129 89.5 -196.5t168.5 -43.5q18 -88 -42 -155.5t-154 -67.5q-100 0 -168 82t-68 223q0 82 27 160 t84 151.5t168.5 118.5t261.5 45h315v-647q162 193 320 192q176 0 176 -268v-571q0 -127 59 -205h-317z" glyph-name="h.aalt.aalt" horiz-adv-x="929"/><glyph d="M215 -20q-74 0 -124 53t-50 147q0 84 44 156t108.5 122t128 98t107.5 107.5t44 127.5q0 84 -41 127t-113 43q-88 0 -140 -53.5t-62 -119.5h-2l16 207q119 49 285 49q139 0 198.5 -67.5t59.5 -216.5v-576q0 -90 84 -90q20 0 35 10q0 -43 -54.5 -83.5t-113.5 -40.5 q-66 0 -109 53t-43 133q0 16 -8 16q-14 0 -44 -50t-82 -101t-124 -51zM350 152q39 0 81 57t42 127v219q0 47 -16 47q-47 0 -124 -92t-77 -217q0 -72 27.5 -106.5t66.5 -34.5z" glyph-name="a.ss02" horiz-adv-x="813"/><glyph d="M51 0q59 78 60 205v375q0 127 -60 204l258 56v-635q0 -127 60 -205h-318z" glyph-name="i.ss02" horiz-adv-x="419"/><glyph d="M1087 760q98 0 167 -82t69 -223q0 -66 -16.5 -129.5t-57.5 -127t-102.5 -111.5t-160.5 -77.5t-224 -29.5q-143 0 -216 51t-73 135q0 16 -8 16q-14 0 -44 -50t-82 -101t-124 -51q-74 0 -124 53t-50 147q0 72 31.5 134.5t80 104.5t104.5 90t104.5 90t80 105.5t31.5 137.5 q0 164 -82 164q-37 0 -94 -70t-120.5 -175.5t-74.5 -117.5h-4q8 72 19.5 199t13.5 153q119 49 285 49q139 0 198.5 -67.5t59.5 -216.5v-342q0 -170 23.5 -258t60.5 -112.5t102 -24.5q150 0 218.5 83.5t68.5 192.5q0 127 -89 194.5t-169 43.5q-16 88 45 155.5t153 67.5z M473 336v219q0 47 -16 47q-47 0 -124 -92t-77 -217q0 -72 27.5 -106.5t66.5 -34.5t81 57t42 127z" glyph-name="a.swash" horiz-adv-x="1323"/><glyph d="M1198 760q98 0 167 -82t69 -223q0 -84 -28 -163t-88.5 -151.5t-175 -116.5t-268.5 -44q-143 0 -215.5 51t-72.5 135v43q-27 -76 -93.5 -152.5t-154.5 -76.5q-117 0 -197 134t-80 343q0 250 117 418.5t314 168.5h94v185q0 127 -60 205l258 61v-1077q0 -170 23.5 -258 t60.5 -112.5t103 -24.5q150 0 218 83.5t68 192.5q0 127 -89 194.5t-167 43.5q-18 88 42.5 155.5t154.5 67.5zM477 168q51 0 80 24.5t29 55.5v573q0 182 -115 183q-92 0 -153.5 -112t-61.5 -274q0 -109 17.5 -202.5t69.5 -170.5t134 -77z" glyph-name="d.aalt" horiz-adv-x="1433"/><glyph d="M1198 760q100 0 169 -85t69 -237q0 -63 -12.5 -121.5t-47.5 -122t-89 -109.5t-146 -75.5t-213 -29.5q-137 0 -229.5 33.5t-92.5 68.5v625q0 170 -135 170q-82 0 -162 -58v-614q0 -127 60 -205h-318q59 78 60 205v1024q0 127 -60 205l258 65v-645q180 190 320 190 q176 0 176 -268v-475q0 -166 45 -222t139 -56q147 0 209 77.5t62 182.5q0 137 -89.5 207.5t-169.5 46.5q-18 88 42.5 155.5t154.5 67.5z" glyph-name="h.aalt" horiz-adv-x="1435"/><glyph d="M1694 760q100 0 168.5 -85t68.5 -237q0 -63 -12 -121.5t-47 -122t-89 -109.5t-146.5 -75.5t-213.5 -29.5q-137 0 -229 33.5t-92 68.5v625q0 170 -135 170q-80 0 -164 -60q2 -12 2 -41v-571q0 -127 59 -205h-317q59 78 59 205v502q0 170 -135 170q-82 0 -162 -58v-614 q0 -127 60 -205h-318q59 78 60 205v579q0 127 -60 205l258 55v-190q180 190 320 190q152 0 172 -194q178 195 323 194q176 0 176 -268v-475q0 -166 45.5 -222t139.5 -56q147 0 208.5 77.5t61.5 182.5q0 137 -89 207.5t-169 46.5q-18 88 42.5 155.5t154.5 67.5z" glyph-name="m.aalt" horiz-adv-x="1931"/><glyph d="M1198 760q100 0 169 -85t69 -237q0 -63 -12.5 -121.5t-47.5 -122t-89 -109.5t-146 -75.5t-213 -29.5q-137 0 -229.5 33.5t-92.5 68.5v625q0 170 -135 170q-82 0 -162 -58v-614q0 -127 60 -205h-318q59 78 60 205v579q0 127 -60 205l258 55v-190q180 190 320 190 q176 0 176 -268v-475q0 -166 45 -222t139 -56q147 0 209 77.5t62 182.5q0 137 -89.5 207.5t-169.5 46.5q-18 88 42.5 155.5t154.5 67.5z" glyph-name="n.aalt" horiz-adv-x="1435"/><glyph d="M1249 -145q113 0 212.5 -30t152.5 -77l-98 -188q-51 53 -153.5 82.5t-217.5 29.5q-170 0 -466 -99t-437 -99q-113 0 -216.5 41t-144.5 139q92 -82 161 -44t69 144v1024q0 127 -60 205l258 61v-229q27 76 93.5 152.5t154.5 76.5q115 0 196 -134t81 -343 q0 -250 -117 -418.5t-314 -168.5h-94v-259q0 -68 -36.5 -120t-69.5 -70t-47 -18q121 0 266 53t261 117.5t271.5 118t294.5 53.5zM309 776v-555q0 -201 115 -201q92 0 152.5 112t60.5 274q0 78 -10.5 150.5t-34 143t-68.5 113.5t-106 43q-51 0 -80 -24.5t-29 -55.5z" glyph-name="p.aalt" horiz-adv-x="894"/><glyph d="M457 911h-117v-678q0 -139 111 -139q25 0 63 10h2q-14 -41 -85 -82.5t-130 -41.5q-70 0 -115 57t-45 151v723h-121l320 418q0 -223 60.5 -301t162.5 -78q133 0 195.5 86t62.5 193q0 129 -89 195.5t-167 41.5q-18 90 42.5 158t154.5 68q100 0 167.5 -82t67.5 -224 q0 -82 -26.5 -159.5t-84 -151.5t-168.5 -119t-261 -45z" glyph-name="t.aalt" horiz-adv-x="536"/><glyph d="M1198 760q100 0 169 -85t69 -237q0 -63 -12.5 -121.5t-47.5 -122t-89 -109.5t-146 -75.5t-213 -29.5q-137 0 -229.5 33.5t-92.5 68.5v88q-180 -190 -319 -190q-176 0 -176 268v495q0 168 -60 246l258 55v-727q0 -170 135 -170q82 0 162 58v538q0 168 -59 246l258 55v-743 q0 -166 45 -222t139 -56q147 0 209 77.5t62 182.5q0 137 -89.5 207.5t-169.5 46.5q-18 88 42.5 155.5t154.5 67.5z" glyph-name="u.aalt" horiz-adv-x="1435"/><glyph d="M428 1655q63 0 119.5 -20.5t110 -64.5t85 -129t31.5 -200q0 -111 -50 -284t-247 -769q-49 -145 -76 -227h-2l-266 815q-61 190 -143 248h389q-51 -29 -55.5 -85t28.5 -163l127 -452q143 442 182 586.5t39 246.5q0 147 -54 213t-132 66q-76 0 -118 -55.5t-29 -127.5 q-90 -16 -151.5 36t-61.5 141q0 98 78.5 161.5t195.5 63.5z" glyph-name="v.aalt" horiz-adv-x="794"/><glyph d="M412 -39l-269 815q-35 106 -69.5 161.5t-83.5 86.5h377q-37 -31 -39 -86t30 -162l134 -446l69 202q41 123 5 271.5t-126 220.5h361q-39 -31 -41 -86t31 -162l129 -448q190 567 215 686q16 80 16 151q0 141 -55.5 206t-131 65t-117.5 -55.5t-30 -127.5q-90 -16 -151.5 36 t-61.5 141q0 98 79 161.5t198 63.5q137 0 240.5 -96.5t103.5 -309.5q0 -31 -2 -57.5t-9.5 -65.5t-15.5 -71.5t-27.5 -96t-36 -115.5t-50 -155.5t-63.5 -189.5t-82 -243t-97 -294h-2l-213 637l-213 -637h-2z" glyph-name="w.aalt" horiz-adv-x="1245"/><glyph d="M412 0q37 23 46 54.5t-1.5 70.5t-40.5 113l-78 186l-29 -80q-72 -197 -80 -247t31 -97h-250q45 35 68.5 57.5t76 96t103.5 182.5l64 127l-146 340q-59 135 -156 221h379q-53 -33 -53 -83t41 -138l96 -228q117 276 155 388t38 202q0 141 -54.5 206t-132.5 65 q-76 0 -116.5 -55.5t-30.5 -127.5q-90 -16 -151.5 36t-61.5 141q0 98 79 161.5t198 63.5q137 0 241.5 -96.5t104.5 -309.5q0 -98 -47.5 -230t-204.5 -482l127 -299q59 -147 164 -238h-379z" glyph-name="x.aalt" horiz-adv-x="800"/><glyph d="M127 -358q-72 0 -94 32v201q66 -25 141 -25q88 0 139.5 41t51.5 121q0 29 -8.5 70t-16.5 66.5t-29.5 88t-27.5 82.5l-150 457q-61 190 -143 248h389q-51 -29 -55.5 -85t28.5 -163l125 -450q137 391 179 551.5t42 269.5q0 154 -54 221.5t-132 67.5q-76 0 -118 -55.5 t-29 -127.5q-90 -16 -151.5 36t-61.5 141q0 98 78.5 161.5t195.5 63.5q139 0 242.5 -99.5t103.5 -324.5q0 -121 -58.5 -320.5t-287.5 -871.5q-18 -57 -27.5 -79.5t-33 -83t-44 -90.5t-51 -70t-66.5 -57t-77 -17z" glyph-name="y.aalt" horiz-adv-x="792"/><glyph d="M1004 109h2q-14 -43 -92 -86t-136 -43q-66 0 -111.5 58t-45.5 150v451q0 160 -61.5 244t-153.5 84q-51 0 -71 -26t-20 -79v-657q0 -154 80 -205h-348q70 59 70 205v721h-76q90 328 188.5 465t186.5 137q49 0 78.5 -37t29.5 -98q0 -66 -33.5 -111t-87.5 -45 q-35 0 -78.5 23.5t-68.5 23.5q-39 0 -62.5 -35t-23.5 -82q0 -150 238 -149q127 0 220 67.5t187 243.5h4v-307q104 0 166 6l-33 -117h-133v-718q0 -47 27.5 -73t77.5 -26q37 1 80 15z" glyph-name="f_t.dlig" horiz-adv-x="1026"/><glyph d="M51 0q70 59 70 205v721h-80q80 344 230.5 503.5t316.5 159.5q98 0 158.5 -54t60.5 -140q0 -96 -72.5 -142.5t-142.5 -21.5q4 51 -46 128t-138 77q-72 0 -112 -52.5t-40 -123.5q0 -106 87 -180t228 -74q137 0 238 38v-839q0 -127 59 -205h-319q59 78 59 205v434 q0 154 -60.5 241t-135.5 87q-43 0 -68 -28t-25 -77v-657q0 -154 80 -205h-348z" glyph-name="uniFB01.aalt" horiz-adv-x="917"/><glyph d="M432 -20q-172 0 -276.5 152.5t-104.5 379.5t104.5 379.5t276.5 152.5t276.5 -152.5t104.5 -379.5t-104.5 -379.5t-276.5 -152.5zM432 33q80 0 110.5 125t30.5 354t-30.5 354t-110.5 125q-82 0 -113.5 -124t-31.5 -355t31.5 -355t113.5 -124z" glyph-name="zero.aalt" horiz-adv-x="864"/><glyph d="M10 0q92 20 127 69.5t35 155.5v494q0 113 -19.5 145.5t-121.5 67.5v10l350 143v-860q0 -106 35 -155.5t127 -69.5h-533z" glyph-name="one.aalt" horiz-adv-x="552"/><glyph d="M10 0q264 274 366.5 424.5t102.5 263.5q0 82 -44 134t-128 52q-154 0 -237 -227h-9q8 76 31 141.5t64 126t111.5 95t160.5 34.5q135 0 212 -76.5t77 -183.5q0 -223 -445 -557q203 0 327 24.5t179 100.5l-125 -352h-643z" glyph-name="two.aalt" horiz-adv-x="808"/><glyph d="M432 440q133 29 230.5 -49t97.5 -248q0 -223 -143.5 -398t-344.5 -175q-158 0 -262 84q123 -27 224.5 2t161 96.5t92 149.5t32.5 166q0 82 -31.5 132t-79 61t-86 10t-67.5 -11l338 537h-55q-207 0 -308.5 -28t-162.5 -126l114 381h627z" glyph-name="three.aalt" horiz-adv-x="860"/><glyph d="M821 20h-137v-153q0 -127 59 -205l-327 -57q59 78 59 205v210h-465l674 1055v-948h176zM475 127v545l-346 -545h346z" glyph-name="four.aalt" horiz-adv-x="880"/><glyph d="M461 473q121 0 197.5 -95t76.5 -261q0 -219 -126 -383t-320 -164q-74 0 -144.5 21.5t-103.5 46.5q207 -41 334 85.5t127 313.5q0 121 -57.5 192.5t-168.5 71.5q-92 0 -186 -59l41 782h133q391 0 461 43l-100 -270h-449l-24 -445q176 121 309 121z" glyph-name="five.aalt" horiz-adv-x="786"/><glyph d="M463 -20q-170 0 -280.5 171t-110.5 474q0 354 144 591.5t359 237.5q74 0 123 -20q-102 0 -178 -60.5t-119 -167t-62.5 -233.5t-19.5 -279q0 -104 7.5 -206.5t24 -214t51 -180t83.5 -68.5q61 0 91 93t30 228q0 94 -14 173t-44 146.5t-87.5 97.5t-134.5 11q76 147 227 148 q125 0 200.5 -134.5t75.5 -310.5q0 -217 -102 -357t-264 -140z" glyph-name="six.aalt" horiz-adv-x="878"/><glyph d="M834 1024q-170 -158 -342.5 -603.5t-147.5 -830.5h-246q-12 193 44.5 400t147.5 365.5t177 272t151 169.5h-141q-188 0 -292.5 -28t-164.5 -126l113 381h701z" glyph-name="seven.aalt" horiz-adv-x="800"/><glyph d="M535 829q14 -16 54 -65t53 -65.5t45 -57.5t43 -61.5t31.5 -56.5t28 -61.5t14.5 -59t7 -66.5q0 -156 -109.5 -256t-281.5 -100q-166 0 -267.5 97t-101.5 253q0 133 73 229t185 150q-104 129 -153.5 219t-49.5 196q0 145 91.5 237.5t236.5 92.5q135 0 217 -83t82 -216 q1 -201 -198 -326zM440 1405q-47 0 -82.5 -40t-35.5 -112q0 -160 192 -399q72 109 72 242q0 119 -37 214t-109 95zM426 29q57 0 99 52t42 148q0 88 -47 181.5t-164 240.5l-30 37q-90 -125 -90 -297q0 -139 54 -250.5t136 -111.5z" glyph-name="eight.aalt" horiz-adv-x="862"/><glyph d="M418 1044q168 0 279.5 -171t111.5 -474q0 -352 -145.5 -590.5t-358.5 -238.5q-74 0 -123 20q135 0 223.5 108.5t122 267.5t33.5 364q0 104 -7 206.5t-23.5 214t-51.5 180t-84 68.5q-61 0 -91 -93t-30 -228q0 -94 13.5 -173t44 -146.5t88 -97.5t135.5 -11 q-80 -147 -227 -148q-125 0 -201 133.5t-76 311.5q0 217 101.5 357t265.5 140z" glyph-name="nine.aalt" horiz-adv-x="880"/></font>
</defs>
</svg>
